<svg width="48" height="50" viewBox="0 0 48 50" fill="none" xmlns="http://www.w3.org/2000/svg">
<path d="M26.1574 0.379456H24.2573V9.75621H26.1574V0.379456Z" fill="#0D233C"/>
<path d="M26.1574 40.1602H24.2573V49.5345H26.1574V40.1602Z" fill="#0D233C"/>
<path d="M7.137 16.5207L6.41479 18.275L10.7578 20.0566L11.4801 18.3023L7.137 16.5207Z" fill="#0D233C"/>
<path d="M10.7773 29.902L6.92334 31.4995L7.65198 33.2511L11.5059 31.6537L10.7773 29.902Z" fill="#0D233C"/>
<path d="M18.8009 6.10797L17.0327 6.80219L18.7513 11.1641L20.5195 10.4699L18.8009 6.10797Z" fill="#0D233C"/>
<path d="M18.1774 38.4742L16.4404 42.3943L18.1781 43.1616L19.9151 39.2414L18.1774 38.4742Z" fill="#0D233C"/>
<path d="M9.979 24.0098H0.585693V25.9065H9.979V24.0098Z" fill="#0D233C"/>
<path d="M13.769 35.0446L7.12695 41.675L8.47048 43.0161L15.1126 36.3858L13.769 35.0446Z" fill="#0D233C"/>
<path d="M8.47048 6.90768L7.12695 8.24884L13.769 14.8792L15.1126 13.538L8.47048 6.90768Z" fill="#0D233C"/>
<path d="M47.8017 18.4975H38.14V0.535889L23.5643 25.7358H33.2284V27.7771C32.0314 31.1627 28.8108 33.4387 25.2102 33.4387C20.5242 33.4387 16.7123 29.6335 16.7123 24.9558C16.7123 20.2781 20.5242 16.4728 25.2102 16.4728V14.5761C19.4768 14.5761 14.8123 19.2325 14.8123 24.9558C14.8123 30.679 19.4768 35.3354 25.2102 35.3354C28.369 35.3354 31.288 33.9034 33.2284 31.5657V43.6974L47.804 18.4952L47.8017 18.4975ZM26.8538 23.8391L36.2376 7.61291V20.3942H44.5099L35.126 36.6204V23.8391H26.8538Z" fill="#0D233C"/>
</svg>
