<svg width="50" height="42" viewBox="0 0 50 42" fill="none" xmlns="http://www.w3.org/2000/svg">
<path d="M40.0923 37.9855L24.3278 22.2488L17.4095 29.1548L1.9531 13.7283L0.449951 15.2288L17.4095 32.1558L24.3278 25.2472L38.5918 39.4834L32.218 39.6L32.2578 41.7209L42.1531 41.5406L42.3337 31.6601L40.2091 31.623L40.0923 37.9855Z" fill="#0D233C"/>
<path d="M29.5726 17.8613C29.2486 17.8613 28.9724 17.9753 28.7467 18.2006C28.5209 18.426 28.4067 18.7017 28.4067 19.0251C28.4067 19.3485 28.5209 19.6242 28.752 19.8496C28.983 20.0749 29.2566 20.1889 29.57 20.1889H33.0941V23.0547C33.0941 23.3781 33.211 23.6539 33.442 23.8792C33.6731 24.1045 33.9546 24.2185 34.2892 24.2185C34.6026 24.2185 34.8761 24.1045 35.1072 23.8792C35.3382 23.6539 35.4551 23.3781 35.4551 23.0547V20.2154H39.0058C39.3298 20.2154 39.6087 20.0988 39.845 19.8681C40.0814 19.6375 40.1983 19.3644 40.1983 19.0516V15.022C40.1983 14.7092 40.0814 14.4361 39.845 14.2055C39.6087 13.9748 39.3298 13.8608 39.0058 13.8608H30.7943V12.1986H39.035C39.359 12.1986 39.6379 12.082 39.8743 11.846C40.1106 11.6101 40.2275 11.3317 40.2275 11.0083C40.2275 10.6848 40.108 10.4224 39.8743 10.1917C39.6379 9.9611 39.359 9.84711 39.035 9.84711H35.4551V7.00781C35.4551 6.68438 35.3409 6.41132 35.1152 6.18333C34.8894 5.95799 34.6185 5.84399 34.3025 5.84399C33.9333 5.84399 33.6386 5.96064 33.4208 6.19129C33.203 6.42193 33.0941 6.69499 33.0941 7.00781V9.84711H29.5992C29.2752 9.84711 28.999 9.9611 28.7732 10.1864C28.5475 10.4118 28.4333 10.6875 28.4333 11.0109V15.0273C28.4333 15.3587 28.5475 15.637 28.7732 15.8571C28.999 16.0798 29.2752 16.1885 29.5992 16.1885H37.8107V17.8639H29.57L29.5726 17.8613Z" fill="#0D233C"/>
<path d="M34.3185 0.223755C26.0086 0.223755 19.2498 6.97072 19.2498 15.2659C19.2498 17.3708 19.6773 19.4095 20.5219 21.3209L22.4659 20.4673C21.7408 18.8263 21.3744 17.0766 21.3744 15.2659C21.3744 8.13984 27.1798 2.34461 34.3185 2.34461C41.4571 2.34461 47.2626 8.13984 47.2626 15.2659C47.2626 21.1089 43.3188 26.2413 37.6727 27.7498L38.2224 29.799C44.798 28.044 49.3898 22.0685 49.3898 15.2659C49.3898 6.97072 42.6309 0.223755 34.3211 0.223755H34.3185Z" fill="#0D233C"/>
</svg>
