<svg width="35" height="41" viewBox="0 0 35 41" fill="none" xmlns="http://www.w3.org/2000/svg">
<path d="M30.8329 38.2989V26.2315H23.3534V38.2989H20.6635V18.9088H13.1839V38.2989H10.494V14.1617H3.0145V38.2989H0.00268555V40.2465H34.3861V38.2989H30.8305H30.8329ZM4.96791 38.2989V16.1092H8.54551V38.2989H4.96791ZM15.1374 38.2989V20.8563H18.715V38.2989H15.1374ZM25.3068 38.2989V28.1791H28.8844V38.2989H25.3068Z" fill="#0D233C"/>
<path d="M11.6154 0.682797L10.7893 2.44714L19.2731 6.40524L20.0992 4.6409L11.6154 0.682797Z" fill="#0D233C"/>
<path d="M11.6139 10.5576L10.7878 12.322L19.2717 16.2801L20.0977 14.5157L11.6139 10.5576Z" fill="#0D233C"/>
<path d="M24.4387 16.007L25.1093 17.8352L31.1622 15.6248L28.9405 9.58497L27.1091 10.2569L28.1772 13.1563L4.40461 2.06262L3.57788 3.82758L27.3798 14.9334L24.4387 16.007Z" fill="#0D233C"/>
</svg>
