<svg width="61" height="61" viewBox="0 0 61 61" fill="none" xmlns="http://www.w3.org/2000/svg">
<g clip-path="url(#clip0_40_1084)">
<path d="M29.6763 53.7988H37.1854L34.1769 44.5582L33.2419 41.6815L31.7387 37.0601L29.6588 30.6722L37.1701 23.0847L35.927 21.859L28.2977 29.5642H4.93359L7.94204 38.8049L8.87713 41.6815L10.3803 46.3029L12.8207 53.7988H20.0916V58.6863H13.5504V60.431H35.9838V58.6863H29.3486V53.7988H29.6785H29.6763ZM10.7145 41.6837L9.77945 38.807H15.4511L16.3862 41.6837L17.3213 44.5604H11.6518L10.7167 41.6837H10.7145ZM31.4045 41.6837L32.3395 44.5604H26.6678L25.7327 41.6837L24.7977 38.807H30.4694L31.4045 41.6837ZM23.8953 41.6837L24.8304 44.5604H19.1587L18.2236 41.6837L17.2886 38.807H22.9603L23.8953 41.6837ZM20.664 49.1796L19.729 46.3029H25.4007L26.3358 49.1796L27.2708 52.0562H21.5991L20.664 49.1796ZM29.3486 52.0562H29.1104L28.1753 49.1796L27.2403 46.3029H32.912L34.7843 52.054H29.3508L29.3486 52.0562ZM28.029 31.3134L29.9013 37.0645H24.2296L23.2945 34.1878L22.3594 31.3112H28.0311L28.029 31.3134ZM20.5199 31.3134L21.4549 34.19L22.39 37.0667H16.7183L15.7832 34.19L14.8481 31.3134H20.5199ZM13.0107 31.3134L13.9458 34.19L14.8809 37.0667H9.2114L7.33904 31.3155H13.0107V31.3134ZM12.2199 46.3051H17.8916L18.8266 49.1818L19.7617 52.0584H14.09L12.2177 46.3073L12.2199 46.3051ZM21.8395 58.6884V53.801H27.6007V58.6884H21.8395Z" fill="#0D233C"/>
<path d="M42.752 9.97729C39.2695 9.97729 36.4358 12.806 36.4358 16.2824C36.4358 19.7588 39.2695 22.5875 42.752 22.5875C46.2346 22.5875 49.0682 19.7588 49.0682 16.2824C49.0682 12.806 46.2346 9.97729 42.752 9.97729ZM42.752 20.8427C40.2329 20.8427 38.1836 18.797 38.1836 16.2824C38.1836 13.7678 40.2329 11.722 42.752 11.722C45.2711 11.722 47.3204 13.7678 47.3204 16.2824C47.3204 18.797 45.2711 20.8427 42.752 20.8427Z" fill="#0D233C"/>
<path d="M43.6265 2.12372H41.8787V7.52371H43.6265V2.12372Z" fill="#0D233C"/>
<path d="M43.6265 25.0388H41.8787V30.4388H43.6265V25.0388Z" fill="#0D233C"/>
<path d="M56.9337 15.41H51.5242V17.1547H56.9337V15.41Z" fill="#0D233C"/>
<path d="M33.9784 15.41H28.5688V17.1547H33.9784V15.41Z" fill="#0D233C"/>
<path d="M49.5733 21.8559L48.3374 23.0896L52.1625 26.908L53.3984 25.6742L49.5733 21.8559Z" fill="#0D233C"/>
<path d="M33.3406 5.65525L32.1047 6.88898L35.9299 10.7073L37.1658 9.47363L33.3406 5.65525Z" fill="#0D233C"/>
<path d="M52.1667 5.65569L48.3416 9.47406L49.5775 10.7078L53.4026 6.88941L52.1667 5.65569Z" fill="#0D233C"/>
</g>
<defs>
<clipPath id="clip0_40_1084">
<rect width="60" height="60" fill="white" transform="translate(0.194824 0.449219)"/>
</clipPath>
</defs>
</svg>
