<svg width="47" height="37" viewBox="0 0 47 37" fill="none" xmlns="http://www.w3.org/2000/svg">
<path d="M46.1986 15.7491L45.6429 13.9856L3.52124 27.1809L4.07693 28.9444L23.6096 22.8241L15.9456 36.0771H33.7742L25.7259 22.163L46.1963 15.7491H46.1986ZM19.1548 34.2281L24.8599 24.3634L30.5651 34.2281H19.1525H19.1548Z" fill="#0D233C"/>
<path d="M15.4104 20.5982L17.3484 11.9215L10.7912 5.90747L2.2937 8.57011L0.355713 17.2468L6.9129 23.2608L15.4104 20.5982ZM3.86816 10.0147L10.3235 7.99228L15.3062 12.5617L13.8336 19.1536L7.3783 21.176L2.39557 16.6065L3.86816 10.0147Z" fill="#0D233C"/>
<path d="M36.9064 14.4547C40.655 14.4547 43.7044 11.4107 43.7044 7.6687C43.7044 3.92669 40.655 0.88269 36.9064 0.88269C33.1578 0.88269 30.1084 3.92669 30.1084 7.6687C30.1084 11.4107 33.1578 14.4547 36.9064 14.4547ZM36.9064 2.73405C39.6339 2.73405 41.8521 4.94829 41.8521 7.67102C41.8521 10.3937 39.6339 12.608 36.9064 12.608C34.1789 12.608 31.9607 10.3937 31.9607 7.67102C31.9607 4.94829 34.1789 2.73405 36.9064 2.73405Z" fill="#0D233C"/>
</svg>
