<svg width="233" height="227" viewBox="0 0 233 227" fill="none" xmlns="http://www.w3.org/2000/svg">
<g clip-path="url(#clip0_60_4618)">
<path d="M90.8373 143.751L64.981 158.693L84.4657 169.948H99.4643L90.8373 143.751Z" fill="#120D0C"/>
<path d="M77.6257 115.755L32.6174 141.754L39.0014 145.453H48.8239L53.5687 148.19H61.7767L63.8595 140.275L63.3295 135.147H49.5633L80.374 117.345L77.6257 115.755Z" fill="#120D0C"/>
<path d="M61.7766 148.19L50.3027 141.569V136.17L61.7766 142.79V148.19Z" fill="#120D0C"/>
<path d="M61.7769 142.79V148.189L74.4092 140.904V135.504L61.7769 142.79Z" fill="#FCEBCC"/>
<path d="M62.9351 128.872L50.3027 136.17L61.7766 142.79L74.409 135.504L62.9351 128.872Z" fill="#FEBD33"/>
<path d="M68.2964 132.163V136.096L68.8387 135.775V131.843L68.2964 132.163Z" fill="#FEBD33"/>
<path d="M68.2592 129.316C67.9388 128.576 67.4828 127.873 66.9652 127.281C66.5215 126.776 66.0286 126.357 65.4986 126.049C64.562 125.506 63.7116 125.457 63.1077 125.814L62.5654 126.135C63.1816 125.777 64.0197 125.827 64.9563 126.369C65.4863 126.677 65.9793 127.097 66.4229 127.602C66.9406 128.194 67.3965 128.909 67.717 129.636C68.0867 130.474 68.2962 131.35 68.2962 132.163L68.8385 131.843C68.8385 131.029 68.629 130.154 68.2592 129.316Z" fill="#FCEBCC"/>
<path d="M64.9564 126.369C63.0955 125.297 61.5919 126.16 61.5796 128.292V132.225L68.2963 136.096V132.163C68.2963 130.031 66.8051 127.429 64.9564 126.369Z" fill="#120D0C"/>
<g style="mix-blend-mode:screen">
<path d="M66.9654 127.281L66.4231 127.602C66.9407 128.194 67.3967 128.909 67.7171 129.636L68.2594 129.316C67.939 128.576 67.483 127.873 66.9654 127.281Z" fill="#684242"/>
</g>
<path d="M63.6993 84.5165L67.4582 82.3345L67.4459 135.406L63.687 137.588L63.6993 84.5165Z" fill="#FEBD33"/>
<path d="M66.8173 79.5485C66.4599 78.7349 65.9546 77.9459 65.3754 77.2925C64.8824 76.7378 64.3402 76.257 63.7486 75.9241C62.7134 75.3324 61.7767 75.2707 61.1112 75.6652L57.3523 77.8473C58.0301 77.4528 58.9668 77.5144 59.9897 78.1061C60.5689 78.439 61.1235 78.9198 61.6165 79.4745C62.1957 80.1402 62.6887 80.9169 63.0584 81.7305C63.4651 82.6551 63.6993 83.6167 63.6993 84.5166L67.4582 82.3346C67.4582 81.447 67.224 80.4731 66.8173 79.5485Z" fill="#B7A8A4"/>
<g style="mix-blend-mode:screen">
<path d="M61.6165 79.4745L65.3754 77.2925C65.9546 77.9582 66.4476 78.7348 66.8173 79.5485L63.0584 81.7305C62.701 80.9168 62.1957 80.1279 61.6165 79.4745Z" fill="#684242"/>
</g>
<path d="M59.9896 78.106C62.0355 79.2894 63.6992 82.1618 63.6869 84.5164V137.587L56.2554 133.297V80.2264C56.2554 77.8717 57.9315 76.9225 59.9773 78.106H59.9896Z" fill="#120D0C"/>
<path d="M62.356 135.591V139.523L62.8982 139.215V135.27L62.356 135.591Z" fill="#FEBD33"/>
<path d="M62.3191 132.743C61.9986 132.003 61.5426 131.3 61.025 130.709C60.5813 130.203 60.0884 129.784 59.5584 129.476C58.6218 128.934 57.7714 128.884 57.1675 129.242L56.6252 129.562C57.2415 129.205 58.0795 129.254 59.0162 129.796C59.5461 130.105 60.0391 130.524 60.4827 131.029C61.0004 131.621 61.4564 132.336 61.7768 133.063C62.1465 133.902 62.356 134.777 62.356 135.591L62.8983 135.27C62.8983 134.456 62.6888 133.581 62.3191 132.743Z" fill="#FCEBCC"/>
<path d="M59.016 129.796C57.155 128.724 55.6515 129.587 55.6392 131.72V135.652L62.3559 139.523V135.591C62.3559 133.458 60.8647 130.857 59.016 129.796Z" fill="#120D0C"/>
<g style="mix-blend-mode:screen">
<path d="M61.0249 130.709L60.4827 131.029C61.0003 131.621 61.4563 132.336 61.7767 133.063L62.319 132.743C61.9986 132.003 61.5426 131.3 61.0249 130.709Z" fill="#684242"/>
</g>
<path d="M56.4896 89.8544L52.6937 89.4846L44.3132 61.8704L48.1091 62.2402L56.4896 89.8544Z" fill="#120D0C"/>
<path d="M48.1091 62.2401L44.3132 61.8703L63.6007 51.1821L67.3966 51.5396L48.1091 62.2401Z" fill="#FEBD33"/>
<path d="M67.3966 51.5398L75.7771 79.154L56.4896 89.8545L48.1091 62.2403L67.3966 51.5398Z" fill="#130E0C"/>
<path d="M78.772 96.5114L76.0976 96.3018L65.6589 62.8442L68.3333 63.0538L78.772 96.5114Z" fill="#120D0C"/>
<path d="M68.3333 63.0538L65.6589 62.8443L114.488 34.6506L117.15 34.8479L68.3333 63.0538Z" fill="#FCEBCC"/>
<path d="M117.15 34.8479L127.601 68.3055L78.7719 96.5114L68.3333 63.0539L117.15 34.8479Z" fill="#FEBD33"/>
<path d="M80.6083 93.3185L79.4991 92.8254L77.8477 87.6601L78.353 86.2424L82.765 83.7275L83.8742 84.2207L85.5134 89.386L85.0081 90.7913L80.6083 93.3185Z" fill="#130E0C"/>
<path d="M78.3652 86.2424L78.6117 86.1068L80.8547 93.1706L80.6083 93.3062L78.3652 86.2424ZM85.0203 90.779L82.7773 83.7275L82.5308 83.8631L84.7739 90.927L85.008 90.7913L85.0203 90.779Z" fill="white"/>
<path d="M78.168 85.6506L77.0588 85.1575L75.4197 79.9921L75.925 78.5744L80.3247 76.0596L81.4339 76.5527L83.0731 81.718L82.5678 83.1234L78.168 85.6506Z" fill="#130E0C"/>
<path d="M75.925 78.5744L76.1715 78.4388L78.4146 85.5026L78.1681 85.6382L75.925 78.5744ZM82.5802 83.1111L80.3371 76.0596L80.0907 76.1952L82.3337 83.259L82.5678 83.1234L82.5802 83.1111Z" fill="white"/>
<path d="M75.7278 77.9829L74.6186 77.4897L72.9795 72.3244L73.4848 70.919L77.8969 68.3918L79.0061 68.885L80.6452 74.0503L80.1399 75.468L75.7278 77.9829Z" fill="#130E0C"/>
<path d="M73.4849 70.9067L73.7313 70.7711L75.9744 77.8349L75.7279 77.9705L73.4849 70.9067ZM80.14 75.4433L77.897 68.3918L77.6505 68.5275L79.8935 75.5913L80.1277 75.4557L80.14 75.4433Z" fill="white"/>
<path d="M73.3001 70.3149L72.1909 69.8218L70.5518 64.6564L71.0571 63.2511L75.4568 60.7239L76.566 61.217L78.2051 66.3823L77.6998 67.8L73.3001 70.3149Z" fill="#130E0C"/>
<path d="M71.0569 63.2512L71.3034 63.1156L73.5464 70.1794L73.2999 70.315L71.0569 63.2512ZM77.712 67.7878L75.469 60.7363L75.2225 60.8719L77.4655 67.9357L77.6997 67.8001L77.712 67.7878Z" fill="white"/>
<path d="M87.2141 89.5339L86.105 89.0408L84.4658 83.8754L84.9711 82.4577L89.3832 79.9429L90.4924 80.436L92.1315 85.6013L91.6262 87.0067L87.2141 89.5339Z" fill="#130E0C"/>
<path d="M84.9712 82.4577L85.2177 82.3221L87.4607 89.3859L87.2142 89.5215L84.9712 82.4577ZM91.6263 86.9944L89.3833 79.9429L89.1368 80.0785L91.3798 87.1423L91.614 87.0067L91.6263 86.9944Z" fill="white"/>
<path d="M84.7862 81.8662L83.677 81.373L82.0378 76.2077L82.5431 74.8023L86.9429 72.2751L88.0521 72.7683L89.6912 77.9336L89.1859 79.339L84.7862 81.8662Z" fill="#130E0C"/>
<path d="M82.5432 74.79L82.7897 74.6544L85.0327 81.7182L84.7862 81.8538L82.5432 74.79ZM89.1983 79.3266L86.9553 72.2751L86.7088 72.4108L88.9518 79.4746L89.186 79.339L89.1983 79.3266Z" fill="white"/>
<path d="M82.346 74.1982L81.2368 73.7051L79.5977 68.5397L80.1029 67.1344L84.515 64.6072L85.6242 65.1003L87.2634 70.2656L86.7581 71.6833L82.346 74.1982Z" fill="#130E0C"/>
<path d="M80.103 67.1345L80.3495 66.9989L82.5925 74.0627L82.346 74.1983L80.103 67.1345ZM86.7581 71.6711L84.5151 64.6196L84.2686 64.7552L86.5117 71.819L86.7458 71.6834L86.7581 71.6711Z" fill="white"/>
<path d="M79.9182 66.5303L78.809 66.0372L77.1699 60.8719L77.6752 59.4665L82.075 56.9517L83.1842 57.4324L84.8233 62.5978L84.318 64.0155L79.9182 66.5303Z" fill="#130E0C"/>
<path d="M77.675 59.4665L77.9215 59.3309L80.1646 66.3947L79.9181 66.5303L77.675 59.4665ZM84.3302 64.0031L82.0871 56.9517L81.8407 57.0873L84.0837 64.1511L84.3178 64.0155L84.3302 64.0031Z" fill="white"/>
<path d="M93.8323 85.7492L92.7231 85.2561L91.084 80.0908L91.5893 78.6854L96.0014 76.1582L97.1106 76.6513L98.7497 81.8167L98.2444 83.222L93.8323 85.7492Z" fill="#130E0C"/>
<path d="M91.5891 78.6731L91.8356 78.5375L94.0786 85.6013L93.8321 85.7369L91.5891 78.6731ZM98.2442 83.2097L96.0012 76.1582L95.7547 76.2938L97.9977 83.3576L98.2319 83.222L98.2442 83.2097Z" fill="white"/>
<path d="M91.4043 78.0815L90.2951 77.5884L88.656 72.423L89.1613 71.0177L93.5611 68.4905L94.6703 68.9836L96.3094 74.1489L95.8041 75.5666L91.4043 78.0815Z" fill="#130E0C"/>
<path d="M89.1614 71.0176L89.4079 70.8819L91.6509 77.9458L91.4044 78.0814L89.1614 71.0176ZM95.8165 75.5542L93.5735 68.5027L93.327 68.6383L95.57 75.7021L95.8042 75.5665L95.8165 75.5542Z" fill="white"/>
<path d="M88.9641 70.4136L87.855 69.9205L86.2158 64.7552L86.7211 63.3498L91.1209 60.835L92.2301 61.3157L93.8815 66.4811L93.3762 67.8988L88.9641 70.4136Z" fill="#130E0C"/>
<path d="M86.7212 63.3498L86.9677 63.2142L89.2107 70.278L88.9642 70.4136L86.7212 63.3498ZM93.3763 67.8864L91.1333 60.835L90.8868 60.9706L93.1298 68.0344L93.364 67.8988L93.3763 67.8864Z" fill="white"/>
<path d="M86.5362 62.7457L85.427 62.2526L83.7878 57.0996L84.2808 55.6819L88.6929 53.167L89.8021 53.6601L91.4412 58.8131L90.9359 60.2308L86.5362 62.7457Z" fill="#130E0C"/>
<path d="M84.2932 55.6819L84.5397 55.5463L86.7827 62.6101L86.5362 62.7457L84.2932 55.6819ZM90.9483 60.2185L88.7053 53.167L88.4588 53.3026L90.7018 60.3664L90.936 60.2308L90.9483 60.2185Z" fill="white"/>
<path d="M100.45 81.9648L99.3413 81.4717L97.7021 76.3063L98.2074 74.901L102.62 72.3738L103.729 72.8669L105.368 78.0322L104.863 79.4499L100.45 81.9648Z" fill="#130E0C"/>
<path d="M98.2073 74.9009L98.4538 74.7652L100.697 81.8291L100.45 81.9647L98.2073 74.9009ZM104.862 79.4375L102.619 72.386L102.373 72.5216L104.616 79.5854L104.85 79.4498L104.862 79.4375Z" fill="white"/>
<path d="M98.0225 74.2967L96.9133 73.8036L95.2742 68.6382L95.7795 67.2329L100.179 64.718L101.288 65.1988L102.928 70.3641L102.422 71.7818L98.0225 74.2967Z" fill="#130E0C"/>
<path d="M95.7795 67.2329L96.026 67.0973L98.269 74.1611L98.0226 74.2967L95.7795 67.2329ZM102.435 71.7695L100.192 64.718L99.9451 64.8536L102.188 71.9174L102.422 71.7818L102.435 71.7695Z" fill="white"/>
<path d="M95.5823 66.629L94.4731 66.1359L92.834 60.9829L93.3393 59.5652L97.739 57.0503L98.8482 57.5434L100.487 62.6964L99.9944 64.1141L95.5823 66.629Z" fill="#130E0C"/>
<path d="M93.3394 59.5652L93.5858 59.4296L95.8289 66.4934L95.5824 66.629L93.3394 59.5652ZM99.9945 64.1018L97.7515 57.0503L97.505 57.1859L99.748 64.2497L99.9821 64.1141L99.9945 64.1018Z" fill="white"/>
<path d="M93.1544 58.961L92.0453 58.4802L90.3938 53.3149L90.8991 51.8972L95.3112 49.3823L96.4204 49.8754L98.0595 55.0284L97.5542 56.4461L93.1544 58.961Z" fill="#130E0C"/>
<path d="M90.9111 51.8972L91.1576 51.7616L93.4006 58.8254L93.1542 58.961L90.9111 51.8972ZM97.5662 56.4338L95.3232 49.3823L95.0767 49.5179L97.3198 56.5817L97.5539 56.4461L97.5662 56.4338Z" fill="white"/>
<path d="M107.069 78.1801L105.959 77.687L104.32 72.5217L104.826 71.1163L109.238 68.5891L110.335 69.0822L111.986 74.2476L111.481 75.6653L107.069 78.1801Z" fill="#130E0C"/>
<path d="M104.825 71.1162L105.072 70.9806L107.315 78.0444L107.068 78.18L104.825 71.1162ZM111.481 75.6528L109.238 68.6013L108.991 68.7369L111.234 75.8007L111.468 75.6651L111.481 75.6528Z" fill="white"/>
<path d="M104.641 70.5123L103.531 70.0192L101.892 64.8662L102.385 63.4485L106.797 60.9336L107.907 61.4267L109.546 66.5797L109.04 67.9974L104.641 70.5123Z" fill="#130E0C"/>
<path d="M102.398 63.4485L102.644 63.3129L104.887 70.3767L104.641 70.5123L102.398 63.4485ZM109.053 67.9851L106.81 60.9336L106.563 61.0692L108.806 68.133L109.04 67.9974L109.053 67.9851Z" fill="white"/>
<path d="M102.2 62.8443L101.091 62.3635L99.4521 57.1982L99.9574 55.7805L104.357 53.2656L105.466 53.7587L107.106 58.9117L106.6 60.3294L102.2 62.8443Z" fill="#130E0C"/>
<path d="M99.9575 55.7805L100.204 55.6449L102.447 62.7087L102.201 62.8443L99.9575 55.7805ZM106.613 60.3171L104.37 53.2656L104.123 53.4012L106.366 60.465L106.6 60.3294L106.613 60.3171Z" fill="white"/>
<path d="M99.7603 55.1887L98.6511 54.6956L97.012 49.5302L97.5173 48.1125L101.929 45.5977L103.039 46.0908L104.678 51.2561L104.172 52.6615L99.7603 55.1887Z" fill="#130E0C"/>
<path d="M97.5171 48.1125L97.7636 47.9769L100.007 55.0407L99.7601 55.1763L97.5171 48.1125ZM104.172 52.6491L101.929 45.5977L101.683 45.7333L103.926 52.7971L104.16 52.6615L104.172 52.6491Z" fill="white"/>
<path d="M113.687 74.3953L112.577 73.9022L110.938 68.7492L111.444 67.3315L115.843 64.8167L116.952 65.2974L118.592 70.4628L118.099 71.8805L113.687 74.3953Z" fill="#130E0C"/>
<path d="M111.444 67.3315L111.69 67.1959L113.933 74.2597L113.687 74.3953L111.444 67.3315ZM118.099 71.8681L115.856 64.8167L115.609 64.9523L117.852 72.0161L118.086 71.8805L118.099 71.8681Z" fill="white"/>
<path d="M111.259 66.7276L110.15 66.2345L108.51 61.0815L109.003 59.6638L113.416 57.1489L114.525 57.642L116.164 62.795L115.659 64.2127L111.259 66.7276Z" fill="#130E0C"/>
<path d="M109.016 59.6638L109.262 59.5282L111.505 66.592L111.259 66.7276L109.016 59.6638ZM115.671 64.2004L113.428 57.1489L113.181 57.2845L115.424 64.3483L115.658 64.2127L115.671 64.2004Z" fill="white"/>
<path d="M108.819 59.0596L107.709 58.5789L106.07 53.4135L106.576 51.9958L110.975 49.481L112.085 49.9741L113.724 55.1394L113.218 56.5448L108.819 59.0596Z" fill="#130E0C"/>
<path d="M106.575 51.9958L106.822 51.8602L109.065 58.924L108.818 59.0596L106.575 51.9958ZM113.231 56.5324L110.988 49.481L110.741 49.6166L112.984 56.6804L113.218 56.5448L113.231 56.5324Z" fill="white"/>
<path d="M106.378 51.4042L105.269 50.9111L103.63 45.7458L104.135 44.3281L108.548 41.8132L109.657 42.3063L111.296 47.4717L110.791 48.877L106.378 51.4042Z" fill="#130E0C"/>
<path d="M104.135 44.3281L104.382 44.1925L106.625 51.2563L106.378 51.3919L104.135 44.3281ZM110.79 48.8647L108.547 41.8132L108.301 41.9488L110.544 49.0127L110.778 48.877L110.79 48.8647Z" fill="white"/>
<path d="M120.305 70.6109L119.196 70.1178L117.556 64.9648L118.062 63.5471L122.461 61.0322L123.571 61.5253L125.21 66.6783L124.717 68.096L120.305 70.6109Z" fill="#130E0C"/>
<path d="M118.062 63.5471L118.308 63.4115L120.551 70.4753L120.305 70.6109L118.062 63.5471ZM124.717 68.0837L122.474 61.0322L122.227 61.1678L124.47 68.2316L124.704 68.096L124.717 68.0837Z" fill="white"/>
<path d="M117.865 62.9429L116.755 62.4622L115.116 57.2968L115.622 55.8791L120.034 53.3643L121.143 53.8574L122.782 59.0227L122.277 60.4281L117.865 62.9429Z" fill="#130E0C"/>
<path d="M115.622 55.8791L115.868 55.7435L118.111 62.8073L117.865 62.9429L115.622 55.8791ZM122.277 60.4157L120.034 53.3643L119.787 53.4999L122.03 60.5637L122.264 60.4281L122.277 60.4157Z" fill="white"/>
<path d="M115.437 55.2873L114.328 54.7942L112.688 49.6289L113.194 48.2112L117.594 45.6963L118.703 46.1894L120.342 51.3547L119.837 52.7601L115.437 55.2873Z" fill="#130E0C"/>
<path d="M113.194 48.2112L113.44 48.0755L115.683 55.1394L115.437 55.275L113.194 48.2112ZM119.849 52.7478L117.606 45.6963L117.359 45.8319L119.602 52.8957L119.836 52.7601L119.849 52.7478Z" fill="white"/>
<path d="M112.996 47.6196L111.887 47.1265L110.248 41.9611L110.753 40.5558L115.165 38.0286L116.275 38.5217L117.914 43.687L117.408 45.0924L112.996 47.6196Z" fill="#130E0C"/>
<path d="M110.753 40.5434L111 40.4078L113.243 47.4716L112.996 47.6072L110.753 40.5434ZM117.409 45.0801L115.166 38.0286L114.919 38.1642L117.162 45.228L117.396 45.0924L117.409 45.0801Z" fill="white"/>
<path d="M67.902 61.8827L65.2276 61.6731L54.7766 28.2156L57.451 28.4251L67.902 61.8827Z" fill="#120D0C"/>
<path d="M57.451 28.4252L54.7766 28.2156L103.605 0.0219727L106.28 0.219217L57.451 28.4252Z" fill="#FCEBCC"/>
<path d="M106.28 0.219238L116.718 33.6768L67.9019 61.8828L57.4509 28.4252L106.28 0.219238Z" fill="#FEBD33"/>
<path d="M69.7259 58.6899L68.6167 58.1968L66.9775 53.0314L67.4828 51.6137L71.8949 49.0989L72.9918 49.592L74.6432 54.7573L74.1379 56.1627L69.7259 58.6899Z" fill="#130E0C"/>
<path d="M67.4829 51.6137L67.7294 51.4781L69.9724 58.542L69.7259 58.6776L67.4829 51.6137ZM74.138 56.1504L71.895 49.0989L71.6485 49.2345L73.8915 56.2983L74.1257 56.1627L74.138 56.1504Z" fill="white"/>
<path d="M67.2981 51.0219L66.1889 50.5288L64.5498 45.3635L65.0428 43.9581L69.4549 41.4309L70.5641 41.924L72.2032 47.0894L71.6979 48.5071L67.2981 51.0219Z" fill="#130E0C"/>
<path d="M65.0549 43.9582L65.3014 43.8226L67.5444 50.8864L67.298 51.022L65.0549 43.9582ZM71.71 48.4948L69.467 41.4434L69.2205 41.579L71.4636 48.6428L71.6977 48.5072L71.71 48.4948Z" fill="white"/>
<path d="M64.8579 43.3542L63.7487 42.8611L62.1096 37.6957L62.6149 36.2904L67.0147 33.7632L68.1239 34.2563L69.763 39.4216L69.2577 40.8393L64.8579 43.3542Z" fill="#130E0C"/>
<path d="M62.6147 36.2903L62.8612 36.1547L65.1043 43.2185L64.8578 43.3541L62.6147 36.2903ZM69.2699 40.8269L67.0268 33.7754L66.7804 33.911L69.0234 40.9748L69.2575 40.8392L69.2699 40.8269Z" fill="white"/>
<path d="M62.4177 35.6861L61.3086 35.193L59.6694 30.04L60.1747 28.6223L64.5868 26.1074L65.696 26.5882L67.3351 31.7535L66.8298 33.1712L62.4177 35.6861Z" fill="#130E0C"/>
<path d="M60.1746 28.6223L60.421 28.4867L62.6641 35.5505L62.4176 35.6861L60.1746 28.6223ZM66.8297 33.1589L64.5867 26.1074L64.3402 26.243L66.5832 33.3068L66.8173 33.1712L66.8297 33.1589Z" fill="white"/>
<path d="M76.344 54.9052L75.2348 54.4121L73.5957 49.2468L74.101 47.8414L78.5008 45.3142L79.61 45.8073L81.2491 50.9727L80.7561 52.3903L76.344 54.9052Z" fill="#130E0C"/>
<path d="M74.1011 47.8291L74.3476 47.6935L76.5906 54.7573L76.3441 54.8929L74.1011 47.8291ZM80.7562 52.3657L78.5132 45.3142L78.2667 45.4498L80.5097 52.5136L80.7439 52.378L80.7562 52.3657Z" fill="white"/>
<path d="M73.9163 47.2372L72.8071 46.7441L71.168 41.5788L71.6609 40.1734L76.073 37.6462L77.1822 38.1394L78.8213 43.3047L78.3161 44.7224L73.9163 47.2372Z" fill="#130E0C"/>
<path d="M71.6731 40.1736L71.9196 40.038L74.1626 47.1018L73.9161 47.2374L71.6731 40.1736ZM78.3282 44.7102L76.0852 37.6587L75.8387 37.7943L78.0817 44.8581L78.3159 44.7225L78.3282 44.7102Z" fill="white"/>
<path d="M71.4759 39.5694L70.3667 39.0763L68.7275 33.9233L69.2328 32.5056L73.6326 29.9907L74.7418 30.4715L76.3809 35.6368L75.8756 37.0545L71.4759 39.5694Z" fill="#130E0C"/>
<path d="M69.2329 32.5056L69.4794 32.37L71.7224 39.4338L71.4759 39.5694L69.2329 32.5056ZM75.888 37.0422L73.645 29.9907L73.3985 30.1263L75.6415 37.1901L75.8757 37.0545L75.888 37.0422Z" fill="white"/>
<path d="M69.0357 31.9017L67.9265 31.4086L66.2874 26.2556L66.7926 24.8379L71.2047 22.323L72.3139 22.8161L73.9531 27.9691L73.4478 29.3868L69.0357 31.9017Z" fill="#130E0C"/>
<path d="M66.7927 24.8379L67.0392 24.7023L69.2822 31.7661L69.0357 31.9017L66.7927 24.8379ZM73.4478 29.3745L71.2048 22.323L70.9583 22.4586L73.2014 29.5224L73.4355 29.3868L73.4478 29.3745Z" fill="white"/>
<path d="M82.9622 51.1206L81.853 50.6274L80.2139 45.4621L80.7192 44.0567L85.1189 41.5295L86.2281 42.0227L87.8672 47.188L87.3743 48.6057L82.9622 51.1206Z" fill="#130E0C"/>
<path d="M80.7192 44.0569L80.9657 43.9213L83.2087 50.9851L82.9623 51.1207L80.7192 44.0569ZM87.3744 48.5935L85.1313 41.542L84.8848 41.6776L87.1279 48.7414L87.362 48.6058L87.3744 48.5935Z" fill="white"/>
<path d="M80.5218 43.4527L79.4249 42.9596L77.7734 37.8066L78.2787 36.3889L82.6908 33.874L83.8 34.3548L85.4391 39.5201L84.9338 40.9378L80.5218 43.4527Z" fill="#130E0C"/>
<path d="M78.2913 36.3889L78.5377 36.2533L80.7808 43.3171L80.5343 43.4527L78.2913 36.3889ZM84.9464 40.9255L82.7034 33.874L82.4569 34.0096L84.6999 41.0734L84.934 40.9378L84.9464 40.9255Z" fill="white"/>
<path d="M78.094 35.7847L76.9848 35.2916L75.3457 30.1386L75.851 28.7209L80.2508 26.2061L81.36 26.6992L82.9991 31.8522L82.4938 33.2699L78.094 35.7847Z" fill="#130E0C"/>
<path d="M75.8511 28.7209L76.0976 28.5853L78.3406 35.6491L78.0941 35.7847L75.8511 28.7209ZM82.5062 33.2575L80.2632 26.2061L80.0167 26.3417L82.2597 33.4055L82.4939 33.2699L82.5062 33.2575Z" fill="white"/>
<path d="M75.6538 28.117L74.5446 27.6362L72.9055 22.4709L73.4108 21.0532L77.8229 18.5383L78.9321 19.0314L80.5712 24.1968L80.0659 25.6021L75.6538 28.117Z" fill="#130E0C"/>
<path d="M73.4111 21.0532L73.6576 20.9176L75.9006 27.9814L75.6542 28.117L73.4111 21.0532ZM80.0662 25.5898L77.8232 18.5383L77.5767 18.6739L79.8198 25.7378L80.0539 25.6021L80.0662 25.5898Z" fill="white"/>
<path d="M89.5804 47.336L88.4712 46.8429L86.832 41.6776L87.3373 40.2722L91.7371 37.7573L92.8463 38.2381L94.4854 43.4034L93.9801 44.8211L89.5804 47.336Z" fill="#130E0C"/>
<path d="M87.3374 40.2722L87.5839 40.1366L89.8269 47.2004L89.5804 47.336L87.3374 40.2722ZM93.9925 44.8088L91.7495 37.7573L91.503 37.8929L93.746 44.9567L93.9802 44.8211L93.9925 44.8088Z" fill="white"/>
<path d="M87.1402 39.668L86.031 39.1749L84.3918 34.0219L84.8971 32.6042L89.3092 30.0894L90.4184 30.5825L92.0576 35.7355L91.5523 37.1532L87.1402 39.668Z" fill="#130E0C"/>
<path d="M84.8972 32.6042L85.1437 32.4686L87.3867 39.5324L87.1402 39.668L84.8972 32.6042ZM91.5523 37.1408L89.3093 30.0894L89.0628 30.225L91.3058 37.2888L91.54 37.1532L91.5523 37.1408Z" fill="white"/>
<path d="M84.7122 32.0003L83.603 31.5195L81.9639 26.3542L82.4692 24.9365L86.8689 22.4216L87.9781 22.9147L89.6172 28.0678L89.1119 29.4854L84.7122 32.0003Z" fill="#130E0C"/>
<path d="M82.4692 24.9365L82.7157 24.8009L84.9587 31.8647L84.7123 32.0003L82.4692 24.9365ZM89.1244 29.4731L86.8813 22.4216L86.6349 22.5572L88.8779 29.6211L89.112 29.4854L89.1244 29.4731Z" fill="white"/>
<path d="M82.272 24.3447L81.1628 23.8516L79.5237 18.6862L80.029 17.2685L84.4411 14.7537L85.5379 15.2468L87.1894 20.4121L86.6841 21.8175L82.272 24.3447Z" fill="#130E0C"/>
<path d="M80.0291 17.2685L80.2755 17.1329L82.5186 24.1967L82.2721 24.3323L80.0291 17.2685ZM86.6842 21.8051L84.4411 14.7537L84.1947 14.8893L86.4377 21.9531L86.6718 21.8175L86.6842 21.8051Z" fill="white"/>
<path d="M96.1985 43.5513L95.0893 43.0582L93.4502 37.9052L93.9555 36.4875L98.3553 33.9727L99.4644 34.4658L101.104 39.6188L100.598 41.0365L96.1985 43.5513Z" fill="#130E0C"/>
<path d="M93.9556 36.4875L94.2021 36.3519L96.4451 43.4157L96.1986 43.5513L93.9556 36.4875ZM100.611 41.0241L98.3677 33.9727L98.1212 34.1083L100.364 41.1721L100.598 41.0365L100.611 41.0241Z" fill="white"/>
<path d="M93.7583 35.8834L92.6491 35.4026L91.01 30.2372L91.5153 28.8196L95.9274 26.3047L97.0366 26.7978L98.6757 31.9508L98.1704 33.3685L93.7583 35.8834Z" fill="#130E0C"/>
<path d="M91.5151 28.8196L91.7616 28.6839L94.0046 35.7478L93.7582 35.8834L91.5151 28.8196ZM98.1703 33.3562L95.9272 26.3047L95.6807 26.4403L97.9238 33.5041L98.1579 33.3685L98.1703 33.3562Z" fill="white"/>
<path d="M91.3304 28.228L90.2212 27.7349L88.582 22.5695L89.0873 21.1518L93.4871 18.637L94.5963 19.1301L96.2354 24.2954L95.7301 25.7008L91.3304 28.228Z" fill="#130E0C"/>
<path d="M89.0874 21.1518L89.3339 21.0162L91.5769 28.08L91.3304 28.2156L89.0874 21.1518ZM95.7425 25.6884L93.4995 18.637L93.253 18.7726L95.496 25.8364L95.7302 25.7008L95.7425 25.6884Z" fill="white"/>
<path d="M88.8902 20.56L87.781 20.0669L86.1418 14.9016L86.6471 13.4839L91.0469 10.969L92.1561 11.4621L93.7952 16.6274L93.3023 18.0328L88.8902 20.56Z" fill="#130E0C"/>
<path d="M86.6472 13.4839L86.8937 13.3483L89.1367 20.4121L88.8902 20.5477L86.6472 13.4839ZM93.3023 18.0205L91.0593 10.969L90.8128 11.1046L93.0558 18.1684L93.29 18.0328L93.3023 18.0205Z" fill="white"/>
<path d="M102.817 39.7667L101.707 39.2859L100.068 34.1205L100.574 32.7029L104.973 30.188L106.083 30.6811L107.722 35.8341L107.216 37.2518L102.817 39.7667Z" fill="#130E0C"/>
<path d="M100.574 32.7029L100.82 32.5672L103.063 39.6311L102.817 39.7667L100.574 32.7029ZM107.229 37.2395L104.986 30.188L104.739 30.3236L106.982 37.3874L107.217 37.2518L107.229 37.2395Z" fill="white"/>
<path d="M100.376 32.1113L99.2673 31.6182L97.6282 26.4528L98.1335 25.0351L102.546 22.5203L103.655 23.0134L105.294 28.1787L104.789 29.5841L100.376 32.1113Z" fill="#130E0C"/>
<path d="M98.1333 25.0351L98.3798 24.8995L100.623 31.9633L100.376 32.0989L98.1333 25.0351ZM104.788 29.5717L102.545 22.5203L102.299 22.6559L104.542 29.7197L104.776 29.5841L104.788 29.5717Z" fill="white"/>
<path d="M97.9485 24.4433L96.8393 23.9502L95.2002 18.7849L95.6932 17.3672L100.105 14.8523L101.214 15.3454L102.854 20.5107L102.348 21.9161L97.9485 24.4433Z" fill="#130E0C"/>
<path d="M95.7056 17.3672L95.952 17.2316L98.1951 24.2954L97.9486 24.431L95.7056 17.3672ZM102.361 21.9038L100.118 14.8523L99.8712 14.9879L102.114 22.0517L102.348 21.9161L102.361 21.9038Z" fill="white"/>
<path d="M95.5081 16.7753L94.3989 16.2822L92.7598 11.1169L93.2651 9.71152L97.6648 7.18433L98.774 7.67744L100.413 12.8428L99.9202 14.2605L95.5081 16.7753Z" fill="#130E0C"/>
<path d="M93.2654 9.71164L93.5119 9.57604L95.7549 16.6399L95.5084 16.7755L93.2654 9.71164ZM99.9205 14.2483L97.6775 7.19678L97.431 7.33238L99.674 14.3962L99.9082 14.2606L99.9205 14.2483Z" fill="white"/>
<path d="M109.435 35.982L108.326 35.5012L106.687 30.3359L107.192 28.9182L111.592 26.4033L112.701 26.8964L114.34 32.0618L113.835 33.4671L109.435 35.982Z" fill="#130E0C"/>
<path d="M107.192 28.9182L107.438 28.7826L109.681 35.8464L109.435 35.982L107.192 28.9182ZM113.847 33.4548L111.604 26.4033L111.357 26.5389L113.6 33.6027L113.834 33.4671L113.847 33.4548Z" fill="white"/>
<path d="M106.995 28.3266L105.885 27.8335L104.246 22.6682L104.752 21.2505L109.151 18.7356L110.261 19.2287L111.9 24.394L111.407 25.7994L106.995 28.3266Z" fill="#130E0C"/>
<path d="M104.751 21.2505L104.998 21.1149L107.241 28.1787L106.994 28.3143L104.751 21.2505ZM111.407 25.7871L109.164 18.7356L108.917 18.8712L111.16 25.935L111.394 25.7994L111.407 25.7871Z" fill="white"/>
<path d="M104.567 20.6586L103.457 20.1655L101.818 15.0002L102.311 13.5948L106.723 11.0676L107.833 11.5607L109.472 16.7261L108.966 18.1438L104.567 20.6586Z" fill="#130E0C"/>
<path d="M102.324 13.5825L102.57 13.4469L104.813 20.5107L104.567 20.6463L102.324 13.5825ZM108.979 18.1191L106.736 11.0676L106.489 11.2032L108.732 18.267L108.967 18.1314L108.979 18.1191Z" fill="white"/>
<path d="M102.126 12.9909L101.017 12.4978L99.3782 7.33246L99.8835 5.9271L104.283 3.3999L105.392 3.89301L107.032 9.05835L106.526 10.476L102.126 12.9909Z" fill="#130E0C"/>
<path d="M99.8835 5.92698L100.13 5.79137L102.373 12.8552L102.127 12.9908L99.8835 5.92698ZM106.539 10.4636L104.296 3.41211L104.049 3.54771L106.292 10.6115L106.526 10.4759L106.539 10.4636Z" fill="white"/>
<path d="M24.0276 128.12L21.3655 127.91L10.9146 94.4526L13.5889 94.6622L24.0276 128.12Z" fill="#120D0C"/>
<path d="M13.5889 94.6622L10.9146 94.4527L59.7434 66.259L62.4177 66.4563L13.5889 94.6622Z" fill="#FCEBCC"/>
<path d="M62.4177 66.4563L72.8563 99.9139L24.0275 128.12L13.5889 94.6622L62.4177 66.4563Z" fill="#FEBD33"/>
<path d="M25.8638 124.927L24.7546 124.434L23.1155 119.269L23.6208 117.863L28.0205 115.336L29.1297 115.829L30.7689 120.994L30.2759 122.4L25.8638 124.927Z" fill="#130E0C"/>
<path d="M23.6208 117.851L23.8673 117.715L26.1104 124.779L25.8639 124.915L23.6208 117.851ZM30.276 122.387L28.0329 115.336L27.7865 115.472L30.0295 122.535L30.2636 122.4L30.276 122.387Z" fill="white"/>
<path d="M23.4359 117.259L22.3267 116.766L20.6753 111.601L21.1806 110.195L25.5927 107.668L26.7019 108.161L28.341 113.327L27.8357 114.744L23.4359 117.259Z" fill="#130E0C"/>
<path d="M21.1929 110.195L21.4394 110.06L23.6824 117.123L23.4359 117.259L21.1929 110.195ZM27.848 114.732L25.605 107.68L25.3585 107.816L27.6015 114.88L27.8357 114.744L27.848 114.732Z" fill="white"/>
<path d="M20.9956 109.591L19.8864 109.098L18.2473 103.933L18.7526 102.527L23.1524 100.012L24.2616 100.493L25.9007 105.659L25.3954 107.076L20.9956 109.591Z" fill="#130E0C"/>
<path d="M18.7527 102.527L18.9992 102.392L21.2422 109.456L20.9957 109.591L18.7527 102.527ZM25.4078 107.064L23.1648 100.012L22.9183 100.148L25.1613 107.212L25.3955 107.076L25.4078 107.064Z" fill="white"/>
<path d="M18.5554 101.923L17.4463 101.43L15.8071 96.2773L16.3124 94.8596L20.7245 92.3447L21.8337 92.8378L23.4728 97.9908L22.9675 99.4085L18.5554 101.923Z" fill="#130E0C"/>
<path d="M16.3125 94.8596L16.559 94.724L18.802 101.788L18.5555 101.923L16.3125 94.8596ZM22.9676 99.3962L20.7246 92.3447L20.4781 92.4803L22.7211 99.5442L22.9553 99.4085L22.9676 99.3962Z" fill="white"/>
<path d="M32.482 121.142L31.3728 120.649L29.7336 115.484L30.2389 114.078L34.6387 111.551L35.7479 112.044L37.387 117.21L36.8817 118.627L32.482 121.142Z" fill="#130E0C"/>
<path d="M30.239 114.079L30.4855 113.943L32.7285 121.007L32.482 121.142L30.239 114.079ZM36.8941 118.615L34.6511 111.564L34.4046 111.699L36.6476 118.763L36.8818 118.628L36.8941 118.615Z" fill="white"/>
<path d="M30.0418 113.474L28.9326 112.981L27.2935 107.816L27.7988 106.411L32.2108 103.896L33.32 104.377L34.9592 109.542L34.4539 110.96L30.0418 113.474Z" fill="#130E0C"/>
<path d="M27.7988 106.411L28.0453 106.275L30.2883 113.339L30.0418 113.474L27.7988 106.411ZM34.4539 110.947L32.2109 103.896L31.9644 104.031L34.2075 111.095L34.4416 110.96L34.4539 110.947Z" fill="white"/>
<path d="M27.6138 105.807L26.5046 105.314L24.8655 100.161L25.3708 98.7429L29.7705 96.228L30.8797 96.7211L32.5189 101.874L32.0136 103.292L27.6138 105.807Z" fill="#130E0C"/>
<path d="M25.3708 98.7429L25.6173 98.6073L27.8604 105.671L27.6139 105.807L25.3708 98.7429ZM32.026 103.28L29.7829 96.228L29.5365 96.3636L31.7795 103.427L32.0136 103.292L32.026 103.28Z" fill="white"/>
<path d="M25.1736 98.1387L24.0644 97.658L22.4253 92.4926L22.9306 91.0749L27.3427 88.5601L28.4519 89.0532L30.091 94.2062L29.5857 95.6239L25.1736 98.1387Z" fill="#130E0C"/>
<path d="M22.9307 91.0749L23.1772 90.9393L25.4202 98.0031L25.1737 98.1387L22.9307 91.0749ZM29.5858 95.6115L27.3428 88.5601L27.0963 88.6957L29.3393 95.7595L29.5735 95.6239L29.5858 95.6115Z" fill="white"/>
<path d="M39.1001 117.358L37.9909 116.864L36.3518 111.699L36.8571 110.294L41.2569 107.767L42.3661 108.26L44.0052 113.425L43.4999 114.843L39.1001 117.358Z" fill="#130E0C"/>
<path d="M36.8572 110.294L37.1037 110.158L39.3467 117.222L39.1002 117.358L36.8572 110.294ZM43.5123 114.831L41.2693 107.779L41.0228 107.915L43.2658 114.978L43.5 114.843L43.5123 114.831Z" fill="white"/>
<path d="M36.6599 109.69L35.5508 109.197L33.9116 104.044L34.4169 102.626L38.829 100.111L39.9382 100.592L41.5773 105.757L41.072 107.175L36.6599 109.69Z" fill="#130E0C"/>
<path d="M34.4167 102.626L34.6632 102.49L36.9063 109.554L36.6598 109.69L34.4167 102.626ZM41.0719 107.163L38.8288 100.111L38.5824 100.247L40.8254 107.31L41.0595 107.175L41.0719 107.163Z" fill="white"/>
<path d="M34.232 102.022L33.1228 101.529L31.4836 96.3759L31.9889 94.9582L36.3887 92.4434L37.4979 92.9365L39.137 98.0895L38.6317 99.5072L34.232 102.022Z" fill="#130E0C"/>
<path d="M31.989 94.9582L32.2355 94.8226L34.4785 101.886L34.232 102.022L31.989 94.9582ZM38.6441 99.4948L36.4011 92.4434L36.1546 92.579L38.3976 99.6428L38.6318 99.5072L38.6441 99.4948Z" fill="white"/>
<path d="M31.7918 94.3664L30.6826 93.8733L29.0435 88.708L29.5488 87.2903L33.9485 84.7754L35.0577 85.2685L36.7092 90.4338L36.2039 91.8392L31.7918 94.3664Z" fill="#130E0C"/>
<path d="M29.5488 87.2903L29.7953 87.1547L32.0383 94.2185L31.7918 94.3541L29.5488 87.2903ZM36.2039 91.8269L33.9609 84.7754L33.7144 84.911L35.9575 91.9748L36.1916 91.8392L36.2039 91.8269Z" fill="white"/>
<path d="M45.7183 113.573L44.6091 113.08L42.97 107.927L43.4753 106.509L47.875 103.994L48.9842 104.475L50.6233 109.641L50.1181 111.058L45.7183 113.573Z" fill="#130E0C"/>
<path d="M43.4751 106.509L43.7216 106.374L45.9646 113.437L45.7181 113.573L43.4751 106.509ZM50.1302 111.046L47.8872 103.994L47.6407 104.13L49.8837 111.194L50.1179 111.058L50.1302 111.046Z" fill="white"/>
<path d="M43.2781 105.905L42.1689 105.412L40.5298 100.259L41.0351 98.8415L45.4472 96.3267L46.5564 96.8198L48.1955 101.973L47.6902 103.39L43.2781 105.905Z" fill="#130E0C"/>
<path d="M41.0349 98.8415L41.2814 98.7059L43.5244 105.77L43.2779 105.905L41.0349 98.8415ZM47.69 103.378L45.447 96.3267L45.2005 96.4623L47.4435 103.526L47.6777 103.39L47.69 103.378Z" fill="white"/>
<path d="M40.8501 98.2374L39.7409 97.7566L38.1018 92.5912L38.6071 91.1736L43.0069 88.6587L44.1161 89.1518L45.7552 94.3171L45.2499 95.7225L40.8501 98.2374Z" fill="#130E0C"/>
<path d="M38.6072 91.1736L38.8537 91.038L41.0967 98.1018L40.8502 98.2374L38.6072 91.1736ZM45.2623 95.7102L43.0193 88.6587L42.7728 88.7943L45.0158 95.8581L45.25 95.7225L45.2623 95.7102Z" fill="white"/>
<path d="M38.4099 90.5817L37.3008 90.0886L35.6616 84.9233L36.1669 83.5056L40.5667 80.9907L41.6759 81.4838L43.315 86.6492L42.822 88.0545L38.4099 90.5817Z" fill="#130E0C"/>
<path d="M36.167 83.5056L36.4135 83.37L38.6565 90.4338L38.41 90.5694L36.167 83.5056ZM42.8221 88.0422L40.5791 80.9907L40.3326 81.1263L42.5756 88.1901L42.8098 88.0545L42.8221 88.0422Z" fill="white"/>
<path d="M52.3364 109.788L51.2273 109.295L49.5881 104.142L50.0934 102.725L54.4932 100.21L55.6024 100.703L57.2415 105.856L56.7362 107.274L52.3364 109.788Z" fill="#130E0C"/>
<path d="M50.0933 102.725L50.3397 102.589L52.5828 109.653L52.3363 109.788L50.0933 102.725ZM56.7484 107.261L54.5054 100.21L54.2589 100.345L56.5019 107.409L56.736 107.274L56.7484 107.261Z" fill="white"/>
<path d="M49.8963 102.121L48.7871 101.64L47.1479 96.4745L47.6532 95.0568L52.0653 92.542L53.1622 93.0351L54.8137 98.2004L54.3084 99.6058L49.8963 102.121Z" fill="#130E0C"/>
<path d="M47.6531 95.0568L47.8996 94.9213L50.1426 101.985L49.8961 102.121L47.6531 95.0568ZM54.3082 99.5935L52.0652 92.542L51.8187 92.6776L54.0617 99.7414L54.2959 99.6058L54.3082 99.5935Z" fill="white"/>
<path d="M47.4683 94.465L46.3591 93.9719L44.72 88.8066L45.2129 87.3889L49.625 84.874L50.7342 85.3671L52.3733 90.5325L51.8681 91.9378L47.4683 94.465Z" fill="#130E0C"/>
<path d="M45.2253 87.3889L45.4718 87.2533L47.7148 94.3171L47.4684 94.4527L45.2253 87.3889ZM51.8805 91.9255L49.6374 84.874L49.391 85.0096L51.634 92.0734L51.8681 91.9378L51.8805 91.9255Z" fill="white"/>
<path d="M45.0281 86.7971L43.9189 86.3039L42.2798 81.1386L42.7851 79.7333L47.1848 77.2061L48.294 77.6992L49.9332 82.8645L49.4279 84.2699L45.0281 86.7971Z" fill="#130E0C"/>
<path d="M42.7852 79.7209L43.0316 79.5853L45.2747 86.6491L45.0282 86.7847L42.7852 79.7209ZM49.4403 84.2575L47.1972 77.2061L46.9508 77.3417L49.1938 84.4055L49.4279 84.2699L49.4403 84.2575Z" fill="white"/>
<path d="M58.9546 106.004L57.8454 105.523L56.2063 100.358L56.7116 98.9399L61.1114 96.425L62.2206 96.9182L63.8597 102.071L63.3544 103.489L58.9546 106.004Z" fill="#130E0C"/>
<path d="M56.7114 98.9399L56.9579 98.8043L59.2009 105.868L58.9544 106.004L56.7114 98.9399ZM63.3665 103.477L61.1235 96.425L60.877 96.5607L63.1201 103.624L63.3542 103.489L63.3665 103.477Z" fill="white"/>
<path d="M56.5142 98.3483L55.405 97.8552L53.7659 92.6899L54.2712 91.2722L58.6709 88.7573L59.7801 89.2504L61.4192 94.4158L60.9263 95.8211L56.5142 98.3483Z" fill="#130E0C"/>
<path d="M54.2712 91.2722L54.5177 91.1366L56.7607 98.2004L56.5143 98.336L54.2712 91.2722ZM60.9264 95.8088L58.6833 88.7573L58.4368 88.8929L60.6799 95.9567L60.914 95.8211L60.9264 95.8088Z" fill="white"/>
<path d="M54.0863 90.6804L52.9771 90.1873L51.3257 85.0219L51.831 83.6165L56.2431 81.0894L57.3523 81.5825L58.9914 86.7478L58.4861 88.1532L54.0863 90.6804Z" fill="#130E0C"/>
<path d="M51.8435 83.6042L52.09 83.4686L54.333 90.5324L54.0865 90.668L51.8435 83.6042ZM58.4986 88.1408L56.2556 81.0894L56.0091 81.225L58.2521 88.2888L58.4863 88.1532L58.4986 88.1408Z" fill="white"/>
<path d="M51.6463 83.0126L50.5371 82.5195L48.8979 77.3542L49.4032 75.9488L53.803 73.4216L54.9122 73.9147L56.5513 79.0801L56.046 80.4978L51.6463 83.0126Z" fill="#130E0C"/>
<path d="M49.4031 75.9487L49.6496 75.8131L51.8926 82.8769L51.6461 83.0125L49.4031 75.9487ZM56.0582 80.4853L53.8152 73.4338L53.5687 73.5694L55.8117 80.6333L56.0459 80.4977L56.0582 80.4853Z" fill="white"/>
<path d="M65.5725 102.232L64.4634 101.739L62.8242 96.5732L63.3172 95.1555L67.7293 92.6406L68.8385 93.1337L70.4776 98.2991L69.9723 99.7044L65.5725 102.232Z" fill="#130E0C"/>
<path d="M63.3296 95.1555L63.5761 95.0199L65.8191 102.084L65.5726 102.219L63.3296 95.1555ZM69.9847 99.6921L67.7417 92.6406L67.4952 92.7762L69.7382 99.84L69.9724 99.7044L69.9847 99.6921Z" fill="white"/>
<path d="M63.1323 94.5637L62.0232 94.0706L60.384 88.9052L60.8893 87.4875L65.2891 84.9727L66.3983 85.4658L68.0374 90.6311L67.5444 92.0365L63.1323 94.5637Z" fill="#130E0C"/>
<path d="M60.8894 87.4875L61.1359 87.3519L63.3789 94.4157L63.1324 94.5513L60.8894 87.4875ZM67.5445 92.0241L65.3015 84.9727L65.055 85.1083L67.298 92.1721L67.5322 92.0365L67.5445 92.0241Z" fill="white"/>
<path d="M60.6922 86.8957L59.583 86.4026L57.9438 81.2372L58.4491 79.8319L62.8612 77.3047L63.9704 77.7978L65.6096 82.9631L65.1043 84.3808L60.6922 86.8957Z" fill="#130E0C"/>
<path d="M58.4492 79.832L58.6957 79.6964L60.9387 86.7602L60.6922 86.8958L58.4492 79.832ZM65.1043 84.3686L62.8613 77.3171L62.6148 77.4527L64.8578 84.5166L65.092 84.381L65.1043 84.3686Z" fill="white"/>
<path d="M58.2644 79.2279L57.1552 78.7347L55.5161 73.5694L56.0214 72.164L60.4212 69.6492L61.5304 70.13L63.1695 75.2953L62.6642 76.713L58.2644 79.2279Z" fill="#130E0C"/>
<path d="M56.0212 72.164L56.2677 72.0284L58.5107 79.0922L58.2643 79.2279L56.0212 72.164ZM62.6764 76.7007L60.4333 69.6492L60.1868 69.7848L62.4299 76.8486L62.664 76.713L62.6764 76.7007Z" fill="white"/>
<path d="M13.1575 93.4912L10.4831 93.294L0.0444336 59.8364L2.7188 60.0337L13.1575 93.4912Z" fill="#120D0C"/>
<path d="M2.7188 60.0336L0.0444336 59.8363L48.8732 31.6304L51.5476 31.8399L2.7188 60.0336Z" fill="#FCEBCC"/>
<path d="M51.5476 31.8398L61.9862 65.2974L13.1574 93.491L2.71875 60.0335L51.5476 31.8398Z" fill="#FEBD33"/>
<path d="M14.9937 90.2983L13.8845 89.8052L12.2454 84.6398L12.7507 83.2345L17.1504 80.7073L18.2596 81.2004L19.8987 86.3657L19.3934 87.7834L14.9937 90.2983Z" fill="#130E0C"/>
<path d="M12.7507 83.2343L12.9972 83.0987L15.2402 90.1626L14.9938 90.2982L12.7507 83.2343ZM19.4058 87.771L17.1628 80.7195L16.9163 80.8551L19.1594 87.9189L19.3935 87.7833L19.4058 87.771Z" fill="white"/>
<path d="M12.5535 82.6304L11.4443 82.1373L9.80518 76.972L10.3105 75.5666L14.7226 73.0518L15.8194 73.5325L17.4709 78.6979L16.9656 80.1156L12.5535 82.6304Z" fill="#130E0C"/>
<path d="M10.3105 75.5666L10.557 75.431L12.8001 82.4948L12.5536 82.6304L10.3105 75.5666ZM16.9657 80.1032L14.7226 73.0518L14.4762 73.1874L16.7192 80.2512L16.9533 80.1156L16.9657 80.1032Z" fill="white"/>
<path d="M10.1258 74.9625L9.01657 74.4694L7.37744 69.3163L7.87041 67.8987L12.2825 65.3838L13.3917 65.8769L15.0308 71.0299L14.5255 72.4476L10.1258 74.9625Z" fill="#130E0C"/>
<path d="M7.88257 67.8987L8.12905 67.763L10.3721 74.8269L10.1256 74.9625L7.88257 67.8987ZM14.5377 72.4353L12.2947 65.3838L12.0482 65.5194L14.2912 72.5832L14.5254 72.4476L14.5377 72.4353Z" fill="white"/>
<path d="M7.68557 67.2947L6.57639 66.814L4.93726 61.6486L5.44255 60.2309L9.84232 57.7161L10.9515 58.2092L12.5906 63.3622L12.0853 64.7799L7.68557 67.2947Z" fill="#130E0C"/>
<path d="M5.44238 60.2309L5.68887 60.0953L7.93189 67.1591L7.6854 67.2947L5.44238 60.2309ZM12.0975 64.7676L9.85448 57.7161L9.60799 57.8517L11.851 64.9155L12.0852 64.7799L12.0975 64.7676Z" fill="white"/>
<path d="M21.6118 86.5137L20.5027 86.0206L18.8635 80.8553L19.3688 79.4499L23.7686 76.9351L24.8778 77.4158L26.5169 82.5812L26.0116 83.9989L21.6118 86.5137Z" fill="#130E0C"/>
<path d="M19.3689 79.4499L19.6154 79.3143L21.8584 86.3781L21.6119 86.5137L19.3689 79.4499ZM26.024 83.9865L23.781 76.9351L23.5345 77.0707L25.7775 84.1345L26.0117 83.9989L26.024 83.9865Z" fill="white"/>
<path d="M19.1717 78.8458L18.0625 78.3527L16.4233 73.1997L16.9286 71.782L21.3284 69.2671L22.4376 69.7602L24.0767 74.9132L23.5837 76.3309L19.1717 78.8458Z" fill="#130E0C"/>
<path d="M16.9287 71.782L17.1752 71.6464L19.4182 78.7102L19.1717 78.8458L16.9287 71.782ZM23.5838 76.3186L21.3408 69.2671L21.0943 69.4027L23.3373 76.4665L23.5715 76.3309L23.5838 76.3186Z" fill="white"/>
<path d="M16.7439 71.1778L15.6347 70.697L13.9956 65.5317L14.4886 64.114L18.9007 61.5991L20.0099 62.0922L21.649 67.2452L21.1437 68.6629L16.7439 71.1778Z" fill="#130E0C"/>
<path d="M14.5007 64.114L14.7472 63.9784L16.9902 71.0422L16.7438 71.1778L14.5007 64.114ZM21.1558 68.6506L18.9128 61.5991L18.6663 61.7347L20.9094 68.7985L21.1435 68.6629L21.1558 68.6506Z" fill="white"/>
<path d="M14.3037 63.5224L13.1945 63.0293L11.5554 57.864L12.0607 56.4463L16.4605 53.9314L17.5697 54.4245L19.2088 59.5898L18.7035 60.9952L14.3037 63.5224Z" fill="#130E0C"/>
<path d="M12.0605 56.4463L12.307 56.3107L14.5501 63.3745L14.3036 63.5101L12.0605 56.4463ZM18.7157 60.9829L16.4726 53.9314L16.2262 54.067L18.4692 61.1308L18.7033 60.9952L18.7157 60.9829Z" fill="white"/>
<path d="M28.23 82.7291L27.1208 82.236L25.4817 77.0829L25.9747 75.6653L30.3868 73.1504L31.4959 73.6435L33.1351 78.7965L32.6298 80.2142L28.23 82.7291Z" fill="#130E0C"/>
<path d="M25.9871 75.6653L26.2335 75.5297L28.4766 82.5935L28.2301 82.7291L25.9871 75.6653ZM32.6422 80.2019L30.3992 73.1504L30.1527 73.286L32.3957 80.3498L32.6298 80.2142L32.6422 80.2019Z" fill="white"/>
<path d="M25.7898 75.0611L24.6806 74.5803L23.0415 69.415L23.5468 67.9973L27.9466 65.4824L29.0558 65.9755L30.6949 71.1285L30.2019 72.5462L25.7898 75.0611Z" fill="#130E0C"/>
<path d="M23.5469 67.9973L23.7934 67.8617L26.0364 74.9255L25.7899 75.0611L23.5469 67.9973ZM30.202 72.5339L27.959 65.4824L27.7125 65.618L29.9555 72.6818L30.1897 72.5462L30.202 72.5339Z" fill="white"/>
<path d="M23.3496 67.4057L22.2404 66.9126L20.6013 61.7473L21.1066 60.3296L25.5187 57.8147L26.6279 58.3078L28.267 63.4731L27.7617 64.8785L23.3496 67.4057Z" fill="#130E0C"/>
<path d="M21.1067 60.3296L21.3532 60.194L23.5962 67.2578L23.3497 67.3934L21.1067 60.3296ZM27.7618 64.8662L25.5188 57.8147L25.2723 57.9503L27.5153 65.0141L27.7495 64.8785L27.7618 64.8662Z" fill="white"/>
<path d="M20.9217 59.7377L19.8125 59.2446L18.1733 54.0793L18.6786 52.6616L23.0784 50.1467L24.1876 50.6398L25.8267 55.8052L25.3214 57.2105L20.9217 59.7377Z" fill="#130E0C"/>
<path d="M18.6787 52.6616L18.9252 52.526L21.1682 59.5898L20.9217 59.7254L18.6787 52.6616ZM25.3338 57.1982L23.0908 50.1467L22.8443 50.2823L25.0873 57.3461L25.3215 57.2105L25.3338 57.1982Z" fill="white"/>
<path d="M34.8482 78.9444L33.739 78.4636L32.0999 73.2983L32.5928 71.8806L37.0049 69.3657L38.1141 69.8588L39.7532 75.0118L39.2479 76.4295L34.8482 78.9444Z" fill="#130E0C"/>
<path d="M32.6052 71.8806L32.8517 71.745L35.0947 78.8088L34.8482 78.9444L32.6052 71.8806ZM39.2603 76.4172L37.0173 69.3657L36.7708 69.5013L39.0139 76.5651L39.248 76.4295L39.2603 76.4172Z" fill="white"/>
<path d="M32.408 71.2888L31.2988 70.7957L29.6597 65.6303L30.165 64.2126L34.5647 61.6978L35.6739 62.1909L37.313 67.3562L36.8078 68.7616L32.408 71.2888Z" fill="#130E0C"/>
<path d="M30.165 64.2126L30.4115 64.077L32.6545 71.1408L32.4081 71.2764L30.165 64.2126ZM36.8202 68.7492L34.5771 61.6978L34.3306 61.8334L36.5737 68.8972L36.8078 68.7616L36.8202 68.7492Z" fill="white"/>
<path d="M29.9678 63.621L28.8586 63.1279L27.2195 57.9626L27.7248 56.5449L32.1369 54.03L33.2461 54.5231L34.8852 59.6885L34.3799 61.0938L29.9678 63.621Z" fill="#130E0C"/>
<path d="M27.7249 56.5449L27.9713 56.4093L30.2144 63.4731L29.9679 63.6087L27.7249 56.5449ZM34.38 61.0815L32.1369 54.03L31.8905 54.1656L34.1335 61.2294L34.3676 61.0938L34.38 61.0815Z" fill="white"/>
<path d="M27.5398 55.9531L26.4306 55.46L24.7915 50.2946L25.2968 48.8893L29.6966 46.3621L30.8058 46.8552L32.4449 52.0205L31.9396 53.4382L27.5398 55.9531Z" fill="#130E0C"/>
<path d="M25.2969 48.8769L25.5434 48.7413L27.7864 55.8051L27.5399 55.9407L25.2969 48.8769ZM31.952 53.4135L29.709 46.3621L29.4625 46.4977L31.7055 53.5615L31.9397 53.4259L31.952 53.4135Z" fill="white"/>
<path d="M41.4541 75.1597L40.3573 74.679L38.7058 69.5136L39.2111 68.0959L43.6232 65.5811L44.7324 66.0742L46.3715 71.2395L45.8662 72.6449L41.4541 75.1597Z" fill="#130E0C"/>
<path d="M39.2234 68.0959L39.4699 67.9603L41.7129 75.0241L41.4664 75.1597L39.2234 68.0959ZM45.8785 72.6325L43.6355 65.5811L43.389 65.7167L45.632 72.7805L45.8662 72.6449L45.8785 72.6325Z" fill="white"/>
<path d="M39.0261 67.5041L37.917 67.011L36.2778 61.8456L36.7831 60.428L41.1829 57.9131L42.2921 58.4062L43.9312 63.5715L43.4259 64.9769L39.0261 67.5041Z" fill="#130E0C"/>
<path d="M36.7832 60.428L37.0297 60.2923L39.2727 67.3562L39.0262 67.4918L36.7832 60.428ZM43.4383 64.9646L41.1953 57.9131L40.9488 58.0487L43.1918 65.1125L43.426 64.9769L43.4383 64.9646Z" fill="white"/>
<path d="M36.586 59.8364L35.4768 59.3433L33.8376 54.1779L34.3429 52.7726L38.755 50.2454L39.8642 50.7385L41.5033 55.9038L40.9981 57.3215L36.586 59.8364Z" fill="#130E0C"/>
<path d="M34.343 52.7602L34.5895 52.6246L36.8325 59.6884L36.586 59.824L34.343 52.7602ZM40.9981 57.2968L38.7551 50.2454L38.5086 50.381L40.7516 57.4448L40.9858 57.3092L40.9981 57.2968Z" fill="white"/>
<path d="M34.158 52.1684L33.0488 51.6753L31.4097 46.51L31.915 45.1046L36.3147 42.5774L37.4239 43.0705L39.063 48.2358L38.5578 49.6535L34.158 52.1684Z" fill="#130E0C"/>
<path d="M31.915 45.1047L32.1615 44.9691L34.4045 52.0329L34.1581 52.1685L31.915 45.1047ZM38.5702 49.6413L36.3271 42.5898L36.0806 42.7255L38.3237 49.7893L38.5578 49.6537L38.5702 49.6413Z" fill="white"/>
<path d="M48.072 71.3874L46.9629 70.8943L45.3237 65.7289L45.829 64.3113L50.2411 61.7964L51.3503 62.2895L52.9894 67.4548L52.4841 68.8602L48.072 71.3874Z" fill="#130E0C"/>
<path d="M45.8291 64.3113L46.0756 64.1756L48.3186 71.2395L48.0721 71.3751L45.8291 64.3113ZM52.4842 68.8479L50.2412 61.7964L49.9947 61.932L52.2377 68.9958L52.4719 68.8602L52.4842 68.8479Z" fill="white"/>
<path d="M45.6443 63.7197L44.5351 63.2266L42.896 58.0612L43.4013 56.6559L47.8011 54.1287L48.9102 54.6218L50.5494 59.7871L50.0441 61.1925L45.6443 63.7197Z" fill="#130E0C"/>
<path d="M43.4014 56.6435L43.6479 56.5079L45.8909 63.5717L45.6444 63.7073L43.4014 56.6435ZM50.0565 61.1802L47.8135 54.1287L47.567 54.2643L49.81 61.3281L50.0442 61.1925L50.0565 61.1802Z" fill="white"/>
<path d="M43.2041 56.0517L42.0949 55.5586L40.4558 50.3933L40.9611 48.9879L45.3732 46.4607L46.4824 46.9538L48.1215 52.1191L47.6162 53.5368L43.2041 56.0517Z" fill="#130E0C"/>
<path d="M40.9609 48.988L41.2074 48.8524L43.4504 55.9162L43.204 56.0518L40.9609 48.988ZM47.616 53.5246L45.373 46.4731L45.1265 46.6088L47.3696 53.6726L47.6037 53.537L47.616 53.5246Z" fill="white"/>
<path d="M40.7761 48.3839L39.667 47.8907L38.0278 42.7254L38.5208 41.32L42.9329 38.8052L44.0421 39.286L45.6812 44.4513L45.1759 45.869L40.7761 48.3839Z" fill="#130E0C"/>
<path d="M38.5332 41.32L38.7797 41.1844L41.0227 48.2483L40.7762 48.3839L38.5332 41.32ZM45.1883 45.8567L42.9453 38.8052L42.6988 38.9408L44.9418 46.0046L45.176 45.869L45.1883 45.8567Z" fill="white"/>
<path d="M54.6902 67.6027L53.581 67.1096L51.9419 61.9443L52.4472 60.5389L56.8593 58.0117L57.9685 58.5048L59.6076 63.6702L59.1023 65.0755L54.6902 67.6027Z" fill="#130E0C"/>
<path d="M52.4473 60.5266L52.6938 60.391L54.9368 67.4548L54.6903 67.5904L52.4473 60.5266ZM59.1024 65.0632L56.8594 58.0117L56.6129 58.1473L58.8559 65.2111L59.0901 65.0755L59.1024 65.0632Z" fill="white"/>
<path d="M52.2625 59.935L51.1533 59.4419L49.5142 54.2766L50.0195 52.8712L54.4192 50.344L55.5284 50.8371L57.1675 56.0024L56.6622 57.4201L52.2625 59.935Z" fill="#130E0C"/>
<path d="M50.0193 52.8711L50.2658 52.7355L52.5088 59.7993L52.2623 59.9349L50.0193 52.8711ZM56.6744 57.4077L54.4314 50.3562L54.1849 50.4918L56.4279 57.5556L56.6621 57.42L56.6744 57.4077Z" fill="white"/>
<path d="M49.8223 52.2672L48.7131 51.774L47.074 46.6087L47.5793 45.2033L51.979 42.6885L53.0882 43.1693L54.7274 48.3346L54.2344 49.7523L49.8223 52.2672Z" fill="#130E0C"/>
<path d="M47.5791 45.2033L47.8256 45.0677L50.0686 52.1316L49.8221 52.2672L47.5791 45.2033ZM54.2342 49.74L51.9912 42.6885L51.7447 42.8241L53.9877 49.8879L54.2219 49.7523L54.2342 49.74Z" fill="white"/>
<path d="M47.3943 44.5992L46.2851 44.1061L44.646 38.9531L45.139 37.5354L49.5511 35.0205L50.6602 35.5136L52.2994 40.6666L51.7941 42.0843L47.3943 44.5992Z" fill="#130E0C"/>
<path d="M45.1514 37.5354L45.3979 37.3998L47.6409 44.4636L47.3944 44.5992L45.1514 37.5354ZM51.8065 42.072L49.5635 35.0205L49.317 35.1561L51.56 42.2199L51.7942 42.0843L51.8065 42.072Z" fill="white"/>
<path d="M92.8094 152.467L71.094 139.93C70.8969 139.819 70.638 139.88 70.5271 140.078C70.4162 140.275 70.4778 140.534 70.675 140.645L91.5893 152.726L85.5628 154.735L65.6344 143.221C65.4372 143.11 65.1784 143.172 65.0675 143.369C64.9566 143.566 65.0182 143.825 65.2154 143.936L85.3163 155.537C85.3779 155.574 85.4518 155.598 85.5258 155.598C85.5751 155.598 85.6121 155.598 85.6613 155.574L92.7355 153.207C92.8957 153.157 93.0066 153.022 93.0189 152.849C93.0313 152.689 92.9573 152.529 92.8094 152.442V152.467Z" fill="#FEBD33"/>
<path d="M99.4645 169.948L79.5608 158.458V143.184L99.4645 154.686V169.948Z" fill="#120D0C"/>
<path d="M128.044 153.441L99.4644 169.948V154.686L128.044 138.179V153.441Z" fill="#120D0C"/>
<path d="M99.4645 154.686L79.5608 143.184L108.141 126.677L128.045 138.179L99.4645 154.686Z" fill="#FEBD33"/>
<path d="M115.696 148.362L126.775 141.964V141.089L115.696 147.499V148.362Z" fill="#FEBD33"/>
<path d="M115.696 149.767L126.775 143.369V142.506L115.696 148.904V149.767Z" fill="#FEBD33"/>
<path d="M115.696 151.185L126.775 144.775V143.912L115.696 150.31V151.185Z" fill="#FEBD33"/>
<path d="M115.696 152.591L126.775 146.192V145.317L115.696 151.715V152.591Z" fill="#FEBD33"/>
<path d="M115.696 153.996L126.775 147.598V146.722L115.696 153.133V153.996Z" fill="#FEBD33"/>
<path d="M115.696 155.401L126.775 149.003V148.14L115.696 154.538V155.401Z" fill="#FEBD33"/>
<path d="M115.696 156.819L126.775 150.409V149.546L115.696 155.944V156.819Z" fill="#FEBD33"/>
<path d="M115.696 158.224L126.775 151.826V150.951L115.696 157.349V158.224Z" fill="#FEBD33"/>
<path d="M101.005 156.844L112.084 150.446V149.57L101.005 155.981V156.844Z" fill="#FEBD33"/>
<path d="M101.005 158.249L112.084 151.851V150.988L101.005 157.386V158.249Z" fill="#FEBD33"/>
<path d="M101.005 159.667L112.084 153.256V152.393L101.005 158.791V159.667Z" fill="#FEBD33"/>
<path d="M101.005 161.072L112.084 154.674V153.799L101.005 160.197V161.072Z" fill="#FEBD33"/>
<path d="M101.005 162.477L112.084 156.079V155.204L101.005 161.615V162.477Z" fill="#FEBD33"/>
<path d="M101.005 163.883L112.084 157.485V156.622L101.005 163.02V163.883Z" fill="#FEBD33"/>
<path d="M101.005 165.3L112.084 158.89V158.027L101.005 164.425V165.3Z" fill="#FEBD33"/>
<path d="M101.005 166.706L112.084 160.308V159.432L101.005 165.83V166.706Z" fill="#FEBD33"/>
<path d="M93.4501 170.022L79.0923 161.701L79.1293 155.278L93.487 163.599L93.4501 170.022Z" fill="#120D0C"/>
<path d="M93.4872 163.599L79.1294 155.278L82.0626 153.577L96.4204 161.91L93.4872 163.599Z" fill="#FCEBCC"/>
<path d="M96.4203 161.91L96.3834 168.333L93.4502 170.022L93.4872 163.599L96.4203 161.91Z" fill="#FEBD33"/>
</g>
<g clip-path="url(#clip1_60_4618)">
<path d="M185.305 193.293L152.782 212.014L177.29 226.116H196.156L185.305 193.293Z" fill="#120D0C"/>
<path d="M168.687 158.215L112.075 190.791L120.105 195.424H132.46L138.428 198.853H148.752L151.372 188.937L150.705 182.512H133.39L172.144 160.208L168.687 158.215Z" fill="#120D0C"/>
<path d="M148.752 198.854L134.32 190.559V183.794L148.752 192.088V198.854Z" fill="#120D0C"/>
<path d="M148.752 192.088V198.853L164.641 189.725V182.959L148.752 192.088Z" fill="#FCEBCC"/>
<path d="M150.209 174.65L134.32 183.794L148.752 192.088L164.641 182.96L150.209 174.65Z" fill="#FEBD33"/>
<path d="M156.952 178.774V183.701L157.634 183.299V178.372L156.952 178.774Z" fill="#FEBD33"/>
<path d="M156.906 175.206C156.503 174.279 155.929 173.398 155.278 172.657C154.72 172.024 154.1 171.498 153.433 171.112C152.255 170.433 151.186 170.371 150.426 170.819L149.744 171.22C150.519 170.773 151.573 170.834 152.751 171.514C153.418 171.9 154.038 172.425 154.596 173.059C155.247 173.8 155.821 174.696 156.224 175.607C156.689 176.657 156.952 177.754 156.952 178.774L157.634 178.372C157.634 177.353 157.371 176.256 156.906 175.206Z" fill="#FCEBCC"/>
<path d="M152.751 171.514C150.41 170.17 148.519 171.252 148.504 173.924V178.851L156.952 183.701V178.774C156.952 176.102 155.076 172.843 152.751 171.514Z" fill="#120D0C"/>
<g style="mix-blend-mode:screen">
<path d="M155.278 172.657L154.596 173.059C155.247 173.8 155.82 174.696 156.223 175.607L156.905 175.206C156.502 174.279 155.929 173.398 155.278 172.657Z" fill="#684242"/>
</g>
<path d="M151.17 119.075L155.898 116.341L155.883 182.836L151.155 185.57L151.17 119.075Z" fill="#FEBD33"/>
<path d="M155.092 112.85C154.642 111.831 154.007 110.842 153.278 110.024C152.658 109.329 151.976 108.726 151.232 108.309C149.93 107.568 148.752 107.491 147.915 107.985L143.187 110.719C144.039 110.225 145.217 110.302 146.504 111.043C147.232 111.46 147.93 112.063 148.55 112.758C149.279 113.592 149.899 114.565 150.364 115.584C150.875 116.743 151.17 117.948 151.17 119.075L155.898 116.341C155.898 115.229 155.603 114.009 155.092 112.85Z" fill="#B7A8A4"/>
<g style="mix-blend-mode:screen">
<path d="M148.55 112.758L153.278 110.024C154.007 110.858 154.627 111.831 155.092 112.85L150.364 115.584C149.914 114.565 149.279 113.576 148.55 112.758Z" fill="#684242"/>
</g>
<path d="M146.504 111.043C149.077 112.526 151.17 116.125 151.154 119.075V185.57L141.807 180.195V113.7C141.807 110.75 143.915 109.56 146.488 111.043H146.504Z" fill="#120D0C"/>
<path d="M149.48 183.068V187.995L150.162 187.609V182.666L149.48 183.068Z" fill="#FEBD33"/>
<path d="M149.434 179.5C149.031 178.573 148.457 177.693 147.806 176.951C147.248 176.318 146.628 175.793 145.961 175.407C144.783 174.727 143.714 174.665 142.954 175.113L142.272 175.515C143.047 175.067 144.101 175.128 145.279 175.808C145.946 176.194 146.566 176.719 147.124 177.353C147.775 178.094 148.349 178.99 148.752 179.901C149.217 180.952 149.48 182.048 149.48 183.068L150.162 182.666C150.162 181.647 149.899 180.55 149.434 179.5Z" fill="#FCEBCC"/>
<path d="M145.279 175.808C142.939 174.464 141.047 175.546 141.032 178.218V183.145L149.48 187.995V183.068C149.48 180.396 147.605 177.136 145.279 175.808Z" fill="#120D0C"/>
<g style="mix-blend-mode:screen">
<path d="M147.806 176.951L147.124 177.353C147.775 178.094 148.349 178.99 148.752 179.901L149.434 179.5C149.031 178.573 148.457 177.693 147.806 176.951Z" fill="#684242"/>
</g>
<path d="M142.102 125.763L137.327 125.3L126.786 90.7007L131.56 91.1641L142.102 125.763Z" fill="#120D0C"/>
<path d="M131.56 91.1641L126.786 90.7007L151.046 77.3091L155.82 77.757L131.56 91.1641Z" fill="#FEBD33"/>
<path d="M155.82 77.7571L166.361 112.356L142.101 125.763L131.56 91.1642L155.82 77.7571Z" fill="#130E0C"/>
<path d="M170.129 134.104L166.765 133.841L153.635 91.9209L156.999 92.1835L170.129 134.104Z" fill="#120D0C"/>
<path d="M156.999 92.1835L153.635 91.9209L215.052 56.5959L218.401 56.8431L156.999 92.1835Z" fill="#FCEBCC"/>
<path d="M218.401 56.843L231.546 98.7634L170.128 134.104L156.999 92.1834L218.401 56.843Z" fill="#FEBD33"/>
<path d="M172.438 130.103L171.043 129.486L168.966 123.014L169.601 121.237L175.151 118.086L176.546 118.704L178.608 125.176L177.972 126.937L172.438 130.103Z" fill="#130E0C"/>
<path d="M169.617 121.237L169.927 121.067L172.748 129.918L172.438 130.088L169.617 121.237ZM177.988 126.922L175.167 118.086L174.856 118.256L177.678 127.107L177.972 126.937L177.988 126.922Z" fill="white"/>
<path d="M169.369 120.496L167.974 119.878L165.912 113.406L166.548 111.63L172.082 108.479L173.477 109.097L175.539 115.569L174.903 117.33L169.369 120.496Z" fill="#130E0C"/>
<path d="M166.548 111.63L166.858 111.46L169.679 120.311L169.369 120.481L166.548 111.63ZM174.918 117.314L172.097 108.479L171.787 108.649L174.608 117.499L174.903 117.33L174.918 117.314Z" fill="white"/>
<path d="M166.3 110.889L164.904 110.271L162.843 103.799L163.478 102.038L169.028 98.8716L170.423 99.4894L172.485 105.961L171.849 107.738L166.3 110.889Z" fill="#130E0C"/>
<path d="M163.478 102.023L163.788 101.853L166.61 110.703L166.3 110.873L163.478 102.023ZM171.849 107.707L169.028 98.8716L168.718 99.0415L171.539 107.892L171.834 107.722L171.849 107.707Z" fill="white"/>
<path d="M163.246 101.281L161.851 100.663L159.789 94.1914L160.424 92.4306L165.958 89.2642L167.354 89.882L169.415 96.3539L168.78 98.1301L163.246 101.281Z" fill="#130E0C"/>
<path d="M160.424 92.4308L160.734 92.2609L163.556 101.111L163.246 101.281L160.424 92.4308ZM168.795 98.1149L165.974 89.2798L165.664 89.4497L168.485 98.3002L168.78 98.1303L168.795 98.1149Z" fill="white"/>
<path d="M180.747 125.361L179.352 124.744L177.29 118.272L177.926 116.495L183.475 113.344L184.871 113.962L186.932 120.434L186.297 122.195L180.747 125.361Z" fill="#130E0C"/>
<path d="M177.926 116.495L178.236 116.326L181.057 125.176L180.747 125.346L177.926 116.495ZM186.297 122.18L183.475 113.344L183.165 113.514L185.987 122.365L186.281 122.195L186.297 122.18Z" fill="white"/>
<path d="M177.693 115.754L176.298 115.136L174.236 108.664L174.872 106.903L180.406 103.737L181.801 104.355L183.863 110.827L183.227 112.588L177.693 115.754Z" fill="#130E0C"/>
<path d="M174.872 106.888L175.182 106.718L178.003 115.569L177.693 115.739L174.872 106.888ZM183.243 112.572L180.422 103.737L180.112 103.907L182.933 112.758L183.227 112.588L183.243 112.572Z" fill="white"/>
<path d="M174.624 106.147L173.229 105.529L171.167 99.0569L171.803 97.2961L177.352 94.1296L178.747 94.7475L180.809 101.219L180.173 102.996L174.624 106.147Z" fill="#130E0C"/>
<path d="M171.803 97.2962L172.113 97.1263L174.934 105.977L174.624 106.147L171.803 97.2962ZM180.174 102.98L177.352 94.1453L177.042 94.3152L179.864 103.166L180.158 102.996L180.174 102.98Z" fill="white"/>
<path d="M171.57 96.5394L170.175 95.9215L168.113 89.4497L168.749 87.6888L174.283 84.5378L175.678 85.1402L177.74 91.6121L177.104 93.3884L171.57 96.5394Z" fill="#130E0C"/>
<path d="M168.749 87.6888L169.059 87.5189L171.88 96.3695L171.57 96.5394L168.749 87.6888ZM177.12 93.3729L174.298 84.5378L173.988 84.7077L176.81 93.5583L177.104 93.3884L177.12 93.3729Z" fill="white"/>
<path d="M189.071 120.62L187.676 120.002L185.615 113.53L186.25 111.769L191.8 108.603L193.195 109.22L195.257 115.692L194.621 117.453L189.071 120.62Z" fill="#130E0C"/>
<path d="M186.25 111.754L186.56 111.584L189.382 120.434L189.072 120.604L186.25 111.754ZM194.621 117.438L191.8 108.603L191.49 108.772L194.311 117.623L194.606 117.453L194.621 117.438Z" fill="white"/>
<path d="M186.018 111.012L184.623 110.394L182.561 103.922L183.196 102.162L188.73 98.9951L190.126 99.613L192.187 106.085L191.552 107.861L186.018 111.012Z" fill="#130E0C"/>
<path d="M183.196 102.162L183.506 101.992L186.328 110.842L186.018 111.012L183.196 102.162ZM191.567 107.846L188.746 99.0107L188.436 99.1806L191.257 108.031L191.552 107.861L191.567 107.846Z" fill="white"/>
<path d="M182.948 101.405L181.553 100.787L179.491 94.3151L180.127 92.5543L185.661 89.4033L187.056 90.0057L189.133 96.4776L188.498 98.2539L182.948 101.405Z" fill="#130E0C"/>
<path d="M180.127 92.5543L180.437 92.3844L183.258 101.235L182.948 101.405L180.127 92.5543ZM188.498 98.2384L185.677 89.4033L185.367 89.5732L188.188 98.4238L188.482 98.2539L188.498 98.2384Z" fill="white"/>
<path d="M179.894 91.7974L178.499 91.1796L176.438 84.7232L177.058 82.9469L182.607 79.7959L184.002 80.4137L186.064 86.8702L185.428 88.6464L179.894 91.7974Z" fill="#130E0C"/>
<path d="M177.073 82.9469L177.383 82.777L180.205 91.6275L179.895 91.7974L177.073 82.9469ZM185.444 88.631L182.623 79.7959L182.313 79.9658L185.134 88.8163L185.429 88.6464L185.444 88.631Z" fill="white"/>
<path d="M197.396 115.878L196.001 115.26L193.939 108.788L194.575 107.027L200.124 103.861L201.519 104.478L203.581 110.95L202.945 112.727L197.396 115.878Z" fill="#130E0C"/>
<path d="M194.574 107.027L194.884 106.857L197.706 115.708L197.396 115.878L194.574 107.027ZM202.945 112.711L200.124 103.876L199.814 104.046L202.635 112.897L202.93 112.727L202.945 112.711Z" fill="white"/>
<path d="M194.342 106.27L192.947 105.652L190.885 99.1806L191.521 97.4198L197.055 94.2688L198.45 94.8712L200.512 101.343L199.876 103.119L194.342 106.27Z" fill="#130E0C"/>
<path d="M191.521 97.4198L191.831 97.2499L194.652 106.1L194.342 106.27L191.521 97.4198ZM199.892 103.104L197.07 94.2688L196.76 94.4387L199.582 103.289L199.876 103.119L199.892 103.104Z" fill="white"/>
<path d="M191.273 96.6629L189.878 96.0451L187.816 89.5886L188.451 87.8124L193.986 84.6614L195.381 85.2792L197.442 91.7356L196.822 93.5119L191.273 96.6629Z" fill="#130E0C"/>
<path d="M188.451 87.8124L188.761 87.6425L191.583 96.493L191.273 96.6629L188.451 87.8124ZM196.822 93.4965L194.001 84.6614L193.691 84.8313L196.512 93.6818L196.807 93.5119L196.822 93.4965Z" fill="white"/>
<path d="M188.219 87.0555L186.824 86.4531L184.747 79.9812L185.382 78.2049L190.932 75.054L192.327 75.6718L194.389 82.1282L193.753 83.9045L188.219 87.0555Z" fill="#130E0C"/>
<path d="M185.397 78.2049L185.707 78.035L188.529 86.8856L188.219 87.0555L185.397 78.2049ZM193.768 83.889L190.947 75.054L190.637 75.2239L193.458 84.0744L193.753 83.9045L193.768 83.889Z" fill="white"/>
<path d="M205.72 111.136L204.325 110.518L202.263 104.046L202.899 102.285L208.449 99.1187L209.828 99.7365L211.905 106.208L211.27 107.985L205.72 111.136Z" fill="#130E0C"/>
<path d="M202.899 102.285L203.209 102.115L206.03 110.966L205.72 111.136L202.899 102.285ZM211.27 107.969L208.449 99.1343L208.138 99.3042L210.96 108.155L211.254 107.985L211.27 107.969Z" fill="white"/>
<path d="M202.666 101.528L201.271 100.911L199.209 94.4541L199.83 92.6778L205.379 89.5269L206.774 90.1447L208.836 96.6011L208.2 98.3774L202.666 101.528Z" fill="#130E0C"/>
<path d="M199.845 92.6778L200.155 92.5079L202.977 101.358L202.667 101.528L199.845 92.6778ZM208.216 98.362L205.395 89.5269L205.085 89.6968L207.906 98.5473L208.201 98.3774L208.216 98.362Z" fill="white"/>
<path d="M199.597 91.921L198.202 91.3186L196.14 84.8467L196.776 83.0704L202.31 79.9194L203.705 80.5373L205.767 86.9937L205.131 88.77L199.597 91.921Z" fill="#130E0C"/>
<path d="M196.776 83.0704L197.086 82.9005L199.907 91.7511L199.597 91.921L196.776 83.0704ZM205.147 88.7545L202.325 79.9194L202.015 80.0893L204.837 88.9399L205.131 88.77L205.147 88.7545Z" fill="white"/>
<path d="M196.528 82.329L195.133 81.7111L193.071 75.2393L193.706 73.463L199.256 70.312L200.651 70.9298L202.713 77.4017L202.077 79.1626L196.528 82.329Z" fill="#130E0C"/>
<path d="M193.707 73.463L194.017 73.2931L196.838 82.1436L196.528 82.3135L193.707 73.463ZM202.077 79.1471L199.256 70.312L198.946 70.4819L201.767 79.3325L202.062 79.1626L202.077 79.1471Z" fill="white"/>
<path d="M214.045 106.394L212.649 105.776L210.588 99.3196L211.223 97.5433L216.757 94.3923L218.152 94.9947L220.214 101.467L219.594 103.243L214.045 106.394Z" fill="#130E0C"/>
<path d="M211.223 97.5433L211.533 97.3734L214.355 106.224L214.045 106.394L211.223 97.5433ZM219.594 103.227L216.773 94.3923L216.463 94.5622L219.284 103.413L219.579 103.243L219.594 103.227Z" fill="white"/>
<path d="M210.991 96.7864L209.596 96.1686L207.534 89.7122L208.154 87.9359L213.704 84.7849L215.099 85.4028L217.16 91.8592L216.525 93.6355L210.991 96.7864Z" fill="#130E0C"/>
<path d="M208.169 87.9359L208.479 87.766L211.301 96.6165L210.991 96.7864L208.169 87.9359ZM216.54 93.62L213.719 84.7849L213.409 84.9548L216.23 93.8054L216.525 93.6355L216.54 93.62Z" fill="white"/>
<path d="M207.921 87.179L206.526 86.5766L204.465 80.1048L205.1 78.3285L210.634 75.1775L212.029 75.7953L214.091 82.2672L213.456 84.028L207.921 87.179Z" fill="#130E0C"/>
<path d="M205.1 78.3285L205.41 78.1586L208.231 87.0091L207.921 87.179L205.1 78.3285ZM213.471 84.0126L210.65 75.1775L210.34 75.3474L213.161 84.1979L213.455 84.028L213.471 84.0126Z" fill="white"/>
<path d="M204.852 77.587L203.457 76.9692L201.396 70.4973L202.031 68.721L207.581 65.5701L208.976 66.1879L211.038 72.6598L210.402 74.4206L204.852 77.587Z" fill="#130E0C"/>
<path d="M202.031 68.721L202.341 68.5511L205.162 77.4017L204.852 77.5716L202.031 68.721ZM210.402 74.4052L207.58 65.5701L207.27 65.74L210.092 74.5905L210.386 74.4206L210.402 74.4052Z" fill="white"/>
<path d="M222.369 101.652L220.974 101.034L218.912 94.5777L219.548 92.8014L225.082 89.6504L226.477 90.2682L228.539 96.7246L227.919 98.5009L222.369 101.652Z" fill="#130E0C"/>
<path d="M219.548 92.8014L219.858 92.6315L222.679 101.482L222.369 101.652L219.548 92.8014ZM227.918 98.4855L225.097 89.6504L224.787 89.8203L227.608 98.6708L227.903 98.5009L227.918 98.4855Z" fill="white"/>
<path d="M219.3 92.0445L217.904 91.4421L215.843 84.9702L216.478 83.1939L222.028 80.043L223.423 80.6608L225.485 87.1327L224.849 88.8935L219.3 92.0445Z" fill="#130E0C"/>
<path d="M216.478 83.1939L216.788 83.024L219.61 91.8746L219.3 92.0445L216.478 83.1939ZM224.849 88.8781L222.028 80.043L221.718 80.2129L224.539 89.0634L224.834 88.8935L224.849 88.8781Z" fill="white"/>
<path d="M216.246 82.4525L214.851 81.8347L212.789 75.3628L213.425 73.5865L218.959 70.4355L220.354 71.0534L222.416 77.5253L221.78 79.2861L216.246 82.4525Z" fill="#130E0C"/>
<path d="M213.425 73.5865L213.735 73.4166L216.556 82.2672L216.246 82.4371L213.425 73.5865ZM221.795 79.2706L218.974 70.4355L218.664 70.6055L221.485 79.456L221.78 79.2861L221.795 79.2706Z" fill="white"/>
<path d="M213.177 72.8451L211.781 72.2273L209.72 65.7554L210.355 63.9946L215.905 60.8281L217.3 61.446L219.362 67.9178L218.726 69.6787L213.177 72.8451Z" fill="#130E0C"/>
<path d="M210.355 63.9791L210.665 63.8092L213.487 72.6597L213.177 72.8296L210.355 63.9791ZM218.726 69.6632L215.905 60.8281L215.595 60.998L218.416 69.8486L218.711 69.6787L218.726 69.6632Z" fill="white"/>
<path d="M156.456 90.7162L153.092 90.4536L139.947 48.5332L143.311 48.7958L156.456 90.7162Z" fill="#120D0C"/>
<path d="M143.311 48.7958L139.947 48.5332L201.364 13.2083L204.728 13.4554L143.311 48.7958Z" fill="#FCEBCC"/>
<path d="M204.728 13.4553L217.858 55.3757L156.456 90.7161L143.311 48.7957L204.728 13.4553Z" fill="#FEBD33"/>
<path d="M158.75 86.7157L157.355 86.0979L155.293 79.626L155.929 77.8497L161.479 74.6987L162.858 75.3166L164.935 81.7884L164.3 83.5493L158.75 86.7157Z" fill="#130E0C"/>
<path d="M155.929 77.8497L156.239 77.6798L159.06 86.5303L158.75 86.7003L155.929 77.8497ZM164.3 83.5338L161.479 74.6987L161.169 74.8686L163.99 83.7192L164.284 83.5493L164.3 83.5338Z" fill="white"/>
<path d="M155.696 77.1083L154.301 76.4904L152.24 70.0186L152.86 68.2577L158.409 65.0913L159.804 65.7092L161.866 72.181L161.23 73.9573L155.696 77.1083Z" fill="#130E0C"/>
<path d="M152.875 68.2577L153.185 68.0878L156.007 76.9383L155.697 77.1082L152.875 68.2577ZM161.246 73.9418L158.425 65.1067L158.115 65.2766L160.936 74.1271L161.231 73.9572L161.246 73.9418Z" fill="white"/>
<path d="M152.627 67.5009L151.232 66.883L149.17 60.4112L149.806 58.6503L155.34 55.4839L156.735 56.1017L158.797 62.5736L158.161 64.3499L152.627 67.5009Z" fill="#130E0C"/>
<path d="M149.806 58.6502L150.116 58.4803L152.937 67.3309L152.627 67.5008L149.806 58.6502ZM158.177 64.3344L155.355 55.4993L155.045 55.6692L157.867 64.5197L158.161 64.3498L158.177 64.3344Z" fill="white"/>
<path d="M149.558 57.8934L148.163 57.2755L146.101 50.8191L146.736 49.0428L152.286 45.8918L153.681 46.4942L155.743 52.9661L155.107 54.7424L149.558 57.8934Z" fill="#130E0C"/>
<path d="M146.737 49.0428L147.047 48.8729L149.868 57.7235L149.558 57.8934L146.737 49.0428ZM155.107 54.7269L152.286 45.8918L151.976 46.0618L154.797 54.9123L155.092 54.7424L155.107 54.7269Z" fill="white"/>
<path d="M167.075 81.9738L165.679 81.3559L163.618 74.8841L164.253 73.1232L169.787 69.9568L171.182 70.5746L173.244 77.0465L172.624 78.8228L167.075 81.9738Z" fill="#130E0C"/>
<path d="M164.253 73.1078L164.563 72.9379L167.385 81.7884L167.075 81.9583L164.253 73.1078ZM172.624 78.7919L169.803 69.9568L169.493 70.1267L172.314 78.9772L172.609 78.8073L172.624 78.7919Z" fill="white"/>
<path d="M164.021 72.3663L162.626 71.7485L160.564 65.2766L161.184 63.5158L166.734 60.3494L168.129 60.9672L170.19 67.4391L169.555 69.2154L164.021 72.3663Z" fill="#130E0C"/>
<path d="M161.199 63.5157L161.509 63.3458L164.331 72.1964L164.021 72.3663L161.199 63.5157ZM169.57 69.1998L166.749 60.3647L166.439 60.5346L169.26 69.3852L169.555 69.2153L169.57 69.1998Z" fill="white"/>
<path d="M160.951 62.7589L159.556 62.141L157.495 55.6846L158.13 53.9083L163.664 50.7573L165.059 51.3597L167.121 57.8316L166.486 59.6079L160.951 62.7589Z" fill="#130E0C"/>
<path d="M158.13 53.9083L158.44 53.7384L161.261 62.5889L160.951 62.7589L158.13 53.9083ZM166.501 59.5924L163.68 50.7573L163.37 50.9272L166.191 59.7778L166.486 59.6079L166.501 59.5924Z" fill="white"/>
<path d="M157.882 53.1514L156.487 52.5336L154.425 46.0772L155.061 44.3009L160.61 41.1499L162.006 41.7677L164.067 48.2242L163.432 50.0004L157.882 53.1514Z" fill="#130E0C"/>
<path d="M155.061 44.3009L155.371 44.131L158.192 52.9815L157.882 53.1514L155.061 44.3009ZM163.432 49.985L160.61 41.1499L160.3 41.3198L163.122 50.1704L163.416 50.0004L163.432 49.985Z" fill="white"/>
<path d="M175.399 77.2318L174.004 76.614L171.942 70.1421L172.578 68.3813L178.112 65.2148L179.507 65.8327L181.569 72.3045L180.949 74.0808L175.399 77.2318Z" fill="#130E0C"/>
<path d="M172.578 68.3812L172.888 68.2113L175.709 77.0618L175.399 77.2317L172.578 68.3812ZM180.949 74.0653L178.127 65.2302L177.817 65.4001L180.638 74.2507L180.933 74.0808L180.949 74.0653Z" fill="white"/>
<path d="M172.33 67.6243L170.95 67.0065L168.873 60.5501L169.508 58.7738L175.058 55.6228L176.453 56.2252L178.515 62.6971L177.879 64.4733L172.33 67.6243Z" fill="#130E0C"/>
<path d="M169.524 58.7738L169.834 58.6039L172.655 67.4544L172.345 67.6243L169.524 58.7738ZM177.895 64.4579L175.074 55.6228L174.763 55.7927L177.585 64.6433L177.879 64.4733L177.895 64.4579Z" fill="white"/>
<path d="M169.276 58.0171L167.881 57.3993L165.819 50.9429L166.455 49.1666L171.989 46.0156L173.384 46.6335L175.446 53.0899L174.81 54.8662L169.276 58.0171Z" fill="#130E0C"/>
<path d="M166.455 49.1666L166.765 48.9967L169.586 57.8472L169.276 58.0171L166.455 49.1666ZM174.825 54.8507L172.004 46.0156L171.694 46.1855L174.515 55.0361L174.81 54.8662L174.825 54.8507Z" fill="white"/>
<path d="M166.207 48.4097L164.811 47.8073L162.75 41.3355L163.385 39.5592L168.935 36.4082L170.33 37.026L172.392 43.4979L171.756 45.2587L166.207 48.4097Z" fill="#130E0C"/>
<path d="M163.385 39.5592L163.695 39.3893L166.517 48.2398L166.207 48.4097L163.385 39.5592ZM171.756 45.2433L168.935 36.4082L168.625 36.5781L171.446 45.4287L171.741 45.2587L171.756 45.2433Z" fill="white"/>
<path d="M183.723 72.4898L182.328 71.872L180.267 65.4001L180.902 63.6393L186.436 60.4883L187.831 61.0907L189.893 67.5625L189.258 69.3388L183.723 72.4898Z" fill="#130E0C"/>
<path d="M180.902 63.6393L181.212 63.4694L184.034 72.3199L183.724 72.4898L180.902 63.6393ZM189.273 69.3234L186.452 60.4883L186.142 60.6582L188.963 69.5087L189.258 69.3388L189.273 69.3234Z" fill="white"/>
<path d="M180.654 62.8826L179.259 62.2648L177.197 55.8084L177.833 54.0321L183.382 50.8811L184.778 51.4989L186.839 57.9554L186.204 59.7317L180.654 62.8826Z" fill="#130E0C"/>
<path d="M177.833 54.0321L178.143 53.8622L180.964 62.7127L180.654 62.8826L177.833 54.0321ZM186.204 59.7162L183.382 50.8811L183.072 51.051L185.894 59.9016L186.188 59.7317L186.204 59.7162Z" fill="white"/>
<path d="M177.6 53.2752L176.205 52.6728L174.143 46.2009L174.779 44.4247L180.313 41.2737L181.708 41.8915L183.77 48.3479L183.134 50.1242L177.6 53.2752Z" fill="#130E0C"/>
<path d="M174.779 44.4247L175.089 44.2548L177.91 53.1053L177.6 53.2752L174.779 44.4247ZM183.15 50.1088L180.329 41.2737L180.019 41.4436L182.84 50.2941L183.134 50.1242L183.15 50.1088Z" fill="white"/>
<path d="M174.531 43.6832L173.136 43.0654L171.074 36.5935L171.71 34.8172L177.259 31.6663L178.639 32.2841L180.716 38.756L180.08 40.5168L174.531 43.6832Z" fill="#130E0C"/>
<path d="M171.71 34.8172L172.02 34.6473L174.841 43.4979L174.531 43.6678L171.71 34.8172ZM180.081 40.5014L177.259 31.6663L176.949 31.8362L179.771 40.6867L180.065 40.5168L180.081 40.5014Z" fill="white"/>
<path d="M192.048 67.7481L190.653 67.1303L188.591 60.6738L189.226 58.8976L194.76 55.7466L196.156 56.3644L198.217 62.8208L197.582 64.5971L192.048 67.7481Z" fill="#130E0C"/>
<path d="M189.227 58.8976L189.537 58.7277L192.358 67.5782L192.048 67.7481L189.227 58.8976ZM197.597 64.5817L194.776 55.7466L194.466 55.9165L197.287 64.767L197.582 64.5971L197.597 64.5817Z" fill="white"/>
<path d="M188.978 58.1407L187.583 57.5383L185.521 51.0664L186.157 49.2901L191.707 46.1392L193.102 46.757L195.164 53.2134L194.528 54.9897L188.978 58.1407Z" fill="#130E0C"/>
<path d="M186.157 49.2901L186.467 49.1202L189.289 57.9708L188.979 58.1407L186.157 49.2901ZM194.528 54.9743L191.707 46.1392L191.397 46.3091L194.218 55.1596L194.513 54.9897L194.528 54.9743Z" fill="white"/>
<path d="M185.925 48.5487L184.529 47.9309L182.468 41.459L183.103 39.6827L188.637 36.5317L190.033 37.1496L192.094 43.6214L191.459 45.3823L185.925 48.5487Z" fill="#130E0C"/>
<path d="M183.103 39.6827L183.413 39.5128L186.235 48.3634L185.925 48.5333L183.103 39.6827ZM191.474 45.3668L188.653 36.5317L188.343 36.7016L191.164 45.5522L191.459 45.3823L191.474 45.3668Z" fill="white"/>
<path d="M182.855 38.9413L181.46 38.3234L179.398 31.8516L180.034 30.0753L185.568 26.9243L186.963 27.5422L189.025 34.014L188.405 35.7749L182.855 38.9413Z" fill="#130E0C"/>
<path d="M180.034 30.0753L180.344 29.9054L183.165 38.7559L182.855 38.9258L180.034 30.0753ZM188.405 35.7594L185.584 26.9243L185.273 27.0942L188.095 35.9448L188.389 35.7749L188.405 35.7594Z" fill="white"/>
<path d="M200.372 63.0062L198.977 62.4038L196.915 55.9319L197.551 54.1556L203.085 51.0046L204.48 51.6225L206.542 58.0789L205.906 59.8552L200.372 63.0062Z" fill="#130E0C"/>
<path d="M197.551 54.1556L197.861 53.9857L200.682 62.8363L200.372 63.0062L197.551 54.1556ZM205.922 59.8397L203.1 51.0046L202.79 51.1745L205.612 60.0251L205.906 59.8552L205.922 59.8397Z" fill="white"/>
<path d="M197.303 53.4142L195.908 52.7963L193.846 46.3245L194.482 44.5482L200.031 41.3972L201.426 42.0151L203.488 48.4869L202.852 50.2478L197.303 53.4142Z" fill="#130E0C"/>
<path d="M194.481 44.5482L194.791 44.3783L197.613 53.2288L197.303 53.3987L194.481 44.5482ZM202.852 50.2323L200.031 41.3972L199.721 41.5671L202.542 50.4177L202.837 50.2478L202.852 50.2323Z" fill="white"/>
<path d="M194.249 43.8068L192.854 43.1889L190.792 36.7171L191.412 34.9408L196.962 31.7898L198.357 32.4076L200.419 38.8795L199.783 40.6403L194.249 43.8068Z" fill="#130E0C"/>
<path d="M191.428 34.9408L191.738 34.7709L194.559 43.6214L194.249 43.7913L191.428 34.9408ZM199.799 40.6249L196.977 31.7898L196.667 31.9597L199.489 40.8102L199.783 40.6403L199.799 40.6249Z" fill="white"/>
<path d="M191.18 34.1993L189.785 33.5815L187.723 27.1096L188.358 25.3488L193.893 22.1824L195.288 22.8002L197.349 29.2721L196.729 31.0484L191.18 34.1993Z" fill="#130E0C"/>
<path d="M188.358 25.3487L188.668 25.1788L191.49 34.0294L191.18 34.1993L188.358 25.3487ZM196.729 31.0329L193.908 22.1978L193.598 22.3677L196.419 31.2182L196.714 31.0483L196.729 31.0329Z" fill="white"/>
<path d="M208.697 58.2642L207.301 57.6618L205.24 51.19L205.875 49.4137L211.409 46.2627L212.805 46.8805L214.866 53.3524L214.231 55.1132L208.697 58.2642Z" fill="#130E0C"/>
<path d="M205.875 49.4137L206.185 49.2438L209.006 58.0943L208.696 58.2642L205.875 49.4137ZM214.246 55.0978L211.425 46.2627L211.115 46.4326L213.936 55.2831L214.23 55.1132L214.246 55.0978Z" fill="white"/>
<path d="M205.627 48.6722L204.232 48.0544L202.17 41.5825L202.806 39.8063L208.34 36.6553L209.735 37.2731L211.797 43.745L211.177 45.5058L205.627 48.6722Z" fill="#130E0C"/>
<path d="M202.806 39.8063L203.116 39.6363L205.937 48.4869L205.627 48.6568L202.806 39.8063ZM211.177 45.4904L208.355 36.6553L208.045 36.8252L210.867 45.6757L211.161 45.5058L211.177 45.4904Z" fill="white"/>
<path d="M202.573 39.0648L201.178 38.447L199.116 31.9751L199.737 30.2143L205.286 27.0479L206.681 27.6657L208.743 34.1376L208.107 35.9138L202.573 39.0648Z" fill="#130E0C"/>
<path d="M199.752 30.1988L200.062 30.0289L202.884 38.8795L202.573 39.0494L199.752 30.1988ZM208.123 35.883L205.302 27.0479L204.992 27.2178L207.813 36.0683L208.108 35.8984L208.123 35.883Z" fill="white"/>
<path d="M199.504 29.4574L198.109 28.8396L196.047 22.3677L196.683 20.6069L202.217 17.4404L203.612 18.0583L205.674 24.5301L205.038 26.3064L199.504 29.4574Z" fill="#130E0C"/>
<path d="M196.683 20.6068L196.993 20.4369L199.814 29.2874L199.504 29.4573L196.683 20.6068ZM205.054 26.2909L202.232 17.4558L201.922 17.6257L204.744 26.4763L205.038 26.3064L205.054 26.2909Z" fill="white"/>
<path d="M101.27 173.707L97.9218 173.445L84.7764 131.524L88.1402 131.787L101.27 173.707Z" fill="#120D0C"/>
<path d="M88.1402 131.787L84.7764 131.524L146.194 96.1995L149.558 96.4466L88.1402 131.787Z" fill="#FCEBCC"/>
<path d="M149.558 96.4465L162.688 138.367L101.27 173.707L88.1404 131.787L149.558 96.4465Z" fill="#FEBD33"/>
<path d="M103.58 169.707L102.185 169.089L100.123 162.617L100.759 160.856L106.293 157.69L107.688 158.308L109.75 164.78L109.129 166.54L103.58 169.707Z" fill="#130E0C"/>
<path d="M100.759 160.841L101.069 160.671L103.89 169.522L103.58 169.691L100.759 160.841ZM109.129 166.525L106.308 157.69L105.998 157.86L108.819 166.71L109.114 166.54L109.129 166.525Z" fill="white"/>
<path d="M100.526 160.099L99.1309 159.482L97.0537 153.01L97.6893 151.249L103.239 148.083L104.634 148.7L106.696 155.172L106.06 156.949L100.526 160.099Z" fill="#130E0C"/>
<path d="M97.7048 151.249L98.0149 151.079L100.836 159.93L100.526 160.099L97.7048 151.249ZM106.076 156.933L103.254 148.098L102.944 148.268L105.766 157.118L106.06 156.948L106.076 156.933Z" fill="white"/>
<path d="M97.4569 150.492L96.0617 149.874L94 143.402L94.6356 141.641L100.17 138.49L101.565 139.093L103.627 145.565L102.991 147.341L97.4569 150.492Z" fill="#130E0C"/>
<path d="M94.6355 141.641L94.9455 141.472L97.7668 150.322L97.4568 150.492L94.6355 141.641ZM103.006 147.326L100.185 138.49L99.875 138.66L102.696 147.511L102.991 147.341L103.006 147.326Z" fill="white"/>
<path d="M94.3875 140.885L92.9924 140.267L90.9307 133.81L91.5662 132.034L97.1158 128.883L98.511 129.501L100.573 135.957L99.9371 137.734L94.3875 140.885Z" fill="#130E0C"/>
<path d="M91.5662 132.034L91.8762 131.864L94.6975 140.715L94.3875 140.885L91.5662 132.034ZM99.937 137.718L97.1157 128.883L96.8057 129.053L99.627 137.904L99.9215 137.734L99.937 137.718Z" fill="white"/>
<path d="M111.904 164.965L110.509 164.347L108.448 157.875L109.083 156.114L114.617 152.948L116.012 153.566L118.074 160.038L117.438 161.814L111.904 164.965Z" fill="#130E0C"/>
<path d="M109.083 156.114L109.393 155.944L112.214 164.795L111.904 164.965L109.083 156.114ZM117.454 161.798L114.633 152.963L114.323 153.133L117.144 161.984L117.438 161.814L117.454 161.798Z" fill="white"/>
<path d="M108.835 155.357L107.44 154.74L105.378 148.268L106.014 146.507L111.563 143.356L112.958 143.958L115.02 150.43L114.385 152.206L108.835 155.357Z" fill="#130E0C"/>
<path d="M106.014 146.507L106.324 146.337L109.145 155.188L108.835 155.357L106.014 146.507ZM114.385 152.191L111.563 143.356L111.253 143.526L114.075 152.376L114.369 152.206L114.385 152.191Z" fill="white"/>
<path d="M105.781 145.75L104.386 145.132L102.324 138.676L102.96 136.9L108.494 133.749L109.889 134.366L111.951 140.823L111.315 142.599L105.781 145.75Z" fill="#130E0C"/>
<path d="M102.96 136.9L103.27 136.73L106.091 145.58L105.781 145.75L102.96 136.9ZM111.331 142.584L108.51 133.749L108.2 133.918L111.021 142.769L111.315 142.599L111.331 142.584Z" fill="white"/>
<path d="M102.712 136.143L101.317 135.54L99.2549 129.069L99.8904 127.292L105.44 124.141L106.835 124.759L108.897 131.216L108.261 132.992L102.712 136.143Z" fill="#130E0C"/>
<path d="M99.8906 127.292L100.201 127.122L103.022 135.973L102.712 136.143L99.8906 127.292ZM108.262 132.976L105.44 124.141L105.13 124.311L107.951 133.162L108.246 132.992L108.262 132.976Z" fill="white"/>
<path d="M120.229 160.223L118.833 159.605L116.772 153.133L117.407 151.372L122.941 148.206L124.337 148.824L126.398 155.296L125.763 157.072L120.229 160.223Z" fill="#130E0C"/>
<path d="M117.407 151.372L117.718 151.202L120.539 160.053L120.229 160.223L117.407 151.372ZM125.778 157.057L122.957 148.221L122.647 148.391L125.468 157.242L125.763 157.072L125.778 157.057Z" fill="white"/>
<path d="M117.159 150.616L115.764 149.998L113.702 143.542L114.338 141.765L119.888 138.614L121.283 139.217L123.344 145.689L122.709 147.465L117.159 150.616Z" fill="#130E0C"/>
<path d="M114.338 141.765L114.648 141.595L117.469 150.446L117.159 150.616L114.338 141.765ZM122.709 147.449L119.888 138.614L119.578 138.784L122.399 147.635L122.694 147.465L122.709 147.449Z" fill="white"/>
<path d="M114.105 141.008L112.71 140.391L110.648 133.934L111.284 132.158L116.818 129.007L118.213 129.625L120.275 136.081L119.639 137.857L114.105 141.008Z" fill="#130E0C"/>
<path d="M111.284 132.158L111.594 131.988L114.416 140.838L114.105 141.008L111.284 132.158ZM119.655 137.842L116.834 129.007L116.524 129.177L119.345 138.027L119.64 137.857L119.655 137.842Z" fill="white"/>
<path d="M111.036 131.416L109.641 130.799L107.579 124.327L108.215 122.55L113.749 119.399L115.144 120.017L117.221 126.489L116.586 128.25L111.036 131.416Z" fill="#130E0C"/>
<path d="M108.215 122.55L108.525 122.38L111.346 131.231L111.036 131.401L108.215 122.55ZM116.586 128.235L113.764 119.399L113.454 119.569L116.276 128.42L116.57 128.25L116.586 128.235Z" fill="white"/>
<path d="M128.553 155.481L127.158 154.863L125.096 148.407L125.732 146.63L131.266 143.479L132.661 144.082L134.723 150.554L134.087 152.33L128.553 155.481Z" fill="#130E0C"/>
<path d="M125.732 146.63L126.042 146.461L128.863 155.311L128.553 155.481L125.732 146.63ZM134.103 152.315L131.281 143.479L130.971 143.649L133.793 152.5L134.087 152.33L134.103 152.315Z" fill="white"/>
<path d="M125.484 145.874L124.089 145.256L122.027 138.8L122.662 137.023L128.212 133.872L129.607 134.49L131.669 140.947L131.033 142.723L125.484 145.874Z" fill="#130E0C"/>
<path d="M122.662 137.023L122.972 136.853L125.794 145.704L125.484 145.874L122.662 137.023ZM131.033 142.707L128.212 133.872L127.902 134.042L130.723 142.893L131.018 142.723L131.033 142.707Z" fill="white"/>
<path d="M122.43 136.266L121.035 135.664L118.973 129.192L119.609 127.416L125.143 124.265L126.538 124.883L128.6 131.355L127.964 133.115L122.43 136.266Z" fill="#130E0C"/>
<path d="M119.609 127.416L119.919 127.246L122.74 136.097L122.43 136.266L119.609 127.416ZM127.98 133.1L125.158 124.265L124.848 124.435L127.669 133.285L127.964 133.115L127.98 133.1Z" fill="white"/>
<path d="M119.361 126.674L117.966 126.057L115.904 119.585L116.539 117.808L122.073 114.657L123.469 115.275L125.53 121.747L124.91 123.508L119.361 126.674Z" fill="#130E0C"/>
<path d="M116.539 117.808L116.849 117.639L119.671 126.489L119.361 126.659L116.539 117.808ZM124.91 123.493L122.089 114.657L121.779 114.827L124.6 123.678L124.895 123.508L124.91 123.493Z" fill="white"/>
<path d="M136.878 150.739L135.482 150.121L133.421 143.665L134.056 141.889L139.59 138.738L140.985 139.356L143.047 145.812L142.412 147.588L136.878 150.739Z" fill="#130E0C"/>
<path d="M134.056 141.889L134.366 141.719L137.187 150.569L136.877 150.739L134.056 141.889ZM142.427 147.573L139.606 138.738L139.296 138.908L142.117 147.758L142.412 147.588L142.427 147.573Z" fill="white"/>
<path d="M133.808 141.132L132.413 140.529L130.351 134.058L130.987 132.281L136.536 129.13L137.916 129.748L139.993 136.22L139.358 137.981L133.808 141.132Z" fill="#130E0C"/>
<path d="M130.987 132.281L131.297 132.111L134.118 140.962L133.808 141.132L130.987 132.281ZM139.358 137.965L136.536 129.13L136.226 129.3L139.048 138.151L139.342 137.981L139.358 137.965Z" fill="white"/>
<path d="M130.754 131.54L129.359 130.922L127.297 124.45L127.917 122.674L133.467 119.523L134.862 120.141L136.924 126.613L136.288 128.373L130.754 131.54Z" fill="#130E0C"/>
<path d="M127.933 122.674L128.243 122.504L131.064 131.355L130.754 131.524L127.933 122.674ZM136.304 128.358L133.483 119.523L133.173 119.693L135.994 128.543L136.288 128.373L136.304 128.358Z" fill="white"/>
<path d="M127.685 121.932L126.29 121.315L124.228 114.843L124.864 113.082L130.398 109.916L131.793 110.533L133.855 117.005L133.219 118.766L127.685 121.932Z" fill="#130E0C"/>
<path d="M124.864 113.067L125.174 112.897L127.995 121.747L127.685 121.917L124.864 113.067ZM133.235 118.751L130.413 109.916L130.103 110.085L132.925 118.936L133.219 118.766L133.235 118.751Z" fill="white"/>
<path d="M145.202 145.997L143.807 145.395L141.745 138.923L142.38 137.147L147.915 133.996L149.31 134.614L151.371 141.07L150.736 142.846L145.202 145.997Z" fill="#130E0C"/>
<path d="M142.381 137.147L142.691 136.977L145.512 145.827L145.202 145.997L142.381 137.147ZM150.752 142.831L147.93 133.996L147.62 134.166L150.441 143.016L150.736 142.846L150.752 142.831Z" fill="white"/>
<path d="M142.132 136.405L140.737 135.788L138.676 129.316L139.311 127.539L144.845 124.388L146.24 125.006L148.302 131.478L147.682 133.239L142.132 136.405Z" fill="#130E0C"/>
<path d="M139.311 127.539L139.621 127.37L142.443 136.22L142.133 136.39L139.311 127.539ZM147.682 133.224L144.861 124.388L144.551 124.558L147.372 133.409L147.667 133.239L147.682 133.224Z" fill="white"/>
<path d="M139.079 126.798L137.683 126.18L135.606 119.708L136.242 117.947L141.791 114.781L143.187 115.399L145.248 121.871L144.613 123.632L139.079 126.798Z" fill="#130E0C"/>
<path d="M136.257 117.932L136.567 117.762L139.389 126.613L139.079 126.783L136.257 117.932ZM144.628 123.616L141.807 114.781L141.497 114.951L144.318 123.801L144.613 123.632L144.628 123.616Z" fill="white"/>
<path d="M136.009 117.191L134.614 116.573L132.552 110.101L133.188 108.34L138.722 105.174L140.117 105.791L142.179 112.263L141.543 114.04L136.009 117.191Z" fill="#130E0C"/>
<path d="M133.188 108.34L133.498 108.17L136.319 117.021L136.009 117.19L133.188 108.34ZM141.559 114.024L138.738 105.189L138.428 105.359L141.249 114.209L141.543 114.04L141.559 114.024Z" fill="white"/>
<path d="M153.526 141.271L152.131 140.653L150.069 134.181L150.689 132.405L156.239 129.254L157.634 129.872L159.696 136.344L159.06 138.104L153.526 141.271Z" fill="#130E0C"/>
<path d="M150.705 132.405L151.015 132.235L153.836 141.086L153.526 141.255L150.705 132.405ZM159.076 138.089L156.254 129.254L155.944 129.424L158.766 138.274L159.06 138.104L159.076 138.089Z" fill="white"/>
<path d="M150.457 131.663L149.062 131.046L147 124.574L147.636 122.797L153.17 119.646L154.565 120.264L156.627 126.736L156.006 128.497L150.457 131.663Z" fill="#130E0C"/>
<path d="M147.635 122.797L147.946 122.628L150.767 131.478L150.457 131.648L147.635 122.797ZM156.006 128.482L153.185 119.646L152.875 119.816L155.696 128.667L155.991 128.497L156.006 128.482Z" fill="white"/>
<path d="M147.388 122.056L145.992 121.438L143.931 114.966L144.566 113.205L150.116 110.039L151.511 110.657L153.573 117.129L152.937 118.905L147.388 122.056Z" fill="#130E0C"/>
<path d="M144.566 113.205L144.876 113.036L147.697 121.886L147.387 122.056L144.566 113.205ZM152.937 118.89L150.116 110.054L149.806 110.224L152.627 119.075L152.922 118.905L152.937 118.89Z" fill="white"/>
<path d="M144.334 112.449L142.939 111.831L140.877 105.359L141.513 103.598L147.047 100.447L148.442 101.049L150.503 107.521L149.868 109.298L144.334 112.449Z" fill="#130E0C"/>
<path d="M141.512 103.598L141.822 103.428L144.644 112.279L144.334 112.449L141.512 103.598ZM149.883 109.282L147.062 100.447L146.752 100.617L149.573 109.467L149.868 109.298L149.883 109.282Z" fill="white"/>
<path d="M87.5977 130.32L84.2339 130.072L71.104 88.1521L74.4679 88.3992L87.5977 130.32Z" fill="#120D0C"/>
<path d="M74.4679 88.3993L71.104 88.1522L132.521 52.8118L135.885 53.0743L74.4679 88.3993Z" fill="#FCEBCC"/>
<path d="M135.885 53.0742L149.015 94.9946L87.5977 130.32L74.4678 88.3992L135.885 53.0742Z" fill="#FEBD33"/>
<path d="M89.9075 126.319L88.5124 125.701L86.4507 119.23L87.0863 117.469L92.6203 114.302L94.0155 114.92L96.0772 121.392L95.4416 123.168L89.9075 126.319Z" fill="#130E0C"/>
<path d="M87.0862 117.469L87.3962 117.299L90.2175 126.149L89.9075 126.319L87.0862 117.469ZM95.4571 123.153L92.6358 114.318L92.3257 114.488L95.147 123.338L95.4416 123.168L95.4571 123.153Z" fill="white"/>
<path d="M86.8382 116.712L85.4431 116.094L83.3813 109.622L84.0169 107.861L89.5665 104.71L90.9461 105.313L93.0234 111.784L92.3878 113.561L86.8382 116.712Z" fill="#130E0C"/>
<path d="M84.0168 107.861L84.3269 107.691L87.1482 116.542L86.8381 116.712L84.0168 107.861ZM92.3877 113.545L89.5664 104.71L89.2564 104.88L92.0777 113.731L92.3722 113.561L92.3877 113.545Z" fill="white"/>
<path d="M83.7843 107.104L82.3891 106.486L80.3274 100.03L80.9475 98.2538L86.497 95.1028L87.8922 95.7206L89.9539 102.177L89.3183 103.953L83.7843 107.104Z" fill="#130E0C"/>
<path d="M80.9631 98.2538L81.2732 98.0839L84.0945 106.934L83.7844 107.104L80.9631 98.2538ZM89.334 103.938L86.5127 95.1028L86.2027 95.2727L89.024 104.123L89.3185 103.953L89.334 103.938Z" fill="white"/>
<path d="M80.7149 97.4969L79.3198 96.8945L77.2581 90.4226L77.8936 88.6463L83.4277 85.4954L84.8229 86.1132L86.8846 92.5696L86.249 94.3459L80.7149 97.4969Z" fill="#130E0C"/>
<path d="M77.8938 88.6463L78.2038 88.4764L81.0251 97.327L80.7151 97.4969L77.8938 88.6463ZM86.2647 94.3305L83.4434 85.4954L83.1334 85.6653L85.9546 94.5158L86.2492 94.3459L86.2647 94.3305Z" fill="white"/>
<path d="M98.2318 121.577L96.8366 120.959L94.7749 114.488L95.4105 112.727L100.945 109.576L102.34 110.178L104.401 116.65L103.766 118.426L98.2318 121.577Z" fill="#130E0C"/>
<path d="M95.4106 112.727L95.7207 112.557L98.542 121.407L98.2319 121.577L95.4106 112.727ZM103.782 118.411L100.96 109.576L100.65 109.746L103.471 118.596L103.766 118.426L103.782 118.411Z" fill="white"/>
<path d="M95.1624 111.97L93.7673 111.352L91.7056 104.896L92.3411 103.119L97.8752 99.9683L99.2704 100.586L101.332 107.043L100.712 108.819L95.1624 111.97Z" fill="#130E0C"/>
<path d="M92.3413 103.119L92.6513 102.949L95.4726 111.8L95.1626 111.97L92.3413 103.119ZM100.712 108.803L97.8909 99.9683L97.5809 100.138L100.402 108.989L100.697 108.819L100.712 108.803Z" fill="white"/>
<path d="M92.1087 102.362L90.7136 101.76L88.6519 95.2881L89.2719 93.5118L94.8215 90.3608L96.2167 90.9787L98.2784 97.4351L97.6428 99.2114L92.1087 102.362Z" fill="#130E0C"/>
<path d="M89.2874 93.5118L89.5974 93.3419L92.4187 102.192L92.1087 102.362L89.2874 93.5118ZM97.6582 99.1959L94.8369 90.3608L94.5269 90.5307L97.3482 99.3813L97.6427 99.2114L97.6582 99.1959Z" fill="white"/>
<path d="M89.0394 92.7704L87.6442 92.1525L85.5825 85.6807L86.2181 83.9044L91.7522 80.7534L93.1473 81.3713L95.209 87.8431L94.5735 89.604L89.0394 92.7704Z" fill="#130E0C"/>
<path d="M86.218 83.9044L86.5281 83.7345L89.3493 92.585L89.0393 92.7549L86.218 83.9044ZM94.5889 89.5885L91.7676 80.7534L91.4576 80.9233L94.2789 89.7739L94.5734 89.604L94.5889 89.5885Z" fill="white"/>
<path d="M106.556 116.835L105.161 116.217L103.099 109.761L103.719 107.985L109.269 104.834L110.664 105.452L112.726 111.908L112.09 113.684L106.556 116.835Z" fill="#130E0C"/>
<path d="M103.735 107.985L104.045 107.815L106.866 116.665L106.556 116.835L103.735 107.985ZM112.106 113.669L109.284 104.834L108.974 105.004L111.796 113.854L112.09 113.684L112.106 113.669Z" fill="white"/>
<path d="M103.487 107.228L102.092 106.625L100.03 100.154L100.666 98.3773L106.2 95.2263L107.595 95.8442L109.657 102.301L109.036 104.077L103.487 107.228Z" fill="#130E0C"/>
<path d="M100.666 98.3773L100.976 98.2074L103.797 107.058L103.487 107.228L100.666 98.3773ZM109.036 104.061L106.215 95.2263L105.905 95.3962L108.726 104.247L109.021 104.077L109.036 104.061Z" fill="white"/>
<path d="M100.418 97.6359L99.0224 97.018L96.9607 90.5462L97.5963 88.7699L103.146 85.6189L104.541 86.2367L106.603 92.7086L105.967 94.4694L100.418 97.6359Z" fill="#130E0C"/>
<path d="M97.5962 88.7699L97.9062 88.6L100.728 97.4505L100.417 97.6204L97.5962 88.7699ZM105.967 94.454L103.146 85.6189L102.836 85.7888L105.657 94.6393L105.952 94.4694L105.967 94.454Z" fill="white"/>
<path d="M97.3638 88.0284L95.9687 87.4106L93.907 80.9387L94.5425 79.1625L100.077 76.0115L101.472 76.6293L103.533 83.1012L102.898 84.862L97.3638 88.0284Z" fill="#130E0C"/>
<path d="M94.5425 79.1625L94.8525 78.9925L97.6738 87.8431L97.3638 88.013L94.5425 79.1625ZM102.913 84.8466L100.092 76.0115L99.782 76.1814L102.603 85.0319L102.898 84.862L102.913 84.8466Z" fill="white"/>
<path d="M114.881 112.093L113.486 111.491L111.424 105.019L112.044 103.243L117.593 100.092L118.989 100.71L121.05 107.166L120.415 108.942L114.881 112.093Z" fill="#130E0C"/>
<path d="M112.06 103.243L112.37 103.073L115.191 111.923L114.881 112.093L112.06 103.243ZM120.43 108.927L117.609 100.092L117.299 100.262L120.12 109.112L120.415 108.942L120.43 108.927Z" fill="white"/>
<path d="M111.811 102.501L110.416 101.884L108.354 95.4116L108.99 93.6354L114.524 90.4844L115.919 91.1022L117.981 97.5741L117.345 99.3349L111.811 102.501Z" fill="#130E0C"/>
<path d="M108.99 93.6354L109.3 93.4654L112.121 102.316L111.811 102.486L108.99 93.6354ZM117.361 99.3195L114.54 90.4844L114.23 90.6543L117.051 99.5048L117.345 99.3349L117.361 99.3195Z" fill="white"/>
<path d="M108.742 92.8939L107.347 92.2761L105.285 85.8042L105.921 84.0279L111.47 80.877L112.865 81.4948L114.927 87.9667L114.292 89.7275L108.742 92.8939Z" fill="#130E0C"/>
<path d="M105.921 84.0279L106.231 83.858L109.052 92.7086L108.742 92.8785L105.921 84.0279ZM114.292 89.712L111.47 80.877L111.16 81.0469L113.982 89.8974L114.276 89.7275L114.292 89.712Z" fill="white"/>
<path d="M105.688 83.2867L104.293 82.6689L102.231 76.197L102.867 74.4362L108.401 71.2698L109.796 71.8876L111.858 78.3595L111.222 80.1358L105.688 83.2867Z" fill="#130E0C"/>
<path d="M102.867 74.4208L103.177 74.2508L105.998 83.1014L105.688 83.2713L102.867 74.4208ZM111.238 80.1049L108.417 71.2698L108.106 71.4397L110.928 80.2902L111.222 80.1203L111.238 80.1049Z" fill="white"/>
<path d="M123.19 107.351L121.81 106.749L119.733 100.277L120.368 98.5008L125.918 95.3499L127.313 95.9677L129.375 102.44L128.739 104.2L123.19 107.351Z" fill="#130E0C"/>
<path d="M120.384 98.5008L120.694 98.3309L123.515 107.181L123.205 107.351L120.384 98.5008ZM128.755 104.185L125.933 95.3499L125.623 95.5198L128.445 104.37L128.739 104.2L128.755 104.185Z" fill="white"/>
<path d="M120.136 97.7596L118.74 97.1418L116.679 90.6699L117.314 88.8937L122.848 85.7427L124.244 86.3605L126.305 92.8324L125.67 94.5932L120.136 97.7596Z" fill="#130E0C"/>
<path d="M117.314 88.8937L117.624 88.7237L120.446 97.5743L120.136 97.7442L117.314 88.8937ZM125.685 94.5778L122.864 85.7427L122.554 85.9126L125.375 94.7631L125.67 94.5932L125.685 94.5778Z" fill="white"/>
<path d="M117.066 88.1522L115.671 87.5344L113.609 81.0625L114.245 79.3017L119.795 76.1353L121.19 76.7531L123.251 83.225L122.616 85.0012L117.066 88.1522Z" fill="#130E0C"/>
<path d="M114.245 79.2862L114.555 79.1163L117.376 87.9669L117.066 88.1368L114.245 79.2862ZM122.616 84.9703L119.795 76.1353L119.485 76.3052L122.306 85.1557L122.601 84.9858L122.616 84.9703Z" fill="white"/>
<path d="M114.013 78.5448L112.617 77.927L110.556 71.4551L111.191 69.6943L116.725 66.5278L118.12 67.1457L120.182 73.6175L119.547 75.3938L114.013 78.5448Z" fill="#130E0C"/>
<path d="M111.191 69.6942L111.501 69.5243L114.322 78.3748L114.012 78.5447L111.191 69.6942ZM119.562 75.3783L116.741 66.5432L116.431 66.7131L119.252 75.5637L119.547 75.3938L119.562 75.3783Z" fill="white"/>
<path d="M131.514 102.625L130.119 102.007L128.057 95.5354L128.693 93.7591L134.242 90.6082L135.637 91.226L137.699 97.6979L137.064 99.4587L131.514 102.625Z" fill="#130E0C"/>
<path d="M128.693 93.7591L129.003 93.5892L131.824 102.44L131.514 102.61L128.693 93.7591ZM137.064 99.4433L134.242 90.6082L133.932 90.7781L136.753 99.6286L137.048 99.4587L137.064 99.4433Z" fill="white"/>
<path d="M128.46 93.0177L127.065 92.3999L125.003 85.928L125.639 84.1672L131.173 81.0007L132.568 81.6186L134.63 88.0904L133.994 89.8513L128.46 93.0177Z" fill="#130E0C"/>
<path d="M125.639 84.1517L125.949 83.9818L128.77 92.8323L128.46 93.0023L125.639 84.1517ZM134.01 89.8358L131.188 81.0007L130.878 81.1706L133.7 90.0212L133.994 89.8513L134.01 89.8358Z" fill="white"/>
<path d="M125.391 83.4103L123.996 82.7924L121.934 76.3206L122.569 74.5597L128.119 71.3933L129.514 72.0112L131.576 78.483L130.94 80.2593L125.391 83.4103Z" fill="#130E0C"/>
<path d="M122.569 74.5597L122.879 74.3898L125.701 83.2403L125.391 83.4102L122.569 74.5597ZM130.94 80.2438L128.119 71.4087L127.809 71.5786L130.63 80.4291L130.925 80.2592L130.94 80.2438Z" fill="white"/>
<path d="M122.337 73.8028L120.942 73.185L118.88 66.7131L119.5 64.9523L125.05 61.8013L126.445 62.4037L128.507 68.8755L127.871 70.6518L122.337 73.8028Z" fill="#130E0C"/>
<path d="M119.516 64.9523L119.826 64.7823L122.647 73.6329L122.337 73.8028L119.516 64.9523ZM127.887 70.6364L125.065 61.8013L124.755 61.9712L127.576 70.8217L127.871 70.6518L127.887 70.6364Z" fill="white"/>
<path d="M139.838 97.8832L138.443 97.2653L136.381 90.7935L137.017 89.0326L142.566 85.8662L143.962 86.484L146.023 92.9559L145.388 94.7168L139.838 97.8832Z" fill="#130E0C"/>
<path d="M137.017 89.0172L137.327 88.8473L140.148 97.6978L139.838 97.8677L137.017 89.0172ZM145.388 94.7013L142.566 85.8662L142.256 86.0361L145.078 94.8867L145.372 94.7168L145.388 94.7013Z" fill="white"/>
<path d="M136.785 88.2758L135.389 87.6579L133.328 81.1861L133.963 79.4252L139.497 76.2588L140.892 76.8766L142.954 83.3485L142.319 85.1248L136.785 88.2758Z" fill="#130E0C"/>
<path d="M133.963 79.4251L134.273 79.2552L137.094 88.1058L136.784 88.2757L133.963 79.4251ZM142.334 85.1093L139.513 76.2742L139.203 76.4441L142.024 85.2946L142.319 85.1247L142.334 85.1093Z" fill="white"/>
<path d="M133.715 78.6683L132.32 78.0504L130.258 71.5786L130.894 69.8177L136.428 66.6667L137.823 67.2691L139.885 73.741L139.265 75.5173L133.715 78.6683Z" fill="#130E0C"/>
<path d="M130.894 69.8177L131.204 69.6478L134.025 78.4984L133.715 78.6683L130.894 69.8177ZM139.265 75.5018L136.443 66.6667L136.133 66.8367L138.955 75.6872L139.249 75.5173L139.265 75.5018Z" fill="white"/>
<path d="M130.661 69.0609L129.266 68.443L127.204 61.9866L127.824 60.2103L133.374 57.0593L134.769 57.6772L136.831 64.1336L136.195 65.9099L130.661 69.0609Z" fill="#130E0C"/>
<path d="M127.84 60.2103L128.15 60.0404L130.971 68.8909L130.661 69.0609L127.84 60.2103ZM136.211 65.8944L133.39 57.0593L133.08 57.2292L135.901 66.0798L136.195 65.9099L136.211 65.8944Z" fill="white"/>
<path d="M187.785 204.213L160.471 188.505C160.223 188.366 159.897 188.443 159.758 188.69C159.618 188.937 159.696 189.262 159.944 189.401L186.25 204.538L178.67 207.055L153.604 192.629C153.356 192.49 153.03 192.567 152.891 192.814C152.751 193.061 152.829 193.386 153.077 193.525L178.36 208.059C178.437 208.106 178.53 208.137 178.623 208.137C178.685 208.137 178.732 208.137 178.794 208.106L187.692 205.14C187.893 205.078 188.033 204.908 188.048 204.692C188.064 204.491 187.971 204.29 187.785 204.182V204.213Z" fill="#FEBD33"/>
<path d="M196.156 226.115L171.121 211.72V192.582L196.156 206.993V226.115Z" fill="#120D0C"/>
<path d="M232.104 205.433L196.156 226.116V206.993L232.104 186.311V205.433Z" fill="#120D0C"/>
<path d="M196.156 206.993L171.121 192.582L207.069 171.9L232.104 186.311L196.156 206.993Z" fill="#FEBD33"/>
<path d="M216.571 199.07L230.507 191.053V189.957L216.571 197.988V199.07Z" fill="#FEBD33"/>
<path d="M216.571 200.831L230.507 192.814V191.733L216.571 199.749V200.831Z" fill="#FEBD33"/>
<path d="M216.571 202.607L230.507 194.575V193.494L216.571 201.51V202.607Z" fill="#FEBD33"/>
<path d="M216.571 204.368L230.507 196.351V195.254L216.571 203.271V204.368Z" fill="#FEBD33"/>
<path d="M216.571 206.129L230.507 198.112V197.015L216.571 205.047V206.129Z" fill="#FEBD33"/>
<path d="M216.571 207.889L230.507 199.873V198.792L216.571 206.808V207.889Z" fill="#FEBD33"/>
<path d="M216.571 209.666L230.507 201.634V200.552L216.571 208.569V209.666Z" fill="#FEBD33"/>
<path d="M216.571 211.426L230.507 203.41V202.313L216.571 210.33V211.426Z" fill="#FEBD33"/>
<path d="M198.094 209.697L212.029 201.68V200.583L198.094 208.615V209.697Z" fill="#FEBD33"/>
<path d="M198.094 211.457L212.029 203.441V202.36L198.094 210.376V211.457Z" fill="#FEBD33"/>
<path d="M198.094 213.234L212.029 205.202V204.121L198.094 212.137V213.234Z" fill="#FEBD33"/>
<path d="M198.094 214.994L212.029 206.978V205.881L198.094 213.898V214.994Z" fill="#FEBD33"/>
<path d="M198.094 216.755L212.029 208.739V207.642L198.094 215.674V216.755Z" fill="#FEBD33"/>
<path d="M198.094 218.516L212.029 210.5V209.418L198.094 217.435V218.516Z" fill="#FEBD33"/>
<path d="M198.094 220.292L212.029 212.26V211.179L198.094 219.196V220.292Z" fill="#FEBD33"/>
<path d="M198.094 222.053L212.029 214.037V212.94L198.094 220.957V222.053Z" fill="#FEBD33"/>
<path d="M188.591 226.208L170.531 215.782L170.578 207.735L188.637 218.161L188.591 226.208Z" fill="#120D0C"/>
<path d="M188.638 218.161L170.578 207.735L174.268 205.603L192.327 216.045L188.638 218.161Z" fill="#FCEBCC"/>
<path d="M192.327 216.045L192.28 224.092L188.591 226.208L188.637 218.161L192.327 216.045Z" fill="#FEBD33"/>
</g>
<defs>
<clipPath id="clip0_60_4618">
<rect width="128" height="170" fill="white" transform="translate(0.0444336 0.0219727)"/>
</clipPath>
<clipPath id="clip1_60_4618">
<rect width="161" height="213" fill="white" transform="translate(71.104 13.2083)"/>
</clipPath>
</defs>
</svg>
