<svg width="116" height="258" viewBox="0 0 116 258" fill="none" xmlns="http://www.w3.org/2000/svg">
<path d="M46.9092 257.634V222.098L53.7847 222.053V257.634H46.9092Z" fill="black"/>
<path d="M75.5108 244.284V209.191L82.3862 209.153V244.284H75.5108Z" fill="black"/>
<path d="M75.0416 212.152V203.299L83.1411 203.222V212.152C83.1411 212.152 83.1411 212.162 83.1411 212.171V212.191C83.1316 212.787 82.7395 213.373 81.9554 213.825C80.368 214.748 77.8052 214.748 76.2274 213.825C75.4433 213.373 75.0512 212.777 75.0416 212.191C75.0416 212.191 75.0416 212.162 75.0416 212.152Z" fill="#FFBE2E"/>
<path d="M74.9845 203.299L83.084 203.222V204.693L78.274 204.741V213.594V213.613V213.623C78.274 213.911 78.3792 214.209 78.5705 214.478C77.6907 214.421 76.8397 214.209 76.1703 213.815C75.3861 213.363 74.9941 212.767 74.9845 212.181C74.9845 212.181 74.9845 212.152 74.9845 212.143V203.289V203.299Z" fill="black"/>
<path d="M79.0963 215.007C80.2151 215.007 81.3339 214.757 82.2041 214.248C83.1125 213.719 83.6098 212.998 83.6289 212.2V202.741L74.5732 202.828V212.181C74.5923 212.998 75.0896 213.729 75.998 214.248C76.8682 214.757 77.987 215.007 79.1058 215.007H79.0963ZM82.6727 203.712V212.162C82.6727 212.633 82.3284 213.065 81.726 213.421C80.3011 214.248 77.8914 214.248 76.4761 213.421C75.8737 213.075 75.539 212.633 75.5294 212.191V212.162V203.78L82.6727 203.712Z" fill="black"/>
<path d="M72.852 206.231V192.715L85.2163 192.6V206.231C85.2163 206.231 85.2163 206.25 85.2163 206.26V206.279C85.1972 207.182 84.5947 208.086 83.409 208.778C80.9897 210.181 77.0786 210.181 74.6593 208.778C73.464 208.086 72.8711 207.182 72.852 206.279V206.26C72.852 206.26 72.852 206.24 72.852 206.221V206.231Z" fill="#FFBE2E"/>
<path d="M72.8521 206.288V195.436L79.6511 195.599V208.672C79.6511 208.672 79.6511 208.692 79.6511 208.711C79.6511 209.105 79.7849 209.509 80.0049 209.884C79.0295 209.72 75.4244 209.23 74.6594 208.788C73.4641 208.096 72.8712 207.192 72.8521 206.288Z" fill="black"/>
<path d="M79.0295 210.316C80.703 210.316 82.3669 209.951 83.6387 209.211C84.9392 208.451 85.6659 207.423 85.6851 206.298V192.119L72.3644 192.244V206.269C72.3836 207.423 73.1103 208.451 74.4108 209.211C75.6826 209.951 77.3561 210.316 79.02 210.316H79.0295ZM84.7288 193.09V206.24C84.7192 207.057 84.1551 207.798 83.1605 208.374C80.8847 209.701 77.1744 209.691 74.889 208.374C73.8945 207.798 73.3303 207.048 73.3207 206.279V206.231V193.186L84.7288 193.081V193.09Z" fill="black"/>
<path d="M78.5895 209.72L78.6182 208.999C78.6182 208.999 76.4666 208.893 75.2235 208.144L74.8601 208.759C76.2658 209.595 78.4939 209.71 78.5895 209.71V209.72Z" fill="#FFBE2E"/>
<path d="M77.9778 214.853L78.0352 214.132C77.7578 214.113 76.945 214.017 76.5625 213.863L76.2948 214.536C76.8494 214.757 77.863 214.844 77.9778 214.853Z" fill="#FFBE2E"/>
<path d="M46.3546 228.974V220.121L54.4541 220.044V228.974C54.4541 228.974 54.4541 228.984 54.4541 228.994V229.013C54.4445 229.609 54.0525 230.195 53.2683 230.647C51.681 231.57 49.1182 231.57 47.5404 230.647C46.7563 230.195 46.3642 229.599 46.3546 229.013C46.3546 229.013 46.3546 228.984 46.3546 228.974Z" fill="#FFBE2E"/>
<path d="M46.2975 220.111L54.397 220.035V221.505L49.587 221.553V230.407V230.426V230.435C49.587 230.724 49.6922 231.022 49.8835 231.291C49.0037 231.233 48.1526 231.022 47.4833 230.628C46.6991 230.176 46.3071 229.58 46.2975 228.994C46.2975 228.994 46.2975 228.965 46.2975 228.955V220.102V220.111Z" fill="black"/>
<path d="M50.4093 231.82C51.5281 231.82 52.6469 231.57 53.5171 231.06C54.4255 230.532 54.9228 229.811 54.9419 229.013V219.554L45.8862 219.64V228.994C45.9053 229.811 46.4025 230.541 47.311 231.06C48.1812 231.57 49.3 231.82 50.4188 231.82H50.4093ZM53.9856 220.525V228.974C53.9856 229.445 53.6414 229.878 53.039 230.234C51.6141 231.06 49.2044 231.06 47.7891 230.234C47.1867 229.888 46.852 229.445 46.8424 229.003V228.974V220.592L53.9856 220.525Z" fill="black"/>
<path d="M44.1649 223.053V209.537L56.5293 209.422V223.053C56.5293 223.053 56.5293 223.072 56.5293 223.082V223.101C56.5102 224.005 55.9077 224.908 54.722 225.6C52.3027 227.004 48.3916 227.004 45.9723 225.6C44.7769 224.908 44.1841 224.005 44.1649 223.101V223.082C44.1649 223.082 44.1649 223.063 44.1649 223.043V223.053Z" fill="#FFBE2E"/>
<path d="M44.1646 223.101V212.248L50.9636 212.412V225.485C50.9636 225.485 50.9636 225.504 50.9636 225.523C50.9636 225.918 51.0974 226.321 51.3174 226.696C50.342 226.533 46.7369 226.043 45.9719 225.6C44.7766 224.908 44.1837 224.005 44.1646 223.101Z" fill="black"/>
<path d="M50.3518 227.129C52.0252 227.129 53.6891 226.763 54.9609 226.023C56.2614 225.264 56.9882 224.235 57.0073 223.111V208.932L43.6867 209.057V223.082C43.7058 224.235 44.4326 225.264 45.7331 226.023C47.0049 226.763 48.6784 227.129 50.3422 227.129H50.3518ZM56.0511 209.903V223.053C56.0415 223.87 55.4773 224.61 54.4828 225.187C52.2069 226.513 48.4967 226.504 46.2112 225.187C45.2167 224.61 44.6525 223.86 44.643 223.091V223.043V209.999L56.0511 209.893V209.903Z" fill="black"/>
<path d="M49.9025 226.533L49.9312 225.812C49.9312 225.812 47.7796 225.706 46.5365 224.956L46.1731 225.572C47.5788 226.408 49.8068 226.523 49.9025 226.523V226.533Z" fill="#FFBE2E"/>
<path d="M49.2903 231.666L49.3477 230.945C49.0703 230.926 48.2575 230.83 47.875 230.676L47.6073 231.349C48.1619 231.57 49.1755 231.656 49.2903 231.666Z" fill="#FFBE2E"/>
<path d="M8.01878 210.912L16.5772 207.538C17.151 206.923 17.8586 206.336 18.7384 205.827L72.3555 174.711C77.395 171.788 85.8578 171.865 92.1691 174.701L96.826 172.538L107.345 168.51L112.614 169.606L99.4175 186.9C99.4175 186.9 99.3888 186.938 99.3792 186.948V186.957C98.7768 187.688 97.964 188.37 96.9408 188.966L43.3237 220.083C37.7774 223.303 28.1001 222.899 21.7028 219.179L20.3162 218.372C19.8094 218.083 19.3599 217.776 18.9296 217.458H18.9201L8.04747 210.902L8.01878 210.912Z" fill="#FFBE2E"/>
<path d="M33.9139 222.726C37.519 222.726 40.9711 221.996 43.5434 220.506L97.1605 189.389C98.1646 188.803 98.9965 188.13 99.6372 187.38H99.6468L113.455 169.289L107.297 168.011L107.163 168.059L96.6441 172.086L92.1593 174.163C85.5994 171.289 77.2035 171.337 72.1162 174.288L18.4991 205.404C17.6576 205.894 16.9117 206.471 16.2997 207.125L6.93802 210.816L18.6999 217.901C19.1781 218.247 19.6179 218.525 20.0483 218.785L21.4444 219.592C25.0016 221.659 29.5821 222.716 33.9139 222.716V222.726ZM99.0348 186.602L98.9965 186.65C98.4132 187.361 97.6386 187.995 96.692 188.543L43.0748 219.66C37.672 222.793 28.186 222.39 21.9321 218.756L20.5359 217.949C20.1056 217.699 19.6753 217.42 19.1876 217.064L19.0251 216.978L9.09915 210.999L16.8544 207.942L16.9309 207.865C17.4951 207.25 18.1836 206.702 18.9868 206.24L72.6039 175.124C77.4235 172.327 85.7524 172.336 91.9776 175.134L92.1784 175.22L97.0266 172.971L107.383 169.001L111.772 169.914L99.0348 186.592V186.602Z" fill="black"/>
<path d="M15.219 208.076C21.6737 208.471 31.6378 209.951 31.6378 215.392C31.6378 223.428 44.1647 217.901 44.1647 217.901C44.1647 217.901 90.5239 190.774 96.0224 187.649C98.2791 186.371 101.024 183.554 103.481 180.69C105.078 178.642 106.599 176.124 106.235 174.249L112.374 169.626L112.594 169.674L100.947 184.929L100.918 184.9L99.3979 186.9C99.3979 186.9 99.3693 186.938 99.3597 186.948V186.957C98.7573 187.688 97.9444 188.37 96.9212 188.966L43.3041 220.083C37.7579 223.303 28.0806 222.899 21.6832 219.179L20.2967 218.372C19.7898 218.083 19.3404 217.776 18.9101 217.458H18.9005L8.02794 210.903L15.2285 208.067L15.219 208.076Z" fill="black"/>
<path d="M0.999603 201.213V55.7728L106.34 19.8309H114.669V164.829H114.66C114.593 167.482 112.958 169.991 109.706 171.885L38.5612 213.181C31.2076 217.449 18.3556 216.91 9.86407 211.989L8.01851 210.922C3.33286 208.201 0.961357 204.712 1.00917 201.405V201.223L0.999603 201.213Z" fill="#FFBE2E"/>
<path d="M26.1011 216.526C30.8633 216.526 35.4055 215.565 38.8002 213.594L109.945 172.308C113.092 170.481 114.928 167.953 115.128 165.175H115.147V164.838V19.3503L106.187 19.3792L0.52137 55.4268V201.732C0.645683 205.231 3.26582 208.711 7.77934 211.325L9.62491 212.393C14.3297 215.122 20.3732 216.516 26.1011 216.516V216.526ZM114.191 164.656V164.819C114.115 167.386 112.441 169.741 109.467 171.471L38.3221 212.767C31.1119 216.949 18.4511 216.411 10.103 211.575L8.25746 210.508C3.90651 207.98 1.43938 204.674 1.48719 201.415V201.078V56.1189L106.426 20.3116H114.191V164.656Z" fill="black"/>
<path d="M1.80283 52.8986H1.78369L1.84107 52.8217C2.18533 52.1777 14.2245 35.9803 14.2245 35.9803L57.9062 18.6582L77.1078 7.5267C79.1542 6.34434 81.6309 5.53687 84.3179 5.08508L89.5295 2.30701C89.5295 2.30701 104.131 7.74779 105.805 8.71867L107.651 9.78568C116.132 14.717 117.06 22.1765 109.706 26.4445L38.5612 67.7406C31.2076 72.0087 18.3556 71.4704 9.86404 66.5487L8.01847 65.4816C1.83151 61.8961 -0.310493 56.9744 1.80283 52.9082V52.8986Z" fill="#FFBE2E"/>
<path d="M26.1011 71.0859C30.8633 71.0859 35.4055 70.1246 38.8002 68.154L109.945 26.8578C113.302 24.9065 115.147 22.1957 115.147 19.2061C115.147 15.6302 112.499 12.0447 107.88 9.37235L106.034 8.30534C104.342 7.32485 90.2849 2.07631 89.692 1.85522L89.4912 1.77832L84.1553 4.62368C81.3248 5.10431 78.8768 5.95023 76.8686 7.11337L57.6766 18.2545L13.928 35.5862L13.8515 35.6919C12.618 37.3549 1.78363 51.9374 1.42982 52.591L1.13337 53.2159C-0.712196 57.5224 1.841 62.4441 7.7889 65.895L9.63447 66.962C14.3392 69.692 20.3828 71.0859 26.1107 71.0859H26.1011ZM89.5581 2.8261C94.655 4.72942 104.275 8.39186 105.556 9.13203L107.402 10.199C111.715 12.708 114.191 15.9859 114.191 19.2061C114.191 21.8304 112.518 24.2528 109.467 26.0215L38.3221 67.3177C31.1119 71.4992 18.4511 70.9705 10.103 66.1257L8.25746 65.0587C2.54863 61.7423 0.177124 57.0609 2.2235 53.1197L2.28088 53.014C2.77813 52.2258 9.80659 42.7284 14.5305 36.3744L58.0878 19.11L77.3468 7.94006C79.2688 6.82499 81.6403 6.01752 84.3944 5.55611L84.5378 5.50805L89.5581 2.83572V2.8261Z" fill="black"/>
<path d="M41.3915 48.0153L95.0086 16.899C100.555 13.6788 99.8568 8.06498 93.4594 4.34486L92.0729 3.5374C85.666 -0.173102 75.9887 -0.576836 70.4424 2.64342L16.8253 33.7597C11.279 36.98 11.9771 42.5938 18.3744 46.3139L19.761 47.1214C26.1583 50.8319 35.8452 51.2356 41.3819 48.025L41.3915 48.0153Z" fill="#FFBE2E"/>
<path d="M41.1527 52.6582L94.7698 21.5323C100.316 18.3121 99.618 12.6983 93.2207 8.97815L91.8341 8.17068C85.4368 4.46018 75.7499 4.05645 70.2132 7.26709L16.5961 38.3834C11.0498 41.6036 11.7479 47.2175 18.1452 50.9376L19.5318 51.745C25.9291 55.4555 35.616 55.8593 41.1527 52.6486V52.6582Z" fill="#FFEECC"/>
<path d="M32.0015 50.6589C35.6066 50.6589 39.0586 49.9283 41.631 48.4384L95.2481 17.3124C97.8108 15.8225 99.2261 13.7365 99.2261 11.4487C99.2261 8.70908 97.2084 5.96946 93.6894 3.93157L92.3028 3.1241C85.7812 -0.663302 75.8648 -1.06704 70.2038 2.22051L16.5867 33.3368C14.0239 34.8268 12.6087 36.9127 12.6087 39.2006C12.6087 41.9402 14.6264 44.6702 18.1454 46.7177L19.5319 47.5251C23.0892 49.5919 27.6697 50.6493 32.0015 50.6493V50.6589ZM41.1528 47.602C35.75 50.7358 26.264 50.3321 20.0101 46.6985L18.6235 45.891C15.4105 44.0261 13.5649 41.5941 13.5649 39.2102C13.5649 37.278 14.808 35.4901 17.0648 34.1731L70.6819 3.05681C76.0847 -0.0769278 85.5708 0.326806 91.8342 3.9604L93.2208 4.76787C96.4338 6.63273 98.2794 9.06475 98.2794 11.4487C98.2794 13.3808 97.0363 15.1688 94.7795 16.4857L41.1624 47.602H41.1528Z" fill="black"/>
<path d="M8.0185 186.438L9.86407 187.505C18.3556 192.436 31.1981 192.965 38.5612 188.697L109.706 147.411C112.967 145.517 114.593 143.008 114.66 140.355H114.669V164.867H114.66C114.593 167.52 112.958 170.029 109.706 171.923L38.5612 213.219C31.2076 217.487 18.3556 216.949 9.86407 212.027L8.0185 210.96C3.33286 208.24 0.961349 204.75 1.00916 201.444V201.261V176.931C0.961349 180.238 3.33286 183.727 8.0185 186.448V186.438Z" fill="#FFBE2E"/>
<path d="M8.0185 193.974L9.86407 195.041C18.3556 199.973 31.1981 200.502 38.5612 196.233L109.706 154.947C112.967 153.053 114.593 150.544 114.66 147.891H114.669L114.66 160.868C114.593 163.512 112.958 166.03 109.706 167.924L38.5612 209.22C31.2076 213.488 18.3556 212.95 9.86407 208.028L8.0185 210.806C3.33286 208.086 0.961349 204.597 1.00916 201.29V184.468C0.961349 187.774 3.33286 191.264 8.0185 193.984V193.974Z" fill="#FFEECC"/>
<path d="M26.1011 216.564C30.8633 216.564 35.4055 215.603 38.8002 213.632L109.945 172.336C113.101 170.5 114.928 167.972 115.128 165.184H115.138L115.147 164.867V139.605L114.201 140.038L114.182 140.345C114.115 142.912 112.441 145.267 109.467 146.997L38.3221 188.293C31.1119 192.475 18.4511 191.937 10.103 187.101L8.25746 186.034C3.90651 183.506 1.43938 180.2 1.48719 176.941V176.604L0.530937 176.239V176.931V201.78C0.645683 205.279 3.26582 208.759 7.77934 211.373L9.62491 212.441C14.3297 215.171 20.3732 216.574 26.1011 216.574V216.564ZM114.191 164.694V164.858C114.115 167.424 112.441 169.779 109.467 171.51L38.3221 212.806C31.1119 216.987 18.4511 216.449 10.103 211.614L8.25746 210.547C3.90651 208.019 1.43938 204.712 1.48719 201.453V201.117V180.776C2.63469 183.026 4.79583 185.14 7.7889 186.871L9.63447 187.938C18.2408 192.936 31.3319 193.475 38.8098 189.13L109.945 147.824C111.887 146.699 113.331 145.305 114.191 143.748V164.685V164.694Z" fill="black"/>
<path d="M65.4704 158.975L79.556 150.804C81.1147 149.9 82.377 147.468 82.377 145.373V94.7907C82.377 92.6952 81.1147 91.7339 79.556 92.6471L65.4704 100.818C63.9117 101.721 62.6399 104.154 62.6399 106.249V156.831C62.6399 158.927 63.9021 159.888 65.4704 158.975Z" fill="#FFBE2E"/>
<path d="M64.3514 159.792C64.7913 159.792 65.2503 159.657 65.7188 159.388L79.8045 151.217C81.5257 150.218 82.874 147.651 82.874 145.373V94.7907C82.874 93.5123 82.4341 92.5221 81.6596 92.08C80.9902 91.6955 80.1678 91.7435 79.3359 92.2338L65.2503 100.405C63.529 101.404 62.1807 103.971 62.1807 106.249V156.831C62.1807 158.11 62.6206 159.1 63.3951 159.542C63.6916 159.715 64.0167 159.801 64.361 159.801L64.3514 159.792ZM80.6842 92.7721C80.8468 92.7721 81.0189 92.8105 81.1719 92.897C81.6405 93.1662 81.9082 93.8583 81.9082 94.7811V145.363C81.9082 147.266 80.7225 149.564 79.3168 150.371L65.2311 158.542C64.8582 158.754 64.3227 158.955 63.8637 158.696C63.3951 158.427 63.1274 157.735 63.1274 156.812V106.23C63.1274 104.327 64.3131 102.029 65.7188 101.222L79.8045 93.0508C80.0531 92.9067 80.3686 92.7721 80.6842 92.7721Z" fill="black"/>
<path d="M75.7307 148.872C77.2894 147.968 78.5612 145.536 78.5612 143.441V93.2142L79.5557 92.6375C81.1144 91.7339 82.3862 92.6951 82.3862 94.7811V145.363C82.3862 147.459 81.124 149.881 79.5557 150.794L65.4701 158.965C63.9114 159.869 62.6396 158.907 62.6396 156.821V156.466L75.7307 148.872Z" fill="#FFBE2E"/>
<path d="M75.7307 150.4C76.6679 149.852 77.4998 148.756 78.0066 147.516C78.2361 146.968 78.8959 146.757 79.4027 147.055L81.0666 148.026C81.7073 148.401 81.9559 149.218 81.6308 149.881C81.1144 150.938 80.3781 151.842 79.5462 152.323L65.4606 160.494C63.9019 161.397 62.6396 160.436 62.6396 158.35V157.994L75.7307 150.4Z" fill="#FFEECC"/>
<path d="M64.3514 159.792C64.7913 159.792 65.2503 159.657 65.7188 159.388L79.8045 151.217C81.5257 150.218 82.874 147.651 82.874 145.373V94.7907C82.874 93.5123 82.4341 92.5221 81.6596 92.08C80.9902 91.6955 80.1678 91.7435 79.3359 92.2338L78.1023 92.9547V143.46C78.1023 145.363 76.9166 147.661 75.5109 148.468L62.1807 156.197V156.831C62.1807 158.11 62.6206 159.1 63.3951 159.542C63.6916 159.715 64.0167 159.801 64.361 159.801L64.3514 159.792ZM80.6842 92.7721C80.8468 92.7721 81.0189 92.8105 81.1719 92.897C81.6405 93.1662 81.9082 93.8583 81.9082 94.7811V145.363C81.9082 147.266 80.7225 149.564 79.3168 150.371L65.2311 158.542C64.8582 158.754 64.3227 158.955 63.8637 158.696C63.3951 158.427 63.1274 157.735 63.1274 156.812V156.735L75.9794 149.275C77.7007 148.276 79.049 145.709 79.049 143.431V93.4834L79.8045 93.0412C80.0531 92.897 80.3686 92.7625 80.6842 92.7625V92.7721Z" fill="black"/>
<path d="M65.4703 128.762L72.6327 124.609C73.5315 124.09 74.2583 122.687 74.2583 121.476V107.874C74.2583 106.662 73.5315 106.115 72.6327 106.634L65.4703 110.786C64.5715 111.305 63.8447 112.709 63.8447 113.92V127.522C63.8447 128.733 64.5715 129.281 65.4703 128.762Z" fill="#FFEECC"/>
<path d="M66.3117 126.676C66.5794 126.676 66.8567 126.599 67.1436 126.436L74.306 122.283C75.3196 121.697 76.1133 120.188 76.1133 118.842V105.24C76.1133 104.471 75.8455 103.875 75.3674 103.606C74.9562 103.365 74.4494 103.394 73.9426 103.692L66.7802 107.845C65.7666 108.431 64.9729 109.94 64.9729 111.286V124.888C64.9729 125.657 65.2407 126.253 65.7188 126.522C65.9005 126.628 66.1013 126.686 66.3117 126.686V126.676ZM74.765 104.154C74.851 104.154 74.9275 104.173 75.004 104.221C75.2431 104.365 75.3865 104.74 75.3865 105.23V118.832C75.3865 119.899 74.7267 121.197 73.933 121.649L66.7707 125.801C66.5794 125.917 66.2926 126.022 66.0631 125.888C65.824 125.744 65.6806 125.369 65.6806 124.879V111.277C65.6806 110.21 66.3404 108.912 67.1341 108.46L74.2964 104.307C74.4303 104.23 74.5928 104.163 74.765 104.163V104.154Z" fill="black"/>
<path d="M49.0891 24.0317V18.7735L62.7349 18.6486V24.0413C62.7349 24.0413 62.7349 24.0605 62.7349 24.0701V24.099C62.7157 25.0987 62.0559 26.0984 60.7363 26.8578C58.0683 28.4054 53.7461 28.4054 51.0781 26.8578C49.7585 26.0984 49.0987 25.0987 49.0796 24.099V24.0797C49.0796 24.0797 49.0796 24.0509 49.0796 24.0413L49.0891 24.0317Z" fill="#FFBE2E"/>
<path d="M55.9169 28.4824C57.7529 28.4824 59.5889 28.0786 60.985 27.2615C62.2186 26.5406 62.9836 25.5986 63.1748 24.57L63.2227 24.0894V18.1583L48.6111 18.2929V24.0701C48.6398 25.3198 49.4335 26.4445 50.8487 27.2712C52.2449 28.0786 54.0809 28.492 55.9169 28.492V28.4824ZM62.2664 23.9644V24.0797C62.2473 24.9449 61.6257 25.7812 60.5069 26.4349C57.9728 27.9056 53.8609 27.9056 51.3269 26.4349C50.2081 25.7908 49.5865 24.9545 49.5674 24.0797V24.0317V19.2446L62.2568 19.1292V23.974L62.2664 23.9644Z" fill="black"/>
<path d="M45.1589 16.6586V8.36288L66.665 8.16101V16.6586C66.665 16.6586 66.665 16.6875 66.665 16.7067V16.7451C66.6364 18.3216 65.594 19.8981 63.519 21.0997C59.321 23.5413 52.5029 23.5413 48.305 21.0997C46.2299 19.8981 45.1876 18.3216 45.1589 16.7451V16.7067C45.1589 16.7067 45.1589 16.6682 45.1589 16.649V16.6586Z" fill="#FFBE2E"/>
<path d="M55.9169 23.3972C58.7569 23.3972 61.597 22.7724 63.7677 21.5131C65.728 20.3692 66.9042 18.8696 67.1146 17.2258H67.1528V16.7356V16.6298V7.68042L44.6809 7.8919L44.7191 17.2066C44.9199 18.86 46.0961 20.3788 48.0756 21.5227C50.2367 22.782 53.0768 23.4068 55.9264 23.4068L55.9169 23.3972ZM66.1966 16.6298V16.7356C66.1679 18.2063 65.1351 19.6098 63.2896 20.6768C59.2255 23.0319 52.6178 23.0319 48.5537 20.6768C46.7081 19.6002 45.6754 18.2063 45.6467 16.7356V16.5818V8.83394L66.2061 8.64169V16.6298H66.1966Z" fill="black"/>
<path d="M46.4214 5.42143L49.2997 2.6722H51.4799C54.2913 1.93202 57.5426 1.93202 60.354 2.6722H62.5342L64.8292 4.86389C65.0014 5.00808 65.403 5.42143 65.403 5.42143C67.5737 7.78615 66.9521 10.7853 63.5192 12.7751C59.3212 15.2168 52.5031 15.2168 48.3052 12.7751C44.8722 10.7853 44.2507 7.78615 46.4214 5.42143Z" fill="#FFBE2E"/>
<path d="M55.917 15.0726C58.7571 15.0726 61.5971 14.4478 63.7678 13.1885C65.6803 12.0831 66.8661 10.5835 67.1147 8.97817C67.3155 7.61317 66.8565 6.26739 65.7664 5.09464C65.7568 5.07542 65.3265 4.65246 65.1448 4.49866L62.7255 2.19161H60.4209C57.5617 1.45143 54.2913 1.45143 51.4226 2.19161H49.118L46.0771 5.09464C44.9966 6.277 44.528 7.62278 44.7288 8.97817C44.9679 10.5835 46.1632 12.0735 48.0757 13.1885C50.2368 14.4478 53.0865 15.0726 55.9265 15.0726H55.917ZM62.343 3.15288L64.5041 5.20999C64.6858 5.3638 65.0779 5.75792 65.0779 5.75792C65.9481 6.69996 66.321 7.76697 66.168 8.83398C65.9672 10.1413 64.9536 11.391 63.2897 12.3522C59.2256 14.7073 52.6179 14.7073 48.5538 12.3522C46.8995 11.391 45.8763 10.1413 45.6755 8.83398C45.5129 7.77658 45.8954 6.70958 46.7656 5.75792L49.491 3.15288L51.6043 3.13365C54.3487 2.4127 57.4948 2.4127 60.2392 3.13365L60.3636 3.15288H62.3526H62.343Z" fill="black"/>
<path d="M55.9173 9.65111C51.592 9.65111 48.0856 7.61543 48.0856 5.1043C48.0856 2.59317 51.592 0.557495 55.9173 0.557495C60.2426 0.557495 63.749 2.59317 63.749 5.1043C63.749 7.61543 60.2426 9.65111 55.9173 9.65111Z" fill="#FFBE2E"/>
<path d="M50.3806 11.3717C53.4406 13.1501 58.394 13.1501 61.454 11.3717C64.514 9.59336 64.514 6.71917 61.454 4.94082C58.394 3.16247 53.4406 3.16247 50.3806 4.94082C47.3206 6.71917 47.3206 9.59336 50.3806 11.3717Z" fill="#FFEECC"/>
<path d="M55.9172 10.1221C58.0114 10.1221 60.096 9.66067 61.693 8.73785C63.3282 7.78619 64.2271 6.49809 64.2271 5.10425C64.2271 3.71041 63.3282 2.42231 61.693 1.47065C58.5087 -0.374984 53.3258 -0.374984 50.1414 1.47065C48.5062 2.42231 47.6074 3.71041 47.6074 5.10425C47.6074 6.49809 48.5062 7.78619 50.1414 8.73785C51.7288 9.66067 53.823 10.1221 55.9172 10.1221ZM55.9172 1.03808C57.8393 1.03808 59.7518 1.46104 61.2149 2.30696C62.544 3.07597 63.2708 4.06608 63.2708 5.10425C63.2708 6.14242 62.544 7.13253 61.2149 7.90155C58.2983 9.60299 53.5361 9.59338 50.6196 7.90155C49.2904 7.13253 48.5636 6.14242 48.5636 5.10425C48.5636 4.06608 49.2904 3.07597 50.6196 2.30696C52.0826 1.46104 53.9951 1.03808 55.9172 1.03808Z" fill="black"/>
<path d="M55.3052 14.6016V22.9166L50.8012 22.2629L47.1483 20.3115L45.1593 17.495L45.341 9.92981L47.0527 12.1311L49.5677 13.6499L55.3052 14.6016Z" fill="black"/>
<path d="M54.1099 22.9262V27.8671L51.7192 27.3481L49.8832 26.233L49.0895 24.6277V21.5804L54.1099 22.9262Z" fill="black"/>
<path d="M53.3735 23.0896C51.9392 22.8973 50.5717 22.5417 49.3381 22.013V20.9556C50.5526 21.5323 51.9296 21.9168 53.3735 22.1283V23.0896Z" fill="#FFBE2E"/>
<path d="M9.86421 211.797L8.01864 210.73C3.333 208.009 0.961491 204.52 1.0093 201.213V201.03V55.5806L4.88213 54.2637L21.5783 58.724L31.6572 69.9516V215.392C24.6383 216.651 16.099 215.411 9.88333 211.806L9.86421 211.797Z" fill="black"/>
<path d="M1.82172 53.0332H1.8026L1.85997 52.9563C2.20423 52.3123 14.2435 36.1149 14.2435 36.1149C11.8337 39.3159 13.2968 43.4782 18.3936 46.4389L19.7802 47.2464C26.0341 50.88 35.4149 51.3318 41.0186 48.3518C40.9229 48.6883 40.5882 49.0439 39.9284 49.4092C34.1813 52.5718 31.6473 70.0957 31.6473 70.0957C31.6473 70.0957 31.4847 70.1919 31.2074 70.3457C24.2746 71.48 15.9647 70.2111 9.87338 66.6832L8.02781 65.6162C1.84085 62.0307 -0.301151 57.109 1.81217 53.0428L1.82172 53.0332Z" fill="black"/>
<path d="M1.71679 58.349L1.84111 58.1086C2.64436 60.6079 4.84374 63.0688 8.248 65.049L10.0936 66.116C15.7737 69.4132 23.4429 70.7109 30.041 69.8842V70.8359C28.7501 70.9897 27.4304 71.0762 26.0917 71.0762C20.3637 71.0762 14.3202 69.6727 9.61544 66.9523L7.76988 65.8853C4.93937 64.2415 2.89299 62.2709 1.70723 60.1946V58.3586L1.71679 58.349Z" fill="#FFBE2E"/>
<path d="M29.9263 191.831C23.1751 192.609 15.3912 191.283 9.62502 187.928L7.77945 186.861C5.15931 185.342 3.17986 183.535 1.95586 181.603V179.488C2.8643 181.872 5.04456 184.17 8.25757 186.034L10.1031 187.101C15.745 190.379 23.3568 191.677 29.9263 190.879V191.831Z" fill="#FFBE2E"/>
<path d="M15.0849 214.748L14.3104 213.565C19.1681 215.305 24.9726 215.911 29.9355 215.305V216.257C28.6829 216.401 27.411 216.478 26.1105 216.478C22.2377 216.478 18.7474 215.997 15.0945 214.738L15.0849 214.748Z" fill="#FFBE2E"/>
<path d="M81.4395 92.5125L80.4833 92.301L78.5612 93.2239L78.5899 143.921L82.3862 146.132V94.5216L81.4395 92.5125Z" fill="black"/>
<path d="M65.1834 136.443C65.7858 134.212 66.9716 132.165 68.5876 130.531C71.1313 127.955 73.5697 127.33 75.1858 128.166L78.8387 130.271C79.0682 130.406 79.1447 130.704 79.0204 130.934L76.7636 134.866C76.142 137.26 74.7555 139.682 73.0055 141.422L70.8444 145.19C70.6627 145.507 70.2611 145.613 69.9455 145.43L66.3787 143.373C64.8774 142.354 64.2271 139.922 65.1738 136.452L65.1834 136.443Z" fill="#FFBE2E"/>
<path d="M65.1834 138.327C65.7858 136.096 66.9716 134.049 68.5876 132.415C71.1313 129.839 73.5697 129.214 75.1858 130.05L78.8387 132.155C79.0682 132.29 79.1447 132.588 79.0204 132.819L76.7636 136.75C76.142 139.144 74.7555 141.566 73.0055 143.306L71.4564 145.998L67.6027 143.758C66.1014 142.739 64.2271 141.806 65.1738 138.336L65.1834 138.327Z" fill="#FFEECC"/>
<path d="M70.2804 145.998C70.6725 145.998 71.055 145.796 71.2654 145.43L73.3978 141.72C75.186 139.922 76.5726 137.5 77.2228 135.049L79.4509 131.175C79.5752 130.954 79.6134 130.694 79.5465 130.444C79.4796 130.194 79.317 129.983 79.0971 129.858L75.1956 127.608L75.1669 127.628C73.2257 126.811 70.6725 127.753 68.2532 130.194C66.5797 131.896 65.3557 134.011 64.7246 136.318C63.8257 139.615 64.2751 142.306 65.9103 143.604V143.642L69.7162 145.844C69.8979 145.949 70.0892 145.998 70.2804 145.998ZM75.0521 128.637L78.6094 130.685L76.3048 134.741C75.7119 137.039 74.3541 139.403 72.6711 141.076L72.5945 141.182L70.4334 144.95C70.3856 145.036 70.2709 145.065 70.1848 145.017L66.6467 142.97C65.1931 141.979 64.8202 139.596 65.633 136.577C66.2163 134.424 67.3543 132.453 68.913 130.877C71.1219 128.637 73.3787 127.781 74.9565 128.599L75.0426 128.647L75.0521 128.637Z" fill="black"/>
<path d="M68.5684 141.653C68.5684 145.623 71.3415 147.238 74.7649 145.248C78.1883 143.258 80.9614 138.432 80.9614 134.462C80.9614 130.492 78.1883 128.877 74.7649 130.867C71.3415 132.857 68.5684 137.683 68.5684 141.653Z" fill="#FFBE2E"/>
<path d="M71.992 146.584C72.9291 146.584 73.9427 146.276 74.9946 145.661C78.5423 143.604 81.4302 138.577 81.4302 134.453C81.4302 132.357 80.7034 130.771 79.3742 130.002C78.0546 129.233 76.3238 129.387 74.5165 130.435C70.9688 132.492 68.0809 137.519 68.0809 141.633C68.0809 143.729 68.8076 145.315 70.1368 146.084C70.6914 146.401 71.313 146.565 71.992 146.565V146.584ZM77.5287 130.492C78.0355 130.492 78.504 130.608 78.9057 130.848C79.9193 131.434 80.4835 132.722 80.4835 134.462C80.4835 138.279 77.8155 142.931 74.526 144.834C73.0247 145.709 71.6381 145.863 70.6245 145.267C69.6109 144.681 69.0467 143.393 69.0467 141.653C69.0467 137.836 71.7146 133.184 75.0042 131.281C75.903 130.761 76.7637 130.492 77.5287 130.492Z" fill="black"/>
<path d="M70.5863 141.537C70.5863 143.989 72.298 144.979 74.4113 143.758C76.5246 142.537 78.2363 139.547 78.2363 137.096C78.2363 134.645 76.5246 133.655 74.4113 134.876C72.298 136.106 70.5863 139.086 70.5863 141.537Z" fill="#FFEECC"/>
<path d="M73.0533 143.383C73.6366 143.383 74.2869 143.191 74.9371 142.806C77.1461 141.528 78.9438 138.394 78.9438 135.837C78.9438 134.52 78.4848 133.52 77.6433 133.04C76.8114 132.549 75.7213 132.646 74.5833 133.309C72.3744 134.587 70.5766 137.711 70.5766 140.278C70.5766 141.595 71.0356 142.595 71.8771 143.075C72.2309 143.277 72.623 143.383 73.0533 143.383ZM76.4672 133.453C76.7732 133.453 77.0409 133.52 77.2895 133.664C77.892 134.02 78.2267 134.789 78.2267 135.837C78.2267 138.173 76.5915 141.018 74.5833 142.181C73.6749 142.71 72.843 142.806 72.2405 142.451C71.6381 142.095 71.3034 141.326 71.3034 140.278C71.3034 137.942 72.9386 135.097 74.9467 133.934C75.4918 133.616 76.0177 133.453 76.4767 133.453H76.4672Z" fill="black"/>
<path d="M69.5723 137.221L65.6899 134.943L64.7432 138.423L65.2213 141.383L65.9385 143.383L69.2089 144.748L68.5682 142.508L68.8073 138.98L69.5723 137.221Z" fill="black"/>
<path d="M71.7527 117.775C71.8961 117.775 72.0587 117.727 72.2021 117.64L73.1106 117.111C73.5983 116.823 73.9712 116.131 73.9712 115.487V111.065C73.9712 110.671 73.8182 110.354 73.56 110.2C73.3209 110.065 73.0245 110.075 72.7567 110.238L71.8483 110.767C71.3606 111.055 70.9877 111.748 70.9877 112.392V116.813C70.9877 117.208 71.1407 117.525 71.3989 117.679C71.5041 117.746 71.6284 117.775 71.7527 117.775ZM73.2062 110.825C73.2062 110.825 73.254 110.902 73.254 111.065V115.487C73.254 115.862 73.0149 116.333 72.7472 116.487L71.8387 117.015C71.7909 117.044 71.7622 117.054 71.7431 117.054C71.7431 117.054 71.6953 116.977 71.6953 116.813V112.392C71.6953 112.017 71.9344 111.546 72.2021 111.392L73.1106 110.863C73.1584 110.834 73.1871 110.825 73.2062 110.825Z" fill="black"/>
<path d="M67.9661 120.005C68.1095 120.005 68.2721 119.957 68.4155 119.87L69.3239 119.342C69.8116 119.053 70.1846 118.361 70.1846 117.717V113.295C70.1846 112.901 70.0316 112.584 69.7734 112.43C69.5343 112.295 69.2474 112.305 68.9701 112.468L68.0617 112.997C67.574 113.286 67.2011 113.978 67.2011 114.622V119.044C67.2011 119.447 67.3541 119.755 67.6218 119.909C67.727 119.976 67.8513 120.005 67.9756 120.005H67.9661ZM69.4196 113.055C69.4196 113.055 69.4674 113.132 69.4674 113.295V117.717C69.4674 118.092 69.2283 118.563 68.9606 118.717L68.0521 119.245C67.9948 119.284 67.9565 119.284 67.9565 119.284C67.9565 119.284 67.9087 119.207 67.9087 119.044V114.622C67.9087 114.247 68.1478 113.776 68.4155 113.622L69.3239 113.093C69.3718 113.064 69.4004 113.055 69.4196 113.055Z" fill="black"/>
<path d="M10.6865 181.084C11.0595 181.084 11.4133 180.988 11.7288 180.805C12.5799 180.305 13.0771 179.19 13.0771 177.748V127.195C13.0771 124.581 11.4802 121.533 9.51989 120.399L9.01307 120.111C8.08551 119.572 7.17706 119.505 6.44075 119.928C5.58968 120.428 5.09243 121.543 5.09243 122.985V173.538C5.09243 176.153 6.68937 179.2 8.64969 180.334L9.15651 180.623C9.68245 180.93 10.1988 181.074 10.677 181.074L10.6865 181.084ZM7.50219 120.37C7.856 120.37 8.25763 120.485 8.65926 120.726L9.16607 121.014C10.9256 122.043 12.36 124.811 12.36 127.186V177.739C12.36 178.921 11.9966 179.805 11.375 180.171C10.8778 180.459 10.2179 180.392 9.51989 179.988L9.01307 179.7C7.25357 178.681 5.81918 175.903 5.81918 173.528V122.975C5.81918 121.793 6.18256 120.908 6.80412 120.543C7.00494 120.428 7.244 120.361 7.49263 120.361L7.50219 120.37Z" fill="#FFBE2E"/>
<path d="M10.6865 206.461C11.0595 206.461 11.4133 206.365 11.7288 206.183C12.5799 205.683 13.0771 204.568 13.0771 203.126V200.28C13.0771 197.666 11.4802 194.619 9.51989 193.484L9.01307 193.196C8.08551 192.658 7.17706 192.6 6.44075 193.013C5.58968 193.513 5.09243 194.628 5.09243 196.07V198.915C5.09243 201.53 6.68937 204.577 8.64969 205.712L9.15651 206C9.68245 206.298 10.1988 206.452 10.677 206.452L10.6865 206.461ZM7.50219 193.455C7.856 193.455 8.25763 193.571 8.65926 193.811L9.16607 194.099C10.9256 195.118 12.36 197.896 12.36 200.271V203.116C12.36 204.299 11.9966 205.183 11.375 205.548C10.8778 205.837 10.2179 205.769 9.51989 205.366L9.01307 205.077C7.25357 204.058 5.81918 201.28 5.81918 198.906V196.06C5.81918 194.878 6.18256 193.994 6.80412 193.628C7.00494 193.513 7.244 193.446 7.49263 193.446L7.50219 193.455Z" fill="#FFBE2E"/>
</svg>
