<svg width="229" height="231" viewBox="0 0 229 231" fill="none" xmlns="http://www.w3.org/2000/svg">
<g clip-path="url(#clip0_73_7998)">
<path d="M159.671 221.269C159.179 221.551 159.179 222.014 159.671 222.297C160.162 222.579 160.963 222.579 161.455 222.297C161.946 222.014 161.946 221.551 161.455 221.269C160.963 220.986 160.162 220.986 159.671 221.269Z" fill="#16110D"/>
<path d="M155.016 218.596C154.525 218.879 154.525 219.341 155.016 219.624C155.508 219.907 156.309 219.907 156.8 219.624C157.292 219.341 157.292 218.879 156.8 218.596C156.309 218.313 155.508 218.313 155.016 218.596Z" fill="#16110D"/>
<path d="M145.694 213.25C145.203 213.533 145.203 213.996 145.694 214.278C146.186 214.561 146.987 214.561 147.479 214.278C147.97 213.996 147.97 213.533 147.479 213.25C146.987 212.968 146.186 212.968 145.694 213.25Z" fill="#16110D"/>
<path d="M141.04 210.565C140.549 210.847 140.549 211.31 141.04 211.593C141.531 211.875 142.333 211.875 142.824 211.593C143.316 211.31 143.316 210.847 142.824 210.565C142.333 210.282 141.531 210.282 141.04 210.565Z" fill="#16110D"/>
<path d="M164.338 218.596C163.847 218.879 163.847 219.341 164.338 219.624C164.829 219.907 165.631 219.907 166.122 219.624C166.614 219.341 166.614 218.879 166.122 218.596C165.631 218.313 164.829 218.313 164.338 218.596Z" fill="#16110D"/>
<path d="M159.671 215.923C159.179 216.206 159.179 216.668 159.671 216.951C160.162 217.234 160.963 217.234 161.455 216.951C161.946 216.668 161.946 216.206 161.455 215.923C160.963 215.641 160.162 215.641 159.671 215.923Z" fill="#16110D"/>
<path d="M155.016 213.25C154.525 213.533 154.525 213.996 155.016 214.278C155.508 214.561 156.309 214.561 156.8 214.278C157.292 213.996 157.292 213.533 156.8 213.25C156.309 212.968 155.508 212.968 155.016 213.25Z" fill="#16110D"/>
<path d="M150.349 210.565C149.857 210.847 149.857 211.31 150.349 211.593C150.84 211.875 151.642 211.875 152.133 211.593C152.624 211.31 152.624 210.847 152.133 210.565C151.642 210.282 150.84 210.282 150.349 210.565Z" fill="#16110D"/>
<path d="M145.694 207.892C145.203 208.175 145.203 208.637 145.694 208.92C146.186 209.203 146.987 209.203 147.479 208.92C147.97 208.637 147.97 208.175 147.479 207.892C146.987 207.609 146.186 207.609 145.694 207.892Z" fill="#16110D"/>
<path d="M168.992 215.923C168.501 216.206 168.501 216.668 168.992 216.951C169.484 217.234 170.285 217.234 170.777 216.951C171.268 216.668 171.268 216.206 170.777 215.923C170.285 215.641 169.484 215.641 168.992 215.923Z" fill="#16110D"/>
<path d="M164.338 213.25C163.847 213.533 163.847 213.996 164.338 214.278C164.829 214.561 165.631 214.561 166.122 214.278C166.614 213.996 166.614 213.533 166.122 213.25C165.631 212.968 164.829 212.968 164.338 213.25Z" fill="#16110D"/>
<path d="M159.671 210.565C159.179 210.847 159.179 211.31 159.671 211.593C160.162 211.875 160.963 211.875 161.455 211.593C161.946 211.31 161.946 210.847 161.455 210.565C160.963 210.282 160.162 210.282 159.671 210.565Z" fill="#16110D"/>
<path d="M155.016 207.892C154.525 208.175 154.525 208.637 155.016 208.92C155.508 209.203 156.309 209.203 156.8 208.92C157.292 208.637 157.292 208.175 156.8 207.892C156.309 207.609 155.508 207.609 155.016 207.892Z" fill="#16110D"/>
<path d="M150.349 205.219C149.857 205.502 149.857 205.965 150.349 206.247C150.84 206.53 151.642 206.53 152.133 206.247C152.624 205.965 152.624 205.502 152.133 205.219C151.642 204.937 150.84 204.937 150.349 205.219Z" fill="#16110D"/>
<path d="M173.66 213.25C173.169 213.533 173.169 213.996 173.66 214.278C174.151 214.561 174.953 214.561 175.444 214.278C175.935 213.996 175.935 213.533 175.444 213.25C174.953 212.968 174.151 212.968 173.66 213.25Z" fill="#16110D"/>
<path d="M168.992 210.565C168.501 210.847 168.501 211.31 168.992 211.593C169.484 211.875 170.285 211.875 170.777 211.593C171.268 211.31 171.268 210.847 170.777 210.565C170.285 210.282 169.484 210.282 168.992 210.565Z" fill="#16110D"/>
<path d="M164.338 207.892C163.847 208.175 163.847 208.637 164.338 208.92C164.829 209.203 165.631 209.203 166.122 208.92C166.614 208.637 166.614 208.175 166.122 207.892C165.631 207.609 164.829 207.609 164.338 207.892Z" fill="#16110D"/>
<path d="M159.671 205.219C159.179 205.502 159.179 205.965 159.671 206.247C160.162 206.53 160.963 206.53 161.455 206.247C161.946 205.965 161.946 205.502 161.455 205.219C160.963 204.937 160.162 204.937 159.671 205.219Z" fill="#16110D"/>
<path d="M155.016 202.546C154.525 202.829 154.525 203.292 155.016 203.574C155.508 203.857 156.309 203.857 156.8 203.574C157.292 203.292 157.292 202.829 156.8 202.546C156.309 202.264 155.508 202.264 155.016 202.546Z" fill="#16110D"/>
<path d="M178.314 210.565C177.823 210.847 177.823 211.31 178.314 211.593C178.805 211.875 179.607 211.875 180.098 211.593C180.59 211.31 180.59 210.847 180.098 210.565C179.607 210.282 178.805 210.282 178.314 210.565Z" fill="#16110D"/>
<path d="M173.66 207.892C173.169 208.175 173.169 208.637 173.66 208.92C174.151 209.203 174.953 209.203 175.444 208.92C175.935 208.637 175.935 208.175 175.444 207.892C174.953 207.609 174.151 207.609 173.66 207.892Z" fill="#16110D"/>
<path d="M168.992 205.219C168.501 205.502 168.501 205.965 168.992 206.247C169.484 206.53 170.285 206.53 170.777 206.247C171.268 205.965 171.268 205.502 170.777 205.219C170.285 204.937 169.484 204.937 168.992 205.219Z" fill="#16110D"/>
<path d="M164.338 202.546C163.847 202.829 163.847 203.292 164.338 203.574C164.829 203.857 165.631 203.857 166.122 203.574C166.614 203.292 166.614 202.829 166.122 202.546C165.631 202.264 164.829 202.264 164.338 202.546Z" fill="#16110D"/>
<path d="M159.671 199.874C159.179 200.156 159.179 200.619 159.671 200.902C160.162 201.184 160.963 201.184 161.455 200.902C161.946 200.619 161.946 200.156 161.455 199.874C160.963 199.591 160.162 199.591 159.671 199.874Z" fill="#16110D"/>
<path d="M183.021 207.866C182.529 208.149 182.529 208.612 183.021 208.894C183.512 209.177 184.314 209.177 184.805 208.894C185.296 208.612 185.296 208.149 184.805 207.866C184.314 207.584 183.512 207.584 183.021 207.866Z" fill="#16110D"/>
<path d="M178.353 205.194C177.862 205.476 177.862 205.939 178.353 206.222C178.844 206.504 179.646 206.504 180.137 206.222C180.629 205.939 180.629 205.476 180.137 205.194C179.646 204.911 178.844 204.911 178.353 205.194Z" fill="#16110D"/>
<path d="M173.699 202.521C173.208 202.804 173.208 203.266 173.699 203.549C174.19 203.832 174.992 203.832 175.483 203.549C175.974 203.266 175.974 202.804 175.483 202.521C174.992 202.238 174.19 202.238 173.699 202.521Z" fill="#16110D"/>
<path d="M169.031 199.848C168.54 200.131 168.54 200.593 169.031 200.876C169.523 201.159 170.324 201.159 170.816 200.876C171.307 200.593 171.307 200.131 170.816 199.848C170.324 199.565 169.523 199.565 169.031 199.848Z" fill="#16110D"/>
<path d="M164.377 197.175C163.886 197.458 163.886 197.921 164.377 198.203C164.868 198.486 165.67 198.486 166.161 198.203C166.653 197.921 166.653 197.458 166.161 197.175C165.67 196.893 164.868 196.893 164.377 197.175Z" fill="#16110D"/>
<path d="M187.675 205.194C187.184 205.476 187.184 205.939 187.675 206.222C188.166 206.504 188.968 206.504 189.459 206.222C189.95 205.939 189.95 205.476 189.459 205.194C188.968 204.911 188.166 204.911 187.675 205.194Z" fill="#16110D"/>
<path d="M183.021 202.521C182.529 202.804 182.529 203.266 183.021 203.549C183.512 203.832 184.314 203.832 184.805 203.549C185.296 203.266 185.296 202.804 184.805 202.521C184.314 202.238 183.512 202.238 183.021 202.521Z" fill="#16110D"/>
<path d="M178.353 199.848C177.862 200.131 177.862 200.593 178.353 200.876C178.844 201.159 179.646 201.159 180.137 200.876C180.629 200.593 180.629 200.131 180.137 199.848C179.646 199.565 178.844 199.565 178.353 199.848Z" fill="#16110D"/>
<path d="M173.699 197.175C173.208 197.458 173.208 197.921 173.699 198.203C174.19 198.486 174.992 198.486 175.483 198.203C175.974 197.921 175.974 197.458 175.483 197.175C174.992 196.893 174.19 196.893 173.699 197.175Z" fill="#16110D"/>
<path d="M169.031 194.503C168.54 194.785 168.54 195.248 169.031 195.531C169.523 195.813 170.324 195.813 170.816 195.531C171.307 195.248 171.307 194.785 170.816 194.503C170.324 194.22 169.523 194.22 169.031 194.503Z" fill="#16110D"/>
<path d="M192.329 202.521C191.838 202.804 191.838 203.266 192.329 203.549C192.821 203.832 193.622 203.832 194.113 203.549C194.605 203.266 194.605 202.804 194.113 202.521C193.622 202.238 192.821 202.238 192.329 202.521Z" fill="#16110D"/>
<path d="M187.675 199.848C187.184 200.131 187.184 200.593 187.675 200.876C188.166 201.159 188.968 201.159 189.459 200.876C189.95 200.593 189.95 200.131 189.459 199.848C188.968 199.565 188.166 199.565 187.675 199.848Z" fill="#16110D"/>
<path d="M183.021 197.175C182.529 197.458 182.529 197.921 183.021 198.203C183.512 198.486 184.314 198.486 184.805 198.203C185.296 197.921 185.296 197.458 184.805 197.175C184.314 196.893 183.512 196.893 183.021 197.175Z" fill="#16110D"/>
<path d="M178.353 194.503C177.862 194.785 177.862 195.248 178.353 195.531C178.844 195.813 179.646 195.813 180.137 195.531C180.629 195.248 180.629 194.785 180.137 194.503C179.646 194.22 178.844 194.22 178.353 194.503Z" fill="#16110D"/>
<path d="M173.699 191.83C173.208 192.113 173.208 192.575 173.699 192.858C174.19 193.14 174.992 193.14 175.483 192.858C175.974 192.575 175.974 192.113 175.483 191.83C174.992 191.547 174.19 191.547 173.699 191.83Z" fill="#16110D"/>
<path d="M196.997 199.848C196.505 200.131 196.505 200.593 196.997 200.876C197.488 201.159 198.29 201.159 198.781 200.876C199.272 200.593 199.272 200.131 198.781 199.848C198.29 199.565 197.488 199.565 196.997 199.848Z" fill="#16110D"/>
<path d="M192.329 197.175C191.838 197.458 191.838 197.921 192.329 198.203C192.821 198.486 193.622 198.486 194.113 198.203C194.605 197.921 194.605 197.458 194.113 197.175C193.622 196.893 192.821 196.893 192.329 197.175Z" fill="#16110D"/>
<path d="M187.675 194.503C187.184 194.785 187.184 195.248 187.675 195.531C188.166 195.813 188.968 195.813 189.459 195.531C189.95 195.248 189.95 194.785 189.459 194.503C188.968 194.22 188.166 194.22 187.675 194.503Z" fill="#16110D"/>
<path d="M183.007 191.83C182.516 192.113 182.516 192.575 183.007 192.858C183.499 193.14 184.3 193.14 184.792 192.858C185.283 192.575 185.283 192.113 184.792 191.83C184.3 191.547 183.499 191.547 183.007 191.83Z" fill="#16110D"/>
<path d="M178.353 189.157C177.862 189.44 177.862 189.902 178.353 190.185C178.844 190.468 179.646 190.468 180.137 190.185C180.629 189.902 180.629 189.44 180.137 189.157C179.646 188.874 178.844 188.874 178.353 189.157Z" fill="#16110D"/>
<path d="M201.651 197.175C201.16 197.458 201.16 197.921 201.651 198.203C202.142 198.486 202.944 198.486 203.435 198.203C203.927 197.921 203.927 197.458 203.435 197.175C202.944 196.893 202.142 196.893 201.651 197.175Z" fill="#16110D"/>
<path d="M196.997 194.503C196.505 194.785 196.505 195.248 196.997 195.531C197.488 195.813 198.29 195.813 198.781 195.531C199.272 195.248 199.272 194.785 198.781 194.503C198.29 194.22 197.488 194.22 196.997 194.503Z" fill="#16110D"/>
<path d="M192.329 191.83C191.838 192.113 191.838 192.575 192.329 192.858C192.821 193.14 193.622 193.14 194.113 192.858C194.605 192.575 194.605 192.113 194.113 191.83C193.622 191.547 192.821 191.547 192.329 191.83Z" fill="#16110D"/>
<path d="M187.675 189.157C187.184 189.44 187.184 189.902 187.675 190.185C188.166 190.468 188.968 190.468 189.459 190.185C189.95 189.902 189.95 189.44 189.459 189.157C188.968 188.874 188.166 188.874 187.675 189.157Z" fill="#16110D"/>
<path d="M183.007 186.472C182.516 186.754 182.516 187.217 183.007 187.5C183.499 187.782 184.3 187.782 184.792 187.5C185.283 187.217 185.283 186.754 184.792 186.472C184.3 186.189 183.499 186.189 183.007 186.472Z" fill="#16110D"/>
<path d="M206.319 194.503C205.827 194.785 205.827 195.248 206.319 195.531C206.81 195.813 207.611 195.813 208.103 195.531C208.594 195.248 208.594 194.785 208.103 194.503C207.611 194.22 206.81 194.22 206.319 194.503Z" fill="#16110D"/>
<path d="M201.651 191.83C201.16 192.113 201.16 192.575 201.651 192.858C202.142 193.14 202.944 193.14 203.435 192.858C203.927 192.575 203.927 192.113 203.435 191.83C202.944 191.547 202.142 191.547 201.651 191.83Z" fill="#16110D"/>
<path d="M196.997 189.157C196.505 189.44 196.505 189.902 196.997 190.185C197.488 190.468 198.29 190.468 198.781 190.185C199.272 189.902 199.272 189.44 198.781 189.157C198.29 188.874 197.488 188.874 196.997 189.157Z" fill="#16110D"/>
<path d="M192.329 186.472C191.838 186.754 191.838 187.217 192.329 187.5C192.821 187.782 193.622 187.782 194.113 187.5C194.605 187.217 194.605 186.754 194.113 186.472C193.622 186.189 192.821 186.189 192.329 186.472Z" fill="#16110D"/>
<path d="M187.675 183.799C187.184 184.081 187.184 184.544 187.675 184.827C188.166 185.109 188.968 185.109 189.459 184.827C189.95 184.544 189.95 184.081 189.459 183.799C188.968 183.516 188.166 183.516 187.675 183.799Z" fill="#16110D"/>
<path d="M210.973 191.83C210.482 192.113 210.482 192.575 210.973 192.858C211.464 193.14 212.266 193.14 212.757 192.858C213.248 192.575 213.248 192.113 212.757 191.83C212.266 191.547 211.464 191.547 210.973 191.83Z" fill="#16110D"/>
<path d="M206.319 189.157C205.827 189.44 205.827 189.902 206.319 190.185C206.81 190.468 207.611 190.468 208.103 190.185C208.594 189.902 208.594 189.44 208.103 189.157C207.611 188.874 206.81 188.874 206.319 189.157Z" fill="#16110D"/>
<path d="M201.651 186.472C201.16 186.754 201.16 187.217 201.651 187.5C202.142 187.782 202.944 187.782 203.435 187.5C203.927 187.217 203.927 186.754 203.435 186.472C202.944 186.189 202.142 186.189 201.651 186.472Z" fill="#16110D"/>
<path d="M196.997 183.799C196.505 184.081 196.505 184.544 196.997 184.827C197.488 185.109 198.29 185.109 198.781 184.827C199.272 184.544 199.272 184.081 198.781 183.799C198.29 183.516 197.488 183.516 196.997 183.799Z" fill="#16110D"/>
<path d="M215.627 189.157C215.136 189.44 215.136 189.902 215.627 190.185C216.118 190.468 216.92 190.468 217.411 190.185C217.903 189.902 217.903 189.44 217.411 189.157C216.92 188.874 216.118 188.874 215.627 189.157Z" fill="#16110D"/>
<path d="M210.973 186.472C210.482 186.754 210.482 187.217 210.973 187.5C211.464 187.782 212.266 187.782 212.757 187.5C213.248 187.217 213.248 186.754 212.757 186.472C212.266 186.189 211.464 186.189 210.973 186.472Z" fill="#16110D"/>
<path d="M206.319 183.799C205.827 184.081 205.827 184.544 206.319 184.827C206.81 185.109 207.611 185.109 208.103 184.827C208.594 184.544 208.594 184.081 208.103 183.799C207.611 183.516 206.81 183.516 206.319 183.799Z" fill="#16110D"/>
<path d="M201.651 181.126C201.16 181.409 201.16 181.871 201.651 182.154C202.142 182.437 202.944 182.437 203.435 182.154C203.927 181.871 203.927 181.409 203.435 181.126C202.944 180.843 202.142 180.843 201.651 181.126Z" fill="#16110D"/>
<path d="M215.679 183.773C215.188 184.056 215.188 184.518 215.679 184.801C216.17 185.084 216.972 185.084 217.463 184.801C217.954 184.518 217.954 184.056 217.463 183.773C216.972 183.49 216.17 183.49 215.679 183.773Z" fill="#16110D"/>
<path d="M211.012 181.1C210.521 181.383 210.521 181.846 211.012 182.128C211.503 182.411 212.305 182.411 212.796 182.128C213.287 181.846 213.287 181.383 212.796 181.1C212.305 180.818 211.503 180.818 211.012 181.1Z" fill="#16110D"/>
<path d="M126.87 223.517C126.379 223.8 126.379 224.263 126.87 224.545C127.362 224.828 128.163 224.828 128.654 224.545C129.146 224.263 129.146 223.8 128.654 223.517C128.163 223.235 127.362 223.235 126.87 223.517Z" fill="#16110D"/>
<path d="M122.215 220.845C121.724 221.127 121.724 221.59 122.215 221.873C122.707 222.155 123.508 222.155 124 221.873C124.491 221.59 124.491 221.127 124 220.845C123.508 220.562 122.707 220.562 122.215 220.845Z" fill="#16110D"/>
<path d="M136.192 228.863C135.701 229.146 135.701 229.608 136.192 229.891C136.683 230.174 137.485 230.174 137.976 229.891C138.468 229.608 138.468 229.146 137.976 228.863C137.485 228.58 136.683 228.58 136.192 228.863Z" fill="#16110D"/>
<path d="M131.537 226.19C131.046 226.473 131.046 226.935 131.537 227.218C132.029 227.501 132.83 227.501 133.321 227.218C133.813 226.935 133.813 226.473 133.321 226.19C132.83 225.907 132.029 225.907 131.537 226.19Z" fill="#16110D"/>
<path d="M145.513 228.863C145.022 229.146 145.022 229.608 145.513 229.891C146.005 230.174 146.806 230.174 147.298 229.891C147.789 229.608 147.789 229.146 147.298 228.863C146.806 228.58 146.005 228.58 145.513 228.863Z" fill="#16110D"/>
<path d="M140.846 226.19C140.355 226.473 140.355 226.935 140.846 227.218C141.338 227.501 142.139 227.501 142.631 227.218C143.122 226.935 143.122 226.473 142.631 226.19C142.139 225.907 141.338 225.907 140.846 226.19Z" fill="#16110D"/>
<path d="M136.192 223.517C135.701 223.8 135.701 224.263 136.192 224.545C136.683 224.828 137.485 224.828 137.976 224.545C138.468 224.263 138.468 223.8 137.976 223.517C137.485 223.235 136.683 223.235 136.192 223.517Z" fill="#16110D"/>
<path d="M131.537 220.845C131.046 221.127 131.046 221.59 131.537 221.873C132.029 222.155 132.83 222.155 133.321 221.873C133.813 221.59 133.813 221.127 133.321 220.845C132.83 220.562 132.029 220.562 131.537 220.845Z" fill="#16110D"/>
<path d="M126.87 218.159C126.379 218.442 126.379 218.904 126.87 219.187C127.362 219.47 128.163 219.47 128.654 219.187C129.146 218.904 129.146 218.442 128.654 218.159C128.163 217.876 127.362 217.876 126.87 218.159Z" fill="#16110D"/>
<path d="M150.168 226.19C149.677 226.473 149.677 226.935 150.168 227.218C150.659 227.501 151.461 227.501 151.952 227.218C152.444 226.935 152.444 226.473 151.952 226.19C151.461 225.907 150.659 225.907 150.168 226.19Z" fill="#16110D"/>
<path d="M145.513 223.517C145.022 223.8 145.022 224.263 145.513 224.545C146.005 224.828 146.806 224.828 147.298 224.545C147.789 224.263 147.789 223.8 147.298 223.517C146.806 223.235 146.005 223.235 145.513 223.517Z" fill="#16110D"/>
<path d="M140.846 220.845C140.355 221.127 140.355 221.59 140.846 221.873C141.338 222.155 142.139 222.155 142.631 221.873C143.122 221.59 143.122 221.127 142.631 220.845C142.139 220.562 141.338 220.562 140.846 220.845Z" fill="#16110D"/>
<path d="M136.192 218.159C135.701 218.442 135.701 218.904 136.192 219.187C136.683 219.47 137.485 219.47 137.976 219.187C138.468 218.904 138.468 218.442 137.976 218.159C137.485 217.876 136.683 217.876 136.192 218.159Z" fill="#16110D"/>
<path d="M131.537 215.486C131.046 215.769 131.046 216.232 131.537 216.514C132.029 216.797 132.83 216.797 133.321 216.514C133.813 216.232 133.813 215.769 133.321 215.486C132.83 215.204 132.029 215.204 131.537 215.486Z" fill="#16110D"/>
<path d="M154.835 223.517C154.344 223.8 154.344 224.263 154.835 224.545C155.326 224.828 156.128 224.828 156.619 224.545C157.111 224.263 157.111 223.8 156.619 223.517C156.128 223.235 155.326 223.235 154.835 223.517Z" fill="#16110D"/>
<path d="M150.168 220.845C149.677 221.127 149.677 221.59 150.168 221.873C150.659 222.155 151.461 222.155 151.952 221.873C152.444 221.59 152.444 221.127 151.952 220.845C151.461 220.562 150.659 220.562 150.168 220.845Z" fill="#16110D"/>
<path d="M145.513 218.159C145.022 218.442 145.022 218.904 145.513 219.187C146.005 219.47 146.806 219.47 147.298 219.187C147.789 218.904 147.789 218.442 147.298 218.159C146.806 217.876 146.005 217.876 145.513 218.159Z" fill="#16110D"/>
<path d="M136.192 212.813C135.701 213.096 135.701 213.559 136.192 213.841C136.683 214.124 137.485 214.124 137.976 213.841C138.468 213.559 138.468 213.096 137.976 212.813C137.485 212.531 136.683 212.531 136.192 212.813Z" fill="#16110D"/>
<path d="M136.334 207.918C135.843 208.2 135.843 208.663 136.334 208.946C136.825 209.228 137.627 209.228 138.118 208.946C138.61 208.663 138.61 208.2 138.118 207.918C137.627 207.635 136.825 207.635 136.334 207.918Z" fill="#16110D"/>
<path d="M131.68 205.245C131.189 205.528 131.189 205.99 131.68 206.273C132.171 206.556 132.973 206.556 133.464 206.273C133.955 205.99 133.955 205.528 133.464 205.245C132.973 204.962 132.171 204.962 131.68 205.245Z" fill="#16110D"/>
<path d="M127.012 202.572C126.521 202.855 126.521 203.318 127.012 203.6C127.504 203.883 128.305 203.883 128.797 203.6C129.288 203.318 129.288 202.855 128.797 202.572C128.305 202.29 127.504 202.29 127.012 202.572Z" fill="#16110D"/>
<path d="M122.358 199.9C121.867 200.182 121.867 200.645 122.358 200.928C122.849 201.21 123.651 201.21 124.142 200.928C124.634 200.645 124.634 200.182 124.142 199.9C123.651 199.617 122.849 199.617 122.358 199.9Z" fill="#16110D"/>
<path d="M108.382 191.881C107.89 192.164 107.89 192.626 108.382 192.909C108.873 193.192 109.674 193.192 110.166 192.909C110.657 192.626 110.657 192.164 110.166 191.881C109.674 191.599 108.873 191.599 108.382 191.881Z" fill="#16110D"/>
<path d="M103.715 189.196C103.223 189.478 103.223 189.941 103.715 190.224C104.206 190.506 105.007 190.506 105.499 190.224C105.99 189.941 105.99 189.478 105.499 189.196C105.007 188.913 104.206 188.913 103.715 189.196Z" fill="#16110D"/>
<path d="M99.0597 186.523C98.5684 186.806 98.5684 187.268 99.0597 187.551C99.551 187.834 100.353 187.834 100.844 187.551C101.335 187.268 101.335 186.806 100.844 186.523C100.353 186.24 99.551 186.24 99.0597 186.523Z" fill="#16110D"/>
<path d="M94.3927 183.85C93.9014 184.133 93.9014 184.595 94.3927 184.878C94.884 185.161 95.6856 185.161 96.1769 184.878C96.6682 184.595 96.6682 184.133 96.1769 183.85C95.6856 183.567 94.884 183.567 94.3927 183.85Z" fill="#16110D"/>
<path d="M89.738 181.177C89.2467 181.46 89.2467 181.923 89.738 182.205C90.2293 182.488 91.0308 182.488 91.5221 182.205C92.0135 181.923 92.0135 181.46 91.5221 181.177C91.0308 180.895 90.2293 180.895 89.738 181.177Z" fill="#16110D"/>
<path d="M85.0837 178.505C84.5924 178.787 84.5924 179.25 85.0837 179.533C85.575 179.815 86.3766 179.815 86.8679 179.533C87.3592 179.25 87.3592 178.787 86.8679 178.505C86.3766 178.222 85.575 178.222 85.0837 178.505Z" fill="#16110D"/>
<path d="M80.4162 175.832C79.9249 176.115 79.9249 176.577 80.4162 176.86C80.9075 177.143 81.7091 177.143 82.2004 176.86C82.6917 176.577 82.6917 176.115 82.2004 175.832C81.7091 175.549 80.9075 175.549 80.4162 175.832Z" fill="#16110D"/>
<path d="M75.7619 173.159C75.2706 173.442 75.2706 173.904 75.7619 174.187C76.2532 174.47 77.0548 174.47 77.5461 174.187C78.0374 173.904 78.0374 173.442 77.5461 173.159C77.0548 172.876 76.2532 172.876 75.7619 173.159Z" fill="#16110D"/>
<path d="M71.0944 170.486C70.6031 170.769 70.6031 171.232 71.0944 171.514C71.5857 171.797 72.3873 171.797 72.8786 171.514C73.3699 171.232 73.3699 170.769 72.8786 170.486C72.3873 170.204 71.5857 170.204 71.0944 170.486Z" fill="#16110D"/>
<path d="M66.4401 167.814C65.9488 168.096 65.9488 168.559 66.4401 168.842C66.9314 169.124 67.733 169.124 68.2243 168.842C68.7156 168.559 68.7156 168.096 68.2243 167.814C67.733 167.531 66.9314 167.531 66.4401 167.814Z" fill="#16110D"/>
<path d="M117.703 197.227C117.212 197.509 117.212 197.972 117.703 198.255C118.195 198.537 118.996 198.537 119.487 198.255C119.979 197.972 119.979 197.509 119.487 197.227C118.996 196.944 118.195 196.944 117.703 197.227Z" fill="#16110D"/>
<path d="M113.036 194.554C112.545 194.837 112.545 195.299 113.036 195.582C113.528 195.865 114.329 195.865 114.82 195.582C115.312 195.299 115.312 194.837 114.82 194.554C114.329 194.271 113.528 194.271 113.036 194.554Z" fill="#16110D"/>
<path d="M142.785 205.245C142.294 204.962 141.492 204.962 141.001 205.245C140.51 205.528 140.51 205.99 141.001 206.273C141.492 206.556 142.294 206.556 142.785 206.273C143.277 205.99 143.277 205.528 142.785 205.245Z" fill="#16110D"/>
<path d="M136.334 202.572C135.843 202.855 135.843 203.318 136.334 203.6C136.825 203.883 137.627 203.883 138.118 203.6C138.61 203.318 138.61 202.855 138.118 202.572C137.627 202.29 136.825 202.29 136.334 202.572Z" fill="#16110D"/>
<path d="M131.68 199.9C131.189 200.182 131.189 200.645 131.68 200.928C132.171 201.21 132.973 201.21 133.464 200.928C133.955 200.645 133.955 200.182 133.464 199.9C132.973 199.617 132.171 199.617 131.68 199.9Z" fill="#16110D"/>
<path d="M127.012 197.227C126.521 197.509 126.521 197.972 127.012 198.255C127.504 198.537 128.305 198.537 128.797 198.255C129.288 197.972 129.288 197.509 128.797 197.227C128.305 196.944 127.504 196.944 127.012 197.227Z" fill="#16110D"/>
<path d="M122.358 194.554C121.867 194.837 121.867 195.299 122.358 195.582C122.849 195.865 123.651 195.865 124.142 195.582C124.634 195.299 124.634 194.837 124.142 194.554C123.651 194.271 122.849 194.271 122.358 194.554Z" fill="#16110D"/>
<path d="M117.703 191.881C117.212 192.164 117.212 192.626 117.703 192.909C118.195 193.192 118.996 193.192 119.487 192.909C119.979 192.626 119.979 192.164 119.487 191.881C118.996 191.599 118.195 191.599 117.703 191.881Z" fill="#16110D"/>
<path d="M113.036 189.196C112.545 189.478 112.545 189.941 113.036 190.224C113.528 190.506 114.329 190.506 114.82 190.224C115.312 189.941 115.312 189.478 114.82 189.196C114.329 188.913 113.528 188.913 113.036 189.196Z" fill="#16110D"/>
<path d="M108.382 186.523C107.89 186.806 107.89 187.268 108.382 187.551C108.873 187.834 109.674 187.834 110.166 187.551C110.657 187.268 110.657 186.806 110.166 186.523C109.674 186.24 108.873 186.24 108.382 186.523Z" fill="#16110D"/>
<path d="M103.715 183.85C103.223 184.133 103.223 184.595 103.715 184.878C104.206 185.161 105.007 185.161 105.499 184.878C105.99 184.595 105.99 184.133 105.499 183.85C105.007 183.567 104.206 183.567 103.715 183.85Z" fill="#16110D"/>
<path d="M99.0597 181.177C98.5684 181.46 98.5684 181.923 99.0597 182.205C99.551 182.488 100.353 182.488 100.844 182.205C101.335 181.923 101.335 181.46 100.844 181.177C100.353 180.895 99.551 180.895 99.0597 181.177Z" fill="#16110D"/>
<path d="M85.0837 173.159C84.5924 173.442 84.5924 173.904 85.0837 174.187C85.575 174.47 86.3766 174.47 86.8679 174.187C87.3592 173.904 87.3592 173.442 86.8679 173.159C86.3766 172.876 85.575 172.876 85.0837 173.159Z" fill="#16110D"/>
<path d="M80.4162 170.486C79.9249 170.769 79.9249 171.232 80.4162 171.514C80.9075 171.797 81.7091 171.797 82.2004 171.514C82.6917 171.232 82.6917 170.769 82.2004 170.486C81.7091 170.204 80.9075 170.204 80.4162 170.486Z" fill="#16110D"/>
<path d="M75.7619 167.814C75.2706 168.096 75.2706 168.559 75.7619 168.842C76.2532 169.124 77.0548 169.124 77.5461 168.842C78.0374 168.559 78.0374 168.096 77.5461 167.814C77.0548 167.531 76.2532 167.531 75.7619 167.814Z" fill="#16110D"/>
<path d="M71.0944 165.141C70.6031 165.424 70.6031 165.886 71.0944 166.169C71.5857 166.452 72.3873 166.452 72.8786 166.169C73.3699 165.886 73.3699 165.424 72.8786 165.141C72.3873 164.858 71.5857 164.858 71.0944 165.141Z" fill="#16110D"/>
<path d="M94.3927 178.505C93.9014 178.787 93.9014 179.25 94.3927 179.533C94.884 179.815 95.6856 179.815 96.1769 179.533C96.6682 179.25 96.6682 178.787 96.1769 178.505C95.6856 178.222 94.884 178.222 94.3927 178.505Z" fill="#16110D"/>
<path d="M89.738 175.832C89.2467 176.115 89.2467 176.577 89.738 176.86C90.2293 177.143 91.0308 177.143 91.5221 176.86C92.0135 176.577 92.0135 176.115 91.5221 175.832C91.0308 175.549 90.2293 175.549 89.738 175.832Z" fill="#16110D"/>
<path d="M147.44 202.572C146.949 202.29 146.147 202.29 145.656 202.572C145.165 202.855 145.165 203.318 145.656 203.6C146.147 203.883 146.949 203.883 147.44 203.6C147.931 203.318 147.931 202.855 147.44 202.572Z" fill="#16110D"/>
<path d="M141.001 199.9C140.51 200.182 140.51 200.645 141.001 200.928C141.492 201.21 142.294 201.21 142.785 200.928C143.277 200.645 143.277 200.182 142.785 199.9C142.294 199.617 141.492 199.617 141.001 199.9Z" fill="#16110D"/>
<path d="M136.334 197.227C135.843 197.509 135.843 197.972 136.334 198.255C136.825 198.537 137.627 198.537 138.118 198.255C138.61 197.972 138.61 197.509 138.118 197.227C137.627 196.944 136.825 196.944 136.334 197.227Z" fill="#16110D"/>
<path d="M131.68 194.554C131.189 194.837 131.189 195.299 131.68 195.582C132.171 195.865 132.973 195.865 133.464 195.582C133.955 195.299 133.955 194.837 133.464 194.554C132.973 194.271 132.171 194.271 131.68 194.554Z" fill="#16110D"/>
<path d="M127.012 191.881C126.521 192.164 126.521 192.626 127.012 192.909C127.504 193.192 128.305 193.192 128.797 192.909C129.288 192.626 129.288 192.164 128.797 191.881C128.305 191.599 127.504 191.599 127.012 191.881Z" fill="#16110D"/>
<path d="M122.358 189.196C121.867 189.478 121.867 189.941 122.358 190.224C122.849 190.506 123.651 190.506 124.142 190.224C124.634 189.941 124.634 189.478 124.142 189.196C123.651 188.913 122.849 188.913 122.358 189.196Z" fill="#16110D"/>
<path d="M117.703 186.523C117.212 186.806 117.212 187.268 117.703 187.551C118.195 187.834 118.996 187.834 119.487 187.551C119.979 187.268 119.979 186.806 119.487 186.523C118.996 186.24 118.195 186.24 117.703 186.523Z" fill="#16110D"/>
<path d="M113.036 183.85C112.545 184.133 112.545 184.595 113.036 184.878C113.528 185.161 114.329 185.161 114.82 184.878C115.312 184.595 115.312 184.133 114.82 183.85C114.329 183.567 113.528 183.567 113.036 183.85Z" fill="#16110D"/>
<path d="M108.382 181.177C107.89 181.46 107.89 181.923 108.382 182.205C108.873 182.488 109.674 182.488 110.166 182.205C110.657 181.923 110.657 181.46 110.166 181.177C109.674 180.895 108.873 180.895 108.382 181.177Z" fill="#16110D"/>
<path d="M103.715 178.505C103.223 178.787 103.223 179.25 103.715 179.533C104.206 179.815 105.007 179.815 105.499 179.533C105.99 179.25 105.99 178.787 105.499 178.505C105.007 178.222 104.206 178.222 103.715 178.505Z" fill="#16110D"/>
<path d="M99.0597 175.832C98.5684 176.115 98.5684 176.577 99.0597 176.86C99.551 177.143 100.353 177.143 100.844 176.86C101.335 176.577 101.335 176.115 100.844 175.832C100.353 175.549 99.551 175.549 99.0597 175.832Z" fill="#16110D"/>
<path d="M94.3927 173.159C93.9014 173.442 93.9014 173.904 94.3927 174.187C94.884 174.47 95.6856 174.47 96.1769 174.187C96.6682 173.904 96.6682 173.442 96.1769 173.159C95.6856 172.876 94.884 172.876 94.3927 173.159Z" fill="#16110D"/>
<path d="M89.738 170.486C89.2467 170.769 89.2467 171.232 89.738 171.514C90.2293 171.797 91.0308 171.797 91.5221 171.514C92.0135 171.232 92.0135 170.769 91.5221 170.486C91.0308 170.204 90.2293 170.204 89.738 170.486Z" fill="#16110D"/>
<path d="M85.0837 167.814C84.5924 168.096 84.5924 168.559 85.0837 168.842C85.575 169.124 86.3766 169.124 86.8679 168.842C87.3592 168.559 87.3592 168.096 86.8679 167.814C86.3766 167.531 85.575 167.531 85.0837 167.814Z" fill="#16110D"/>
<path d="M80.4162 165.141C79.9249 165.424 79.9249 165.886 80.4162 166.169C80.9075 166.452 81.7091 166.452 82.2004 166.169C82.6917 165.886 82.6917 165.424 82.2004 165.141C81.7091 164.858 80.9075 164.858 80.4162 165.141Z" fill="#16110D"/>
<path d="M75.7619 162.468C75.2706 162.751 75.2706 163.213 75.7619 163.496C76.2532 163.779 77.0548 163.779 77.5461 163.496C78.0374 163.213 78.0374 162.751 77.5461 162.468C77.0548 162.185 76.2532 162.185 75.7619 162.468Z" fill="#16110D"/>
<path d="M152.107 199.9C151.616 199.617 150.814 199.617 150.323 199.9C149.832 200.182 149.832 200.645 150.323 200.928C150.814 201.21 151.616 201.21 152.107 200.928C152.598 200.645 152.598 200.182 152.107 199.9Z" fill="#16110D"/>
<path d="M145.656 197.227C145.165 197.509 145.165 197.972 145.656 198.255C146.147 198.537 146.949 198.537 147.44 198.255C147.931 197.972 147.931 197.509 147.44 197.227C146.949 196.944 146.147 196.944 145.656 197.227Z" fill="#16110D"/>
<path d="M141.001 194.554C140.51 194.837 140.51 195.299 141.001 195.582C141.492 195.865 142.294 195.865 142.785 195.582C143.277 195.299 143.277 194.837 142.785 194.554C142.294 194.271 141.492 194.271 141.001 194.554Z" fill="#16110D"/>
<path d="M136.334 191.881C135.843 192.164 135.843 192.626 136.334 192.909C136.825 193.192 137.627 193.192 138.118 192.909C138.61 192.626 138.61 192.164 138.118 191.881C137.627 191.599 136.825 191.599 136.334 191.881Z" fill="#16110D"/>
<path d="M131.68 189.196C131.189 189.478 131.189 189.941 131.68 190.224C132.171 190.506 132.973 190.506 133.464 190.224C133.955 189.941 133.955 189.478 133.464 189.196C132.973 188.913 132.171 188.913 131.68 189.196Z" fill="#16110D"/>
<path d="M127.012 186.523C126.521 186.806 126.521 187.268 127.012 187.551C127.504 187.834 128.305 187.834 128.797 187.551C129.288 187.268 129.288 186.806 128.797 186.523C128.305 186.24 127.504 186.24 127.012 186.523Z" fill="#16110D"/>
<path d="M122.358 183.85C121.867 184.133 121.867 184.595 122.358 184.878C122.849 185.161 123.651 185.161 124.142 184.878C124.634 184.595 124.634 184.133 124.142 183.85C123.651 183.567 122.849 183.567 122.358 183.85Z" fill="#16110D"/>
<path d="M117.703 181.177C117.212 181.46 117.212 181.923 117.703 182.205C118.195 182.488 118.996 182.488 119.487 182.205C119.979 181.923 119.979 181.46 119.487 181.177C118.996 180.895 118.195 180.895 117.703 181.177Z" fill="#16110D"/>
<path d="M113.036 178.505C112.545 178.787 112.545 179.25 113.036 179.533C113.528 179.815 114.329 179.815 114.82 179.533C115.312 179.25 115.312 178.787 114.82 178.505C114.329 178.222 113.528 178.222 113.036 178.505Z" fill="#16110D"/>
<path d="M108.382 175.832C107.89 176.115 107.89 176.577 108.382 176.86C108.873 177.143 109.674 177.143 110.166 176.86C110.657 176.577 110.657 176.115 110.166 175.832C109.674 175.549 108.873 175.549 108.382 175.832Z" fill="#16110D"/>
<path d="M103.715 173.159C103.223 173.442 103.223 173.904 103.715 174.187C104.206 174.47 105.007 174.47 105.499 174.187C105.99 173.904 105.99 173.442 105.499 173.159C105.007 172.876 104.206 172.876 103.715 173.159Z" fill="#16110D"/>
<path d="M99.0597 170.486C98.5684 170.769 98.5684 171.232 99.0597 171.514C99.551 171.797 100.353 171.797 100.844 171.514C101.335 171.232 101.335 170.769 100.844 170.486C100.353 170.204 99.551 170.204 99.0597 170.486Z" fill="#16110D"/>
<path d="M94.3927 167.814C93.9014 168.096 93.9014 168.559 94.3927 168.842C94.884 169.124 95.6856 169.124 96.1769 168.842C96.6682 168.559 96.6682 168.096 96.1769 167.814C95.6856 167.531 94.884 167.531 94.3927 167.814Z" fill="#16110D"/>
<path d="M89.738 165.141C89.2467 165.424 89.2467 165.886 89.738 166.169C90.2293 166.452 91.0308 166.452 91.5221 166.169C92.0135 165.886 92.0135 165.424 91.5221 165.141C91.0308 164.858 90.2293 164.858 89.738 165.141Z" fill="#16110D"/>
<path d="M85.0837 162.468C84.5924 162.751 84.5924 163.213 85.0837 163.496C85.575 163.779 86.3766 163.779 86.8679 163.496C87.3592 163.213 87.3592 162.751 86.8679 162.468C86.3766 162.185 85.575 162.185 85.0837 162.468Z" fill="#16110D"/>
<path d="M80.4162 159.783C79.9249 160.065 79.9249 160.528 80.4162 160.811C80.9075 161.093 81.7091 161.093 82.2004 160.811C82.6917 160.528 82.6917 160.065 82.2004 159.783C81.7091 159.5 80.9075 159.5 80.4162 159.783Z" fill="#16110D"/>
<path d="M156.762 197.227C156.271 196.944 155.469 196.944 154.978 197.227C154.486 197.509 154.486 197.972 154.978 198.255C155.469 198.537 156.271 198.537 156.762 198.255C157.253 197.972 157.253 197.509 156.762 197.227Z" fill="#16110D"/>
<path d="M150.31 194.554C149.819 194.837 149.819 195.299 150.31 195.582C150.802 195.865 151.603 195.865 152.094 195.582C152.586 195.299 152.586 194.837 152.094 194.554C151.603 194.271 150.802 194.271 150.31 194.554Z" fill="#16110D"/>
<path d="M145.656 191.881C145.165 192.164 145.165 192.626 145.656 192.909C146.147 193.192 146.949 193.192 147.44 192.909C147.931 192.626 147.931 192.164 147.44 191.881C146.949 191.599 146.147 191.599 145.656 191.881Z" fill="#16110D"/>
<path d="M141.001 189.196C140.51 189.478 140.51 189.941 141.001 190.224C141.492 190.506 142.294 190.506 142.785 190.224C143.277 189.941 143.277 189.478 142.785 189.196C142.294 188.913 141.492 188.913 141.001 189.196Z" fill="#16110D"/>
<path d="M136.334 186.523C135.843 186.806 135.843 187.268 136.334 187.551C136.825 187.834 137.627 187.834 138.118 187.551C138.61 187.268 138.61 186.806 138.118 186.523C137.627 186.24 136.825 186.24 136.334 186.523Z" fill="#16110D"/>
<path d="M131.68 183.85C131.189 184.133 131.189 184.595 131.68 184.878C132.171 185.161 132.973 185.161 133.464 184.878C133.955 184.595 133.955 184.133 133.464 183.85C132.973 183.567 132.171 183.567 131.68 183.85Z" fill="#16110D"/>
<path d="M127.012 181.177C126.521 181.46 126.521 181.923 127.012 182.205C127.504 182.488 128.305 182.488 128.797 182.205C129.288 181.923 129.288 181.46 128.797 181.177C128.305 180.895 127.504 180.895 127.012 181.177Z" fill="#16110D"/>
<path d="M122.358 178.505C121.867 178.787 121.867 179.25 122.358 179.533C122.849 179.815 123.651 179.815 124.142 179.533C124.634 179.25 124.634 178.787 124.142 178.505C123.651 178.222 122.849 178.222 122.358 178.505Z" fill="#16110D"/>
<path d="M117.703 175.832C117.212 176.115 117.212 176.577 117.703 176.86C118.195 177.143 118.996 177.143 119.487 176.86C119.979 176.577 119.979 176.115 119.487 175.832C118.996 175.549 118.195 175.549 117.703 175.832Z" fill="#16110D"/>
<path d="M113.036 173.159C112.545 173.442 112.545 173.904 113.036 174.187C113.528 174.47 114.329 174.47 114.82 174.187C115.312 173.904 115.312 173.442 114.82 173.159C114.329 172.876 113.528 172.876 113.036 173.159Z" fill="#16110D"/>
<path d="M108.382 170.486C107.89 170.769 107.89 171.232 108.382 171.514C108.873 171.797 109.674 171.797 110.166 171.514C110.657 171.232 110.657 170.769 110.166 170.486C109.674 170.204 108.873 170.204 108.382 170.486Z" fill="#16110D"/>
<path d="M103.715 167.814C103.223 168.096 103.223 168.559 103.715 168.842C104.206 169.124 105.007 169.124 105.499 168.842C105.99 168.559 105.99 168.096 105.499 167.814C105.007 167.531 104.206 167.531 103.715 167.814Z" fill="#16110D"/>
<path d="M99.0597 165.141C98.5684 165.424 98.5684 165.886 99.0597 166.169C99.551 166.452 100.353 166.452 100.844 166.169C101.335 165.886 101.335 165.424 100.844 165.141C100.353 164.858 99.551 164.858 99.0597 165.141Z" fill="#16110D"/>
<path d="M94.3927 162.468C93.9014 162.751 93.9014 163.213 94.3927 163.496C94.884 163.779 95.6856 163.779 96.1769 163.496C96.6682 163.213 96.6682 162.751 96.1769 162.468C95.6856 162.185 94.884 162.185 94.3927 162.468Z" fill="#16110D"/>
<path d="M89.738 159.783C89.2467 160.065 89.2467 160.528 89.738 160.811C90.2293 161.093 91.0308 161.093 91.5221 160.811C92.0135 160.528 92.0135 160.065 91.5221 159.783C91.0308 159.5 90.2293 159.5 89.738 159.783Z" fill="#16110D"/>
<path d="M85.0837 157.11C84.5924 157.392 84.5924 157.855 85.0837 158.138C85.575 158.42 86.3766 158.42 86.8679 158.138C87.3592 157.855 87.3592 157.392 86.8679 157.11C86.3766 156.827 85.575 156.827 85.0837 157.11Z" fill="#16110D"/>
<path d="M161.468 194.528C160.977 194.246 160.175 194.246 159.684 194.528C159.192 194.811 159.192 195.274 159.684 195.556C160.175 195.839 160.977 195.839 161.468 195.556C161.959 195.274 161.959 194.811 161.468 194.528Z" fill="#16110D"/>
<path d="M155.016 191.843C154.525 192.125 154.525 192.588 155.016 192.871C155.508 193.153 156.309 193.153 156.8 192.871C157.292 192.588 157.292 192.125 156.8 191.843C156.309 191.56 155.508 191.56 155.016 191.843Z" fill="#16110D"/>
<path d="M150.362 189.17C149.871 189.453 149.871 189.915 150.362 190.198C150.853 190.481 151.655 190.481 152.146 190.198C152.637 189.915 152.637 189.453 152.146 189.17C151.655 188.887 150.853 188.887 150.362 189.17Z" fill="#16110D"/>
<path d="M145.694 186.497C145.203 186.78 145.203 187.242 145.694 187.525C146.186 187.808 146.987 187.808 147.479 187.525C147.97 187.242 147.97 186.78 147.479 186.497C146.987 186.214 146.186 186.214 145.694 186.497Z" fill="#16110D"/>
<path d="M141.04 183.824C140.549 184.107 140.549 184.57 141.04 184.852C141.531 185.135 142.333 185.135 142.824 184.852C143.316 184.57 143.316 184.107 142.824 183.824C142.333 183.542 141.531 183.542 141.04 183.824Z" fill="#16110D"/>
<path d="M136.373 181.152C135.881 181.434 135.881 181.897 136.373 182.18C136.864 182.462 137.666 182.462 138.157 182.18C138.648 181.897 138.648 181.434 138.157 181.152C137.666 180.869 136.864 180.869 136.373 181.152Z" fill="#16110D"/>
<path d="M131.718 178.479C131.227 178.762 131.227 179.224 131.718 179.507C132.21 179.79 133.011 179.79 133.503 179.507C133.994 179.224 133.994 178.762 133.503 178.479C133.011 178.196 132.21 178.196 131.718 178.479Z" fill="#16110D"/>
<path d="M127.051 175.806C126.56 176.089 126.56 176.551 127.051 176.834C127.542 177.117 128.344 177.117 128.835 176.834C129.326 176.551 129.326 176.089 128.835 175.806C128.344 175.523 127.542 175.523 127.051 175.806Z" fill="#16110D"/>
<path d="M122.397 173.133C121.905 173.416 121.905 173.879 122.397 174.161C122.888 174.444 123.69 174.444 124.181 174.161C124.672 173.879 124.672 173.416 124.181 173.133C123.69 172.851 122.888 172.851 122.397 173.133Z" fill="#16110D"/>
<path d="M117.742 170.461C117.251 170.743 117.251 171.206 117.742 171.489C118.234 171.771 119.035 171.771 119.527 171.489C120.018 171.206 120.018 170.743 119.527 170.461C119.035 170.178 118.234 170.178 117.742 170.461Z" fill="#16110D"/>
<path d="M114.859 167.788C114.368 167.505 113.566 167.505 113.075 167.788C112.584 168.071 112.584 168.533 113.075 168.816C113.566 169.099 114.368 169.099 114.859 168.816C115.35 168.533 115.35 168.071 114.859 167.788C114.368 167.505 115.35 168.071 114.859 167.788Z" fill="#16110D"/>
<path d="M110.205 165.102C109.713 164.82 108.912 164.82 108.421 165.102C107.929 165.385 107.929 165.848 108.421 166.13C108.912 166.413 109.713 166.413 110.205 166.13C110.696 165.848 110.696 165.385 110.205 165.102C109.713 164.82 110.696 165.385 110.205 165.102Z" fill="#16110D"/>
<path d="M105.537 162.43C105.046 162.147 104.244 162.147 103.753 162.43C103.262 162.712 103.262 163.175 103.753 163.458C104.244 163.74 105.046 163.74 105.537 163.458C106.029 163.175 106.029 162.712 105.537 162.43C105.046 162.147 106.029 162.712 105.537 162.43Z" fill="#16110D"/>
<path d="M99.0988 159.757C98.6075 160.04 98.6075 160.502 99.0988 160.785C99.5901 161.068 100.392 161.068 100.883 160.785C101.374 160.502 99.5901 159.474 99.0988 159.757Z" fill="#16110D"/>
<path d="M94.4441 157.084C93.9528 157.367 93.9528 157.829 94.4441 158.112C94.9354 158.395 95.737 158.395 96.2283 158.112C96.7196 157.829 94.9354 156.801 94.4441 157.084Z" fill="#16110D"/>
<path d="M89.7771 154.411C89.2858 154.694 89.2858 155.157 89.7771 155.439C90.2684 155.722 91.07 155.722 91.5613 155.439C92.0526 155.157 90.2684 154.129 89.7771 154.411Z" fill="#16110D"/>
<path d="M166.122 191.856C165.631 191.573 164.829 191.573 164.338 191.856C163.847 192.138 163.847 192.601 164.338 192.884C164.829 193.166 165.631 193.166 166.122 192.884C166.614 192.601 166.614 192.138 166.122 191.856Z" fill="#16110D"/>
<path d="M159.671 189.17C159.179 189.453 159.179 189.915 159.671 190.198C160.162 190.481 160.963 190.481 161.455 190.198C161.946 189.915 161.946 189.453 161.455 189.17C160.963 188.887 160.162 188.887 159.671 189.17Z" fill="#16110D"/>
<path d="M155.016 186.497C154.525 186.78 154.525 187.242 155.016 187.525C155.508 187.808 156.309 187.808 156.8 187.525C157.292 187.242 157.292 186.78 156.8 186.497C156.309 186.214 155.508 186.214 155.016 186.497Z" fill="#16110D"/>
<path d="M150.362 183.824C149.871 184.107 149.871 184.57 150.362 184.852C150.853 185.135 151.655 185.135 152.146 184.852C152.637 184.57 152.637 184.107 152.146 183.824C151.655 183.542 150.853 183.542 150.362 183.824Z" fill="#16110D"/>
<path d="M145.694 181.152C145.203 181.434 145.203 181.897 145.694 182.18C146.186 182.462 146.987 182.462 147.479 182.18C147.97 181.897 147.97 181.434 147.479 181.152C146.987 180.869 146.186 180.869 145.694 181.152Z" fill="#16110D"/>
<path d="M141.04 178.479C140.549 178.762 140.549 179.224 141.04 179.507C141.531 179.79 142.333 179.79 142.824 179.507C143.316 179.224 143.316 178.762 142.824 178.479C142.333 178.196 141.531 178.196 141.04 178.479Z" fill="#16110D"/>
<path d="M136.373 175.806C135.881 176.089 135.881 176.551 136.373 176.834C136.864 177.117 137.666 177.117 138.157 176.834C138.648 176.551 138.648 176.089 138.157 175.806C137.666 175.523 136.864 175.523 136.373 175.806Z" fill="#16110D"/>
<path d="M131.718 173.133C131.227 173.416 131.227 173.879 131.718 174.161C132.21 174.444 133.011 174.444 133.503 174.161C133.994 173.879 132.21 172.851 131.718 173.133Z" fill="#16110D"/>
<path d="M170.79 189.183C170.298 188.9 169.497 188.9 169.006 189.183C168.514 189.466 168.514 189.928 169.006 190.211C169.497 190.494 170.298 190.494 170.79 190.211C171.281 189.928 171.281 189.466 170.79 189.183Z" fill="#16110D"/>
<path d="M164.338 186.497C163.847 186.78 163.847 187.242 164.338 187.525C164.829 187.808 165.631 187.808 166.122 187.525C166.614 187.242 166.614 186.78 166.122 186.497C165.631 186.214 164.829 186.214 164.338 186.497Z" fill="#16110D"/>
<path d="M159.671 183.824C159.179 184.107 159.179 184.57 159.671 184.852C160.162 185.135 160.963 185.135 161.455 184.852C161.946 184.57 161.946 184.107 161.455 183.824C160.963 183.542 160.162 183.542 159.671 183.824Z" fill="#16110D"/>
<path d="M155.016 181.152C154.525 181.434 154.525 181.897 155.016 182.18C155.508 182.462 156.309 182.462 156.8 182.18C157.292 181.897 157.292 181.434 156.8 181.152C156.309 180.869 155.508 180.869 155.016 181.152Z" fill="#16110D"/>
<path d="M150.362 178.479C149.871 178.762 149.871 179.224 150.362 179.507C150.853 179.79 151.655 179.79 152.146 179.507C152.637 179.224 152.637 178.762 152.146 178.479C151.655 178.196 150.853 178.196 150.362 178.479Z" fill="#16110D"/>
<path d="M175.444 186.497C174.953 186.214 174.151 186.214 173.66 186.497C173.169 186.78 173.169 187.242 173.66 187.525C174.151 187.808 174.953 187.808 175.444 187.525C175.935 187.242 175.935 186.78 175.444 186.497Z" fill="#16110D"/>
<path d="M168.992 183.824C168.501 184.107 168.501 184.57 168.992 184.852C169.484 185.135 170.285 185.135 170.777 184.852C171.268 184.57 171.268 184.107 170.777 183.824C170.285 183.542 169.484 183.542 168.992 183.824Z" fill="#16110D"/>
<path d="M166.122 181.152C165.631 180.869 164.829 180.869 164.338 181.152C163.847 181.434 163.847 181.897 164.338 182.18C164.829 182.462 165.631 182.462 166.122 182.18C166.614 181.897 166.614 181.434 166.122 181.152C165.631 180.869 166.614 181.434 166.122 181.152Z" fill="#16110D"/>
<path d="M180.098 183.824C179.607 183.542 178.805 183.542 178.314 183.824C177.823 184.107 177.823 184.57 178.314 184.852C178.805 185.135 179.607 185.135 180.098 184.852C180.59 184.57 180.59 184.107 180.098 183.824Z" fill="#16110D"/>
<path d="M119.307 218.185C118.816 217.902 118.014 217.902 117.523 218.185C117.031 218.467 117.031 218.93 117.523 219.213C118.014 219.495 118.816 219.495 119.307 219.213C119.798 218.93 119.798 218.467 119.307 218.185Z" fill="#16110D"/>
<path d="M112.855 215.512C112.364 215.795 112.364 216.257 112.855 216.54C113.346 216.823 114.148 216.823 114.639 216.54C115.131 216.257 115.131 215.795 114.639 215.512C114.148 215.229 113.346 215.229 112.855 215.512Z" fill="#16110D"/>
<path d="M108.201 212.839C107.71 213.122 107.71 213.585 108.201 213.867C108.692 214.15 109.494 214.15 109.985 213.867C110.476 213.585 110.476 213.122 109.985 212.839C109.494 212.557 108.692 212.557 108.201 212.839Z" fill="#16110D"/>
<path d="M103.533 210.166C103.042 210.449 103.042 210.912 103.533 211.194C104.025 211.477 104.826 211.477 105.318 211.194C105.809 210.912 105.809 210.449 105.318 210.166C104.826 209.884 104.025 209.884 103.533 210.166Z" fill="#16110D"/>
<path d="M98.8791 207.494C98.3878 207.776 98.3878 208.239 98.8791 208.522C99.3704 208.804 100.172 208.804 100.663 208.522C101.155 208.239 101.155 207.776 100.663 207.494C100.172 207.211 99.3704 207.211 98.8791 207.494Z" fill="#16110D"/>
<path d="M94.2116 204.821C93.7203 205.104 93.7203 205.566 94.2116 205.849C94.7029 206.132 95.5045 206.132 95.9958 205.849C96.4871 205.566 96.4871 205.104 95.9958 204.821C95.5045 204.538 94.7029 204.538 94.2116 204.821Z" fill="#16110D"/>
<path d="M89.5573 202.148C89.066 202.431 89.066 202.893 89.5573 203.176C90.0486 203.459 90.8502 203.459 91.3415 203.176C91.8328 202.893 91.8328 202.431 91.3415 202.148C90.8502 201.865 90.0486 201.865 89.5573 202.148Z" fill="#16110D"/>
<path d="M84.8898 199.475C84.3985 199.758 84.3985 200.221 84.8898 200.503C85.3811 200.786 86.1827 200.786 86.674 200.503C87.1653 200.221 87.1653 199.758 86.674 199.475C86.1827 199.193 85.3811 199.193 84.8898 199.475Z" fill="#16110D"/>
<path d="M80.2355 196.79C79.7442 197.073 79.7442 197.535 80.2355 197.818C80.7268 198.101 81.5284 198.101 82.0197 197.818C82.511 197.535 82.511 197.073 82.0197 196.79C81.5284 196.507 80.7268 196.507 80.2355 196.79Z" fill="#16110D"/>
<path d="M75.5807 194.117C75.0894 194.4 75.0894 194.862 75.5807 195.145C76.072 195.428 76.8736 195.428 77.3649 195.145C77.8562 194.862 77.8562 194.4 77.3649 194.117C76.8736 193.834 76.072 193.834 75.5807 194.117Z" fill="#16110D"/>
<path d="M70.9137 191.444C70.4224 191.727 70.4224 192.19 70.9137 192.472C71.405 192.755 72.2066 192.755 72.6979 192.472C73.1892 192.19 73.1892 191.727 72.6979 191.444C72.2066 191.162 71.405 191.162 70.9137 191.444Z" fill="#16110D"/>
<path d="M66.2589 188.772C65.7676 189.054 65.7676 189.517 66.2589 189.8C66.7502 190.082 67.5518 190.082 68.0431 189.8C68.5344 189.517 68.5344 189.054 68.0431 188.772C67.5518 188.489 66.7502 188.489 66.2589 188.772Z" fill="#16110D"/>
<path d="M61.592 186.099C61.1007 186.382 61.1007 186.844 61.592 187.127C62.0833 187.41 62.8849 187.41 63.3762 187.127C63.8675 186.844 63.8675 186.382 63.3762 186.099C62.8849 185.816 62.0833 185.816 61.592 186.099Z" fill="#16110D"/>
<path d="M56.9372 183.426C56.4459 183.709 56.4459 184.171 56.9372 184.454C57.4285 184.737 58.2301 184.737 58.7214 184.454C59.2127 184.171 59.2127 183.709 58.7214 183.426C58.2301 183.143 57.4285 183.143 56.9372 183.426Z" fill="#16110D"/>
<path d="M52.2702 180.753C51.7789 181.036 51.7789 181.499 52.2702 181.781C52.7615 182.064 53.5631 182.064 54.0544 181.781C54.5457 181.499 54.5457 181.036 54.0544 180.753C53.5631 180.471 52.7615 180.471 52.2702 180.753Z" fill="#16110D"/>
<path d="M47.6154 178.081C47.1241 178.363 47.1241 178.826 47.6154 179.109C48.1067 179.391 48.9083 179.391 49.3996 179.109C49.8909 178.826 49.8909 178.363 49.3996 178.081C48.9083 177.798 48.1067 177.798 47.6154 178.081Z" fill="#16110D"/>
<path d="M123.961 215.512C123.47 215.229 122.668 215.229 122.177 215.512C121.686 215.795 121.686 216.257 122.177 216.54C122.668 216.823 123.47 216.823 123.961 216.54C124.452 216.257 124.452 215.795 123.961 215.512Z" fill="#16110D"/>
<path d="M117.509 212.839C117.018 213.122 117.018 213.585 117.509 213.867C118.001 214.15 118.802 214.15 119.294 213.867C119.785 213.585 119.785 213.122 119.294 212.839C118.802 212.557 118.001 212.557 117.509 212.839Z" fill="#16110D"/>
<path d="M112.855 210.166C112.364 210.449 112.364 210.912 112.855 211.194C113.346 211.477 114.148 211.477 114.639 211.194C115.131 210.912 115.131 210.449 114.639 210.166C114.148 209.884 113.346 209.884 112.855 210.166Z" fill="#16110D"/>
<path d="M108.201 207.494C107.71 207.776 107.71 208.239 108.201 208.522C108.692 208.804 109.494 208.804 109.985 208.522C110.476 208.239 110.476 207.776 109.985 207.494C109.494 207.211 108.692 207.211 108.201 207.494Z" fill="#16110D"/>
<path d="M103.533 204.821C103.042 205.104 103.042 205.566 103.533 205.849C104.025 206.132 104.826 206.132 105.318 205.849C105.809 205.566 105.809 205.104 105.318 204.821C104.826 204.538 104.025 204.538 103.533 204.821Z" fill="#16110D"/>
<path d="M98.8791 202.148C98.3878 202.431 98.3878 202.893 98.8791 203.176C99.3704 203.459 100.172 203.459 100.663 203.176C101.155 202.893 101.155 202.431 100.663 202.148C100.172 201.865 99.3704 201.865 98.8791 202.148Z" fill="#16110D"/>
<path d="M94.2116 199.475C93.7203 199.758 93.7203 200.221 94.2116 200.503C94.7029 200.786 95.5045 200.786 95.9958 200.503C96.4871 200.221 96.4871 199.758 95.9958 199.475C95.5045 199.193 94.7029 199.193 94.2116 199.475Z" fill="#16110D"/>
<path d="M89.5573 196.79C89.066 197.073 89.066 197.535 89.5573 197.818C90.0486 198.101 90.8502 198.101 91.3415 197.818C91.8328 197.535 91.8328 197.073 91.3415 196.79C90.8502 196.507 90.0486 196.507 89.5573 196.79Z" fill="#16110D"/>
<path d="M84.8898 194.117C84.3985 194.4 84.3985 194.862 84.8898 195.145C85.3811 195.428 86.1827 195.428 86.674 195.145C87.1653 194.862 87.1653 194.4 86.674 194.117C86.1827 193.834 85.3811 193.834 84.8898 194.117Z" fill="#16110D"/>
<path d="M80.2355 191.444C79.7442 191.727 79.7442 192.19 80.2355 192.472C80.7268 192.755 81.5284 192.755 82.0197 192.472C82.511 192.19 82.511 191.727 82.0197 191.444C81.5284 191.162 80.7268 191.162 80.2355 191.444Z" fill="#16110D"/>
<path d="M75.5807 188.772C75.0894 189.054 75.0894 189.517 75.5807 189.8C76.072 190.082 76.8736 190.082 77.3649 189.8C77.8562 189.517 77.8562 189.054 77.3649 188.772C76.8736 188.489 76.072 188.489 75.5807 188.772Z" fill="#16110D"/>
<path d="M70.9137 186.099C70.4224 186.382 70.4224 186.844 70.9137 187.127C71.405 187.41 72.2066 187.41 72.6979 187.127C73.1892 186.844 73.1892 186.382 72.6979 186.099C72.2066 185.816 71.405 185.816 70.9137 186.099Z" fill="#16110D"/>
<path d="M66.2589 183.426C65.7676 183.709 65.7676 184.171 66.2589 184.454C66.7502 184.737 67.5518 184.737 68.0431 184.454C68.5344 184.171 68.5344 183.709 68.0431 183.426C67.5518 183.143 66.7502 183.143 66.2589 183.426Z" fill="#16110D"/>
<path d="M61.592 180.753C61.1007 181.036 61.1007 181.499 61.592 181.781C62.0833 182.064 62.8849 182.064 63.3762 181.781C63.8675 181.499 63.8675 181.036 63.3762 180.753C62.8849 180.471 62.0833 180.471 61.592 180.753Z" fill="#16110D"/>
<path d="M56.9372 178.081C56.4459 178.363 56.4459 178.826 56.9372 179.109C57.4285 179.391 58.2301 179.391 58.7214 179.109C59.2127 178.826 59.2127 178.363 58.7214 178.081C58.2301 177.798 57.4285 177.798 56.9372 178.081Z" fill="#16110D"/>
<path d="M52.2702 175.408C51.7789 175.691 51.7789 176.153 52.2702 176.436C52.7615 176.718 53.5631 176.718 54.0544 176.436C54.5457 176.153 54.5457 175.691 54.0544 175.408C53.5631 175.125 52.7615 175.125 52.2702 175.408Z" fill="#16110D"/>
<path d="M117.509 207.494C117.018 207.776 117.018 208.239 117.509 208.522C118.001 208.804 118.802 208.804 119.294 208.522C119.785 208.239 119.785 207.776 119.294 207.494C118.802 207.211 118.001 207.211 117.509 207.494Z" fill="#16110D"/>
<path d="M112.855 204.821C112.364 205.104 112.364 205.566 112.855 205.849C113.346 206.132 114.148 206.132 114.639 205.849C115.131 205.566 115.131 205.104 114.639 204.821C114.148 204.538 113.346 204.538 112.855 204.821Z" fill="#16110D"/>
<path d="M108.201 202.148C107.71 202.431 107.71 202.893 108.201 203.176C108.692 203.459 109.494 203.459 109.985 203.176C110.476 202.893 110.476 202.431 109.985 202.148C109.494 201.865 108.692 201.865 108.201 202.148Z" fill="#16110D"/>
<path d="M103.533 199.475C103.042 199.758 103.042 200.221 103.533 200.503C104.025 200.786 104.826 200.786 105.318 200.503C105.809 200.221 105.809 199.758 105.318 199.475C104.826 199.193 104.025 199.193 103.533 199.475Z" fill="#16110D"/>
<path d="M98.8791 196.79C98.3878 197.073 98.3878 197.535 98.8791 197.818C99.3704 198.101 100.172 198.101 100.663 197.818C101.155 197.535 101.155 197.073 100.663 196.79C100.172 196.507 99.3704 196.507 98.8791 196.79Z" fill="#16110D"/>
<path d="M94.2116 194.117C93.7203 194.4 93.7203 194.862 94.2116 195.145C94.7029 195.428 95.5045 195.428 95.9958 195.145C96.4871 194.862 96.4871 194.4 95.9958 194.117C95.5045 193.834 94.7029 193.834 94.2116 194.117Z" fill="#16110D"/>
<path d="M89.5573 191.444C89.066 191.727 89.066 192.19 89.5573 192.472C90.0486 192.755 90.8502 192.755 91.3415 192.472C91.8328 192.19 91.8328 191.727 91.3415 191.444C90.8502 191.162 90.0486 191.162 89.5573 191.444Z" fill="#16110D"/>
<path d="M84.8898 188.772C84.3985 189.054 84.3985 189.517 84.8898 189.8C85.3811 190.082 86.1827 190.082 86.674 189.8C87.1653 189.517 87.1653 189.054 86.674 188.772C86.1827 188.489 85.3811 188.489 84.8898 188.772Z" fill="#16110D"/>
<path d="M80.2355 186.099C79.7442 186.382 79.7442 186.844 80.2355 187.127C80.7268 187.41 81.5284 187.41 82.0197 187.127C82.511 186.844 82.511 186.382 82.0197 186.099C81.5284 185.816 80.7268 185.816 80.2355 186.099Z" fill="#16110D"/>
<path d="M75.5807 183.426C75.0894 183.709 75.0894 184.171 75.5807 184.454C76.072 184.737 76.8736 184.737 77.3649 184.454C77.8562 184.171 77.8562 183.709 77.3649 183.426C76.8736 183.143 76.072 183.143 75.5807 183.426Z" fill="#16110D"/>
<path d="M70.9137 180.753C70.4224 181.036 70.4224 181.499 70.9137 181.781C71.405 182.064 72.2066 182.064 72.6979 181.781C73.1892 181.499 73.1892 181.036 72.6979 180.753C72.2066 180.471 71.405 180.471 70.9137 180.753Z" fill="#16110D"/>
<path d="M66.2589 178.081C65.7676 178.363 65.7676 178.826 66.2589 179.109C66.7502 179.391 67.5518 179.391 68.0431 179.109C68.5344 178.826 68.5344 178.363 68.0431 178.081C67.5518 177.798 66.7502 177.798 66.2589 178.081Z" fill="#16110D"/>
<path d="M61.592 175.408C61.1007 175.691 61.1007 176.153 61.592 176.436C62.0833 176.718 62.8849 176.718 63.3762 176.436C63.8675 176.153 63.8675 175.691 63.3762 175.408C62.8849 175.125 62.0833 175.125 61.592 175.408Z" fill="#16110D"/>
<path d="M56.9372 172.735C56.4459 173.018 56.4459 173.48 56.9372 173.763C57.4285 174.046 58.2301 174.046 58.7214 173.763C59.2127 173.48 59.2127 173.018 58.7214 172.735C58.2301 172.452 57.4285 172.452 56.9372 172.735Z" fill="#16110D"/>
<path d="M128.629 212.839C128.137 212.557 127.336 212.557 126.844 212.839C126.353 213.122 126.353 213.585 126.844 213.867C127.336 214.15 128.137 214.15 128.629 213.867C129.12 213.585 129.12 213.122 128.629 212.839Z" fill="#16110D"/>
<path d="M122.177 210.166C121.686 210.449 121.686 210.912 122.177 211.194C122.668 211.477 123.47 211.477 123.961 211.194C124.452 210.912 124.452 210.449 123.961 210.166C123.47 209.884 122.668 209.884 122.177 210.166Z" fill="#16110D"/>
<path d="M133.283 210.166C132.792 209.884 131.99 209.884 131.499 210.166C131.007 210.449 131.007 210.912 131.499 211.194C131.99 211.477 132.792 211.477 133.283 211.194C133.774 210.912 133.774 210.449 133.283 210.166Z" fill="#16110D"/>
<path d="M126.831 207.494C126.34 207.776 126.34 208.239 126.831 208.522C127.323 208.804 128.124 208.804 128.615 208.522C129.107 208.239 129.107 207.776 128.615 207.494C128.124 207.211 127.323 207.211 126.831 207.494Z" fill="#16110D"/>
<path d="M112.855 199.475C112.364 199.758 112.364 200.221 112.855 200.503C113.346 200.786 114.148 200.786 114.639 200.503C115.131 200.221 115.131 199.758 114.639 199.475C114.148 199.193 113.346 199.193 112.855 199.475Z" fill="#16110D"/>
<path d="M108.201 196.79C107.71 197.073 107.71 197.535 108.201 197.818C108.692 198.101 109.494 198.101 109.985 197.818C110.476 197.535 110.476 197.073 109.985 196.79C109.494 196.507 108.692 196.507 108.201 196.79Z" fill="#16110D"/>
<path d="M103.533 194.117C103.042 194.4 103.042 194.862 103.533 195.145C104.025 195.428 104.826 195.428 105.318 195.145C105.809 194.862 105.809 194.4 105.318 194.117C104.826 193.834 104.025 193.834 103.533 194.117Z" fill="#16110D"/>
<path d="M98.8791 191.444C98.3878 191.727 98.3878 192.19 98.8791 192.472C99.3704 192.755 100.172 192.755 100.663 192.472C101.155 192.19 101.155 191.727 100.663 191.444C100.172 191.162 99.3704 191.162 98.8791 191.444Z" fill="#16110D"/>
<path d="M94.2116 188.772C93.7203 189.054 93.7203 189.517 94.2116 189.8C94.7029 190.082 95.5045 190.082 95.9958 189.8C96.4871 189.517 96.4871 189.054 95.9958 188.772C95.5045 188.489 94.7029 188.489 94.2116 188.772Z" fill="#16110D"/>
<path d="M89.5573 186.099C89.066 186.382 89.066 186.844 89.5573 187.127C90.0486 187.41 90.8502 187.41 91.3415 187.127C91.8328 186.844 91.8328 186.382 91.3415 186.099C90.8502 185.816 90.0486 185.816 89.5573 186.099Z" fill="#16110D"/>
<path d="M84.8898 183.426C84.3985 183.709 84.3985 184.171 84.8898 184.454C85.3811 184.737 86.1827 184.737 86.674 184.454C87.1653 184.171 87.1653 183.709 86.674 183.426C86.1827 183.143 85.3811 183.143 84.8898 183.426Z" fill="#16110D"/>
<path d="M80.2355 180.753C79.7442 181.036 79.7442 181.499 80.2355 181.781C80.7268 182.064 81.5284 182.064 82.0197 181.781C82.511 181.499 82.511 181.036 82.0197 180.753C81.5284 180.471 80.7268 180.471 80.2355 180.753Z" fill="#16110D"/>
<path d="M75.5807 178.081C75.0894 178.363 75.0894 178.826 75.5807 179.109C76.072 179.391 76.8736 179.391 77.3649 179.109C77.8562 178.826 77.8562 178.363 77.3649 178.081C76.8736 177.798 76.072 177.798 75.5807 178.081Z" fill="#16110D"/>
<path d="M70.9137 175.408C70.4224 175.691 70.4224 176.153 70.9137 176.436C71.405 176.718 72.2066 176.718 72.6979 176.436C73.1892 176.153 73.1892 175.691 72.6979 175.408C72.2066 175.125 71.405 175.125 70.9137 175.408Z" fill="#16110D"/>
<path d="M66.2589 172.735C65.7676 173.018 65.7676 173.48 66.2589 173.763C66.7502 174.046 67.5518 174.046 68.0431 173.763C68.5344 173.48 68.5344 173.018 68.0431 172.735C67.5518 172.452 66.7502 172.452 66.2589 172.735Z" fill="#16110D"/>
<path d="M61.592 170.062C61.1007 170.345 61.1007 170.808 61.592 171.09C62.0833 171.373 62.8849 171.373 63.3762 171.09C63.8675 170.808 63.8675 170.345 63.3762 170.062C62.8849 169.78 62.0833 169.78 61.592 170.062Z" fill="#16110D"/>
<path d="M122.177 204.821C121.686 205.104 121.686 205.566 122.177 205.849C122.668 206.132 123.47 206.132 123.961 205.849C124.452 205.566 124.452 205.104 123.961 204.821C123.47 204.538 122.668 204.538 122.177 204.821Z" fill="#16110D"/>
<path d="M117.509 202.148C117.018 202.431 117.018 202.893 117.509 203.176C118.001 203.459 118.802 203.459 119.294 203.176C119.785 202.893 119.785 202.431 119.294 202.148C118.802 201.865 118.001 201.865 117.509 202.148Z" fill="#16110D"/>
<path d="M61.7858 165.115C61.2945 165.398 61.2945 165.861 61.7858 166.143C62.2771 166.426 63.0787 166.426 63.57 166.143C64.0613 165.861 64.0613 165.398 63.57 165.115C63.0787 164.833 62.2771 164.833 61.7858 165.115Z" fill="#16110D"/>
<path d="M57.1183 162.442C56.627 162.725 56.627 163.188 57.1183 163.47C57.6096 163.753 58.4112 163.753 58.9025 163.47C59.3938 163.188 59.3938 162.725 58.9025 162.442C58.4112 162.16 57.6096 162.16 57.1183 162.442Z" fill="#16110D"/>
<path d="M52.464 159.77C51.9727 160.052 51.9727 160.515 52.464 160.798C52.9553 161.08 53.7569 161.08 54.2482 160.798C54.7395 160.515 54.7395 160.052 54.2482 159.77C53.7569 159.487 52.9553 159.487 52.464 159.77Z" fill="#16110D"/>
<path d="M47.7966 157.097C47.3053 157.38 47.3053 157.842 47.7966 158.125C48.2879 158.408 49.0894 158.408 49.5807 158.125C50.072 157.842 50.072 157.38 49.5807 157.097C49.0894 156.814 48.2879 156.814 47.7966 157.097Z" fill="#16110D"/>
<path d="M43.1422 154.424C42.6509 154.707 42.6509 155.169 43.1422 155.452C43.6335 155.735 44.4351 155.735 44.9264 155.452C45.4177 155.169 45.4177 154.707 44.9264 154.424C44.4351 154.141 43.6335 154.141 43.1422 154.424Z" fill="#16110D"/>
<path d="M38.4879 151.751C37.9966 152.034 37.9966 152.497 38.4879 152.779C38.9792 153.062 39.7808 153.062 40.2721 152.779C40.7635 152.497 40.7635 152.034 40.2721 151.751C39.7808 151.469 38.9792 151.469 38.4879 151.751Z" fill="#16110D"/>
<path d="M33.8205 149.079C33.3292 149.361 33.3292 149.824 33.8205 150.107C34.3118 150.389 35.1134 150.389 35.6047 150.107C36.096 149.824 36.096 149.361 35.6047 149.079C35.1134 148.796 34.3118 148.796 33.8205 149.079Z" fill="#16110D"/>
<path d="M29.1662 146.406C28.6749 146.689 28.6749 147.151 29.1662 147.434C29.6575 147.717 30.4591 147.717 30.9504 147.434C31.4417 147.151 31.4417 146.689 30.9504 146.406C30.4591 146.123 29.6575 146.123 29.1662 146.406Z" fill="#16110D"/>
<path d="M24.4987 143.733C24.0074 144.016 24.0074 144.478 24.4987 144.761C24.99 145.044 25.7916 145.044 26.2829 144.761C26.7742 144.478 26.7742 144.016 26.2829 143.733C25.7916 143.45 24.99 143.45 24.4987 143.733Z" fill="#16110D"/>
<path d="M19.8444 141.06C19.3531 141.343 19.3531 141.806 19.8444 142.088C20.3357 142.371 21.1373 142.371 21.6286 142.088C22.1199 141.806 22.1199 141.343 21.6286 141.06C21.1373 140.778 20.3357 140.778 19.8444 141.06Z" fill="#16110D"/>
<path d="M15.1769 138.388C14.6856 138.67 14.6856 139.133 15.1769 139.416C15.6682 139.698 16.4698 139.698 16.9611 139.416C17.4524 139.133 17.4524 138.67 16.9611 138.388C16.4698 138.105 15.6682 138.105 15.1769 138.388Z" fill="#16110D"/>
<path d="M66.4401 162.442C65.9488 162.725 65.9488 163.188 66.4401 163.47C66.9314 163.753 67.733 163.753 68.2243 163.47C68.7156 163.188 68.7156 162.725 68.2243 162.442C67.733 162.16 66.9314 162.16 66.4401 162.442Z" fill="#16110D"/>
<path d="M61.7858 159.77C61.2945 160.052 61.2945 160.515 61.7858 160.798C62.2771 161.08 63.0787 161.08 63.57 160.798C64.0613 160.515 64.0613 160.052 63.57 159.77C63.0787 159.487 62.2771 159.487 61.7858 159.77Z" fill="#16110D"/>
<path d="M57.1183 157.097C56.627 157.38 56.627 157.842 57.1183 158.125C57.6096 158.408 58.4112 158.408 58.9025 158.125C59.3938 157.842 59.3938 157.38 58.9025 157.097C58.4112 156.814 57.6096 156.814 57.1183 157.097Z" fill="#16110D"/>
<path d="M52.464 154.424C51.9727 154.707 51.9727 155.169 52.464 155.452C52.9553 155.735 53.7569 155.735 54.2482 155.452C54.7395 155.169 54.7395 154.707 54.2482 154.424C53.7569 154.141 52.9553 154.141 52.464 154.424Z" fill="#16110D"/>
<path d="M47.7966 151.751C47.3053 152.034 47.3053 152.497 47.7966 152.779C48.2879 153.062 49.0894 153.062 49.5807 152.779C50.072 152.497 50.072 152.034 49.5807 151.751C49.0894 151.469 48.2879 151.469 47.7966 151.751Z" fill="#16110D"/>
<path d="M43.1422 149.079C42.6509 149.361 42.6509 149.824 43.1422 150.107C43.6335 150.389 44.4351 150.389 44.9264 150.107C45.4177 149.824 45.4177 149.361 44.9264 149.079C44.4351 148.796 43.6335 148.796 43.1422 149.079Z" fill="#16110D"/>
<path d="M38.4879 146.406C37.9966 146.689 37.9966 147.151 38.4879 147.434C38.9792 147.717 39.7808 147.717 40.2721 147.434C40.7635 147.151 40.7635 146.689 40.2721 146.406C39.7808 146.123 38.9792 146.123 38.4879 146.406Z" fill="#16110D"/>
<path d="M33.8205 143.733C33.3292 144.016 33.3292 144.478 33.8205 144.761C34.3118 145.044 35.1134 145.044 35.6047 144.761C36.096 144.478 36.096 144.016 35.6047 143.733C35.1134 143.45 34.3118 143.45 33.8205 143.733Z" fill="#16110D"/>
<path d="M29.1662 141.06C28.6749 141.343 28.6749 141.806 29.1662 142.088C29.6575 142.371 30.4591 142.371 30.9504 142.088C31.4417 141.806 31.4417 141.343 30.9504 141.06C30.4591 140.778 29.6575 140.778 29.1662 141.06Z" fill="#16110D"/>
<path d="M24.4987 138.388C24.0074 138.67 24.0074 139.133 24.4987 139.416C24.99 139.698 25.7916 139.698 26.2829 139.416C26.7742 139.133 26.7742 138.67 26.2829 138.388C25.7916 138.105 24.99 138.105 24.4987 138.388Z" fill="#16110D"/>
<path d="M19.8444 135.702C19.3531 135.985 19.3531 136.447 19.8444 136.73C20.3357 137.013 21.1373 137.013 21.6286 136.73C22.1199 136.447 22.1199 135.985 21.6286 135.702C21.1373 135.419 20.3357 135.419 19.8444 135.702Z" fill="#16110D"/>
<path d="M71.0944 159.77C70.6031 160.052 70.6031 160.515 71.0944 160.798C71.5857 161.08 72.3873 161.08 72.8786 160.798C73.3699 160.515 73.3699 160.052 72.8786 159.77C72.3873 159.487 71.5857 159.487 71.0944 159.77Z" fill="#16110D"/>
<path d="M66.4401 157.097C65.9488 157.38 65.9488 157.842 66.4401 158.125C66.9314 158.408 67.733 158.408 68.2243 158.125C68.7156 157.842 68.7156 157.38 68.2243 157.097C67.733 156.814 66.9314 156.814 66.4401 157.097Z" fill="#16110D"/>
<path d="M61.7858 154.424C61.2945 154.707 61.2945 155.169 61.7858 155.452C62.2771 155.735 63.0787 155.735 63.57 155.452C64.0613 155.169 64.0613 154.707 63.57 154.424C63.0787 154.141 62.2771 154.141 61.7858 154.424Z" fill="#16110D"/>
<path d="M57.1183 151.751C56.627 152.034 56.627 152.497 57.1183 152.779C57.6096 153.062 58.4112 153.062 58.9025 152.779C59.3938 152.497 59.3938 152.034 58.9025 151.751C58.4112 151.469 57.6096 151.469 57.1183 151.751Z" fill="#16110D"/>
<path d="M52.464 149.079C51.9727 149.361 51.9727 149.824 52.464 150.107C52.9553 150.389 53.7569 150.389 54.2482 150.107C54.7395 149.824 54.7395 149.361 54.2482 149.079C53.7569 148.796 52.9553 148.796 52.464 149.079Z" fill="#16110D"/>
<path d="M47.7966 146.406C47.3053 146.689 47.3053 147.151 47.7966 147.434C48.2879 147.717 49.0894 147.717 49.5807 147.434C50.072 147.151 50.072 146.689 49.5807 146.406C49.0894 146.123 48.2879 146.123 47.7966 146.406Z" fill="#16110D"/>
<path d="M43.1422 143.733C42.6509 144.016 42.6509 144.478 43.1422 144.761C43.6335 145.044 44.4351 145.044 44.9264 144.761C45.4177 144.478 45.4177 144.016 44.9264 143.733C44.4351 143.45 43.6335 143.45 43.1422 143.733Z" fill="#16110D"/>
<path d="M38.4879 141.06C37.9966 141.343 37.9966 141.806 38.4879 142.088C38.9792 142.371 39.7808 142.371 40.2721 142.088C40.7635 141.806 40.7635 141.343 40.2721 141.06C39.7808 140.778 38.9792 140.778 38.4879 141.06Z" fill="#16110D"/>
<path d="M35.6047 138.388C35.1134 138.105 34.3118 138.105 33.8205 138.388C33.3292 138.67 33.3292 139.133 33.8205 139.416C34.3118 139.698 35.1134 139.698 35.6047 139.416C36.096 139.133 36.096 138.67 35.6047 138.388C35.1134 138.105 36.096 138.67 35.6047 138.388Z" fill="#16110D"/>
<path d="M29.1662 135.702C28.6749 135.985 28.6749 136.447 29.1662 136.73C29.6575 137.013 30.4591 137.013 30.9504 136.73C31.4417 136.447 29.6575 135.419 29.1662 135.702Z" fill="#16110D"/>
<path d="M75.7619 157.097C75.2706 157.38 75.2706 157.842 75.7619 158.125C76.2532 158.408 77.0548 158.408 77.5461 158.125C78.0374 157.842 78.0374 157.38 77.5461 157.097C77.0548 156.814 76.2532 156.814 75.7619 157.097Z" fill="#16110D"/>
<path d="M71.0944 154.424C70.6031 154.707 70.6031 155.169 71.0944 155.452C71.5857 155.735 72.3873 155.735 72.8786 155.452C73.3699 155.169 73.3699 154.707 72.8786 154.424C72.3873 154.141 71.5857 154.141 71.0944 154.424Z" fill="#16110D"/>
<path d="M66.4401 151.751C65.9488 152.034 65.9488 152.497 66.4401 152.779C66.9314 153.062 67.733 153.062 68.2243 152.779C68.7156 152.497 68.7156 152.034 68.2243 151.751C67.733 151.469 66.9314 151.469 66.4401 151.751Z" fill="#16110D"/>
<path d="M61.7858 149.079C61.2945 149.361 61.2945 149.824 61.7858 150.107C62.2771 150.389 63.0787 150.389 63.57 150.107C64.0613 149.824 64.0613 149.361 63.57 149.079C63.0787 148.796 62.2771 148.796 61.7858 149.079Z" fill="#16110D"/>
<path d="M57.1183 146.406C56.627 146.689 56.627 147.151 57.1183 147.434C57.6096 147.717 58.4112 147.717 58.9025 147.434C59.3938 147.151 59.3938 146.689 58.9025 146.406C58.4112 146.123 57.6096 146.123 57.1183 146.406Z" fill="#16110D"/>
<path d="M52.464 143.733C51.9727 144.016 51.9727 144.478 52.464 144.761C52.9553 145.044 53.7569 145.044 54.2482 144.761C54.7395 144.478 54.7395 144.016 54.2482 143.733C53.7569 143.45 52.9553 143.45 52.464 143.733Z" fill="#16110D"/>
<path d="M47.7966 141.06C47.3053 141.343 47.3053 141.806 47.7966 142.088C48.2879 142.371 49.0895 142.371 49.5808 142.088C50.0721 141.806 48.2879 140.778 47.7966 141.06Z" fill="#16110D"/>
<path d="M80.4162 154.424C79.9249 154.707 79.9249 155.169 80.4162 155.452C80.9075 155.735 81.7091 155.735 82.2004 155.452C82.6917 155.169 82.6917 154.707 82.2004 154.424C81.7091 154.141 80.9075 154.141 80.4162 154.424Z" fill="#16110D"/>
<path d="M75.7619 151.751C75.2706 152.034 75.2706 152.497 75.7619 152.779C76.2532 153.062 77.0548 153.062 77.5461 152.779C78.0374 152.497 78.0374 152.034 77.5461 151.751C77.0548 151.469 76.2532 151.469 75.7619 151.751Z" fill="#16110D"/>
<path d="M71.0944 149.079C70.6031 149.361 70.6031 149.824 71.0944 150.107C71.5857 150.389 72.3873 150.389 72.8786 150.107C73.3699 149.824 73.3699 149.361 72.8786 149.079C72.3873 148.796 71.5857 148.796 71.0944 149.079Z" fill="#16110D"/>
<path d="M66.4401 146.406C65.9488 146.689 65.9488 147.151 66.4401 147.434C66.9314 147.717 67.733 147.717 68.2243 147.434C68.7156 147.151 68.7156 146.689 68.2243 146.406C67.733 146.123 66.9314 146.123 66.4401 146.406Z" fill="#16110D"/>
<path d="M61.7858 143.733C61.2945 144.016 61.2945 144.478 61.7858 144.761C62.2771 145.044 63.0787 145.044 63.57 144.761C64.0613 144.478 62.2771 143.45 61.7858 143.733Z" fill="#16110D"/>
<path d="M85.1223 151.726C84.631 152.008 84.631 152.471 85.1223 152.754C85.6136 153.036 86.4152 153.036 86.9065 152.754C87.3978 152.471 85.6136 151.443 85.1223 151.726Z" fill="#16110D"/>
<path d="M80.4553 149.053C79.964 149.336 79.964 149.798 80.4553 150.081C80.9466 150.364 81.7482 150.364 82.2395 150.081C82.7308 149.798 80.9466 148.77 80.4553 149.053Z" fill="#16110D"/>
<path d="M42.9611 175.395C42.4698 175.678 42.4698 176.14 42.9611 176.423C43.4524 176.706 44.254 176.706 44.7453 176.423C45.2366 176.14 45.2366 175.678 44.7453 175.395C44.254 175.112 43.4524 175.112 42.9611 175.395Z" fill="#16110D"/>
<path d="M38.2936 172.709C37.8023 172.992 37.8023 173.455 38.2936 173.737C38.7849 174.02 39.5865 174.02 40.0778 173.737C40.5691 173.455 40.5691 172.992 40.0778 172.709C39.5865 172.427 38.7849 172.427 38.2936 172.709Z" fill="#16110D"/>
<path d="M33.6393 170.037C33.148 170.319 33.148 170.782 33.6393 171.065C34.1306 171.347 34.9322 171.347 35.4235 171.065C35.9148 170.782 35.9148 170.319 35.4235 170.037C34.9322 169.754 34.1306 169.754 33.6393 170.037Z" fill="#16110D"/>
<path d="M28.985 167.364C28.4937 167.647 28.4937 168.109 28.985 168.392C29.4763 168.675 30.2779 168.675 30.7692 168.392C31.2605 168.109 31.2605 167.647 30.7692 167.364C30.2779 167.081 29.4763 167.081 28.985 167.364Z" fill="#16110D"/>
<path d="M24.3175 164.691C23.8262 164.974 23.8262 165.436 24.3175 165.719C24.8088 166.002 25.6104 166.002 26.1017 165.719C26.593 165.436 26.593 164.974 26.1017 164.691C25.6104 164.408 24.8088 164.408 24.3175 164.691Z" fill="#16110D"/>
<path d="M19.6632 162.018C19.1719 162.301 19.1719 162.764 19.6632 163.046C20.1545 163.329 20.9561 163.329 21.4474 163.046C21.9387 162.764 21.9387 162.301 21.4474 162.018C20.9561 161.736 20.1545 161.736 19.6632 162.018Z" fill="#16110D"/>
<path d="M14.9958 159.346C14.5045 159.628 14.5045 160.091 14.9958 160.374C15.4871 160.656 16.2887 160.656 16.78 160.374C17.2713 160.091 17.2713 159.628 16.78 159.346C16.2887 159.063 15.4871 159.063 14.9958 159.346Z" fill="#16110D"/>
<path d="M10.3415 156.673C9.85018 156.956 9.85018 157.418 10.3415 157.701C10.8328 157.984 11.6344 157.984 12.1257 157.701C12.617 157.418 12.617 156.956 12.1257 156.673C11.6344 156.39 10.8328 156.39 10.3415 156.673Z" fill="#16110D"/>
<path d="M5.674 154C5.1827 154.283 5.1827 154.745 5.674 155.028C6.1653 155.311 6.96689 155.311 7.45819 155.028C7.94949 154.745 7.94949 154.283 7.45819 154C6.96689 153.717 6.1653 153.717 5.674 154Z" fill="#16110D"/>
<path d="M1.01969 151.327C0.528387 151.61 0.528387 152.073 1.01969 152.355C1.51099 152.638 2.31259 152.638 2.80389 152.355C3.29519 152.073 3.29519 151.61 2.80389 151.327C2.31259 151.045 1.51099 151.045 1.01969 151.327Z" fill="#16110D"/>
<path d="M47.6154 172.709C47.1241 172.992 47.1241 173.455 47.6154 173.737C48.1067 174.02 48.9083 174.02 49.3996 173.737C49.8909 173.455 49.8909 172.992 49.3996 172.709C48.9083 172.427 48.1067 172.427 47.6154 172.709Z" fill="#16110D"/>
<path d="M42.9611 170.037C42.4698 170.319 42.4698 170.782 42.9611 171.065C43.4524 171.347 44.254 171.347 44.7453 171.065C45.2366 170.782 45.2366 170.319 44.7453 170.037C44.254 169.754 43.4524 169.754 42.9611 170.037Z" fill="#16110D"/>
<path d="M38.2936 167.364C37.8023 167.647 37.8023 168.109 38.2936 168.392C38.7849 168.675 39.5865 168.675 40.0778 168.392C40.5691 168.109 40.5691 167.647 40.0778 167.364C39.5865 167.081 38.7849 167.081 38.2936 167.364Z" fill="#16110D"/>
<path d="M33.6393 164.691C33.148 164.974 33.148 165.436 33.6393 165.719C34.1306 166.002 34.9322 166.002 35.4235 165.719C35.9148 165.436 35.9148 164.974 35.4235 164.691C34.9322 164.408 34.1306 164.408 33.6393 164.691Z" fill="#16110D"/>
<path d="M28.985 162.018C28.4937 162.301 28.4937 162.764 28.985 163.046C29.4763 163.329 30.2779 163.329 30.7692 163.046C31.2605 162.764 31.2605 162.301 30.7692 162.018C30.2779 161.736 29.4763 161.736 28.985 162.018Z" fill="#16110D"/>
<path d="M24.3175 159.346C23.8262 159.628 23.8262 160.091 24.3175 160.374C24.8088 160.656 25.6104 160.656 26.1017 160.374C26.593 160.091 26.593 159.628 26.1017 159.346C25.6104 159.063 24.8088 159.063 24.3175 159.346Z" fill="#16110D"/>
<path d="M19.6632 156.673C19.1719 156.956 19.1719 157.418 19.6632 157.701C20.1545 157.984 20.9561 157.984 21.4474 157.701C21.9387 157.418 21.9387 156.956 21.4474 156.673C20.9561 156.39 20.1545 156.39 19.6632 156.673Z" fill="#16110D"/>
<path d="M14.9958 154C14.5045 154.283 14.5045 154.745 14.9958 155.028C15.4871 155.311 16.2887 155.311 16.78 155.028C17.2713 154.745 17.2713 154.283 16.78 154C16.2887 153.717 15.4871 153.717 14.9958 154Z" fill="#16110D"/>
<path d="M10.3415 151.327C9.85018 151.61 9.85018 152.073 10.3415 152.355C10.8328 152.638 11.6344 152.638 12.1257 152.355C12.617 152.073 12.617 151.61 12.1257 151.327C11.6344 151.045 10.8328 151.045 10.3415 151.327Z" fill="#16110D"/>
<path d="M5.674 148.655C5.1827 148.937 5.1827 149.4 5.674 149.683C6.1653 149.965 6.96689 149.965 7.45819 149.683C7.94949 149.4 7.94949 148.937 7.45819 148.655C6.96689 148.372 6.1653 148.372 5.674 148.655Z" fill="#16110D"/>
<path d="M1.01969 145.982C0.528387 146.265 0.528387 146.727 1.01969 147.01C1.51099 147.293 2.31259 147.293 2.80389 147.01C3.29519 146.727 3.29519 146.265 2.80389 145.982C2.31259 145.699 1.51099 145.699 1.01969 145.982Z" fill="#16110D"/>
<path d="M52.2829 170.037C51.7916 170.319 51.7916 170.782 52.2829 171.065C52.7742 171.347 53.5758 171.347 54.0671 171.065C54.5584 170.782 54.5584 170.319 54.0671 170.037C53.5758 169.754 52.7742 169.754 52.2829 170.037Z" fill="#16110D"/>
<path d="M47.6154 167.364C47.1241 167.647 47.1241 168.109 47.6154 168.392C48.1067 168.675 48.9083 168.675 49.3996 168.392C49.8909 168.109 49.8909 167.647 49.3996 167.364C48.9083 167.081 48.1067 167.081 47.6154 167.364Z" fill="#16110D"/>
<path d="M42.9611 164.691C42.4698 164.974 42.4698 165.436 42.9611 165.719C43.4524 166.002 44.254 166.002 44.7453 165.719C45.2366 165.436 45.2366 164.974 44.7453 164.691C44.254 164.408 43.4524 164.408 42.9611 164.691Z" fill="#16110D"/>
<path d="M38.2936 162.018C37.8023 162.301 37.8023 162.764 38.2936 163.046C38.7849 163.329 39.5865 163.329 40.0778 163.046C40.5691 162.764 40.5691 162.301 40.0778 162.018C39.5865 161.736 38.7849 161.736 38.2936 162.018Z" fill="#16110D"/>
<path d="M33.6393 159.346C33.148 159.628 33.148 160.091 33.6393 160.374C34.1306 160.656 34.9322 160.656 35.4235 160.374C35.9148 160.091 35.9148 159.628 35.4235 159.346C34.9322 159.063 34.1306 159.063 33.6393 159.346Z" fill="#16110D"/>
<path d="M28.985 156.673C28.4937 156.956 28.4937 157.418 28.985 157.701C29.4763 157.984 30.2779 157.984 30.7692 157.701C31.2605 157.418 31.2605 156.956 30.7692 156.673C30.2779 156.39 29.4763 156.39 28.985 156.673Z" fill="#16110D"/>
<path d="M24.3175 154C23.8262 154.283 23.8262 154.745 24.3175 155.028C24.8088 155.311 25.6104 155.311 26.1017 155.028C26.593 154.745 26.593 154.283 26.1017 154C25.6104 153.717 24.8088 153.717 24.3175 154Z" fill="#16110D"/>
<path d="M19.6632 151.327C19.1719 151.61 19.1719 152.073 19.6632 152.355C20.1545 152.638 20.9561 152.638 21.4474 152.355C21.9387 152.073 21.9387 151.61 21.4474 151.327C20.9561 151.045 20.1545 151.045 19.6632 151.327Z" fill="#16110D"/>
<path d="M14.9958 148.655C14.5045 148.937 14.5045 149.4 14.9958 149.683C15.4871 149.965 16.2887 149.965 16.78 149.683C17.2713 149.4 17.2713 148.937 16.78 148.655C16.2887 148.372 15.4871 148.372 14.9958 148.655Z" fill="#16110D"/>
<path d="M10.3415 145.982C9.85018 146.265 9.85018 146.727 10.3415 147.01C10.8328 147.293 11.6344 147.293 12.1257 147.01C12.617 146.727 12.617 146.265 12.1257 145.982C11.6344 145.699 10.8328 145.699 10.3415 145.982Z" fill="#16110D"/>
<path d="M5.674 143.296C5.1827 143.579 5.1827 144.042 5.674 144.324C6.1653 144.607 6.96689 144.607 7.45819 144.324C7.94949 144.042 7.94949 143.579 7.45819 143.296C6.96689 143.014 6.1653 143.014 5.674 143.296Z" fill="#16110D"/>
<path d="M56.9372 167.364C56.4459 167.647 56.4459 168.109 56.9372 168.392C57.4285 168.675 58.2301 168.675 58.7214 168.392C59.2127 168.109 59.2127 167.647 58.7214 167.364C58.2301 167.081 57.4285 167.081 56.9372 167.364Z" fill="#16110D"/>
<path d="M52.2829 164.691C51.7916 164.974 51.7916 165.436 52.2829 165.719C52.7742 166.002 53.5758 166.002 54.0671 165.719C54.5584 165.436 54.5584 164.974 54.0671 164.691C53.5758 164.408 52.7742 164.408 52.2829 164.691Z" fill="#16110D"/>
<path d="M47.6154 162.018C47.1241 162.301 47.1241 162.764 47.6154 163.046C48.1067 163.329 48.9083 163.329 49.3996 163.046C49.8909 162.764 49.8909 162.301 49.3996 162.018C48.9083 161.736 48.1067 161.736 47.6154 162.018Z" fill="#16110D"/>
<path d="M42.9611 159.346C42.4698 159.628 42.4698 160.091 42.9611 160.374C43.4524 160.656 44.254 160.656 44.7453 160.374C45.2366 160.091 45.2366 159.628 44.7453 159.346C44.254 159.063 43.4524 159.063 42.9611 159.346Z" fill="#16110D"/>
<path d="M38.2936 156.673C37.8023 156.956 37.8023 157.418 38.2936 157.701C38.7849 157.984 39.5865 157.984 40.0778 157.701C40.5691 157.418 40.5691 156.956 40.0778 156.673C39.5865 156.39 38.7849 156.39 38.2936 156.673Z" fill="#16110D"/>
<path d="M33.6393 154C33.148 154.283 33.148 154.745 33.6393 155.028C34.1306 155.311 34.9322 155.311 35.4235 155.028C35.9148 154.745 35.9148 154.283 35.4235 154C34.9322 153.717 34.1306 153.717 33.6393 154Z" fill="#16110D"/>
<path d="M28.985 151.327C28.4937 151.61 28.4937 152.073 28.985 152.355C29.4763 152.638 30.2779 152.638 30.7692 152.355C31.2605 152.073 31.2605 151.61 30.7692 151.327C30.2779 151.045 29.4763 151.045 28.985 151.327Z" fill="#16110D"/>
<path d="M24.3175 148.655C23.8262 148.937 23.8262 149.4 24.3175 149.683C24.8088 149.965 25.6104 149.965 26.1017 149.683C26.593 149.4 26.593 148.937 26.1017 148.655C25.6104 148.372 24.8088 148.372 24.3175 148.655Z" fill="#16110D"/>
<path d="M19.6632 145.982C19.1719 146.265 19.1719 146.727 19.6632 147.01C20.1545 147.293 20.9561 147.293 21.4474 147.01C21.9387 146.727 21.9387 146.265 21.4474 145.982C20.9561 145.699 20.1545 145.699 19.6632 145.982Z" fill="#16110D"/>
<path d="M14.9958 143.296C14.5045 143.579 14.5045 144.042 14.9958 144.324C15.4871 144.607 16.2887 144.607 16.78 144.324C17.2713 144.042 17.2713 143.579 16.78 143.296C16.2887 143.014 15.4871 143.014 14.9958 143.296Z" fill="#16110D"/>
<path d="M10.3415 140.624C9.85018 140.906 9.85018 141.369 10.3415 141.652C10.8328 141.934 11.6344 141.934 12.1257 141.652C12.617 141.369 12.617 140.906 12.1257 140.624C11.6344 140.341 10.8328 140.341 10.3415 140.624Z" fill="#16110D"/>
</g>
<path d="M219.325 171.595L97.8593 101.34L96.4019 102.149L217.93 172.994L219.325 171.595Z" fill="#FBE979"/>
<path d="M217.899 172.434L96.402 102.149L95.4097 103.92L216.875 175.853L217.899 172.434Z" fill="#FEBD33"/>
<path d="M216.906 174.206L95.4097 103.92V105.568L216.875 175.853L216.906 174.206Z" fill="black"/>
<path d="M217.899 176.444L216.875 175.854L216.907 174.206L217.899 172.434L219.325 171.595L220.349 172.185L220.318 173.833L219.325 175.605L217.899 176.444Z" fill="#CC934C"/>
<path d="M116.372 132.955L43.0029 162.891L37.5142 163.45V166.03L50.6003 173.615L116.372 135.566V132.955Z" fill="black"/>
<path d="M115.375 132.954L50.6005 170.457L38.5116 163.45L103.286 125.948L115.375 132.954Z" fill="#FEBD33" stroke="black"/>
<path d="M175.57 167.212L102.201 197.147L96.7119 197.707V200.318L109.798 207.872L175.57 169.823V167.212Z" fill="black"/>
<path d="M174.573 167.211L109.798 204.714L97.7094 197.707L162.484 160.204L174.573 167.211Z" fill="#FEBD33" stroke="black"/>
<path d="M14.1906 146.626L14.1903 146.647L14.1918 146.667L14.4611 150.568L12.8763 153.615L8.55435 151.101L8.52348 59.6945L25.8793 29.5866L76.0274 0.578028L80.7639 3.3331L94.781 15.0198L89.8994 13.6487L77.3329 6.37509L77.0801 6.22878L76.8285 6.3771L31.7402 32.9556L31.6268 33.0225L31.561 33.1365L15.3118 61.3004L15.2466 61.4135L15.2449 61.5441L14.1906 146.626Z" fill="#FEBD33" stroke="black"/>
<path d="M89.7036 14.113V104.107L94.7582 107.029L96.1537 105.444L97.8592 101.029L96.8979 16.1336L89.7036 14.113Z" fill="#E3BD5E"/>
<path d="M81.0515 2.92212L30.5364 32.143L13.0469 62.4829L13.0779 154.311L14.1632 154.933L15.7447 154.031L16.8301 152.135V62.1098L32.0869 35.6246L79.47 8.17565L94.7269 17.0352L94.7579 107.029L95.8433 107.682L97.4248 106.78L98.5101 104.853V13.0251L81.0515 2.92212Z" fill="black"/>
<path d="M147.94 96.5531L129.21 85.7041L113.643 94.6258L132.683 111.816L147.94 96.5531Z" fill="#574943"/>
<path d="M132.559 105.568L113.643 94.6257L102.573 113.837L121.427 142.654L132.559 105.568Z" fill="#362C29"/>
<path d="M121.489 124.779L102.573 113.837L102.666 131.805L121.427 142.654L121.489 124.779Z" fill="#211A1A"/>
<path d="M132.466 149.057L121.427 142.654L121.489 124.779L132.559 105.568L147.94 96.5531L159.011 102.957L158.949 120.831L147.878 140.042L132.466 149.057Z" fill="#0A0808"/>
<path d="M190.641 123.847L147.661 98.9778L133.396 107.122L176.655 137.835L190.641 123.847Z" fill="#574943"/>
<path d="M176.531 132.084L133.397 107.122L123.256 124.717L166.329 166.061L176.531 132.084Z" fill="#362C29"/>
<path d="M137.594 112.649L130.025 125.786L162.221 144.427L169.79 131.291L137.594 112.649Z" fill="#B5AFA7"/>
<path d="M166.391 149.71L123.256 124.717L123.349 141.193L166.329 166.061L166.391 149.71Z" fill="#211A1A"/>
<path d="M176.469 171.937L166.329 166.061L166.391 149.71L176.531 132.084L190.641 123.847L200.781 129.722L200.719 146.073L190.579 163.699L176.469 171.937Z" fill="#AB281F"/>
<path d="M200.75 129.691L190.641 123.847L176.376 132.022L186.764 143.68L200.75 129.691Z" fill="#FFEECC"/>
<path d="M186.64 137.929L176.376 132.022L166.236 149.617L176.438 171.906L186.64 137.929Z" fill="black"/>
<path d="M176.5 155.554L166.236 149.617L166.329 166.061L176.438 171.906L176.5 155.554Z" fill="black"/>
<path d="M186.577 177.202L176.939 171.618L177 155.689L187.007 138.293L200.751 130.269L210.388 135.853L210.298 151.814L200.321 169.178L186.577 177.202Z" fill="#FEBD33" stroke="black"/>
<path d="M204.936 141.845L202.238 140.291L202.176 150.985L195.54 162.518L186.299 167.927L188.997 169.481L198.238 164.072L204.874 152.57L204.936 141.845Z" fill="#FFEECC"/>
<path d="M202.238 140.291L198.3 137.991L189.059 143.4L182.423 154.933L182.392 165.626L186.299 167.927L195.54 162.518L202.176 150.985L202.238 140.291Z" fill="black"/>
<path d="M84.9589 123.567L53.2047 105.195L42.6924 111.226L74.6326 133.887L84.9589 123.567Z" fill="#E6E1DD"/>
<path d="M74.5398 129.66L42.6926 111.226L35.2192 124.22L67.0044 154.746L74.5398 129.66Z" fill="#D8D1C7"/>
<path d="M67.0664 142.654L35.2192 124.22L35.2813 136.374L67.0044 154.746L67.0664 142.654Z" fill="#B5AFA7"/>
<path d="M74.4778 159.067L67.0044 154.746L67.0664 142.654L74.5398 129.66L84.9591 123.567L92.4325 127.919L92.3705 139.98L84.8971 152.974L74.4778 159.067Z" fill="#A39C95"/>
<path d="M125.644 139.048L81.7651 113.65L67.1904 121.981L111.38 153.316L125.644 139.048Z" fill="#574943"/>
<path d="M111.224 147.472L67.1903 121.981L56.833 139.949L100.805 182.164L111.224 147.472Z" fill="#362C29"/>
<path d="M100.898 165.44L56.833 139.949L56.926 156.767L100.805 182.164L100.898 165.44Z" fill="black"/>
<path d="M111.162 188.163L100.805 182.164L100.898 165.44L111.224 147.472L125.644 139.048L136.001 145.047L135.939 161.771L125.582 179.739L111.162 188.163Z" fill="#0A0808"/>
<path d="M164.84 146.601L122.357 122.012L108.278 130.064L151.01 160.404L164.84 146.601Z" fill="#574943"/>
<path d="M150.886 154.746L108.278 130.064L98.2622 147.472L140.808 210.608L150.886 154.746Z" fill="#362C29"/>
<path d="M140.87 172.123L98.2622 147.472L98.3242 186.019L140.808 210.608L140.87 172.123Z" fill="black"/>
<path d="M125.644 197.116L103.968 184.558V170.724L125.644 183.252V197.116Z" fill="#B5AFA7"/>
<path d="M150.824 216.389L140.808 210.607L140.87 172.123L150.886 154.746L164.84 146.601L174.856 152.383L174.794 190.837L164.778 208.245L150.824 216.389Z" fill="#0A0808"/>
<path d="M160.654 179.988L157.522 178.185L151.754 181.48L154.979 185.645L160.654 179.988Z" fill="#E6E1DD"/>
<path d="M154.948 183.314L151.754 181.48L147.661 188.63L150.793 197.085L154.948 183.314Z" fill="#D8D1C7"/>
<path d="M150.824 190.464L147.661 188.63L147.692 195.313L150.793 197.085L150.824 190.464Z" fill="#B5AFA7"/>
<path d="M154.917 199.479L150.793 197.085L150.824 190.464L154.948 183.314L160.654 179.988L164.747 182.35V189.003L160.623 196.121L154.917 199.479Z" fill="#A39C95"/>
<path d="M164.965 183.438L160.53 180.889L155.259 183.905L159.786 188.63L164.965 183.438Z" fill="#E6E1DD"/>
<path d="M159.724 186.516L155.259 183.905L151.476 190.433L155.941 199.106L159.724 186.516Z" fill="#D8D1C7"/>
<path d="M155.972 193.044L151.476 190.433L151.507 196.557L155.941 199.106L155.972 193.044Z" fill="#B5AFA7"/>
<path d="M159.693 201.282L155.941 199.106L155.972 193.044L159.724 186.516L164.965 183.438L168.748 185.614L168.717 191.707L164.934 198.235L159.693 201.282Z" fill="#A39C95"/>
<path d="M137.242 219.156L15.7761 148.902L14.3496 149.71L135.846 220.555L137.242 219.156Z" fill="#FBE979"/>
<path d="M135.846 219.964L14.3495 149.71L13.3262 151.482L134.823 223.384L135.846 219.964Z" fill="#FEBD33"/>
<path d="M134.823 221.736L13.3262 151.482V153.129L134.823 223.384V221.736Z" fill="black"/>
<path d="M135.815 223.974L134.823 223.384V221.736L135.846 219.964L137.242 219.156L138.265 219.747V221.394L137.242 223.135L135.815 223.974Z" fill="#CC934C"/>
<path d="M90.4165 19.0247L17.2642 61.3638L16.8301 62.1098V76.5337L55.2823 48.7429L93.7656 20.952L90.4165 19.0247Z" fill="#FBE979"/>
<path d="M93.7657 36.495L15.8379 81.6008V66.0578L93.7657 20.952V36.495Z" fill="#CC934C"/>
<path d="M137.087 156.145L15.4351 85.7352V69.6327L137.087 140.042V156.145Z" fill="#362C29"/>
<path d="M137.087 140.042L15.4351 69.6327L97.4872 23.0969L218.302 93.0404L137.087 140.042Z" fill="black"/>
<path d="M149.088 142.933L218.302 102.895V93.0404L137.087 140.042V156.145L149.088 149.213V142.933Z" fill="#0A0808"/>
<path d="M137.335 131.836L29.7305 69.5704V48.1211L137.335 110.386V131.836Z" fill="#362C29"/>
<path d="M137.335 109.809L30.735 48.1247L97.2989 10.2442L203.318 71.622L137.335 109.809Z" fill="#FFEECC" stroke="black"/>
<path d="M188.811 69.3528L160.468 85.7351L149.863 79.6112L178.206 63.1978L188.811 69.3528Z" fill="black"/>
<path d="M137.835 130.969V110.675L203.816 72.4891V92.7831L137.835 130.969Z" fill="#FEBD33" stroke="black"/>
<path d="M24.7039 45.3232L145.924 115.481L135.929 132.82L124.679 135.1L25.1682 76.0282L14.7641 62.5666L24.7039 45.3232Z" fill="#FEBD33" stroke="black"/>
<path d="M48.3984 72.0264L49.3908 79.5803L50.5071 80.2331L57.8254 67.55L56.6781 66.8661L48.3984 72.0264Z" fill="black"/>
<path d="M29.4587 51.1067L22.1426 63.8148L49.3766 79.5707L56.6928 66.8625L29.4587 51.1067Z" fill="#211A1A"/>
<path d="M29.7768 52.7472L23.687 63.3293L49.0167 77.9775L55.1065 67.3953L29.7768 52.7472Z" fill="#FFEECC"/>
<path d="M135.628 170.916L14.6636 100.897V63.4743L135.749 133.553L135.628 170.916Z" fill="#FFEECC" stroke="black"/>
<path d="M18.2568 71.187V99.1333L130.947 164.352L131.071 136.499L18.2568 71.187Z" fill="#FEBD33"/>
<path d="M99.0065 122.697L78.8501 111.039V129.94L99.0065 141.597V122.697Z" fill="#FFEECC"/>
<path d="M94.9441 137.307L92.4943 138.706L89.1143 129.069L92.0292 123.287L94.9441 122.106V137.307Z" fill="#0A0808"/>
<path d="M92.4944 123.536L85.7653 123.94L80.8657 116.821L83.3155 115.391L94.9442 122.106L92.4944 123.536Z" fill="#574943"/>
<path d="M92.4944 138.706L80.8657 131.991V116.821L92.4944 123.536V138.706Z" fill="#362C29"/>
<path d="M91.4089 131.307V131.898L81.9199 126.427V119.215L82.4471 119.526L91.4089 131.307Z" fill="#0A0808"/>
<path d="M91.4091 130.686V131.307L82.4473 126.116V119.526L83.0054 119.836L91.4091 130.686Z" fill="#685750"/>
<path d="M91.4091 124.717V130.686L83.0054 125.805V119.837L91.4091 124.717Z" fill="#A39685"/>
<path d="M45.9487 95.4341L48.7706 93.8176L54.2594 96.9884L51.3444 100.812L45.9487 95.4341Z" fill="#574943"/>
<path d="M51.3755 98.6049L54.2594 96.9884L58.1667 103.765L55.3137 111.692L51.3755 98.6049Z" fill="#211A1A"/>
<path d="M55.2827 105.413L58.1666 103.765L58.1356 110.107L55.3137 111.692L55.2827 105.413Z" fill="#0A0808"/>
<path d="M51.4065 113.961L55.3137 111.692L55.2827 105.413L51.3755 98.6048L45.9487 95.4341L42.0415 97.7034L42.0725 104.014L45.9798 110.791L51.4065 113.961Z" fill="#362C29"/>
<path d="M63.252 105.444L66.0428 103.827L71.5316 106.967L68.6167 110.822L63.252 105.444Z" fill="#574943"/>
<path d="M68.6787 108.614L71.5316 106.967L75.4389 113.744L72.586 121.702L68.6787 108.614Z" fill="#211A1A"/>
<path d="M72.5859 115.391L75.4388 113.744L75.4078 120.085L72.5859 121.702V115.391Z" fill="#0A0808"/>
<path d="M68.7097 123.971L72.5859 121.702V115.391L68.6787 108.614L63.252 105.444L59.3447 107.713V114.023L63.252 120.8L68.7097 123.971Z" fill="#362C29"/>
<path d="M114.604 131.898L115.907 131.152L121.706 134.447L120.279 137.556L114.604 131.898Z" fill="#574943"/>
<path d="M120.311 135.255L121.706 134.447L125.799 141.597L124.466 149.026L120.311 135.255Z" fill="#211A1A"/>
<path d="M124.435 142.374L125.799 141.597L125.768 148.249L124.466 149.026L124.435 142.374Z" fill="#0A0808"/>
<path d="M120.341 151.389L124.466 149.026L124.435 142.374L120.31 135.255L114.605 131.898L110.511 134.292V140.913L114.636 148.063L120.341 151.389Z" fill="#362C29"/>
<path d="M112.775 133.919L114.698 132.799L120.001 135.815L117.954 139.11L112.775 133.919Z" fill="#574943"/>
<path d="M118.016 136.965L120 135.815L123.783 142.374L121.799 149.586L118.016 136.965Z" fill="#211A1A"/>
<path d="M121.768 143.524L123.784 142.374L123.753 148.467L121.799 149.586L121.768 143.524Z" fill="#0A0808"/>
<path d="M118.047 151.762L121.799 149.586L121.768 143.524L118.016 136.965L112.775 133.919L109.023 136.095L109.054 142.156L112.806 148.716L118.047 151.762Z" fill="#362C29"/>
<path d="M142.699 53.8099V57.9132L127.629 49.2713H106.108L91.0679 57.9132V53.8099L106.108 45.168H127.629L142.699 53.8099Z" fill="black"/>
<path d="M142.699 57.9133V66.2443L127.629 74.8862H106.108L91.0679 66.2443V57.9133L106.108 49.2714H127.629L142.699 57.9133Z" fill="#362C29"/>
<path d="M103.565 62.9802V65.0941L111.069 69.4772L113.674 65.7158L103.565 62.9802Z" fill="#D8D1C7"/>
<path d="M111.069 67.2701V69.4772H121.799L129.334 62.9802L111.069 67.2701Z" fill="#B5AFA7"/>
<path d="M121.799 67.2701V69.4772L129.334 65.0941V62.9802L121.799 67.2701Z" fill="#A39C95"/>
<path d="M129.334 56.763V62.9802L121.799 67.2701H111.069L103.565 62.9802V56.763L111.069 52.4731H121.799L129.334 56.763Z" fill="#E6E1DD"/>
<path d="M104.65 58.1309V62.514L111.535 66.5552L113.891 60.6177L104.65 58.1309Z" fill="#D8D1C7"/>
<path d="M111.535 62.0788V66.5552H121.365L128.249 58.1309L111.535 62.0788Z" fill="#B5AFA7"/>
<path d="M121.365 62.0788V66.5552L128.249 62.514V58.1309L121.365 62.0788Z" fill="#A39C95"/>
<path d="M128.249 52.4421V58.1308L121.365 62.0787H111.535L104.65 58.1308V52.4421L111.535 48.4941H121.365L128.249 52.4421Z" fill="#E6E1DD"/>
<path d="M154.514 101.403L33.0483 31.1482L31.5908 31.9564L153.119 102.801L154.514 101.403Z" fill="#FBE979"/>
<path d="M153.088 102.211L31.591 31.9564L30.5986 33.7283L152.064 105.63L153.088 102.211Z" fill="#E3BD5E"/>
<path d="M152.064 103.983L30.5986 33.7283V35.3758L152.064 105.63V103.983Z" fill="#D6A950"/>
<path d="M153.088 106.221L152.064 105.63V103.983L153.088 102.211L154.514 101.403L155.538 101.993L155.507 103.641L154.514 105.382L153.088 106.221Z" fill="#CC934C"/>
<path d="M201.556 74.1401L80.0905 3.88574L78.6641 4.72506L200.161 75.539L201.556 74.1401Z" fill="#FBE979"/>
<path d="M200.161 74.9794L78.664 4.7251L77.6406 6.46591L199.137 78.3989L200.161 74.9794Z" fill="#E3BD5E"/>
<path d="M199.137 76.7513L77.6406 6.46582L77.6716 8.14446L199.137 78.3988V76.7513Z" fill="#D6A950"/>
<path d="M200.13 78.9895L199.137 78.3989V76.7514L200.161 74.9795L201.556 74.1401L202.579 74.7308V76.3783L201.556 78.1502L200.13 78.9895Z" fill="#CC934C"/>
<path d="M223.325 89.31L207.479 76.0985L202.455 73.1764L151.94 102.397L134.451 132.768L134.482 224.565L139.505 227.487L141.428 223.85L141.118 219.809L142.203 134.727L158.421 106.563L203.51 79.9842L216.162 87.2894L223.325 89.31Z" fill="#FEBD33"/>
<path d="M216.162 87.2894V177.283L221.185 180.205L222.581 178.62L224.317 174.206L223.325 89.31L216.162 87.2894Z" fill="black"/>
<path d="M142.824 135.037L142.758 135.152V135.286V225.178L141.805 226.843L140.616 227.534L140.005 227.193V135.793L157.33 105.685L207.479 76.6762L224.438 86.4898V177.897L223.484 179.562L222.273 180.276L221.685 179.923V90.2116V89.9234L221.436 89.7789L206.148 80.9194L205.898 80.7742L205.647 80.9193L158.295 108.337L158.179 108.404L158.112 108.52L142.824 135.037Z" fill="#FEBD33" stroke="black"/>
<path d="M216.844 92.201L143.692 134.54L143.258 135.286V149.71L181.71 121.919L220.193 94.1284L216.844 92.201Z" fill="#FBE979"/>
<path d="M219.693 94.9957V109.383L142.796 153.91V139.522L219.693 94.9957Z" fill="#FEBD33" stroke="black"/>
<defs>
<clipPath id="clip0_73_7998">
<rect width="217.18" height="94.6" fill="white" transform="matrix(-1 0 0 1 217.825 135.496)"/>
</clipPath>
</defs>
</svg>
