<svg width="268" height="255" viewBox="0 0 268 255" fill="none" xmlns="http://www.w3.org/2000/svg">
<g clip-path="url(#clip0_70_6572)">
<path d="M102.191 150.165L182.354 103.343L182.307 107.913L102.144 154.735L102.191 150.165Z" fill="#FEBD33"/>
<path d="M98.1938 147.879L178.357 101.058L182.353 103.343L102.19 150.165L98.1938 147.879Z" fill="#FCEBCC"/>
<path d="M102.19 150.165L102.144 154.735L98.1938 152.45V147.88L102.19 150.165Z" fill="#FCEBCC"/>
<path d="M102.191 91.4511L182.354 44.6296L182.307 49.1999L102.144 96.0214L102.191 91.4511Z" fill="#FEBD33"/>
<path d="M98.1938 89.1661L178.357 42.3445L182.353 44.6297L102.19 91.4512L98.1938 89.1661Z" fill="#FCEBCC"/>
<path d="M102.19 91.4512L102.144 96.0214L98.1938 93.7363V89.1661L102.19 91.4512Z" fill="#FCEBCC"/>
<path d="M103.584 53.7235L103.445 155.807L99.1694 158.326L99.3089 56.2418L103.584 53.7235Z" fill="#484B64"/>
<path d="M99.3089 56.2418L99.1695 158.326L94.8477 155.807L94.9871 53.7235L99.3089 56.2418Z" fill="#FEBD33"/>
<path d="M103.584 53.7235L99.3091 56.2418L94.9873 53.7235L99.2627 51.2518L103.584 53.7235Z" fill="#FCEBCC"/>
<path d="M178.589 155.854L98.9839 109.452V114.023L178.589 160.424V155.854Z" fill="#FEBD33"/>
<path d="M182.539 153.569L102.934 107.167L98.9839 109.452L178.589 155.854L182.539 153.569Z" fill="#FCEBCC"/>
<path d="M178.589 155.854V160.424L182.539 158.139V153.569L178.589 155.854Z" fill="#FCEBCC"/>
<path d="M179.472 194.235L99.2627 147.413L99.3092 151.983L179.472 198.805V194.235Z" fill="#FEBD33"/>
<path d="M183.422 191.95L103.259 145.128L99.2627 147.413L179.472 194.235L183.422 191.95Z" fill="#FCEBCC"/>
<path d="M179.472 194.235V198.805L183.422 196.52V191.95L179.472 194.235Z" fill="#FCEBCC"/>
<path d="M94.4297 51.3451L182.493 0L268 148.672L179.983 200.017L94.4297 51.3451Z" fill="#FEBD33"/>
<path d="M100.099 52.884L180.959 5.73608L262.33 147.18L181.47 194.328L100.099 52.884Z" fill="black"/>
<path d="M106.838 54.7961L106.745 54.6562L179.193 12.4049L255.639 145.268L255.732 145.408L183.283 187.659L106.838 54.7961ZM179.1 12.8246L107.209 54.7495L183.422 187.193L255.313 145.268L179.1 12.8246Z" fill="#FEBD33"/>
<path d="M132.536 61.6514L132.443 61.5115L172.316 38.2407L229.94 138.366L230.033 138.506L190.161 161.777L132.536 61.6514ZM172.223 38.707L132.862 61.6514L190.207 161.357L229.568 138.413L172.223 38.707Z" fill="#FEBD33"/>
<path d="M94.4295 51.3451L179.983 200.017L176.312 202.116L90.7583 53.4437L94.4295 51.3451Z" fill="black"/>
<path d="M116.475 43.3631L115.952 43.6664L197.373 185.073L197.896 184.77L116.475 43.3631Z" fill="#FEBD33"/>
<path d="M132.606 33.9421L132.083 34.246L213.651 175.567L214.174 175.263L132.606 33.9421Z" fill="#FEBD33"/>
<path d="M140.768 29.1918L140.245 29.4951L221.666 170.902L222.189 170.599L140.768 29.1918Z" fill="#FEBD33"/>
<path d="M148.877 24.3945L148.313 24.7211L229.734 166.128L230.297 165.801L148.877 24.3945Z" fill="#FEBD33"/>
<path d="M165.147 14.9433L164.583 15.2695L245.906 156.734L246.469 156.407L165.147 14.9433Z" fill="#FEBD33"/>
<path d="M189.126 19.8916L108.152 66.8063L108.478 67.3718L189.451 20.457L189.126 19.8916Z" fill="#FEBD33"/>
<path d="M197.284 34.1046L116.311 81.0193L116.636 81.5848L197.609 34.67L197.284 34.1046Z" fill="#FEBD33"/>
<path d="M213.594 62.4607L132.621 109.375L132.946 109.941L213.919 63.0261L213.594 62.4607Z" fill="#FEBD33"/>
<path d="M221.747 76.6037L140.773 123.518L141.098 124.084L222.072 77.1691L221.747 76.6037Z" fill="#FEBD33"/>
<path d="M229.905 90.8168L148.931 137.732L149.256 138.297L230.23 91.3822L229.905 90.8168Z" fill="#FEBD33"/>
<path d="M205.436 48.2476L124.462 95.1624L124.788 95.7278L205.761 48.8131L205.436 48.2476Z" fill="#FEBD33"/>
<path d="M238.017 104.983L157.043 151.898L157.368 152.463L238.342 105.549L238.017 104.983Z" fill="#FEBD33"/>
<path d="M246.192 119.132L165.218 166.047L165.544 166.613L246.517 119.698L246.192 119.132Z" fill="#FEBD33"/>
<path d="M173.524 180.804H173.617L173.71 180.757L254.663 133.842L254.337 133.283L173.384 180.197L173.524 180.477V180.804Z" fill="#FEBD33"/>
<path d="M176.962 32.2714C175.568 34.37 172.919 35.0229 171.014 33.7637C169.109 32.5046 168.69 29.7531 170.085 27.6545C171.479 25.556 174.128 24.9031 176.033 26.1622C177.938 27.4214 178.356 30.1728 176.962 32.2714Z" fill="#FEBD33"/>
<path d="M241.651 145.175C240.257 147.273 237.608 147.926 235.702 146.667C233.797 145.408 233.379 142.656 234.773 140.558C236.167 138.459 238.816 137.806 240.721 139.065C242.627 140.325 243.045 143.076 241.651 145.175Z" fill="#FEBD33"/>
<path d="M128.028 60.1125C126.634 62.211 123.985 62.8639 122.08 61.6048C120.175 60.3456 119.756 57.5942 121.151 55.4956C122.545 53.397 125.194 52.7441 127.099 54.0033C129.004 55.2624 129.422 58.0139 128.028 60.1125Z" fill="#FEBD33"/>
<path d="M160.512 60.1125C159.118 62.211 156.469 62.8639 154.563 61.6048C152.658 60.3456 152.24 57.5942 153.634 55.4956C155.028 53.397 157.677 52.7441 159.582 54.0033C161.488 55.2624 161.906 58.0139 160.512 60.1125Z" fill="#FEBD33"/>
<path d="M176.962 87.6271C175.568 89.7257 172.919 90.3786 171.014 89.1194C169.109 87.8603 168.69 85.1088 170.085 83.0102C171.479 80.9117 174.128 80.2588 176.033 81.5179C177.938 82.7771 178.356 85.5285 176.962 87.6271Z" fill="#FEBD33"/>
<path d="M192.763 116.494C191.368 118.593 188.72 119.246 186.814 117.986C184.909 116.727 184.491 113.976 185.885 111.877C187.279 109.779 189.928 109.126 191.833 110.385C193.739 111.644 194.157 114.396 192.763 116.494Z" fill="#FEBD33"/>
<path d="M160.372 116.494C158.978 118.593 156.329 119.246 154.424 117.986C152.519 116.727 152.101 113.976 153.495 111.877C154.889 109.779 157.538 109.126 159.443 110.385C161.348 111.644 161.767 114.396 160.372 116.494Z" fill="#FEBD33"/>
<path d="M209.307 88.1401C207.912 90.2387 205.264 90.8916 203.358 89.6324C201.453 88.3733 201.035 85.6218 202.429 83.5232C203.823 81.4247 206.472 80.7718 208.377 82.0309C210.282 83.2901 210.701 86.0415 209.307 88.1401Z" fill="#FEBD33"/>
<path d="M208.981 145.175C207.587 147.273 204.938 147.926 203.033 146.667C201.128 145.408 200.71 142.656 202.104 140.558C203.498 138.459 206.147 137.806 208.052 139.065C209.957 140.325 210.376 143.076 208.981 145.175Z" fill="#FEBD33"/>
<path d="M192.763 173.062C191.368 175.161 188.72 175.814 186.814 174.555C184.909 173.296 184.491 170.544 185.885 168.446C187.279 166.347 189.928 165.694 191.833 166.953C193.739 168.212 194.157 170.964 192.763 173.062Z" fill="#FEBD33"/>
<path d="M11.3857 203.049L91.5952 156.227L91.5487 160.797L11.3857 207.619V203.049Z" fill="black"/>
<path d="M11.3845 202.47L8.43047 200.761L87.6012 154.52L90.5956 156.232L11.3845 202.47Z" fill="#FCEBCC" stroke="black"/>
<path d="M11.3856 203.049V207.619L7.43555 205.334V200.764L11.3856 203.049Z" fill="#FCEBCC"/>
<path d="M11.3857 144.335L91.5952 97.5137L91.5487 102.084L11.3857 148.905V144.335Z" fill="black"/>
<path d="M7.43555 142.05L87.5985 95.2286L91.5951 97.5137L11.3856 144.335L7.43555 142.05Z" fill="#FCEBCC"/>
<path d="M11.3856 144.335V148.905L7.43555 146.62V142.05L11.3856 144.335Z" fill="#FCEBCC"/>
<path d="M12.8259 106.654L12.6865 208.691L8.41113 211.21L8.55055 109.126L12.8259 106.654Z" fill="black"/>
<path d="M4.72759 107.515L8.0502 109.416L7.91237 210.34L4.58975 208.404L4.72759 107.515Z" fill="#FEBD33" stroke="black"/>
<path d="M12.8262 106.654L8.55083 109.126L4.229 106.654L8.50436 104.136L12.8262 106.654Z" fill="#FCEBCC"/>
<path d="M87.3309 212.438L8.72559 166.619V163.207L87.3309 209.072V212.438Z" fill="#FEBD33" stroke="black"/>
<path d="M9.22089 162.338L12.1747 160.629L90.7928 206.456L87.8295 208.205L9.22089 162.338Z" fill="#FCEBCC" stroke="black"/>
<path d="M87.8311 208.785V213.308L91.7811 211.023V206.453L87.8311 208.785Z" fill="#FCEBCC"/>
<path d="M88.2049 250.813L9.04796 204.579L9.01333 201.174L88.1703 247.407L88.2049 250.813Z" fill="#FEBD33" stroke="black"/>
<path d="M92.6639 244.834L12.5009 198.012L8.50439 200.297L88.6674 247.119L92.6639 244.834Z" fill="#FCEBCC"/>
<path d="M88.6675 247.119L88.714 251.689L92.664 249.404V244.834L88.6675 247.119Z" fill="#FCEBCC"/>
<path d="M3.67139 104.229L91.7345 52.884L177.242 201.556L89.2251 252.901L3.67139 104.229Z" fill="#FEBD33"/>
<path d="M9.34082 105.768L90.2009 58.6201L171.572 200.064L90.7121 247.212L9.34082 105.768Z" fill="black"/>
<path d="M16.0793 107.68L15.9863 107.54L88.4351 65.2889L164.88 198.152L164.973 198.292L92.5246 240.543L16.0793 107.68ZM88.3421 65.7087L16.4046 107.633L92.6175 240.077L164.509 198.152L88.2957 65.7087H88.3421Z" fill="#FEBD33"/>
<path d="M41.778 114.535L41.6851 114.396L81.5574 91.1247L139.182 191.25L139.275 191.39L99.4024 214.661L41.778 114.535ZM81.4645 91.591L42.1033 114.535L99.4489 214.241L138.81 191.297L81.4645 91.591Z" fill="#FEBD33"/>
<path d="M3.67123 104.229L89.2249 252.901L85.5537 255L0 106.328L3.67123 104.229Z" fill="black"/>
<path d="M25.7175 96.234L25.1943 96.5371L106.566 237.973L107.089 237.669L25.7175 96.234Z" fill="#FEBD33"/>
<path d="M41.8943 86.7695L41.3311 87.0964L122.801 228.475L123.364 228.148L41.8943 86.7695Z" fill="#FEBD33"/>
<path d="M50.0188 82.0676L49.4956 82.3707L130.867 223.806L131.39 223.503L50.0188 82.0676Z" fill="#FEBD33"/>
<path d="M58.0493 77.3519L57.5264 77.6554L138.996 219.034L139.519 218.73L58.0493 77.3519Z" fill="#FEBD33"/>
<path d="M74.317 67.9029L73.7939 68.2062L155.214 209.613L155.737 209.31L74.317 67.9029Z" fill="#FEBD33"/>
<path d="M98.351 72.8023L17.3774 119.717L17.7027 120.283L98.6763 73.3677L98.351 72.8023Z" fill="#FEBD33"/>
<path d="M106.509 86.9686L25.5356 133.883L25.8609 134.449L106.835 87.5341L106.509 86.9686Z" fill="#FEBD33"/>
<path d="M122.819 115.325L41.8457 162.24L42.171 162.805L123.145 115.89L122.819 115.325Z" fill="#FEBD33"/>
<path d="M130.972 129.515L49.998 176.429L50.3233 176.995L131.297 130.08L130.972 129.515Z" fill="#FEBD33"/>
<path d="M139.13 143.681L58.1562 190.596L58.4583 191.121L139.432 144.206L139.13 143.681Z" fill="#FEBD33"/>
<path d="M114.661 101.158L33.6875 148.073L34.0128 148.639L114.986 101.724L114.661 101.158Z" fill="#FEBD33"/>
<path d="M147.288 157.847L66.3145 204.762L66.6398 205.327L147.613 158.413L147.288 157.847Z" fill="#FEBD33"/>
<path d="M155.44 172.037L74.4663 218.952L74.7916 219.517L155.765 172.602L155.44 172.037Z" fill="#FEBD33"/>
<path d="M82.7654 233.688H82.8583L82.9048 233.641L163.904 186.726L163.579 186.167L82.626 233.082L82.7654 233.361V233.688Z" fill="#FEBD33"/>
<path d="M86.204 85.1554C84.8099 87.254 82.161 87.9069 80.2557 86.6477C78.3504 85.3886 77.9322 82.6371 79.3263 80.5386C80.7204 78.44 83.3693 77.7871 85.2746 79.0463C87.1799 80.3054 87.5982 83.0569 86.204 85.1554Z" fill="#FEBD33"/>
<path d="M150.893 198.059C149.498 200.157 146.85 200.81 144.944 199.551C143.039 198.292 142.621 195.54 144.015 193.442C145.409 191.343 148.058 190.69 149.963 191.949C151.868 193.209 152.287 195.96 150.893 198.059Z" fill="#FEBD33"/>
<path d="M37.27 112.996C35.8758 115.095 33.227 115.748 31.3216 114.489C29.4163 113.23 28.9981 110.478 30.3922 108.38C31.7863 106.281 34.4352 105.628 36.3405 106.887C38.2459 108.146 38.6641 110.898 37.27 112.996Z" fill="#FEBD33"/>
<path d="M69.7534 112.996C68.3592 115.095 65.7104 115.748 63.805 114.489C61.8997 113.23 61.4815 110.478 62.8756 108.38C64.2697 106.281 66.9186 105.628 68.8239 106.887C70.7293 108.146 71.1475 110.898 69.7534 112.996Z" fill="#FEBD33"/>
<path d="M86.204 140.511C84.8099 142.61 82.161 143.263 80.2557 142.003C78.3504 140.744 77.9322 137.993 79.3263 135.894C80.7204 133.796 83.3693 133.143 85.2746 134.402C87.1799 135.661 87.5982 138.413 86.204 140.511Z" fill="#FEBD33"/>
<path d="M102.004 169.378C100.61 171.477 97.9613 172.13 96.056 170.871C94.1507 169.611 93.7324 166.86 95.1266 164.761C96.5207 162.663 99.1696 162.01 101.075 163.269C102.98 164.528 103.398 167.28 102.004 169.378Z" fill="#FEBD33"/>
<path d="M69.6142 169.378C68.2201 171.477 65.5712 172.13 63.6659 170.871C61.7605 169.611 61.3423 166.86 62.7364 164.761C64.1306 162.663 66.7794 162.01 68.6848 163.269C70.5901 164.528 71.0083 167.28 69.6142 169.378Z" fill="#FEBD33"/>
<path d="M118.548 141.024C117.154 143.123 114.505 143.776 112.6 142.516C110.695 141.257 110.276 138.506 111.671 136.407C113.065 134.309 115.714 133.656 117.619 134.915C119.524 136.174 119.942 138.926 118.548 141.024Z" fill="#FEBD33"/>
<path d="M118.223 198.059C116.829 200.157 114.18 200.81 112.275 199.551C110.369 198.292 109.951 195.54 111.345 193.442C112.739 191.343 115.388 190.69 117.294 191.949C119.199 193.209 119.617 195.96 118.223 198.059Z" fill="#FEBD33"/>
<path d="M102.004 225.946C100.61 228.045 97.9613 228.698 96.056 227.439C94.1507 226.18 93.7324 223.428 95.1266 221.33C96.5207 219.231 99.1696 218.578 101.075 219.837C102.98 221.096 103.398 223.848 102.004 225.946Z" fill="#FEBD33"/>
</g>
<defs>
<clipPath id="clip0_70_6572">
<rect width="268" height="255" fill="white"/>
</clipPath>
</defs>
</svg>
