<svg width="500" height="480" viewBox="0 0 500 480" fill="none" xmlns="http://www.w3.org/2000/svg">
<path d="M209.585 99.3134C210.141 98.3827 210.697 97.408 211.323 96.4674C211.684 95.9437 212.079 95.3931 212.573 94.999C213.25 94.4527 214.109 94.3866 214.707 95.0006C215.1 95.4072 215.339 96.1322 215.331 96.6943C215.314 97.318 215.026 97.9636 214.692 98.522C212.717 101.907 210.777 105.31 208.678 108.635C207.522 110.498 205.55 110.792 204.034 109.279C202.669 107.904 201.494 106.316 200.397 104.7C198.788 102.337 197.318 99.8659 195.813 97.4221C195.687 97.2309 195.753 96.9137 195.722 96.6157C197.15 95.32 198.632 95.727 199.947 96.7513C200.846 97.466 201.572 98.4469 202.28 99.3753C202.971 100.295 203.549 101.314 204.134 102.226C205.106 102.062 204.886 101.433 204.843 100.977C204.311 95.6028 201.859 91.0049 198.841 86.6794C198.266 85.8367 197.395 85.1566 196.543 84.5729C186.94 78.0852 176.377 74.7737 164.748 75.1317C159.745 75.298 155.36 77.3074 151.285 80.032C150.555 80.5088 150.094 81.3766 149.472 82.0361C148.876 82.6865 148.114 82.7775 147.336 82.4472C146.426 82.0751 145.78 81.1984 145.942 80.3178C146.088 79.5603 146.321 78.7576 146.777 78.1709C147.388 77.3535 148.157 76.5687 149.017 76.002C153.987 72.6399 159.388 70.4215 165.5 70.4397C173.833 70.4582 181.908 71.877 189.456 75.5695C192.986 77.2878 196.516 78.9623 199.663 81.3891C201.565 82.8696 203.068 84.6374 204.172 86.7362C206.081 90.3328 207.816 93.976 208.599 98.0117C208.684 98.3792 208.856 98.7453 209.02 99.0852C209.065 99.1723 209.25 99.1957 209.585 99.3134Z" fill="black"/>
<path d="M211.05 324.563C211.51 325.545 211.966 326.57 212.495 327.568C212.802 328.126 213.14 328.713 213.593 329.154C214.211 329.765 215.06 329.917 215.716 329.365C216.147 329 216.458 328.302 216.505 327.742C216.551 327.12 216.328 326.449 216.052 325.86C214.424 322.295 212.833 318.716 211.076 315.197C210.111 313.229 208.179 312.74 206.52 314.094C205.024 315.326 203.697 316.789 202.444 318.288C200.608 320.479 198.899 322.791 197.158 325.072C197.013 325.25 197.047 325.572 196.986 325.865C198.278 327.297 199.793 327.04 201.204 326.152C202.169 325.53 202.99 324.627 203.787 323.773C204.566 322.927 205.243 321.971 205.916 321.121C206.867 321.382 206.585 321.986 206.497 322.435C205.432 327.73 202.534 332.06 199.099 336.063C198.443 336.844 197.508 337.434 196.602 337.93C186.4 343.428 175.56 345.67 164.025 344.154C159.064 343.49 154.901 341.053 151.117 337.936C150.438 337.389 150.066 336.479 149.513 335.761C148.986 335.054 148.236 334.888 147.429 335.139C146.486 335.418 145.756 336.226 145.829 337.119C145.899 337.887 146.051 338.709 146.446 339.338C146.973 340.212 147.66 341.07 148.459 341.72C153.069 345.56 158.222 348.306 164.305 348.898C172.599 349.71 180.774 349.103 188.653 346.182C192.337 344.824 196.016 343.51 199.389 341.409C201.43 340.126 203.101 338.516 204.409 336.538C206.668 333.15 208.757 329.698 209.938 325.76C210.059 325.403 210.268 325.056 210.464 324.734C210.518 324.652 210.704 324.647 211.05 324.563Z" fill="black"/>
<path d="M77.9383 0.821411L130.338 29.1965L136.303 85.9466L89.8676 114.322L37.4675 85.9466L31.5028 29.1965L77.9383 0.821411Z" fill="url(#paint0_linear_68_4885)"/>
<path d="M3.22816 29.903L14.3697 23.0948L26.9424 29.903L28.3736 43.5194L17.232 50.3276L4.65931 43.5194L3.22816 29.903Z" stroke="url(#paint1_linear_68_4885)" stroke-width="3"/>
<path d="M56.8908 137.759H53.1896L52.9864 135.827H56.6876C57.3321 135.827 57.8421 135.723 58.2175 135.516C58.5928 135.309 58.8526 135.024 58.9968 134.661C59.1468 134.292 59.1969 133.871 59.1473 133.399C59.1003 132.952 58.962 132.534 58.7324 132.146C58.5086 131.751 58.1855 131.433 57.7632 131.194C57.3409 130.954 56.8075 130.835 56.1629 130.835H53.2137L54.4958 143.033H52.0446L50.5584 128.892H55.9588C57.059 128.892 58.0137 129.086 58.8228 129.475C59.6376 129.857 60.2826 130.388 60.7577 131.068C61.2322 131.741 61.515 132.512 61.6062 133.379C61.7021 134.292 61.5826 135.076 61.2477 135.729C60.9128 136.383 60.3764 136.885 59.6384 137.235C58.9069 137.584 57.991 137.759 56.8908 137.759ZM69.4196 140.45L71.9451 128.892H74.6502L71.0388 143.033H69.2126L69.4196 140.45ZM64.7478 128.892L69.6735 140.45L70.4529 143.033H68.6169L62.0525 128.892H64.7478ZM87.5548 137.759H83.8536L83.6505 135.827H87.3517C87.9962 135.827 88.5062 135.723 88.8815 135.516C89.2569 135.309 89.5166 135.024 89.6608 134.661C89.8108 134.292 89.861 133.871 89.8113 133.399C89.7644 132.952 89.6261 132.534 89.3964 132.146C89.1726 131.751 88.8496 131.433 88.4273 131.194C88.0049 130.954 87.4715 130.835 86.827 130.835H83.8778L85.1599 143.033H82.7087L81.2224 128.892H86.6228C87.7231 128.892 88.6778 129.086 89.4868 129.475C90.3017 129.857 90.9467 130.388 91.4218 131.068C91.8962 131.741 92.179 132.512 92.2702 133.379C92.3662 134.292 92.2467 135.076 91.9118 135.729C91.5769 136.383 91.0404 136.885 90.3024 137.235C89.5709 137.584 88.6551 137.759 87.5548 137.759ZM100.866 140.925L100.339 135.914C100.3 135.538 100.198 135.215 100.032 134.943C99.8669 134.671 99.6365 134.46 99.3409 134.311C99.0518 134.163 98.6989 134.088 98.2822 134.088C97.8981 134.088 97.5729 134.153 97.3066 134.282C97.0402 134.412 96.8405 134.587 96.7074 134.807C96.5743 135.027 96.5223 135.276 96.5516 135.555H94.2079C94.1643 135.14 94.223 134.739 94.384 134.35C94.545 133.962 94.8016 133.615 95.1537 133.311C95.5058 133.007 95.9396 132.767 96.4551 132.592C96.9706 132.418 97.5604 132.33 98.2244 132.33C99.0187 132.33 99.7358 132.463 100.376 132.728C101.022 132.994 101.549 133.395 101.957 133.933C102.371 134.464 102.62 135.131 102.705 135.933L103.196 140.605C103.246 141.084 103.324 141.515 103.429 141.897C103.54 142.272 103.675 142.599 103.835 142.878L103.851 143.033H101.439C101.302 142.78 101.18 142.46 101.074 142.071C100.974 141.677 100.905 141.295 100.866 140.925ZM100.758 136.642L100.929 138.09H99.2399C98.8037 138.09 98.424 138.132 98.1008 138.216C97.777 138.293 97.5125 138.41 97.3075 138.565C97.1025 138.721 96.9562 138.909 96.8687 139.129C96.7811 139.349 96.752 139.598 96.7813 139.877C96.8105 140.155 96.9025 140.411 97.0572 140.644C97.2112 140.87 97.4187 141.048 97.6798 141.178C97.9473 141.307 98.2601 141.372 98.6181 141.372C99.0999 141.372 99.5096 141.275 99.8473 141.081C100.191 140.88 100.452 140.637 100.63 140.352C100.808 140.061 100.89 139.786 100.875 139.527L101.746 140.566C101.696 140.832 101.593 141.116 101.436 141.421C101.279 141.725 101.062 142.016 100.785 142.295C100.515 142.567 100.177 142.79 99.7719 142.965C99.3736 143.14 98.901 143.227 98.3541 143.227C97.664 143.227 97.0345 143.091 96.4655 142.819C95.8959 142.541 95.4336 142.169 95.0786 141.702C94.723 141.23 94.5138 140.696 94.4512 140.1C94.3927 139.543 94.4451 139.051 94.6086 138.624C94.7778 138.19 95.0522 137.827 95.4317 137.536C95.8178 137.245 96.3024 137.024 96.8858 136.875C97.4684 136.72 98.1438 136.642 98.912 136.642H100.758ZM107.377 134.768L108.246 143.033H105.892L104.788 132.524H107.005L107.377 134.768ZM107.233 137.39L106.47 137.381C106.398 136.636 106.431 135.953 106.567 135.331C106.71 134.71 106.941 134.176 107.258 133.729C107.582 133.282 107.989 132.939 108.478 132.699C108.967 132.453 109.527 132.33 110.158 132.33C110.666 132.33 111.132 132.401 111.557 132.544C111.988 132.68 112.367 132.903 112.692 133.214C113.024 133.525 113.295 133.929 113.504 134.428C113.711 134.92 113.853 135.526 113.929 136.244L114.642 143.033H112.279L111.564 136.234C111.511 135.729 111.395 135.331 111.214 135.04C111.04 134.742 110.806 134.532 110.513 134.409C110.226 134.279 109.878 134.214 109.467 134.214C109.064 134.214 108.711 134.299 108.41 134.467C108.109 134.635 107.863 134.865 107.672 135.156C107.488 135.448 107.357 135.785 107.28 136.167C107.203 136.549 107.187 136.956 107.233 137.39ZM121.723 143.227C120.942 143.227 120.222 143.101 119.564 142.848C118.912 142.589 118.34 142.23 117.849 141.77C117.365 141.311 116.973 140.77 116.673 140.148C116.373 139.527 116.186 138.857 116.11 138.138L116.069 137.75C115.983 136.927 116.025 136.183 116.196 135.516C116.367 134.849 116.642 134.279 117.022 133.806C117.401 133.327 117.871 132.962 118.43 132.709C118.99 132.456 119.611 132.33 120.295 132.33C121.05 132.33 121.724 132.456 122.317 132.709C122.91 132.962 123.416 133.318 123.836 133.777C124.261 134.231 124.598 134.771 124.846 135.399C125.101 136.027 125.268 136.72 125.347 137.478L125.453 138.478H117.289L117.112 136.798H122.952L122.932 136.613C122.875 136.192 122.749 135.797 122.554 135.428C122.365 135.059 122.103 134.761 121.767 134.535C121.43 134.308 121.002 134.195 120.481 134.195C120.09 134.195 119.751 134.279 119.463 134.447C119.18 134.609 118.954 134.846 118.785 135.156C118.616 135.467 118.499 135.843 118.435 136.283C118.376 136.717 118.376 137.206 118.433 137.75L118.474 138.138C118.522 138.598 118.629 139.025 118.794 139.42C118.965 139.809 119.189 140.148 119.467 140.44C119.745 140.731 120.069 140.961 120.438 141.129C120.807 141.291 121.216 141.372 121.665 141.372C122.231 141.372 122.724 141.259 123.143 141.032C123.562 140.806 123.912 140.485 124.194 140.071L125.56 141.265C125.367 141.596 125.104 141.913 124.771 142.217C124.438 142.515 124.018 142.758 123.51 142.946C123.009 143.133 122.413 143.227 121.723 143.227ZM128.719 128.115L130.287 143.033H127.924L126.356 128.115H128.719Z" fill="black"/>
<path d="M105.35 86.3255H120.651L114.846 68.4641L112.969 62.6855L110.066 53.7522L105.287 39.0456H89.5075L84.728 24.339H37.2852L43.09 42.2004L52.649 71.6189H68.4282L73.2078 86.3255H87.4832V96.1842H74.538V99.339H118.479V96.1842H105.35V86.3255ZM46.4078 42.2004H57.7966L59.6737 47.9789L61.5508 53.7575H50.162L46.4078 42.2056V42.2004ZM109.651 62.6855L111.528 68.4641H100.134L98.2568 62.6855L96.3797 56.907H107.769L109.646 62.6855H109.651ZM83.5502 62.6855L81.6731 56.907H91.9893L95.7435 68.4588H85.4273L83.5502 62.6803V62.6855ZM90.964 53.7522H80.6478L78.7707 47.9737L76.8936 42.1951H87.2098L90.964 53.7469V53.7522ZM74.3803 47.9737L76.2574 53.7522H65.9412L62.187 42.2004H72.5032L74.3803 47.9789V47.9737ZM68.8436 62.6803L66.9665 56.9017H77.2827L79.1598 62.6803L81.0369 68.4588H70.7207L68.8436 62.6803ZM88.3297 77.3869L86.4526 71.6083H97.8414L99.7186 77.3869L101.596 83.1654H90.2068L88.3297 77.3869ZM105.345 83.1654H104.913L103.036 77.3869L101.159 71.6083H112.548L116.302 83.1601H105.345V83.1654ZM102.994 42.1951L106.748 53.7469H95.3597L93.4826 47.9684L91.6055 42.1899H102.994V42.1951ZM82.4355 27.4938L86.1897 39.0456H74.8009L72.9238 33.2671L71.0467 27.4885H82.4355V27.4938ZM67.7289 27.4938L69.606 33.2723L71.4831 39.0509H60.0943L58.2172 33.2723L56.3401 27.4938H67.7289ZM53.0223 27.4938L54.8994 33.2723L56.7765 39.0509H45.3825L41.6283 27.4938H53.0171H53.0223ZM54.9415 68.4641L51.1873 56.9123H62.5761L64.4532 62.6908L66.3303 68.4693H54.9415V68.4641ZM71.746 71.6189H83.1348L85.0119 77.3974L86.8891 83.1759H75.5002L71.746 71.6241V71.6189ZM90.638 96.1842V86.3255H102.19V96.1842H90.638Z" fill="#150035"/>
<g clip-path="url(#clip0_68_4885)">
<path d="M291.545 179.352V255.628H226.71V244.356H232.742V226.718H226.71V208.257H232.742V190.619H226.71V179.352H291.545ZM281.742 224.793C282.637 223.248 282.637 221.403 281.742 219.858L263.398 188.086C262.508 186.542 260.912 185.619 259.128 185.619C257.343 185.619 255.747 186.542 254.852 188.086L236.509 219.858C235.619 221.403 235.619 223.248 236.509 224.793C237.403 226.337 238.999 227.26 240.784 227.26H277.472C279.256 227.26 280.852 226.337 281.742 224.793ZM267.429 250.656V247.831H249.847V250.656H267.429ZM267.429 244.271V241.446H249.847V244.271H267.429Z" fill="url(#paint2_linear_68_4885)"/>
<path d="M294.37 176.527V258.453H245.822V273.572H242.997V258.453H235.92V273.572H233.095V258.453H223.885V244.356H218.061V226.719H223.885V208.257H218.061V190.62H223.885V176.527H294.37ZM291.545 255.628V179.352H226.71V190.62H232.742V208.257H226.71V226.719H232.742V244.356H226.71V255.628H291.545ZM229.917 241.531V229.544H220.886V241.531H229.917ZM229.917 205.432V193.445H220.886V205.432H229.917Z" fill="#150035"/>
<path d="M281.742 219.858C282.637 221.403 282.637 223.248 281.742 224.793C280.852 226.337 279.256 227.26 277.472 227.26H240.784C238.999 227.26 237.403 226.337 236.509 224.793C235.619 223.248 235.619 221.403 236.509 219.858L254.853 188.086C255.747 186.542 257.343 185.619 259.128 185.619C260.912 185.619 262.508 186.542 263.398 188.086L281.742 219.858ZM279.298 223.38C279.68 222.716 279.68 221.93 279.298 221.271L260.955 189.499C260.573 188.835 259.891 188.444 259.128 188.444C258.365 188.444 257.682 188.835 257.301 189.499L238.957 221.271C238.576 221.93 238.576 222.716 238.957 223.38C239.338 224.039 240.021 224.435 240.784 224.435H277.472C278.234 224.435 278.917 224.039 279.298 223.38Z" fill="#150035"/>
<path d="M267.428 247.831H249.847V250.656H267.428V247.831Z" fill="#150035"/>
<path d="M267.428 241.446H249.847V244.271H267.428V241.446Z" fill="#150035"/>
<path d="M263.007 209.707C263.299 210.126 263.36 210.668 263.172 211.153L260.239 218.677H256.891L259.434 212.146H255.559C255.017 212.146 254.523 211.873 254.235 211.412C253.948 210.96 253.915 210.395 254.151 209.905L257.687 202.593H261.152L258.045 209.024H261.717C262.235 209.024 262.72 209.279 263.007 209.707Z" fill="#150035"/>
</g>
<path d="M430.912 0.821411L483.312 29.1965L489.277 85.9466L442.842 114.322L390.442 85.9466L384.477 29.1965L430.912 0.821411Z" fill="url(#paint3_linear_68_4885)"/>
<path d="M356.202 29.903L367.343 23.0948L379.916 29.903L381.347 43.5194L370.206 50.3276L357.633 43.5194L356.202 29.903Z" stroke="url(#paint4_linear_68_4885)" stroke-width="3"/>
<path d="M471.875 85.5148V35.7654H397.088V85.5148H425.346V89.5473L405.36 93.8745L406.016 96.904L427.063 92.3494H442.732L463.779 96.904L464.436 93.8745L443.611 89.3664V85.5148H471.875ZM468.773 38.8673V74.715H400.19V38.8673H468.773ZM400.19 77.8169H406.466V82.4129H400.19V77.8169ZM409.568 82.4129V77.8169H468.773V82.4129H409.568ZM440.515 89.2475H428.453V85.5148H440.515V89.2475Z" fill="#150035"/>
<path d="M435.67 66.1279C436.598 66.1279 437.351 65.3756 437.351 64.4477C437.351 63.5197 436.598 62.7675 435.67 62.7675C434.742 62.7675 433.99 63.5197 433.99 64.4477C433.99 65.3756 434.742 66.1279 435.67 66.1279Z" fill="#150035"/>
<path d="M435.671 56.9358C433.293 56.9358 431.106 58.0266 429.668 59.924L432.145 61.7954C432.987 60.6788 434.275 60.0377 435.676 60.0377C437.077 60.0377 438.359 60.6788 439.207 61.7954L441.683 59.924C440.246 58.0266 438.059 56.9358 435.681 56.9358H435.671Z" fill="#150035"/>
<path d="M435.67 53.8545C438.979 53.8545 442.035 55.3589 444.051 57.9749L446.506 56.0776C443.896 52.6913 439.941 50.7474 435.67 50.7474C431.4 50.7474 427.445 52.6913 424.834 56.0776L427.29 57.9749C429.312 55.3538 432.367 53.8545 435.67 53.8545Z" fill="#150035"/>
<path d="M77.9383 157.635L130.338 186.01L136.303 242.76L89.8676 271.135L37.4675 242.76L31.5028 186.01L77.9383 157.635Z" fill="url(#paint5_linear_68_4885)"/>
<path d="M3.22816 186.717L14.3697 179.909L26.9424 186.717L28.3736 200.333L17.232 207.141L4.65931 200.333L3.22816 186.717Z" stroke="url(#paint6_linear_68_4885)" stroke-width="3"/>
<path d="M55.8234 292.935L56.391 298.335C56.2171 298.601 55.9319 298.892 55.5356 299.209C55.1451 299.52 54.6102 299.789 53.9309 300.015C53.2516 300.242 52.3878 300.355 51.3396 300.355C50.4477 300.355 49.615 300.206 48.8415 299.909C48.0673 299.604 47.3794 299.161 46.7778 298.578C46.1827 297.995 45.6948 297.286 45.3141 296.451C44.9326 295.609 44.6854 294.651 44.5724 293.576L44.4693 292.595C44.3571 291.527 44.3905 290.575 44.5696 289.74C44.7546 288.898 45.0704 288.186 45.5169 287.603C45.9635 287.021 46.5292 286.58 47.214 286.283C47.9047 285.978 48.7058 285.826 49.6172 285.826C50.7826 285.826 51.7666 286.02 52.5691 286.409C53.3775 286.791 54.0257 287.322 54.5139 288.002C55.002 288.681 55.3473 289.458 55.5499 290.332H53.1475C53.0177 289.84 52.8184 289.4 52.5497 289.012C52.2875 288.623 51.9365 288.319 51.4967 288.099C51.0627 287.872 50.517 287.759 49.8594 287.759C49.293 287.759 48.8062 287.866 48.399 288.079C47.9917 288.293 47.6667 288.607 47.4238 289.021C47.1874 289.436 47.0289 289.941 46.9483 290.536C46.8676 291.132 46.8675 291.812 46.9478 292.576L47.0529 293.576C47.1346 294.353 47.2884 295.043 47.5145 295.645C47.747 296.247 48.0413 296.755 48.3974 297.17C48.76 297.584 49.1803 297.898 49.6585 298.112C50.136 298.319 50.6612 298.423 51.2342 298.423C51.7941 298.423 52.2483 298.377 52.5968 298.287C52.9447 298.19 53.216 298.076 53.4107 297.947C53.6113 297.811 53.7637 297.681 53.8679 297.558L53.5729 294.752H50.6139L50.423 292.935H55.8234ZM63.742 300.355C62.9607 300.355 62.2411 300.229 61.583 299.977C60.9308 299.718 60.3592 299.358 59.8682 298.899C59.3836 298.439 58.9915 297.898 58.6918 297.277C58.3921 296.655 58.2045 295.985 58.129 295.266L58.0881 294.878C58.0017 294.055 58.0439 293.311 58.2147 292.644C58.3855 291.977 58.6609 291.407 59.0409 290.935C59.4202 290.456 59.8896 290.09 60.449 289.837C61.0084 289.585 61.6299 289.458 62.3135 289.458C63.0687 289.458 63.7427 289.585 64.3357 289.837C64.9286 290.09 65.4348 290.446 65.8542 290.906C66.2795 291.359 66.6162 291.899 66.8645 292.527C67.1194 293.155 67.2866 293.848 67.3662 294.606L67.4713 295.606H59.3073L59.1307 293.926H64.9705L64.9511 293.741C64.8939 293.321 64.7677 292.926 64.5727 292.557C64.3842 292.188 64.1217 291.89 63.7854 291.663C63.4491 291.436 63.0205 291.323 62.4997 291.323C62.1091 291.323 61.7696 291.407 61.4813 291.576C61.1988 291.738 60.973 291.974 60.8039 292.285C60.6347 292.595 60.5179 292.971 60.4535 293.411C60.395 293.845 60.3943 294.334 60.4514 294.878L60.4922 295.266C60.5406 295.726 60.6473 296.153 60.8125 296.548C60.9836 296.937 61.2081 297.277 61.4861 297.568C61.7641 297.859 62.0878 298.089 62.457 298.258C62.8256 298.419 63.2345 298.5 63.6837 298.5C64.2501 298.5 64.7428 298.387 65.1617 298.16C65.5806 297.934 65.931 297.613 66.213 297.199L67.5788 298.394C67.3856 298.724 67.1227 299.041 66.7901 299.345C66.4568 299.643 66.0364 299.886 65.5288 300.074C65.0277 300.262 64.4321 300.355 63.742 300.355ZM71.2513 291.896L72.12 300.161H69.7665L68.662 289.653H70.8788L71.2513 291.896ZM71.107 294.518L70.3443 294.509C70.2725 293.764 70.3049 293.081 70.4414 292.459C70.5844 291.838 70.8147 291.304 71.1323 290.857C71.4565 290.41 71.8631 290.067 72.3523 289.827C72.8407 289.581 73.4007 289.458 74.0322 289.458C74.54 289.458 75.0065 289.53 75.4316 289.672C75.8626 289.808 76.2409 290.031 76.5665 290.342C76.8987 290.653 77.1691 291.058 77.3777 291.556C77.5857 292.048 77.7274 292.654 77.803 293.372L78.5165 300.161H76.1532L75.4387 293.363C75.3856 292.858 75.2689 292.459 75.0885 292.168C74.914 291.87 74.6803 291.66 74.3874 291.537C74.1003 291.407 73.7517 291.343 73.3416 291.343C72.9379 291.343 72.5854 291.427 72.2841 291.595C71.9828 291.763 71.7368 291.993 71.5461 292.285C71.3618 292.576 71.2312 292.913 71.1542 293.295C71.0771 293.677 71.0614 294.085 71.107 294.518ZM85.5975 300.355C84.8162 300.355 84.0966 300.229 83.4385 299.977C82.7863 299.718 82.2147 299.358 81.7236 298.899C81.2391 298.439 80.847 297.898 80.5473 297.277C80.2476 296.655 80.06 295.985 79.9844 295.266L79.9436 294.878C79.8572 294.055 79.8994 293.311 80.0702 292.644C80.2409 291.977 80.5163 291.407 80.8964 290.935C81.2757 290.456 81.745 290.09 82.3044 289.837C82.8638 289.585 83.4853 289.458 84.1689 289.458C84.9241 289.458 85.5982 289.585 86.1912 289.837C86.7841 290.09 87.2903 290.446 87.7097 290.906C88.1349 291.359 88.4717 291.899 88.72 292.527C88.9748 293.155 89.142 293.848 89.2217 294.606L89.3268 295.606H81.1627L80.9861 293.926H86.826L86.8066 293.741C86.7493 293.321 86.6232 292.926 86.4282 292.557C86.2396 292.188 85.9772 291.89 85.6409 291.663C85.3046 291.436 84.876 291.323 84.3552 291.323C83.9645 291.323 83.6251 291.407 83.3368 291.576C83.0543 291.738 82.8285 291.974 82.6593 292.285C82.4902 292.595 82.3734 292.971 82.309 293.411C82.2504 293.845 82.2497 294.334 82.3069 294.878L82.3477 295.266C82.396 295.726 82.5028 296.153 82.668 296.548C82.839 296.937 83.0636 297.277 83.3416 297.568C83.6196 297.859 83.9433 298.089 84.3125 298.258C84.6811 298.419 85.09 298.5 85.5392 298.5C86.1056 298.5 86.5983 298.387 87.0171 298.16C87.436 297.934 87.7865 297.613 88.0684 297.199L89.4342 298.394C89.2411 298.724 88.9782 299.041 88.6456 299.345C88.3123 299.643 87.8919 299.886 87.3843 300.074C86.8832 300.262 86.2876 300.355 85.5975 300.355ZM93.1106 291.653L94.0048 300.161H91.6513L90.5468 289.653H92.7929L93.1106 291.653ZM96.1256 289.585L96.3347 291.76C96.1887 291.734 96.0304 291.715 95.8598 291.702C95.6957 291.689 95.5322 291.682 95.3695 291.682C94.9658 291.682 94.6171 291.741 94.3234 291.857C94.029 291.967 93.7888 292.129 93.603 292.343C93.4229 292.55 93.2932 292.803 93.2138 293.1C93.1345 293.398 93.1044 293.732 93.1237 294.101L92.5906 294.14C92.5212 293.479 92.522 292.867 92.593 292.304C92.664 291.741 92.8073 291.245 93.0228 290.818C93.2448 290.391 93.5418 290.057 93.9137 289.818C94.2922 289.578 94.7451 289.458 95.2724 289.458C95.4157 289.458 95.57 289.471 95.7355 289.497C95.9075 289.523 96.0375 289.552 96.1256 289.585ZM104.096 298.054L103.569 293.042C103.53 292.667 103.427 292.343 103.262 292.071C103.097 291.799 102.866 291.589 102.571 291.44C102.281 291.291 101.929 291.216 101.512 291.216C101.128 291.216 100.803 291.281 100.536 291.411C100.27 291.54 100.07 291.715 99.937 291.935C99.8039 292.155 99.752 292.404 99.7813 292.683H97.4375C97.394 292.268 97.4527 291.867 97.6137 291.479C97.7747 291.09 98.0312 290.744 98.3834 290.439C98.7355 290.135 99.1693 289.895 99.6848 289.721C100.2 289.546 100.79 289.458 101.454 289.458C102.248 289.458 102.965 289.591 103.605 289.857C104.252 290.122 104.779 290.523 105.187 291.061C105.601 291.592 105.85 292.259 105.934 293.062L106.425 297.733C106.476 298.212 106.554 298.643 106.659 299.025C106.77 299.4 106.905 299.727 107.065 300.006L107.081 300.161H104.669C104.532 299.909 104.41 299.588 104.304 299.2C104.204 298.805 104.135 298.423 104.096 298.054ZM103.987 293.771L104.159 295.218H102.47C102.033 295.218 101.654 295.26 101.33 295.344C101.007 295.422 100.742 295.538 100.537 295.694C100.332 295.849 100.186 296.037 100.098 296.257C100.011 296.477 99.9816 296.726 100.011 297.005C100.04 297.283 100.132 297.539 100.287 297.772C100.441 297.999 100.648 298.177 100.909 298.306C101.177 298.436 101.49 298.5 101.848 298.5C102.33 298.5 102.739 298.403 103.077 298.209C103.42 298.008 103.681 297.766 103.86 297.481C104.037 297.189 104.119 296.914 104.105 296.655L104.976 297.694C104.926 297.96 104.822 298.245 104.665 298.549C104.509 298.853 104.292 299.145 104.015 299.423C103.744 299.695 103.406 299.918 103.002 300.093C102.603 300.268 102.131 300.355 101.584 300.355C100.894 300.355 100.264 300.219 99.6952 299.947C99.1256 299.669 98.6633 299.297 98.3083 298.831C97.9526 298.358 97.7435 297.824 97.6809 297.228C97.6223 296.671 97.6748 296.179 97.8382 295.752C98.0075 295.318 98.2819 294.955 98.6614 294.664C99.0474 294.373 99.5321 294.153 100.115 294.004C100.698 293.848 101.373 293.771 102.142 293.771H103.987ZM112.881 289.653L113.06 291.362H107.103L106.924 289.653H112.881ZM108.372 287.079H110.725L111.795 297.257C111.829 297.581 111.901 297.83 112.011 298.005C112.126 298.173 112.271 298.287 112.447 298.345C112.622 298.403 112.824 298.432 113.052 298.432C113.214 298.432 113.37 298.423 113.517 298.403C113.665 298.384 113.783 298.364 113.872 298.345L114.07 300.132C113.881 300.19 113.658 300.242 113.403 300.287C113.154 300.333 112.863 300.355 112.531 300.355C111.991 300.355 111.502 300.262 111.066 300.074C110.629 299.88 110.27 299.565 109.99 299.132C109.71 298.698 109.533 298.122 109.457 297.403L108.372 287.079ZM114.578 295.023L114.555 294.8C114.475 294.043 114.512 293.34 114.665 292.693C114.818 292.039 115.077 291.472 115.443 290.993C115.816 290.507 116.29 290.132 116.868 289.866C117.451 289.594 118.127 289.458 118.895 289.458C119.67 289.458 120.375 289.594 121.009 289.866C121.649 290.132 122.206 290.507 122.68 290.993C123.153 291.472 123.535 292.039 123.825 292.693C124.115 293.34 124.299 294.043 124.379 294.8L124.402 295.023C124.482 295.781 124.445 296.484 124.292 297.131C124.138 297.778 123.876 298.345 123.504 298.831C123.131 299.31 122.656 299.685 122.079 299.957C121.501 300.223 120.829 300.355 120.06 300.355C119.286 300.355 118.578 300.223 117.938 299.957C117.304 299.685 116.751 299.31 116.277 298.831C115.803 298.345 115.421 297.778 115.132 297.131C114.842 296.484 114.658 295.781 114.578 295.023ZM116.908 294.8L116.932 295.023C116.981 295.496 117.077 295.943 117.219 296.364C117.361 296.785 117.553 297.154 117.794 297.471C118.036 297.788 118.329 298.037 118.674 298.219C119.018 298.4 119.415 298.491 119.864 298.491C120.301 298.491 120.669 298.4 120.969 298.219C121.275 298.037 121.516 297.788 121.691 297.471C121.866 297.154 121.98 296.785 122.033 296.364C122.093 295.943 122.098 295.496 122.049 295.023L122.025 294.8C121.976 294.334 121.878 293.894 121.73 293.479C121.588 293.058 121.393 292.686 121.144 292.362C120.902 292.039 120.608 291.786 120.264 291.605C119.925 291.417 119.534 291.323 119.091 291.323C118.649 291.323 118.275 291.417 117.969 291.605C117.669 291.786 117.432 292.039 117.257 292.362C117.083 292.686 116.969 293.058 116.916 293.479C116.862 293.894 116.859 294.334 116.908 294.8ZM128.384 291.653L129.278 300.161H126.925L125.82 289.653H128.066L128.384 291.653ZM131.399 289.585L131.608 291.76C131.462 291.734 131.304 291.715 131.133 291.702C130.969 291.689 130.806 291.682 130.643 291.682C130.239 291.682 129.891 291.741 129.597 291.857C129.302 291.967 129.062 292.129 128.876 292.343C128.696 292.55 128.567 292.803 128.487 293.1C128.408 293.398 128.378 293.732 128.397 294.101L127.864 294.14C127.795 293.479 127.795 292.867 127.866 292.304C127.937 291.741 128.081 291.245 128.296 290.818C128.518 290.391 128.815 290.057 129.187 289.818C129.566 289.578 130.019 289.458 130.546 289.458C130.689 289.458 130.843 289.471 131.009 289.497C131.181 289.523 131.311 289.552 131.399 289.585Z" fill="black"/>
<path d="M118.191 194.35H79.0134V189.816H82.4206V186.612H63.601V189.816H67.0082V194.35H56.6959V203.493C50.0204 204.289 44.8242 209.982 44.8242 216.865V232.961H56.6959V240.08H58.8695C58.8107 240.454 58.7733 240.833 58.7733 241.212C58.7733 245.105 61.9402 248.272 65.8333 248.272C69.7265 248.272 72.888 245.105 72.888 241.212C72.888 240.833 72.856 240.454 72.7919 240.08H100.765C100.706 240.454 100.669 240.833 100.669 241.212C100.669 245.105 103.836 248.272 107.729 248.272C111.622 248.272 114.789 245.105 114.789 241.212C114.789 240.833 114.757 240.454 114.693 240.08H118.185V194.35H118.191ZM70.2125 189.816H75.8092V194.35H70.2125V189.816ZM59.9002 197.555H114.986V229.757H59.9002V197.555ZM48.0285 229.757V216.865C48.0285 211.749 51.7934 207.493 56.6959 206.724V229.757H48.0285ZM69.6891 241.212C69.6891 243.338 67.9588 245.068 65.8387 245.068C63.7185 245.068 61.9829 243.338 61.9829 241.212C61.9829 240.828 62.047 240.443 62.1591 240.08H69.5182C69.6304 240.443 69.6944 240.828 69.6944 241.212H69.6891ZM111.595 241.212C111.595 243.338 109.865 245.068 107.739 245.068C105.614 245.068 103.884 243.338 103.884 241.212C103.884 240.828 103.948 240.443 104.06 240.08H111.419C111.531 240.443 111.595 240.822 111.595 241.212ZM59.9002 236.876V232.961H114.986V236.876H59.9002Z" fill="#150035"/>
<path d="M109.326 220.502H87.5957V223.706H109.326V220.502Z" fill="#150035"/>
<path d="M109.326 211.247H87.5957V214.452H109.326V211.247Z" fill="#150035"/>
<path d="M109.326 201.992H87.5957V205.197H109.326V201.992Z" fill="#150035"/>
<path d="M68.4126 214.243H75.3284L71.5794 223.851H74.7249L78.837 213.309C79.0133 212.86 78.9545 212.347 78.6768 211.947C78.4045 211.546 77.9505 211.311 77.4646 211.311H70.7357L75.307 201.854H72.0494L67.0721 212.139C66.8532 212.593 66.8799 213.127 67.1523 213.554C67.4193 213.982 67.8892 214.243 68.3966 214.243H68.4126Z" fill="#150035"/>
<path d="M430.912 157.635L483.312 186.01L489.277 242.76L442.842 271.135L390.442 242.76L384.477 186.01L430.912 157.635Z" fill="url(#paint7_linear_68_4885)"/>
<path d="M356.202 186.717L367.343 179.909L379.916 186.717L381.347 200.333L370.206 207.141L357.633 200.333L356.202 186.717Z" stroke="url(#paint8_linear_68_4885)" stroke-width="3"/>
<path d="M396.61 196.073V224.941H472.353V196.073H396.61ZM460.96 222.151H407.999V217.928C407.999 217.129 408.65 216.482 409.445 216.482H459.509C460.309 216.482 460.955 217.133 460.955 217.928V222.151H460.96ZM469.563 222.151H463.75V217.928C463.75 215.594 461.848 213.692 459.513 213.692H409.45C407.115 213.692 405.213 215.594 405.213 217.928V222.151H399.4V198.863H469.563V222.151Z" fill="#150035"/>
<path d="M459.927 212.093C462.35 212.093 464.317 210.121 464.317 207.703C464.317 205.285 462.345 203.308 459.927 203.308C457.509 203.308 455.533 205.28 455.533 207.703C455.533 210.126 457.504 212.093 459.927 212.093ZM459.927 206.098C460.811 206.098 461.527 206.819 461.527 207.703C461.527 208.586 460.811 209.302 459.927 209.302C459.044 209.302 458.323 208.586 458.323 207.703C458.323 206.819 459.044 206.098 459.927 206.098Z" fill="#150035"/>
<path d="M443.354 226.917C442.81 227.461 442.81 228.345 443.354 228.889C445.224 230.758 445.079 233.59 444.833 235.069C444.661 235.92 444.103 236.664 443.456 237.529C442.712 238.519 441.871 239.64 441.578 241.114C441.029 243.848 441.615 247.001 443.145 249.545C443.405 249.982 443.87 250.224 444.345 250.224C444.591 250.224 444.838 250.159 445.061 250.024C445.721 249.629 445.935 248.768 445.54 248.108C444.359 246.141 443.903 243.732 444.317 241.658C444.489 240.807 445.047 240.063 445.693 239.198C446.437 238.208 447.279 237.087 447.581 235.566C448.172 232.023 447.372 228.949 445.33 226.912C444.786 226.368 443.903 226.368 443.359 226.912L443.354 226.917Z" fill="#150035"/>
<path d="M438.964 239.096C439.983 236.831 441.247 234.009 438.899 231.191C438.406 230.6 437.527 230.516 436.932 231.014C436.342 231.507 436.263 232.386 436.755 232.981C437.927 234.39 437.42 235.72 436.416 237.957C436.118 238.622 435.811 239.31 435.574 240.017C435.012 241.705 435.37 243.472 436.667 245.416C436.937 245.82 437.379 246.039 437.83 246.039C438.095 246.039 438.364 245.964 438.602 245.806C439.243 245.378 439.415 244.514 438.988 243.872C437.937 242.295 438.048 241.421 438.22 240.9C438.411 240.324 438.681 239.728 438.964 239.101V239.096Z" fill="#150035"/>
<path d="M452.45 239.096C453.468 236.831 454.733 234.009 452.385 231.191C451.892 230.6 451.013 230.516 450.417 231.014C449.827 231.507 449.748 232.386 450.241 232.981C451.413 234.39 450.906 235.72 449.901 237.957C449.604 238.622 449.297 239.31 449.06 240.017C448.497 241.705 448.855 243.472 450.152 245.416C450.422 245.82 450.864 246.039 451.315 246.039C451.58 246.039 451.85 245.964 452.087 245.806C452.729 245.378 452.901 244.514 452.473 243.872C451.422 242.295 451.534 241.421 451.706 240.9C451.896 240.324 452.166 239.728 452.45 239.101V239.096Z" fill="#150035"/>
<path d="M429.399 235.315C429.013 234.646 428.162 234.418 427.492 234.804L424.567 236.492V233.116C424.567 232.344 423.944 231.721 423.172 231.721C422.4 231.721 421.777 232.344 421.777 233.116V236.492L418.852 234.804C418.183 234.418 417.332 234.646 416.946 235.315C416.56 235.98 416.787 236.836 417.457 237.222L420.382 238.91L417.457 240.598C416.792 240.984 416.56 241.835 416.946 242.504C417.206 242.951 417.671 243.202 418.155 243.202C418.392 243.202 418.629 243.142 418.852 243.016L421.777 241.328V244.704C421.777 245.476 422.4 246.099 423.172 246.099C423.944 246.099 424.567 245.476 424.567 244.704V241.328L427.492 243.016C427.711 243.142 427.953 243.202 428.19 243.202C428.673 243.202 429.138 242.951 429.399 242.504C429.785 241.84 429.557 240.984 428.887 240.598L425.962 238.91L428.887 237.222C429.552 236.836 429.785 235.985 429.399 235.315Z" fill="#150035"/>
<path d="M77.9383 311.107L130.338 339.482L136.303 396.232L89.8676 424.607L37.4675 396.232L31.5028 339.482L77.9383 311.107Z" fill="url(#paint9_linear_68_4885)"/>
<path d="M3.22816 340.188L14.3697 333.38L26.9424 340.188L28.3736 353.804L17.232 360.613L4.65931 353.804L3.22816 340.188Z" stroke="url(#paint10_linear_68_4885)" stroke-width="3"/>
<path d="M59.2563 450.208L59.4594 452.141H51.9106L51.7074 450.208H59.2563ZM51.1177 438L52.6039 452.141H50.1528L48.6665 438H51.1177ZM57.6075 443.905L57.8075 445.809H51.245L51.045 443.905H57.6075ZM57.9243 438L58.1285 439.943H50.6285L50.4243 438H57.9243ZM61.9194 441.633L64.2975 445.119L65.9819 441.633H68.5698L65.9087 446.79L69.8012 452.141H67.2133L64.6831 448.509L62.9164 452.141H60.3188L63.0766 446.79L59.3412 441.633H61.9194ZM75.0248 441.633L75.2045 443.342H69.2475L69.0678 441.633H75.0248ZM70.516 439.059H72.8696L73.9393 449.237C73.9734 449.561 74.0451 449.81 74.1547 449.985C74.27 450.153 74.4154 450.267 74.5908 450.325C74.7662 450.383 74.9678 450.412 75.1957 450.412C75.3584 450.412 75.5137 450.403 75.6614 450.383C75.8091 450.364 75.9275 450.344 76.0166 450.325L76.2142 452.112C76.025 452.17 75.8025 452.222 75.5469 452.267C75.2978 452.313 75.0072 452.335 74.6751 452.335C74.1348 452.335 73.6464 452.241 73.21 452.054C72.7729 451.859 72.4144 451.545 72.1344 451.112C71.8544 450.678 71.6767 450.102 71.6011 449.383L70.516 439.059ZM82.6244 452.335C81.8431 452.335 81.1235 452.209 80.4654 451.957C79.8132 451.698 79.2416 451.338 78.7505 450.879C78.266 450.419 77.8739 449.878 77.5742 449.257C77.2745 448.635 77.0869 447.965 77.0113 447.246L76.9705 446.858C76.8841 446.035 76.9263 445.291 77.0971 444.624C77.2678 443.957 77.5432 443.387 77.9233 442.915C78.3026 442.435 78.7719 442.07 79.3313 441.817C79.8907 441.565 80.5122 441.438 81.1958 441.438C81.951 441.438 82.6251 441.565 83.2181 441.817C83.811 442.07 84.3172 442.426 84.7366 442.885C85.1618 443.339 85.4986 443.879 85.7469 444.507C86.0017 445.135 86.1689 445.828 86.2486 446.586L86.3537 447.586H78.1896L78.013 445.906H83.8529L83.8335 445.721C83.7762 445.301 83.6501 444.906 83.4551 444.537C83.2665 444.167 83.0041 443.87 82.6678 443.643C82.3315 443.416 81.9029 443.303 81.3821 443.303C80.9914 443.303 80.652 443.387 80.3637 443.556C80.0812 443.717 79.8554 443.954 79.6862 444.265C79.5171 444.575 79.4003 444.951 79.3359 445.391C79.2773 445.825 79.2766 446.314 79.3338 446.858L79.3746 447.246C79.4229 447.706 79.5297 448.133 79.6949 448.528C79.8659 448.917 80.0905 449.257 80.3685 449.548C80.6465 449.839 80.9702 450.069 81.3394 450.238C81.708 450.399 82.1169 450.48 82.5661 450.48C83.1325 450.48 83.6252 450.367 84.044 450.14C84.4629 449.914 84.8134 449.593 85.0953 449.179L86.4611 450.374C86.268 450.704 86.0051 451.021 85.6725 451.325C85.3392 451.623 84.9188 451.866 84.4112 452.054C83.9101 452.241 83.3145 452.335 82.6244 452.335ZM90.1375 443.633L91.0317 452.141H88.6782L87.5737 441.633H89.8198L90.1375 443.633ZM93.1525 441.565L93.3616 443.74C93.2156 443.714 93.0573 443.695 92.8867 443.682C92.7226 443.669 92.5591 443.662 92.3964 443.662C91.9927 443.662 91.644 443.721 91.3503 443.837C91.0559 443.947 90.8157 444.109 90.6299 444.323C90.4498 444.53 90.3201 444.783 90.2407 445.08C90.1614 445.378 90.1313 445.712 90.1506 446.081L89.6175 446.12C89.5481 445.459 89.5489 444.847 89.6199 444.284C89.6909 443.721 89.8342 443.225 90.0497 442.798C90.2717 442.371 90.5687 442.037 90.9406 441.798C91.3191 441.558 91.772 441.438 92.2993 441.438C92.4426 441.438 92.5969 441.451 92.7624 441.477C92.9344 441.503 93.0644 441.532 93.1525 441.565ZM97.204 443.876L98.0727 452.141H95.7192L94.6147 441.633H96.8315L97.204 443.876ZM97.0597 446.498L96.297 446.489C96.2252 445.744 96.2576 445.061 96.3941 444.439C96.5371 443.818 96.7674 443.284 97.085 442.837C97.4091 442.39 97.8158 442.047 98.3049 441.807C98.7934 441.561 99.3534 441.438 99.9849 441.438C100.493 441.438 100.959 441.51 101.384 441.652C101.815 441.788 102.194 442.011 102.519 442.322C102.851 442.633 103.122 443.038 103.33 443.536C103.538 444.028 103.68 444.634 103.756 445.352L104.469 452.141H102.106L101.391 445.343C101.338 444.838 101.222 444.439 101.041 444.148C100.867 443.85 100.633 443.64 100.34 443.517C100.053 443.387 99.7044 443.323 99.2943 443.323C98.8906 443.323 98.5381 443.407 98.2368 443.575C97.9355 443.743 97.6895 443.973 97.4987 444.265C97.3145 444.556 97.1839 444.893 97.1069 445.275C97.0298 445.657 97.0141 446.065 97.0597 446.498ZM112.607 450.034L112.08 445.022C112.041 444.647 111.938 444.323 111.773 444.051C111.608 443.779 111.377 443.569 111.082 443.42C110.793 443.271 110.44 443.196 110.023 443.196C109.639 443.196 109.314 443.261 109.047 443.391C108.781 443.52 108.581 443.695 108.448 443.915C108.315 444.135 108.263 444.384 108.293 444.663H105.949C105.905 444.248 105.964 443.847 106.125 443.458C106.286 443.07 106.543 442.724 106.895 442.419C107.247 442.115 107.681 441.875 108.196 441.701C108.712 441.526 109.301 441.438 109.965 441.438C110.76 441.438 111.477 441.571 112.117 441.837C112.763 442.102 113.29 442.503 113.698 443.041C114.112 443.572 114.361 444.239 114.446 445.042L114.937 449.713C114.987 450.192 115.065 450.623 115.17 451.005C115.281 451.38 115.416 451.707 115.576 451.986L115.592 452.141H113.18C113.043 451.889 112.921 451.568 112.815 451.18C112.715 450.785 112.646 450.403 112.607 450.034ZM112.499 445.751L112.67 447.198H110.981C110.545 447.198 110.165 447.24 109.842 447.324C109.518 447.402 109.253 447.518 109.048 447.674C108.843 447.829 108.697 448.017 108.61 448.237C108.522 448.457 108.493 448.706 108.522 448.985C108.551 449.263 108.643 449.519 108.798 449.752C108.952 449.979 109.16 450.157 109.421 450.286C109.688 450.416 110.001 450.48 110.359 450.48C110.841 450.48 111.251 450.383 111.588 450.189C111.932 449.988 112.193 449.745 112.371 449.461C112.549 449.169 112.63 448.894 112.616 448.635L113.487 449.674C113.437 449.94 113.333 450.225 113.177 450.529C113.02 450.833 112.803 451.125 112.526 451.403C112.255 451.675 111.918 451.898 111.513 452.073C111.115 452.248 110.642 452.335 110.095 452.335C109.405 452.335 108.775 452.199 108.206 451.927C107.637 451.649 107.175 451.277 106.82 450.811C106.464 450.338 106.255 449.804 106.192 449.208C106.134 448.651 106.186 448.159 106.349 447.732C106.519 447.298 106.793 446.935 107.173 446.644C107.559 446.353 108.043 446.133 108.627 445.984C109.209 445.828 109.885 445.751 110.653 445.751H112.499ZM118.604 437.223L120.172 452.141H117.809L116.241 437.223H118.604ZM37.4321 468.625H33.8091L33.6027 466.847H36.7668C37.3007 466.847 37.745 466.77 38.0997 466.614C38.4603 466.452 38.7226 466.222 38.8866 465.925C39.0499 465.62 39.1092 465.254 39.0642 464.827C39.0146 464.354 38.8829 463.969 38.6693 463.671C38.4557 463.374 38.153 463.157 37.7611 463.021C37.3757 462.885 36.8933 462.817 36.3139 462.817H33.9408L35.2229 475.015H32.7718L31.2855 460.874H36.1097C36.891 460.874 37.5954 460.949 38.223 461.098C38.8572 461.247 39.4058 461.48 39.8688 461.797C40.3377 462.108 40.708 462.503 40.9797 462.982C41.2579 463.461 41.4317 464.031 41.5011 464.691C41.5624 465.274 41.4785 465.808 41.2496 466.294C41.02 466.773 40.6478 467.165 40.1329 467.469C39.618 467.773 38.9567 467.954 38.1491 468.013L37.4321 468.625ZM37.9964 475.015H33.7093L34.6096 473.082H37.7932C38.3466 473.082 38.7993 472.992 39.1514 472.81C39.5027 472.623 39.7525 472.367 39.9008 472.043C40.0549 471.713 40.1088 471.328 40.0625 470.887C40.0142 470.428 39.891 470.03 39.6928 469.693C39.494 469.35 39.2093 469.088 38.8387 468.906C38.4674 468.718 37.9985 468.625 37.4321 468.625H34.6782L34.5109 466.847H38.0949L38.722 467.517C39.506 467.543 40.1653 467.715 40.6999 468.032C41.2411 468.349 41.6619 468.761 41.9624 469.266C42.2629 469.771 42.4437 470.314 42.505 470.897C42.5996 471.797 42.4803 472.551 42.1471 473.16C41.8204 473.769 41.306 474.232 40.6036 474.549C39.9006 474.86 39.0315 475.015 37.9964 475.015ZM50.9096 472.908L50.3829 467.896C50.3434 467.521 50.241 467.197 50.0757 466.925C49.9104 466.653 49.68 466.443 49.3844 466.294C49.0953 466.145 48.7424 466.07 48.3258 466.07C47.9416 466.07 47.6164 466.135 47.3501 466.265C47.0837 466.394 46.884 466.569 46.7509 466.789C46.6178 467.009 46.5659 467.258 46.5951 467.537H44.2514C44.2078 467.122 44.2665 466.721 44.4275 466.333C44.5885 465.944 44.8451 465.598 45.1972 465.293C45.5494 464.989 45.9832 464.749 46.4986 464.575C47.0141 464.4 47.6039 464.312 48.268 464.312C49.0622 464.312 49.7793 464.445 50.4192 464.711C51.0656 464.976 51.5928 465.377 52.0008 465.915C52.4147 466.446 52.6638 467.113 52.7482 467.916L53.2392 472.587C53.2896 473.066 53.3674 473.497 53.4726 473.879C53.5837 474.254 53.719 474.581 53.8785 474.86L53.8948 475.015H51.4827C51.3455 474.763 51.2239 474.442 51.118 474.054C51.0179 473.659 50.9484 473.277 50.9096 472.908ZM50.8013 468.625L50.9729 470.072H49.2834C48.8472 470.072 48.4675 470.114 48.1444 470.198C47.8205 470.276 47.5561 470.392 47.351 470.548C47.146 470.703 46.9997 470.891 46.9122 471.111C46.8246 471.331 46.7955 471.58 46.8248 471.859C46.854 472.137 46.946 472.393 47.1007 472.626C47.2548 472.853 47.4623 473.031 47.7233 473.16C47.9908 473.29 48.3036 473.354 48.6617 473.354C49.1434 473.354 49.5531 473.257 49.8908 473.063C50.2343 472.862 50.4952 472.619 50.6736 472.335C50.8513 472.043 50.9331 471.768 50.9189 471.509L51.7898 472.548C51.7396 472.814 51.6361 473.099 51.4793 473.403C51.3224 473.707 51.1057 473.999 50.8289 474.277C50.5581 474.549 50.2202 474.772 49.8154 474.947C49.4171 475.122 48.9445 475.209 48.3976 475.209C47.7075 475.209 47.078 475.073 46.5091 474.801C45.9394 474.523 45.4771 474.151 45.1221 473.685C44.7665 473.212 44.5573 472.678 44.4947 472.082C44.4362 471.525 44.4887 471.033 44.6521 470.606C44.8213 470.172 45.0957 469.809 45.4752 469.518C45.8613 469.227 46.346 469.007 46.9293 468.858C47.5119 468.702 48.1873 468.625 48.9556 468.625H50.8013ZM59.6946 464.507L59.8743 466.216H53.9172L53.7376 464.507H59.6946ZM55.1858 461.933H57.5393L58.6091 472.111C58.6432 472.435 58.7149 472.684 58.8244 472.859C58.9398 473.027 59.0852 473.141 59.2606 473.199C59.436 473.257 59.6376 473.286 59.8655 473.286C60.0282 473.286 60.1834 473.277 60.3311 473.257C60.4788 473.238 60.5972 473.218 60.6863 473.199L60.8839 474.986C60.6947 475.044 60.4723 475.096 60.2167 475.141C59.9675 475.187 59.6769 475.209 59.3449 475.209C58.8045 475.209 58.3162 475.116 57.8798 474.928C57.4427 474.733 57.0842 474.419 56.8042 473.986C56.5242 473.552 56.3465 472.976 56.2709 472.257L55.1858 461.933ZM66.3548 464.507L66.5344 466.216H60.5774L60.3977 464.507H66.3548ZM61.846 461.933H64.1995L65.2693 472.111C65.3033 472.435 65.3751 472.684 65.4846 472.859C65.6 473.027 65.7453 473.141 65.9207 473.199C66.0961 473.257 66.2977 473.286 66.5256 473.286C66.6884 473.286 66.8436 473.277 66.9913 473.257C67.139 473.238 67.2574 473.218 67.3465 473.199L67.5441 474.986C67.3549 475.044 67.1325 475.096 66.8768 475.141C66.6277 475.187 66.3371 475.209 66.0051 475.209C65.4647 475.209 64.9763 475.116 64.5399 474.928C64.1028 474.733 63.7443 474.419 63.4643 473.986C63.1844 473.552 63.0066 472.976 62.9311 472.257L61.846 461.933ZM73.9543 475.209C73.173 475.209 72.4534 475.083 71.7953 474.831C71.1431 474.572 70.5715 474.212 70.0805 473.753C69.596 473.293 69.2038 472.752 68.9041 472.131C68.6044 471.509 68.4168 470.839 68.3413 470.12L68.3004 469.732C68.214 468.909 68.2562 468.165 68.427 467.498C68.5978 466.831 68.8732 466.261 69.2532 465.789C69.6325 465.309 70.1019 464.944 70.6613 464.691C71.2207 464.439 71.8422 464.312 72.5258 464.312C73.281 464.312 73.955 464.439 74.548 464.691C75.1409 464.944 75.6471 465.3 76.0665 465.759C76.4918 466.213 76.8285 466.753 77.0768 467.381C77.3317 468.009 77.4989 468.702 77.5785 469.46L77.6836 470.46H69.5196L69.343 468.78H75.1828L75.1634 468.595C75.1062 468.175 74.98 467.78 74.785 467.411C74.5965 467.041 74.334 466.744 73.9977 466.517C73.6614 466.29 73.2328 466.177 72.712 466.177C72.3214 466.177 71.9819 466.261 71.6936 466.43C71.4111 466.591 71.1853 466.828 71.0162 467.139C70.847 467.449 70.7302 467.825 70.6658 468.265C70.6073 468.699 70.6066 469.188 70.6637 469.732L70.7046 470.12C70.7529 470.58 70.8596 471.007 71.0248 471.402C71.1959 471.791 71.4204 472.131 71.6984 472.422C71.9765 472.713 72.3001 472.943 72.6693 473.112C73.0379 473.273 73.4468 473.354 73.896 473.354C74.4624 473.354 74.9551 473.241 75.374 473.014C75.7929 472.788 76.1433 472.467 76.4253 472.053L77.7911 473.248C77.5979 473.578 77.335 473.895 77.0024 474.199C76.6691 474.497 76.2487 474.74 75.7411 474.928C75.24 475.116 74.6444 475.209 73.9543 475.209ZM81.4674 466.507L82.3616 475.015H80.0081L78.9036 464.507H81.1497L81.4674 466.507ZM84.4824 464.439L84.6915 466.614C84.5456 466.588 84.3873 466.569 84.2166 466.556C84.0525 466.543 83.8891 466.536 83.7263 466.536C83.3227 466.536 82.974 466.595 82.6802 466.711C82.3858 466.821 82.1457 466.983 81.9598 467.197C81.7797 467.404 81.65 467.657 81.5707 467.954C81.4913 468.252 81.4612 468.586 81.4805 468.955L80.9475 468.994C80.8781 468.333 80.8789 467.721 80.9499 467.158C81.0209 466.595 81.1641 466.099 81.3796 465.672C81.6016 465.245 81.8986 464.911 82.2706 464.672C82.649 464.432 83.1019 464.312 83.6293 464.312C83.7725 464.312 83.9269 464.325 84.0923 464.351C84.2643 464.377 84.3944 464.406 84.4824 464.439ZM90.1904 473.869L92.0774 464.507H94.597L91.6316 476.618C91.5612 476.877 91.4638 477.158 91.3395 477.463C91.2153 477.767 91.0405 478.055 90.8152 478.327C90.597 478.605 90.3113 478.829 89.9579 478.997C89.6051 479.172 89.1651 479.259 88.6378 479.259C88.4294 479.259 88.2256 479.24 88.0262 479.201C87.834 479.169 87.6512 479.133 87.4778 479.094L87.2802 477.307C87.346 477.314 87.4248 477.32 87.5167 477.327C87.615 477.333 87.6935 477.336 87.7521 477.336C88.1427 477.336 88.4631 477.288 88.7133 477.191C88.9642 477.1 89.1601 476.951 89.3011 476.744C89.4486 476.537 89.5626 476.258 89.643 475.909L90.1904 473.869ZM87.5852 464.507L90.9218 472.373L91.601 474.84L90.0141 475.258L85.0462 464.507H87.5852ZM103.501 466.527L104.818 479.055H102.464L100.935 464.507H103.103L103.501 466.527ZM110.715 469.664L110.737 469.868C110.817 470.632 110.8 471.341 110.687 471.995C110.579 472.642 110.375 473.209 110.074 473.694C109.78 474.173 109.392 474.546 108.912 474.811C108.433 475.077 107.861 475.209 107.196 475.209C106.539 475.209 105.95 475.09 105.43 474.85C104.916 474.604 104.466 474.258 104.081 473.811C103.695 473.364 103.367 472.84 103.095 472.237C102.829 471.629 102.616 470.962 102.455 470.237L102.372 469.45C102.376 468.68 102.446 467.98 102.582 467.352C102.724 466.724 102.941 466.184 103.231 465.73C103.522 465.277 103.899 464.927 104.361 464.681C104.824 464.435 105.381 464.312 106.032 464.312C106.696 464.312 107.298 464.442 107.84 464.701C108.381 464.953 108.852 465.316 109.253 465.789C109.654 466.255 109.977 466.818 110.222 467.479C110.466 468.132 110.631 468.861 110.715 469.664ZM108.383 469.868L108.362 469.664C108.311 469.178 108.218 468.728 108.083 468.314C107.948 467.893 107.766 467.524 107.537 467.207C107.308 466.889 107.032 466.643 106.707 466.468C106.389 466.287 106.018 466.197 105.595 466.197C105.178 466.197 104.828 466.268 104.543 466.41C104.258 466.546 104.027 466.737 103.851 466.983C103.675 467.229 103.549 467.517 103.474 467.848C103.397 468.171 103.356 468.524 103.35 468.906L103.548 470.79C103.676 471.257 103.854 471.684 104.084 472.072C104.313 472.461 104.613 472.772 104.982 473.005C105.358 473.231 105.819 473.345 106.366 473.345C106.789 473.345 107.141 473.254 107.421 473.073C107.702 472.891 107.919 472.642 108.075 472.325C108.236 472.001 108.34 471.629 108.387 471.208C108.434 470.787 108.433 470.34 108.383 469.868ZM119.015 472.908L118.488 467.896C118.449 467.521 118.347 467.197 118.181 466.925C118.016 466.653 117.785 466.443 117.49 466.294C117.201 466.145 116.848 466.07 116.431 466.07C116.047 466.07 115.722 466.135 115.456 466.265C115.189 466.394 114.989 466.569 114.856 466.789C114.723 467.009 114.671 467.258 114.701 467.537H112.357C112.313 467.122 112.372 466.721 112.533 466.333C112.694 465.944 112.951 465.598 113.303 465.293C113.655 464.989 114.089 464.749 114.604 464.575C115.12 464.4 115.709 464.312 116.373 464.312C117.168 464.312 117.885 464.445 118.525 464.711C119.171 464.976 119.698 465.377 120.106 465.915C120.52 466.446 120.769 467.113 120.854 467.916L121.345 472.587C121.395 473.066 121.473 473.497 121.578 473.879C121.689 474.254 121.824 474.581 121.984 474.86L122 475.015H119.588C119.451 474.763 119.329 474.442 119.223 474.054C119.123 473.659 119.054 473.277 119.015 472.908ZM118.907 468.625L119.078 470.072H117.389C116.953 470.072 116.573 470.114 116.25 470.198C115.926 470.276 115.662 470.392 115.457 470.548C115.251 470.703 115.105 470.891 115.018 471.111C114.93 471.331 114.901 471.58 114.93 471.859C114.96 472.137 115.051 472.393 115.206 472.626C115.36 472.853 115.568 473.031 115.829 473.16C116.096 473.29 116.409 473.354 116.767 473.354C117.249 473.354 117.659 473.257 117.996 473.063C118.34 472.862 118.601 472.619 118.779 472.335C118.957 472.043 119.039 471.768 119.024 471.509L119.895 472.548C119.845 472.814 119.742 473.099 119.585 473.403C119.428 473.707 119.211 473.999 118.934 474.277C118.664 474.549 118.326 474.772 117.921 474.947C117.523 475.122 117.05 475.209 116.503 475.209C115.813 475.209 115.183 475.073 114.615 474.801C114.045 474.523 113.583 474.151 113.228 473.685C112.872 473.212 112.663 472.678 112.6 472.082C112.542 471.525 112.594 471.033 112.758 470.606C112.927 470.172 113.201 469.809 113.581 469.518C113.967 469.227 114.451 469.007 115.035 468.858C115.617 468.702 116.293 468.625 117.061 468.625H118.907ZM128.202 473.345C128.586 473.345 128.923 473.27 129.213 473.121C129.51 472.966 129.738 472.752 129.898 472.48C130.065 472.208 130.139 471.894 130.121 471.538H132.338C132.396 472.218 132.26 472.836 131.927 473.393C131.595 473.95 131.124 474.394 130.515 474.724C129.904 475.048 129.208 475.209 128.427 475.209C127.62 475.209 126.902 475.073 126.275 474.801C125.646 474.523 125.108 474.141 124.66 473.655C124.212 473.17 123.854 472.61 123.585 471.975C123.323 471.341 123.154 470.661 123.078 469.936L123.042 469.596C122.966 468.871 122.992 468.191 123.121 467.556C123.255 466.915 123.495 466.352 123.841 465.866C124.188 465.381 124.646 465.002 125.216 464.73C125.786 464.452 126.471 464.312 127.272 464.312C128.118 464.312 128.878 464.481 129.552 464.817C130.224 465.148 130.774 465.611 131.201 466.206C131.634 466.795 131.899 467.482 131.994 468.265H129.777C129.717 467.877 129.582 467.527 129.374 467.216C129.171 466.899 128.904 466.647 128.572 466.459C128.246 466.271 127.868 466.177 127.439 466.177C126.963 466.177 126.58 466.274 126.288 466.468C125.995 466.656 125.778 466.915 125.637 467.245C125.495 467.569 125.407 467.935 125.371 468.343C125.342 468.744 125.35 469.162 125.396 469.596L125.431 469.936C125.477 470.37 125.557 470.79 125.671 471.198C125.786 471.606 125.948 471.972 126.158 472.296C126.373 472.613 126.648 472.869 126.981 473.063C127.313 473.251 127.72 473.345 128.202 473.345ZM135.315 460.097L136.883 475.015H134.52L132.952 460.097H135.315ZM142.341 464.507L138.274 469.576L136.024 472.14L135.201 470.159L136.859 467.818L139.499 464.507H142.341ZM141.112 475.015L137.165 470.081L138.477 468.44L143.836 475.015H141.112Z" fill="black"/>
<path d="M111.256 397.84V360.371H115.905V349.072H107.519V340.878H94.6491V349.072H68.3865V340.878H55.5169V349.072H47.11V360.371H51.7592V397.84H44.8242V400.949H118.191V397.84H111.256ZM97.7589 343.988H104.409V349.072H97.7589V343.988ZM58.6267 343.988H65.2766V349.072H58.6267V343.988ZM50.2146 357.261V352.182H112.795V357.261H50.2198H50.2146ZM54.8638 397.84V360.371H108.146V397.84H54.869H54.8638Z" fill="#150035"/>
<path d="M87.2531 376.511H78.727L84.5217 364.523H80.3959L74.0881 377.563C73.8082 378.139 73.8445 378.818 74.1918 379.357C74.5287 379.901 75.1247 380.233 75.7674 380.233H84.5372L79.7895 392.408H83.7753L88.9895 379.046C89.2123 378.476 89.1398 377.828 88.7873 377.32C88.4452 376.812 87.8647 376.511 87.2531 376.511Z" fill="#150035"/>
<path d="M430.912 311.107L483.312 339.482L489.277 396.232L442.842 424.607L390.442 396.232L384.477 339.482L430.912 311.107Z" fill="url(#paint11_linear_68_4885)"/>
<path d="M356.202 340.188L367.343 333.38L379.916 340.188L381.347 353.804L370.206 360.613L357.633 353.804L356.202 340.188Z" stroke="url(#paint12_linear_68_4885)" stroke-width="3"/>
<path d="M425.534 443.273L425.737 445.206H418.188L417.985 443.273H425.534ZM417.97 437.368L419.456 451.509H417.005L415.519 437.368H417.97ZM426.798 437.368L428.284 451.509H425.843L424.357 437.368H426.798ZM429.981 446.371L429.957 446.148C429.877 445.39 429.914 444.688 430.068 444.04C430.22 443.386 430.48 442.82 430.846 442.341C431.218 441.855 431.693 441.48 432.271 441.214C432.854 440.942 433.53 440.806 434.298 440.806C435.073 440.806 435.777 440.942 436.411 441.214C437.051 441.48 437.608 441.855 438.082 442.341C438.556 442.82 438.938 443.386 439.228 444.04C439.517 444.688 439.702 445.39 439.781 446.148L439.805 446.371C439.884 447.129 439.848 447.831 439.694 448.479C439.541 449.126 439.278 449.693 438.906 450.178C438.533 450.658 438.058 451.033 437.482 451.305C436.904 451.571 436.231 451.703 435.463 451.703C434.688 451.703 433.981 451.571 433.341 451.305C432.707 451.033 432.153 450.658 431.68 450.178C431.205 449.693 430.823 449.126 430.534 448.479C430.245 447.831 430.06 447.129 429.981 446.371ZM432.311 446.148L432.334 446.371C432.384 446.844 432.48 447.291 432.621 447.712C432.763 448.132 432.955 448.502 433.197 448.819C433.438 449.136 433.732 449.385 434.076 449.567C434.421 449.748 434.818 449.839 435.267 449.839C435.703 449.839 436.071 449.748 436.371 449.567C436.678 449.385 436.918 449.136 437.093 448.819C437.268 448.502 437.382 448.132 437.436 447.712C437.496 447.291 437.501 446.844 437.451 446.371L437.428 446.148C437.379 445.682 437.28 445.241 437.133 444.827C436.991 444.406 436.795 444.034 436.547 443.71C436.304 443.386 436.011 443.134 435.666 442.953C435.327 442.765 434.937 442.671 434.494 442.671C434.051 442.671 433.677 442.765 433.371 442.953C433.071 443.134 432.834 443.386 432.66 443.71C432.486 444.034 432.372 444.406 432.318 444.827C432.264 445.241 432.262 445.682 432.311 446.148ZM443.791 443.137L444.671 451.509H442.317L441.213 441.001H443.43L443.791 443.137ZM443.697 445.866L442.895 445.857C442.819 445.131 442.84 444.461 442.957 443.846C443.075 443.231 443.286 442.697 443.59 442.244C443.893 441.784 444.292 441.431 444.787 441.185C445.288 440.933 445.883 440.806 446.573 440.806C447.055 440.806 447.502 440.878 447.914 441.02C448.332 441.156 448.703 441.373 449.027 441.671C449.358 441.969 449.626 442.351 449.832 442.817C450.043 443.283 450.184 443.846 450.253 444.507L450.989 451.509H448.636L447.921 444.711C447.867 444.199 447.747 443.798 447.56 443.506C447.38 443.215 447.14 443.008 446.841 442.885C446.547 442.755 446.205 442.69 445.814 442.69C445.372 442.69 445.003 442.775 444.708 442.943C444.42 443.111 444.193 443.341 444.029 443.633C443.864 443.924 443.756 444.261 443.705 444.643C443.654 445.025 443.651 445.433 443.697 445.866ZM450.184 445.245L449.106 445.488C449.04 444.853 449.065 444.254 449.181 443.691C449.304 443.121 449.515 442.622 449.815 442.195C450.121 441.761 450.518 441.421 451.007 441.175C451.495 440.929 452.071 440.806 452.735 440.806C453.276 440.806 453.765 440.881 454.204 441.03C454.649 441.172 455.037 441.399 455.369 441.71C455.702 442.02 455.972 442.425 456.181 442.924C456.389 443.416 456.529 444.011 456.603 444.711L457.317 451.509H454.954L454.239 444.701C454.183 444.17 454.061 443.759 453.875 443.467C453.694 443.176 453.458 442.975 453.167 442.865C452.875 442.749 452.533 442.69 452.142 442.69C451.778 442.69 451.463 442.758 451.197 442.894C450.937 443.024 450.726 443.208 450.562 443.448C450.398 443.681 450.283 443.95 450.217 444.254C450.158 444.558 450.147 444.889 450.184 445.245ZM464.418 451.703C463.637 451.703 462.917 451.577 462.259 451.325C461.607 451.066 461.035 450.706 460.544 450.246C460.06 449.787 459.667 449.246 459.368 448.625C459.068 448.003 458.88 447.333 458.805 446.614L458.764 446.226C458.678 445.403 458.72 444.659 458.891 443.992C459.061 443.325 459.337 442.755 459.717 442.283C460.096 441.803 460.565 441.438 461.125 441.185C461.684 440.933 462.306 440.806 462.989 440.806C463.745 440.806 464.419 440.933 465.012 441.185C465.605 441.438 466.111 441.794 466.53 442.253C466.955 442.707 467.292 443.247 467.54 443.875C467.795 444.503 467.962 445.196 468.042 445.954L468.147 446.954H459.983L459.807 445.274H465.646L465.627 445.089C465.57 444.668 465.444 444.274 465.249 443.904C465.06 443.535 464.798 443.238 464.461 443.011C464.125 442.784 463.696 442.671 463.176 442.671C462.785 442.671 462.446 442.755 462.157 442.924C461.875 443.085 461.649 443.322 461.48 443.633C461.311 443.943 461.194 444.319 461.129 444.759C461.071 445.193 461.07 445.682 461.127 446.226L461.168 446.614C461.216 447.074 461.323 447.501 461.488 447.896C461.659 448.285 461.884 448.625 462.162 448.916C462.44 449.207 462.764 449.437 463.133 449.605C463.502 449.767 463.91 449.848 464.36 449.848C464.926 449.848 465.419 449.735 465.838 449.508C466.256 449.282 466.607 448.961 466.889 448.547L468.255 449.741C468.062 450.072 467.799 450.389 467.466 450.693C467.133 450.991 466.712 451.234 466.205 451.422C465.704 451.609 465.108 451.703 464.418 451.703ZM400.924 462.126L397.964 474.383H395.395L399.261 460.242H400.901L400.924 462.126ZM405.766 474.383L400.22 462.126L399.837 460.242H401.487L408.345 474.383H405.766ZM405.01 469.139L405.213 471.071H397.479L397.276 469.139H405.01ZM410.997 465.895L412.314 478.423H409.961L408.432 463.875H410.599L410.997 465.895ZM418.212 469.032L418.233 469.236C418.314 470 418.297 470.709 418.183 471.363C418.076 472.01 417.872 472.577 417.571 473.062C417.276 473.541 416.889 473.914 416.409 474.179C415.929 474.445 415.357 474.577 414.693 474.577C414.036 474.577 413.447 474.458 412.927 474.218C412.413 473.972 411.963 473.626 411.577 473.179C411.192 472.732 410.863 472.208 410.592 471.605C410.326 470.997 410.113 470.33 409.952 469.605L409.869 468.818C409.873 468.048 409.942 467.348 410.078 466.72C410.221 466.092 410.437 465.552 410.728 465.098C411.019 464.645 411.396 464.295 411.858 464.049C412.321 463.803 412.877 463.68 413.528 463.68C414.192 463.68 414.795 463.81 415.337 464.069C415.878 464.321 416.349 464.684 416.75 465.157C417.15 465.623 417.473 466.186 417.718 466.846C417.963 467.5 418.127 468.229 418.212 469.032ZM415.88 469.236L415.858 469.032C415.807 468.546 415.714 468.096 415.58 467.682C415.444 467.261 415.262 466.892 415.034 466.575C414.805 466.257 414.528 466.011 414.204 465.836C413.886 465.655 413.515 465.564 413.092 465.564C412.675 465.564 412.324 465.636 412.04 465.778C411.755 465.914 411.524 466.105 411.348 466.351C411.172 466.597 411.046 466.885 410.97 467.216C410.894 467.539 410.852 467.892 410.847 468.274L411.045 470.158C411.172 470.624 411.351 471.052 411.58 471.44C411.81 471.829 412.109 472.14 412.479 472.373C412.854 472.599 413.316 472.713 413.862 472.713C414.286 472.713 414.637 472.622 414.918 472.441C415.198 472.259 415.416 472.01 415.572 471.693C415.733 471.369 415.837 470.997 415.884 470.576C415.931 470.155 415.929 469.708 415.88 469.236ZM422.247 465.895L423.564 478.423H421.211L419.682 463.875H421.849L422.247 465.895ZM429.462 469.032L429.483 469.236C429.564 470 429.547 470.709 429.433 471.363C429.326 472.01 429.122 472.577 428.821 473.062C428.526 473.541 428.139 473.914 427.659 474.179C427.179 474.445 426.607 474.577 425.943 474.577C425.286 474.577 424.697 474.458 424.177 474.218C423.663 473.972 423.213 473.626 422.827 473.179C422.442 472.732 422.113 472.208 421.842 471.605C421.576 470.997 421.363 470.33 421.202 469.605L421.119 468.818C421.123 468.048 421.192 467.348 421.328 466.72C421.471 466.092 421.687 465.552 421.978 465.098C422.269 464.645 422.646 464.295 423.108 464.049C423.571 463.803 424.127 463.68 424.778 463.68C425.442 463.68 426.045 463.81 426.587 464.069C427.128 464.321 427.599 464.684 428 465.157C428.4 465.623 428.723 466.186 428.968 466.846C429.213 467.5 429.377 468.229 429.462 469.032ZM427.13 469.236L427.108 469.032C427.057 468.546 426.964 468.096 426.83 467.682C426.694 467.261 426.512 466.892 426.284 466.575C426.055 466.257 425.778 466.011 425.454 465.836C425.136 465.655 424.765 465.564 424.342 465.564C423.925 465.564 423.574 465.636 423.29 465.778C423.005 465.914 422.774 466.105 422.598 466.351C422.422 466.597 422.296 466.885 422.22 467.216C422.144 467.539 422.102 467.892 422.097 468.274L422.295 470.158C422.422 470.624 422.601 471.052 422.83 471.44C423.06 471.829 423.359 472.14 423.729 472.373C424.104 472.599 424.566 472.713 425.112 472.713C425.536 472.713 425.887 472.622 426.168 472.441C426.448 472.259 426.666 472.01 426.822 471.693C426.983 471.369 427.087 470.997 427.134 470.576C427.181 470.155 427.179 469.708 427.13 469.236ZM432.978 459.465L434.546 474.383H432.182L430.615 459.465H432.978ZM438.539 463.875L439.643 474.383H437.28L436.176 463.875H438.539ZM435.73 461.116C435.692 460.76 435.778 460.466 435.988 460.232C436.204 459.993 436.523 459.873 436.947 459.873C437.363 459.873 437.705 459.993 437.971 460.232C438.236 460.466 438.387 460.76 438.425 461.116C438.462 461.466 438.372 461.757 438.155 461.99C437.939 462.223 437.622 462.34 437.206 462.34C436.783 462.34 436.438 462.223 436.173 461.99C435.914 461.757 435.766 461.466 435.73 461.116ZM447.957 472.276L447.43 467.264C447.391 466.889 447.289 466.565 447.123 466.293C446.958 466.021 446.727 465.81 446.432 465.662C446.143 465.513 445.79 465.438 445.373 465.438C444.989 465.438 444.664 465.503 444.398 465.632C444.131 465.762 443.931 465.937 443.798 466.157C443.665 466.377 443.613 466.626 443.643 466.905H441.299C441.255 466.49 441.314 466.089 441.475 465.7C441.636 465.312 441.893 464.966 442.245 464.661C442.597 464.357 443.031 464.117 443.546 463.943C444.062 463.768 444.651 463.68 445.315 463.68C446.11 463.68 446.827 463.813 447.467 464.078C448.113 464.344 448.64 464.745 449.048 465.283C449.462 465.814 449.711 466.481 449.796 467.283L450.287 471.955C450.337 472.434 450.415 472.865 450.52 473.247C450.631 473.622 450.766 473.949 450.926 474.228L450.942 474.383H448.53C448.393 474.131 448.271 473.81 448.165 473.422C448.065 473.027 447.996 472.645 447.957 472.276ZM447.849 467.992L448.02 469.44H446.331C445.895 469.44 445.515 469.482 445.192 469.566C444.868 469.644 444.604 469.76 444.398 469.915C444.193 470.071 444.047 470.259 443.96 470.479C443.872 470.699 443.843 470.948 443.872 471.227C443.901 471.505 443.993 471.761 444.148 471.994C444.302 472.22 444.51 472.399 444.771 472.528C445.038 472.658 445.351 472.722 445.709 472.722C446.191 472.722 446.601 472.625 446.938 472.431C447.282 472.23 447.543 471.987 447.721 471.703C447.899 471.411 447.981 471.136 447.966 470.877L448.837 471.916C448.787 472.182 448.684 472.467 448.527 472.771C448.37 473.075 448.153 473.367 447.876 473.645C447.606 473.917 447.268 474.14 446.863 474.315C446.465 474.49 445.992 474.577 445.445 474.577C444.755 474.577 444.125 474.441 443.557 474.169C442.987 473.891 442.525 473.519 442.17 473.053C441.814 472.58 441.605 472.046 441.542 471.45C441.484 470.893 441.536 470.401 441.7 469.974C441.869 469.54 442.143 469.177 442.523 468.886C442.909 468.595 443.393 468.374 443.977 468.226C444.559 468.07 445.235 467.992 446.003 467.992H447.849ZM454.468 466.118L455.337 474.383H452.983L451.879 463.875H454.096L454.468 466.118ZM454.324 468.74L453.561 468.731C453.489 467.986 453.522 467.303 453.658 466.681C453.801 466.06 454.031 465.526 454.349 465.079C454.673 464.632 455.08 464.289 455.569 464.049C456.058 463.803 456.617 463.68 457.249 463.68C457.757 463.68 458.223 463.752 458.648 463.894C459.079 464.03 459.458 464.253 459.783 464.564C460.115 464.875 460.386 465.28 460.594 465.778C460.802 466.27 460.944 466.876 461.02 467.594L461.733 474.383H459.37L458.655 467.585C458.602 467.08 458.486 466.681 458.305 466.39C458.131 466.092 457.897 465.882 457.604 465.759C457.317 465.629 456.969 465.564 456.558 465.564C456.155 465.564 455.802 465.649 455.501 465.817C455.2 465.985 454.954 466.215 454.763 466.507C454.579 466.798 454.448 467.135 454.371 467.517C454.294 467.899 454.278 468.307 454.324 468.74ZM468.276 472.713C468.661 472.713 468.998 472.638 469.288 472.489C469.584 472.334 469.812 472.12 469.973 471.848C470.139 471.576 470.214 471.262 470.196 470.906H472.413C472.471 471.586 472.334 472.204 472.002 472.761C471.67 473.318 471.199 473.761 470.589 474.092C469.979 474.415 469.283 474.577 468.502 474.577C467.694 474.577 466.977 474.441 466.349 474.169C465.721 473.891 465.183 473.509 464.735 473.023C464.287 472.538 463.928 471.978 463.66 471.343C463.398 470.709 463.229 470.029 463.153 469.304L463.117 468.964C463.041 468.239 463.067 467.559 463.195 466.924C463.33 466.283 463.57 465.72 463.916 465.234C464.262 464.749 464.721 464.37 465.291 464.098C465.861 463.82 466.546 463.68 467.347 463.68C468.193 463.68 468.953 463.849 469.626 464.185C470.299 464.516 470.849 464.978 471.276 465.574C471.709 466.163 471.973 466.85 472.069 467.633H469.852C469.792 467.245 469.657 466.895 469.449 466.584C469.246 466.267 468.979 466.014 468.646 465.827C468.321 465.639 467.943 465.545 467.513 465.545C467.038 465.545 466.654 465.642 466.362 465.836C466.07 466.024 465.853 466.283 465.712 466.613C465.57 466.937 465.481 467.303 465.446 467.711C465.417 468.112 465.425 468.53 465.47 468.964L465.506 469.304C465.552 469.737 465.632 470.158 465.746 470.566C465.861 470.974 466.023 471.34 466.233 471.664C466.448 471.981 466.723 472.237 467.055 472.431C467.388 472.619 467.795 472.713 468.276 472.713ZM479.263 474.577C478.482 474.577 477.763 474.451 477.105 474.199C476.452 473.94 475.881 473.58 475.39 473.12C474.905 472.661 474.513 472.12 474.213 471.499C473.914 470.877 473.726 470.207 473.65 469.488L473.61 469.1C473.523 468.277 473.565 467.533 473.736 466.866C473.907 466.199 474.182 465.629 474.562 465.157C474.942 464.677 475.411 464.312 475.97 464.059C476.53 463.807 477.151 463.68 477.835 463.68C478.59 463.68 479.264 463.807 479.857 464.059C480.45 464.312 480.956 464.668 481.376 465.127C481.801 465.581 482.138 466.121 482.386 466.749C482.641 467.377 482.808 468.07 482.888 468.828L482.993 469.828H474.829L474.652 468.148H480.492L480.473 467.963C480.415 467.542 480.289 467.148 480.094 466.778C479.906 466.409 479.643 466.112 479.307 465.885C478.971 465.658 478.542 465.545 478.021 465.545C477.631 465.545 477.291 465.629 477.003 465.798C476.72 465.959 476.495 466.196 476.325 466.507C476.156 466.817 476.039 467.193 475.975 467.633C475.916 468.067 475.916 468.556 475.973 469.1L476.014 469.488C476.062 469.948 476.169 470.375 476.334 470.77C476.505 471.159 476.73 471.499 477.008 471.79C477.286 472.081 477.609 472.311 477.979 472.479C478.347 472.641 478.756 472.722 479.205 472.722C479.772 472.722 480.264 472.609 480.683 472.382C481.102 472.156 481.452 471.835 481.734 471.421L483.1 472.615C482.907 472.946 482.644 473.263 482.312 473.567C481.978 473.865 481.558 474.108 481.05 474.296C480.549 474.483 479.954 474.577 479.263 474.577ZM490.936 471.537C490.912 471.304 490.831 471.094 490.694 470.906C490.556 470.712 490.313 470.537 489.965 470.382C489.623 470.226 489.126 470.084 488.475 469.954C487.902 469.831 487.372 469.686 486.886 469.517C486.405 469.342 485.986 469.132 485.628 468.886C485.27 468.64 484.982 468.349 484.765 468.012C484.547 467.675 484.415 467.287 484.369 466.846C484.324 466.419 484.376 466.014 484.524 465.632C484.673 465.25 484.908 464.914 485.229 464.622C485.55 464.331 485.952 464.101 486.436 463.933C486.926 463.764 487.483 463.68 488.108 463.68C488.994 463.68 489.768 463.829 490.431 464.127C491.099 464.418 491.63 464.817 492.021 465.322C492.412 465.82 492.641 466.384 492.707 467.012H490.353C490.324 466.733 490.225 466.474 490.057 466.235C489.894 465.989 489.665 465.791 489.369 465.642C489.073 465.487 488.713 465.409 488.29 465.409C487.886 465.409 487.558 465.474 487.305 465.603C487.057 465.726 486.879 465.888 486.77 466.089C486.667 466.29 486.628 466.51 486.654 466.749C486.672 466.924 486.721 467.083 486.801 467.225C486.887 467.361 487.018 467.487 487.193 467.604C487.367 467.714 487.599 467.818 487.889 467.915C488.186 468.012 488.554 468.106 488.993 468.196C489.818 468.365 490.534 468.582 491.142 468.847C491.755 469.106 492.239 469.443 492.595 469.857C492.951 470.265 493.162 470.783 493.228 471.411C493.277 471.877 493.221 472.305 493.06 472.693C492.904 473.075 492.653 473.409 492.305 473.694C491.957 473.972 491.527 474.189 491.016 474.344C490.512 474.5 489.934 474.577 489.283 474.577C488.326 474.577 487.498 474.409 486.798 474.072C486.098 473.729 485.548 473.292 485.147 472.761C484.752 472.224 484.524 471.667 484.463 471.091H486.739C486.81 471.524 486.967 471.871 487.209 472.13C487.457 472.382 487.75 472.567 488.088 472.683C488.431 472.794 488.779 472.849 489.131 472.849C489.554 472.849 489.903 472.794 490.178 472.683C490.452 472.567 490.654 472.412 490.783 472.217C490.912 472.017 490.963 471.79 490.936 471.537Z" fill="black"/>
<path d="M404.852 341.284V400.543H464.111V341.284H404.852ZM461.132 344.263V353.629H407.831V344.263H461.132ZM407.831 397.564V356.609H461.132V397.564H407.831Z" fill="#150035"/>
<path d="M412.355 392.712H456.607V358.943H412.355V392.712ZM415.335 361.922H453.628V389.732H415.335V361.922Z" fill="#150035"/>
<path d="M446.402 384.766H424.884C424.06 384.766 423.395 385.432 423.395 386.256C423.395 387.081 424.06 387.746 424.884 387.746H446.402C447.227 387.746 447.892 387.081 447.892 386.256C447.892 385.432 447.227 384.766 446.402 384.766Z" fill="#150035"/>
<path d="M434.221 347.799H412.797V350.779H434.221V347.799Z" fill="#150035"/>
<path d="M427.437 381.568C427.437 382.393 428.102 383.058 428.927 383.058C429.751 383.058 430.417 382.393 430.417 381.568C430.417 379.358 429.657 378.171 429.046 377.218C428.525 376.404 428.147 375.813 428.147 374.472C428.147 373.131 428.525 372.545 429.046 371.726C429.657 370.772 430.417 369.585 430.417 367.375C430.417 366.551 429.751 365.885 428.927 365.885C428.102 365.885 427.437 366.551 427.437 367.375C427.437 368.716 427.06 369.302 426.538 370.122C425.927 371.075 425.167 372.262 425.167 374.472C425.167 376.682 425.927 377.869 426.538 378.822C427.06 379.636 427.437 380.227 427.437 381.568Z" fill="#150035"/>
<path d="M435.288 381.568C435.288 382.393 435.954 383.058 436.778 383.058C437.603 383.058 438.268 382.393 438.268 381.568C438.268 379.358 437.508 378.171 436.898 377.218C436.376 376.404 435.999 375.813 435.999 374.472C435.999 373.131 436.376 372.545 436.898 371.726C437.508 370.772 438.268 369.585 438.268 367.375C438.268 366.551 437.603 365.885 436.778 365.885C435.954 365.885 435.288 366.551 435.288 367.375C435.288 368.716 434.911 369.302 434.39 370.122C433.779 371.075 433.019 372.262 433.019 374.472C433.019 376.682 433.779 377.869 434.39 378.822C434.911 379.636 435.288 380.227 435.288 381.568Z" fill="#150035"/>
<path d="M443.135 381.568C443.135 382.393 443.8 383.058 444.625 383.058C445.449 383.058 446.114 382.393 446.114 381.568C446.114 379.358 445.355 378.171 444.744 377.218C444.222 376.404 443.845 375.813 443.845 374.472C443.845 373.131 444.222 372.545 444.744 371.726C445.355 370.772 446.114 369.585 446.114 367.375C446.114 366.551 445.449 365.885 444.625 365.885C443.8 365.885 443.135 366.551 443.135 367.375C443.135 368.716 442.757 369.302 442.236 370.122C441.625 371.075 440.865 372.262 440.865 374.472C440.865 376.682 441.625 377.869 442.236 378.822C442.757 379.636 443.135 380.227 443.135 381.568Z" fill="#150035"/>
<path d="M445.518 347.754H442.484V350.789H445.518V347.754Z" fill="#150035"/>
<path d="M450.966 347.754H447.932V350.789H450.966V347.754Z" fill="#150035"/>
<path d="M456.414 347.754H453.38V350.789H456.414V347.754Z" fill="#150035"/>
<path d="M186.496 215.303C187.182 215.877 187.882 216.464 188.333 217.355C187.379 217.905 186.431 217.88 185.499 217.856C185.287 217.85 185.075 217.845 184.864 217.846C183.18 217.858 181.496 217.869 179.812 217.88C172.842 217.925 165.873 217.97 158.91 218.062C156.231 218.092 153.547 218.281 150.864 218.469L150.863 218.469C149.932 218.539 149.007 218.699 148.105 218.949C147.315 219.162 146.754 220.168 146.942 220.884C147.127 221.618 147.603 222.16 148.393 222.213C149.551 222.298 150.717 222.331 151.889 222.311C152.927 222.293 153.964 222.248 155.001 222.203C156.183 222.152 157.365 222.1 158.546 222.089C168.13 221.977 177.71 221.9 187.305 221.842C187.497 221.841 187.69 221.835 187.884 221.829C188.816 221.802 189.753 221.775 190.606 222.197C190.58 222.89 190.19 223.129 189.82 223.356C189.7 223.429 189.583 223.502 189.48 223.588C188.986 223.997 188.482 224.394 187.977 224.791C187.013 225.549 186.048 226.308 185.156 227.153C184.323 227.945 183.673 228.956 183.095 229.96C182.732 230.549 182.666 231.302 183.673 231.721C183.941 231.589 184.216 231.459 184.495 231.328C185.128 231.03 185.781 230.722 186.409 230.352C188.955 228.851 191.482 227.338 194.012 225.822C194.791 225.355 195.57 224.889 196.35 224.422C196.851 224.117 197.34 223.776 197.749 223.37C198.651 222.463 198.817 221.227 198.09 220.173C197.63 219.508 197.056 218.9 196.456 218.358C194.042 216.224 191.613 214.121 189.182 212.016C188.518 211.441 187.855 210.866 187.191 210.291C187.016 210.143 186.823 209.993 186.626 209.878C185.76 209.336 184.767 209.469 184.085 210.192C183.504 210.823 183.308 211.754 183.799 212.458C184.334 213.221 184.988 213.893 185.644 214.549C185.912 214.813 186.203 215.057 186.496 215.303Z" fill="black"/>
<path d="M356.726 215.303C357.411 215.877 358.111 216.464 358.562 217.355C357.608 217.905 356.661 217.88 355.729 217.856C355.516 217.85 355.305 217.845 355.094 217.846C353.41 217.858 351.726 217.869 350.042 217.88C343.071 217.925 336.103 217.97 329.14 218.062C326.46 218.092 323.777 218.281 321.094 218.469L321.093 218.469C320.162 218.539 319.237 218.699 318.335 218.949C317.544 219.162 316.984 220.168 317.171 220.884C317.356 221.618 317.832 222.16 318.623 222.213C319.781 222.298 320.946 222.331 322.118 222.311C323.156 222.293 324.194 222.248 325.231 222.203C326.413 222.152 327.594 222.1 328.776 222.089C338.36 221.977 347.939 221.9 357.534 221.842C357.726 221.841 357.92 221.835 358.114 221.829C359.045 221.802 359.983 221.775 360.836 222.197C360.809 222.89 360.42 223.129 360.05 223.356C359.93 223.429 359.812 223.502 359.71 223.588C359.216 223.997 358.711 224.394 358.206 224.791C357.242 225.549 356.278 226.308 355.385 227.153C354.552 227.945 353.902 228.956 353.324 229.96C352.962 230.549 352.896 231.302 353.903 231.721C354.17 231.589 354.445 231.459 354.725 231.328C355.358 231.03 356.011 230.722 356.639 230.352C359.184 228.851 361.711 227.338 364.241 225.822C365.02 225.355 365.799 224.889 366.579 224.422C367.081 224.117 367.57 223.776 367.979 223.37C368.88 222.463 369.046 221.227 368.32 220.173C367.86 219.508 367.286 218.9 366.685 218.358C364.271 216.224 361.843 214.121 359.412 212.016C358.748 211.441 358.084 210.866 357.42 210.291C357.245 210.143 357.053 209.993 356.856 209.878C355.989 209.336 354.997 209.469 354.315 210.192C353.734 210.823 353.538 211.754 354.028 212.458C354.564 213.221 355.218 213.893 355.874 214.549C356.141 214.813 356.432 215.057 356.726 215.303Z" fill="black"/>
<path d="M340.058 121.491C340.952 121.487 341.865 121.482 342.785 121.872C342.412 122.908 341.673 123.501 340.945 124.084C340.78 124.217 340.614 124.35 340.454 124.487C339.176 125.583 337.897 126.679 336.619 127.775C331.326 132.312 326.035 136.847 320.778 141.414C318.752 143.167 316.825 145.044 314.898 146.921L314.898 146.922C314.232 147.576 313.629 148.295 313.102 149.069C312.636 149.742 312.857 150.872 313.463 151.298C314.078 151.739 314.792 151.845 315.43 151.375C316.369 150.692 317.279 149.964 318.162 149.192C318.942 148.508 319.705 147.804 320.468 147.099C321.337 146.297 322.206 145.495 323.101 144.723C330.346 138.448 337.61 132.202 344.898 125.962C345.044 125.836 345.188 125.707 345.332 125.578C346.026 124.955 346.724 124.329 347.648 124.101C348.075 124.646 347.932 125.081 347.796 125.493C347.752 125.626 347.709 125.758 347.686 125.889C347.573 126.521 347.445 127.15 347.316 127.779C347.069 128.98 346.823 130.183 346.687 131.405C346.563 132.547 346.72 133.739 346.927 134.878C347.03 135.562 347.466 136.18 348.506 135.849C348.624 135.575 348.751 135.299 348.879 135.018C349.17 134.382 349.47 133.725 349.71 133.037C350.685 130.247 351.636 127.46 352.589 124.669C352.882 123.809 353.176 122.95 353.47 122.09C353.656 121.533 353.809 120.956 353.859 120.382C353.962 119.108 353.29 118.057 352.055 117.721C351.274 117.511 350.443 117.417 349.635 117.392C346.414 117.321 343.201 117.284 339.985 117.247C339.108 117.237 338.23 117.227 337.351 117.216C337.122 117.216 336.878 117.226 336.653 117.266C335.642 117.412 334.97 118.154 334.917 119.147C334.88 120.003 335.332 120.84 336.161 121.061C337.062 121.298 337.996 121.389 338.92 121.466C339.295 121.495 339.675 121.493 340.058 121.491Z" fill="black"/>
<path d="M340.058 304.232C340.952 304.236 341.865 304.24 342.785 303.851C342.412 302.815 341.673 302.222 340.945 301.639C340.78 301.506 340.614 301.373 340.454 301.236C339.176 300.14 337.897 299.044 336.619 297.948C331.326 293.411 326.035 288.876 320.778 284.309C318.752 282.556 316.825 280.679 314.898 278.802L314.898 278.801C314.232 278.147 313.629 277.428 313.102 276.654C312.636 275.981 312.857 274.851 313.463 274.425C314.078 273.984 314.792 273.878 315.43 274.348C316.369 275.031 317.279 275.759 318.162 276.531C318.942 277.215 319.705 277.919 320.468 278.623C321.337 279.426 322.206 280.228 323.101 281C330.346 287.275 337.61 293.521 344.898 299.761C345.044 299.887 345.188 300.016 345.332 300.145C346.026 300.768 346.724 301.394 347.648 301.622C348.075 301.077 347.932 300.642 347.796 300.23C347.752 300.096 347.709 299.965 347.686 299.833C347.573 299.202 347.445 298.573 347.316 297.944C347.069 296.743 346.823 295.54 346.687 294.318C346.563 293.176 346.72 291.984 346.927 290.845C347.03 290.161 347.466 289.543 348.506 289.874C348.624 290.147 348.751 290.424 348.879 290.705C349.17 291.341 349.47 291.998 349.71 292.686C350.685 295.476 351.636 298.263 352.589 301.054C352.882 301.914 353.176 302.773 353.47 303.633C353.656 304.19 353.809 304.766 353.859 305.34C353.962 306.615 353.29 307.666 352.055 308.002C351.274 308.212 350.443 308.306 349.635 308.331C346.414 308.402 343.201 308.439 339.985 308.476C339.108 308.486 338.23 308.496 337.351 308.507C337.122 308.507 336.878 308.497 336.653 308.457C335.642 308.311 334.97 307.569 334.917 306.576C334.88 305.72 335.332 304.883 336.161 304.662C337.062 304.425 337.996 304.334 338.92 304.257C339.295 304.228 339.675 304.23 340.058 304.232Z" fill="black"/>
<defs>
<linearGradient id="paint0_linear_68_4885" x1="93.08" y1="12.9883" x2="42.4274" y2="91.6726" gradientUnits="userSpaceOnUse">
<stop stop-color="#FEBF0F"/>
<stop offset="1" stop-color="#FEBF0F" stop-opacity="0"/>
</linearGradient>
<linearGradient id="paint1_linear_68_4885" x1="23.6872" y1="47.0565" x2="10.0789" y2="19.9419" gradientUnits="userSpaceOnUse">
<stop stop-color="#FEBF0F"/>
<stop offset="1" stop-color="#FEBF0F" stop-opacity="0"/>
</linearGradient>
<linearGradient id="paint2_linear_68_4885" x1="289.586" y1="179.352" x2="226.71" y2="257.84" gradientUnits="userSpaceOnUse">
<stop stop-color="#FEBF0F"/>
<stop offset="1" stop-color="#FEBF0F" stop-opacity="0"/>
</linearGradient>
<linearGradient id="paint3_linear_68_4885" x1="446.054" y1="12.9883" x2="395.402" y2="91.6726" gradientUnits="userSpaceOnUse">
<stop stop-color="#FEBF0F"/>
<stop offset="1" stop-color="#FEBF0F" stop-opacity="0"/>
</linearGradient>
<linearGradient id="paint4_linear_68_4885" x1="376.661" y1="47.0565" x2="363.053" y2="19.9419" gradientUnits="userSpaceOnUse">
<stop stop-color="#FEBF0F"/>
<stop offset="1" stop-color="#FEBF0F" stop-opacity="0"/>
</linearGradient>
<linearGradient id="paint5_linear_68_4885" x1="93.08" y1="169.802" x2="42.4274" y2="248.486" gradientUnits="userSpaceOnUse">
<stop stop-color="#FEBF0F"/>
<stop offset="1" stop-color="#FEBF0F" stop-opacity="0"/>
</linearGradient>
<linearGradient id="paint6_linear_68_4885" x1="23.6872" y1="203.87" x2="10.0789" y2="176.756" gradientUnits="userSpaceOnUse">
<stop stop-color="#FEBF0F"/>
<stop offset="1" stop-color="#FEBF0F" stop-opacity="0"/>
</linearGradient>
<linearGradient id="paint7_linear_68_4885" x1="446.054" y1="169.802" x2="395.402" y2="248.486" gradientUnits="userSpaceOnUse">
<stop stop-color="#FEBF0F"/>
<stop offset="1" stop-color="#FEBF0F" stop-opacity="0"/>
</linearGradient>
<linearGradient id="paint8_linear_68_4885" x1="376.661" y1="203.87" x2="363.053" y2="176.756" gradientUnits="userSpaceOnUse">
<stop stop-color="#FEBF0F"/>
<stop offset="1" stop-color="#FEBF0F" stop-opacity="0"/>
</linearGradient>
<linearGradient id="paint9_linear_68_4885" x1="93.08" y1="323.274" x2="42.4274" y2="401.958" gradientUnits="userSpaceOnUse">
<stop stop-color="#FEBF0F"/>
<stop offset="1" stop-color="#FEBF0F" stop-opacity="0"/>
</linearGradient>
<linearGradient id="paint10_linear_68_4885" x1="23.6872" y1="357.341" x2="10.0789" y2="330.227" gradientUnits="userSpaceOnUse">
<stop stop-color="#FEBF0F"/>
<stop offset="1" stop-color="#FEBF0F" stop-opacity="0"/>
</linearGradient>
<linearGradient id="paint11_linear_68_4885" x1="446.054" y1="323.274" x2="395.402" y2="401.958" gradientUnits="userSpaceOnUse">
<stop stop-color="#FEBF0F"/>
<stop offset="1" stop-color="#FEBF0F" stop-opacity="0"/>
</linearGradient>
<linearGradient id="paint12_linear_68_4885" x1="376.661" y1="357.341" x2="363.053" y2="330.227" gradientUnits="userSpaceOnUse">
<stop stop-color="#FEBF0F"/>
<stop offset="1" stop-color="#FEBF0F" stop-opacity="0"/>
</linearGradient>
<clipPath id="clip0_68_4885">
<rect width="76.5442" height="97.2799" fill="white" transform="translate(217.943 176.409)"/>
</clipPath>
</defs>
</svg>
